G04*
G04 #@! TF.GenerationSoftware,Altium Limited,Altium Designer,26.7.1 (11)*
G04*
G04 Layer_Color=32768*
G04 Board_Origin=18897639|9055118*
%FSLAX44Y44*%
%MOMM*%
G71*
G04*
G04 #@! TF.SameCoordinates,9D334BE7-458A-4C32-9C0E-2377755E4B48*
G04*
G04*
G04 #@! TF.FilePolarity,Positive*
G04*
G01*
G75*
%ADD10C,0.2540*%
%ADD12C,0.1500*%
%ADD15C,0.1270*%
G36*
X112865Y-148121D02*
X112853D01*
X112831D01*
X112798D01*
X112754Y-148132D01*
X112643D01*
X112498Y-148154D01*
X112343Y-148176D01*
X112188Y-148209D01*
X112054Y-148254D01*
X111932Y-148309D01*
X111910Y-148320D01*
X111866Y-148354D01*
X111799Y-148409D01*
X111732Y-148498D01*
X111655Y-148598D01*
X111588Y-148731D01*
X111544Y-148886D01*
X111522Y-149064D01*
Y-149153D01*
X111533Y-149242D01*
X111555Y-149341D01*
X111588Y-149464D01*
X111644Y-149586D01*
X111710Y-149697D01*
X111810Y-149785D01*
X111821Y-149797D01*
X111877Y-149819D01*
X111954Y-149852D01*
X112077Y-149896D01*
X112154Y-149919D01*
X112243Y-149941D01*
X112343Y-149952D01*
X112454Y-149974D01*
X112587Y-149985D01*
X112720Y-149996D01*
X112876Y-150007D01*
X113042D01*
X118026D01*
Y-151561D01*
X113153D01*
X113142D01*
X113109D01*
X113064D01*
X112998D01*
X112920D01*
X112820Y-151550D01*
X112609Y-151539D01*
X112376Y-151517D01*
X112132Y-151484D01*
X111888Y-151439D01*
X111677Y-151384D01*
X111666D01*
X111644Y-151373D01*
X111610Y-151362D01*
X111566Y-151340D01*
X111444Y-151284D01*
X111288Y-151195D01*
X111122Y-151084D01*
X110944Y-150940D01*
X110767Y-150773D01*
X110600Y-150562D01*
Y-150551D01*
X110578Y-150540D01*
X110567Y-150507D01*
X110534Y-150451D01*
X110511Y-150396D01*
X110478Y-150329D01*
X110434Y-150241D01*
X110400Y-150152D01*
X110367Y-150041D01*
X110323Y-149930D01*
X110267Y-149663D01*
X110223Y-149353D01*
X110201Y-149009D01*
Y-148897D01*
X110212Y-148820D01*
X110223Y-148720D01*
X110234Y-148620D01*
X110256Y-148498D01*
X110278Y-148365D01*
X110356Y-148076D01*
X110412Y-147932D01*
X110467Y-147788D01*
X110545Y-147643D01*
X110622Y-147510D01*
X110722Y-147377D01*
X110833Y-147255D01*
X110844Y-147244D01*
X110867Y-147233D01*
X110900Y-147199D01*
X110955Y-147155D01*
X111022Y-147111D01*
X111100Y-147066D01*
X111200Y-147011D01*
X111299Y-146955D01*
X111433Y-146889D01*
X111566Y-146833D01*
X111721Y-146789D01*
X111888Y-146744D01*
X112065Y-146700D01*
X112265Y-146666D01*
X112476Y-146655D01*
X112698Y-146644D01*
X112865Y-148121D01*
D02*
G37*
G36*
X118059Y-155957D02*
Y-157200D01*
X113175D01*
Y-158155D01*
X111888D01*
Y-157200D01*
X110345D01*
Y-155779D01*
X111888D01*
Y-152627D01*
X113164D01*
X118059Y-155957D01*
D02*
G37*
G36*
X-103041Y-148876D02*
X-103052D01*
X-103074D01*
X-103108D01*
X-103152Y-148887D01*
X-103263D01*
X-103407Y-148909D01*
X-103563Y-148931D01*
X-103718Y-148965D01*
X-103851Y-149009D01*
X-103973Y-149065D01*
X-103996Y-149076D01*
X-104040Y-149109D01*
X-104107Y-149164D01*
X-104173Y-149253D01*
X-104251Y-149353D01*
X-104317Y-149486D01*
X-104362Y-149642D01*
X-104384Y-149819D01*
Y-149908D01*
X-104373Y-149997D01*
X-104351Y-150097D01*
X-104317Y-150219D01*
X-104262Y-150341D01*
X-104195Y-150452D01*
X-104095Y-150541D01*
X-104084Y-150552D01*
X-104029Y-150574D01*
X-103951Y-150607D01*
X-103829Y-150652D01*
X-103751Y-150674D01*
X-103663Y-150696D01*
X-103563Y-150707D01*
X-103452Y-150730D01*
X-103318Y-150741D01*
X-103185Y-150752D01*
X-103030Y-150763D01*
X-102863D01*
X-97879D01*
Y-152317D01*
X-102752D01*
X-102763D01*
X-102797D01*
X-102841D01*
X-102908D01*
X-102985D01*
X-103085Y-152306D01*
X-103296Y-152295D01*
X-103529Y-152272D01*
X-103773Y-152239D01*
X-104018Y-152195D01*
X-104229Y-152139D01*
X-104240D01*
X-104262Y-152128D01*
X-104295Y-152117D01*
X-104340Y-152095D01*
X-104462Y-152039D01*
X-104617Y-151950D01*
X-104784Y-151839D01*
X-104961Y-151695D01*
X-105139Y-151529D01*
X-105305Y-151318D01*
Y-151307D01*
X-105328Y-151296D01*
X-105339Y-151262D01*
X-105372Y-151207D01*
X-105394Y-151151D01*
X-105427Y-151085D01*
X-105472Y-150996D01*
X-105505Y-150907D01*
X-105538Y-150796D01*
X-105583Y-150685D01*
X-105638Y-150419D01*
X-105683Y-150108D01*
X-105705Y-149764D01*
Y-149653D01*
X-105694Y-149575D01*
X-105683Y-149475D01*
X-105672Y-149375D01*
X-105649Y-149253D01*
X-105627Y-149120D01*
X-105549Y-148831D01*
X-105494Y-148687D01*
X-105438Y-148543D01*
X-105361Y-148399D01*
X-105283Y-148265D01*
X-105183Y-148132D01*
X-105072Y-148010D01*
X-105061Y-147999D01*
X-105039Y-147988D01*
X-105006Y-147955D01*
X-104950Y-147910D01*
X-104883Y-147866D01*
X-104806Y-147821D01*
X-104706Y-147766D01*
X-104606Y-147710D01*
X-104473Y-147644D01*
X-104340Y-147588D01*
X-104184Y-147544D01*
X-104018Y-147499D01*
X-103840Y-147455D01*
X-103640Y-147422D01*
X-103429Y-147411D01*
X-103207Y-147400D01*
X-103041Y-148876D01*
D02*
G37*
G36*
X-99778Y-154037D02*
X-99767Y-154048D01*
X-99755Y-154082D01*
X-99744Y-154126D01*
X-99689Y-154237D01*
X-99622Y-154392D01*
X-99533Y-154581D01*
X-99411Y-154792D01*
X-99256Y-155025D01*
X-99078Y-155269D01*
X-99067Y-155280D01*
X-99056Y-155303D01*
X-99023Y-155336D01*
X-98978Y-155380D01*
X-98867Y-155502D01*
X-98723Y-155636D01*
X-98546Y-155791D01*
X-98323Y-155946D01*
X-98090Y-156091D01*
X-97835Y-156202D01*
Y-157400D01*
X-105561D01*
Y-155924D01*
X-100000D01*
X-100011Y-155913D01*
X-100033Y-155891D01*
X-100066Y-155847D01*
X-100122Y-155780D01*
X-100188Y-155702D01*
X-100255Y-155613D01*
X-100333Y-155502D01*
X-100421Y-155380D01*
X-100510Y-155247D01*
X-100599Y-155103D01*
X-100699Y-154947D01*
X-100788Y-154781D01*
X-100954Y-154426D01*
X-101110Y-154026D01*
X-99778D01*
Y-154037D01*
D02*
G37*
G36*
X25483Y-148270D02*
X25472D01*
X25450D01*
X25416D01*
X25372Y-148281D01*
X25261D01*
X25117Y-148304D01*
X24961Y-148326D01*
X24806Y-148359D01*
X24673Y-148404D01*
X24551Y-148459D01*
X24528Y-148470D01*
X24484Y-148504D01*
X24417Y-148559D01*
X24351Y-148648D01*
X24273Y-148748D01*
X24207Y-148881D01*
X24162Y-149036D01*
X24140Y-149214D01*
Y-149303D01*
X24151Y-149391D01*
X24173Y-149491D01*
X24207Y-149614D01*
X24262Y-149736D01*
X24329Y-149847D01*
X24429Y-149935D01*
X24440Y-149946D01*
X24495Y-149969D01*
X24573Y-150002D01*
X24695Y-150046D01*
X24773Y-150069D01*
X24861Y-150091D01*
X24961Y-150102D01*
X25072Y-150124D01*
X25206Y-150135D01*
X25339Y-150146D01*
X25494Y-150157D01*
X25661D01*
X30644D01*
Y-151711D01*
X25772D01*
X25761D01*
X25727D01*
X25683D01*
X25616D01*
X25538D01*
X25439Y-151700D01*
X25228Y-151689D01*
X24995Y-151667D01*
X24750Y-151634D01*
X24506Y-151589D01*
X24295Y-151534D01*
X24284D01*
X24262Y-151523D01*
X24229Y-151512D01*
X24184Y-151489D01*
X24062Y-151434D01*
X23907Y-151345D01*
X23740Y-151234D01*
X23563Y-151090D01*
X23385Y-150923D01*
X23219Y-150712D01*
Y-150701D01*
X23196Y-150690D01*
X23185Y-150657D01*
X23152Y-150601D01*
X23130Y-150546D01*
X23097Y-150479D01*
X23052Y-150391D01*
X23019Y-150302D01*
X22986Y-150191D01*
X22941Y-150080D01*
X22886Y-149813D01*
X22841Y-149502D01*
X22819Y-149158D01*
Y-149047D01*
X22830Y-148970D01*
X22841Y-148870D01*
X22852Y-148770D01*
X22875Y-148648D01*
X22897Y-148515D01*
X22975Y-148226D01*
X23030Y-148082D01*
X23085Y-147937D01*
X23163Y-147793D01*
X23241Y-147660D01*
X23341Y-147527D01*
X23452Y-147405D01*
X23463Y-147394D01*
X23485Y-147382D01*
X23518Y-147349D01*
X23574Y-147305D01*
X23640Y-147260D01*
X23718Y-147216D01*
X23818Y-147160D01*
X23918Y-147105D01*
X24051Y-147038D01*
X24184Y-146983D01*
X24340Y-146938D01*
X24506Y-146894D01*
X24684Y-146850D01*
X24884Y-146816D01*
X25094Y-146805D01*
X25317Y-146794D01*
X25483Y-148270D01*
D02*
G37*
G36*
X23041Y-152855D02*
X23097Y-152866D01*
X23163Y-152877D01*
X23241Y-152888D01*
X23441Y-152932D01*
X23663Y-152999D01*
X23907Y-153088D01*
X24173Y-153199D01*
X24429Y-153343D01*
X24440D01*
X24462Y-153365D01*
X24506Y-153387D01*
X24551Y-153432D01*
X24628Y-153476D01*
X24706Y-153543D01*
X24806Y-153621D01*
X24917Y-153709D01*
X25050Y-153809D01*
X25183Y-153931D01*
X25339Y-154065D01*
X25505Y-154220D01*
X25672Y-154386D01*
X25860Y-154575D01*
X26060Y-154775D01*
X26271Y-154997D01*
X26282Y-155008D01*
X26316Y-155041D01*
X26360Y-155086D01*
X26426Y-155152D01*
X26493Y-155241D01*
X26582Y-155330D01*
X26782Y-155530D01*
X26993Y-155730D01*
X27204Y-155929D01*
X27292Y-156018D01*
X27392Y-156107D01*
X27470Y-156173D01*
X27536Y-156218D01*
X27559Y-156229D01*
X27614Y-156262D01*
X27703Y-156318D01*
X27825Y-156373D01*
X27958Y-156429D01*
X28114Y-156484D01*
X28269Y-156518D01*
X28436Y-156529D01*
X28447D01*
X28458D01*
X28513D01*
X28613Y-156518D01*
X28724Y-156495D01*
X28846Y-156462D01*
X28968Y-156418D01*
X29090Y-156351D01*
X29201Y-156262D01*
X29213Y-156251D01*
X29246Y-156218D01*
X29290Y-156151D01*
X29335Y-156074D01*
X29379Y-155963D01*
X29423Y-155841D01*
X29457Y-155696D01*
X29468Y-155530D01*
Y-155452D01*
X29457Y-155363D01*
X29434Y-155263D01*
X29401Y-155141D01*
X29346Y-155019D01*
X29279Y-154897D01*
X29190Y-154786D01*
X29179Y-154775D01*
X29135Y-154742D01*
X29068Y-154697D01*
X28968Y-154653D01*
X28846Y-154597D01*
X28680Y-154553D01*
X28491Y-154508D01*
X28269Y-154486D01*
X28413Y-153021D01*
X28424D01*
X28469Y-153032D01*
X28524D01*
X28613Y-153054D01*
X28713Y-153066D01*
X28824Y-153099D01*
X28946Y-153132D01*
X29090Y-153165D01*
X29368Y-153276D01*
X29657Y-153410D01*
X29801Y-153498D01*
X29934Y-153598D01*
X30045Y-153709D01*
X30156Y-153831D01*
X30167Y-153842D01*
X30178Y-153865D01*
X30200Y-153898D01*
X30245Y-153954D01*
X30278Y-154020D01*
X30322Y-154109D01*
X30378Y-154198D01*
X30422Y-154309D01*
X30478Y-154431D01*
X30522Y-154564D01*
X30611Y-154853D01*
X30667Y-155197D01*
X30678Y-155374D01*
X30689Y-155563D01*
Y-155674D01*
X30678Y-155752D01*
X30667Y-155852D01*
X30656Y-155963D01*
X30633Y-156085D01*
X30611Y-156218D01*
X30533Y-156507D01*
X30422Y-156795D01*
X30356Y-156951D01*
X30278Y-157084D01*
X30178Y-157228D01*
X30067Y-157350D01*
X30056Y-157361D01*
X30045Y-157383D01*
X30001Y-157406D01*
X29956Y-157450D01*
X29901Y-157506D01*
X29823Y-157561D01*
X29745Y-157616D01*
X29645Y-157683D01*
X29423Y-157794D01*
X29168Y-157905D01*
X29024Y-157949D01*
X28868Y-157972D01*
X28702Y-157994D01*
X28535Y-158005D01*
X28513D01*
X28447D01*
X28347Y-157994D01*
X28225Y-157983D01*
X28069Y-157961D01*
X27903Y-157927D01*
X27725Y-157883D01*
X27548Y-157816D01*
X27525Y-157805D01*
X27470Y-157783D01*
X27370Y-157739D01*
X27248Y-157672D01*
X27104Y-157594D01*
X26937Y-157494D01*
X26760Y-157372D01*
X26571Y-157228D01*
X26560Y-157217D01*
X26504Y-157172D01*
X26426Y-157106D01*
X26316Y-157006D01*
X26182Y-156873D01*
X26005Y-156706D01*
X25816Y-156507D01*
X25583Y-156262D01*
X25572Y-156251D01*
X25561Y-156229D01*
X25527Y-156196D01*
X25483Y-156151D01*
X25372Y-156029D01*
X25239Y-155885D01*
X25094Y-155741D01*
X24950Y-155596D01*
X24828Y-155463D01*
X24773Y-155419D01*
X24728Y-155374D01*
X24717Y-155363D01*
X24695Y-155341D01*
X24650Y-155308D01*
X24595Y-155263D01*
X24473Y-155163D01*
X24329Y-155075D01*
Y-158005D01*
X22963D01*
Y-152844D01*
X22975D01*
X22997D01*
X23041Y-152855D01*
D02*
G37*
G36*
X-38780Y-148231D02*
X-38791D01*
X-38813D01*
X-38846D01*
X-38891Y-148242D01*
X-39002D01*
X-39146Y-148264D01*
X-39301Y-148286D01*
X-39457Y-148320D01*
X-39590Y-148364D01*
X-39712Y-148420D01*
X-39734Y-148431D01*
X-39779Y-148464D01*
X-39845Y-148519D01*
X-39912Y-148608D01*
X-39990Y-148708D01*
X-40056Y-148841D01*
X-40101Y-148997D01*
X-40123Y-149174D01*
Y-149263D01*
X-40112Y-149352D01*
X-40090Y-149452D01*
X-40056Y-149574D01*
X-40001Y-149696D01*
X-39934Y-149807D01*
X-39834Y-149896D01*
X-39823Y-149907D01*
X-39768Y-149929D01*
X-39690Y-149962D01*
X-39568Y-150007D01*
X-39490Y-150029D01*
X-39401Y-150051D01*
X-39301Y-150062D01*
X-39190Y-150084D01*
X-39057Y-150096D01*
X-38924Y-150107D01*
X-38769Y-150118D01*
X-38602D01*
X-33618D01*
Y-151672D01*
X-38491D01*
X-38502D01*
X-38535D01*
X-38580D01*
X-38647D01*
X-38724D01*
X-38824Y-151661D01*
X-39035Y-151650D01*
X-39268Y-151627D01*
X-39512Y-151594D01*
X-39757Y-151550D01*
X-39967Y-151494D01*
X-39978D01*
X-40001Y-151483D01*
X-40034Y-151472D01*
X-40078Y-151450D01*
X-40201Y-151394D01*
X-40356Y-151305D01*
X-40522Y-151194D01*
X-40700Y-151050D01*
X-40878Y-150884D01*
X-41044Y-150673D01*
Y-150662D01*
X-41066Y-150651D01*
X-41077Y-150617D01*
X-41111Y-150562D01*
X-41133Y-150506D01*
X-41166Y-150440D01*
X-41211Y-150351D01*
X-41244Y-150262D01*
X-41277Y-150151D01*
X-41322Y-150040D01*
X-41377Y-149774D01*
X-41421Y-149463D01*
X-41444Y-149119D01*
Y-149008D01*
X-41433Y-148930D01*
X-41421Y-148830D01*
X-41410Y-148730D01*
X-41388Y-148608D01*
X-41366Y-148475D01*
X-41288Y-148186D01*
X-41233Y-148042D01*
X-41177Y-147898D01*
X-41100Y-147753D01*
X-41022Y-147620D01*
X-40922Y-147487D01*
X-40811Y-147365D01*
X-40800Y-147354D01*
X-40778Y-147343D01*
X-40744Y-147310D01*
X-40689Y-147265D01*
X-40622Y-147221D01*
X-40545Y-147176D01*
X-40445Y-147121D01*
X-40345Y-147065D01*
X-40212Y-146999D01*
X-40078Y-146943D01*
X-39923Y-146899D01*
X-39757Y-146854D01*
X-39579Y-146810D01*
X-39379Y-146777D01*
X-39168Y-146766D01*
X-38946Y-146755D01*
X-38780Y-148231D01*
D02*
G37*
G36*
X-39102Y-154358D02*
X-39113D01*
X-39124D01*
X-39190Y-154369D01*
X-39290Y-154391D01*
X-39412Y-154424D01*
X-39546Y-154480D01*
X-39690Y-154536D01*
X-39823Y-154624D01*
X-39945Y-154724D01*
X-39956Y-154735D01*
X-39990Y-154780D01*
X-40034Y-154846D01*
X-40078Y-154924D01*
X-40134Y-155035D01*
X-40178Y-155157D01*
X-40212Y-155290D01*
X-40223Y-155446D01*
Y-155468D01*
X-40212Y-155523D01*
X-40201Y-155601D01*
X-40178Y-155712D01*
X-40134Y-155834D01*
X-40078Y-155956D01*
X-39990Y-156089D01*
X-39879Y-156212D01*
X-39867Y-156223D01*
X-39812Y-156267D01*
X-39734Y-156311D01*
X-39634Y-156378D01*
X-39501Y-156433D01*
X-39335Y-156489D01*
X-39146Y-156522D01*
X-38935Y-156533D01*
X-38924D01*
X-38913D01*
X-38846D01*
X-38746Y-156522D01*
X-38613Y-156500D01*
X-38469Y-156456D01*
X-38325Y-156400D01*
X-38180Y-156322D01*
X-38047Y-156223D01*
X-38036Y-156212D01*
X-37992Y-156167D01*
X-37936Y-156101D01*
X-37881Y-156023D01*
X-37814Y-155912D01*
X-37770Y-155790D01*
X-37725Y-155657D01*
X-37714Y-155501D01*
Y-155390D01*
X-37725Y-155312D01*
X-37736Y-155213D01*
X-37759Y-155091D01*
X-37792Y-154968D01*
X-37825Y-154824D01*
X-36637Y-154979D01*
Y-155079D01*
X-36626Y-155190D01*
X-36615Y-155324D01*
X-36582Y-155468D01*
X-36538Y-155623D01*
X-36471Y-155768D01*
X-36382Y-155901D01*
X-36371Y-155912D01*
X-36327Y-155956D01*
X-36271Y-156001D01*
X-36182Y-156067D01*
X-36082Y-156123D01*
X-35960Y-156178D01*
X-35816Y-156212D01*
X-35650Y-156223D01*
X-35627D01*
X-35583D01*
X-35516Y-156212D01*
X-35428Y-156189D01*
X-35328Y-156167D01*
X-35228Y-156123D01*
X-35117Y-156067D01*
X-35028Y-155990D01*
X-35017Y-155978D01*
X-34995Y-155945D01*
X-34950Y-155901D01*
X-34906Y-155823D01*
X-34873Y-155734D01*
X-34828Y-155634D01*
X-34806Y-155501D01*
X-34795Y-155368D01*
Y-155301D01*
X-34806Y-155235D01*
X-34828Y-155146D01*
X-34862Y-155046D01*
X-34906Y-154935D01*
X-34973Y-154824D01*
X-35061Y-154724D01*
X-35072Y-154713D01*
X-35106Y-154680D01*
X-35172Y-154635D01*
X-35261Y-154580D01*
X-35361Y-154524D01*
X-35494Y-154480D01*
X-35650Y-154436D01*
X-35827Y-154402D01*
X-35605Y-153048D01*
X-35594D01*
X-35572Y-153059D01*
X-35539D01*
X-35483Y-153070D01*
X-35361Y-153104D01*
X-35194Y-153148D01*
X-35017Y-153215D01*
X-34828Y-153281D01*
X-34651Y-153370D01*
X-34484Y-153470D01*
X-34462Y-153481D01*
X-34418Y-153525D01*
X-34340Y-153592D01*
X-34240Y-153681D01*
X-34140Y-153792D01*
X-34029Y-153925D01*
X-33918Y-154092D01*
X-33818Y-154269D01*
Y-154280D01*
X-33807Y-154291D01*
X-33785Y-154358D01*
X-33740Y-154469D01*
X-33696Y-154602D01*
X-33652Y-154769D01*
X-33607Y-154968D01*
X-33585Y-155179D01*
X-33574Y-155412D01*
Y-155512D01*
X-33585Y-155590D01*
X-33596Y-155690D01*
X-33607Y-155790D01*
X-33629Y-155912D01*
X-33663Y-156034D01*
X-33740Y-156311D01*
X-33796Y-156456D01*
X-33874Y-156611D01*
X-33951Y-156755D01*
X-34040Y-156889D01*
X-34151Y-157033D01*
X-34273Y-157155D01*
X-34284Y-157166D01*
X-34295Y-157177D01*
X-34329Y-157211D01*
X-34373Y-157244D01*
X-34484Y-157333D01*
X-34639Y-157432D01*
X-34828Y-157532D01*
X-35050Y-157610D01*
X-35294Y-157677D01*
X-35417Y-157688D01*
X-35550Y-157699D01*
X-35561D01*
X-35594D01*
X-35650Y-157688D01*
X-35716Y-157677D01*
X-35805Y-157666D01*
X-35905Y-157643D01*
X-36016Y-157610D01*
X-36138Y-157566D01*
X-36260Y-157499D01*
X-36393Y-157432D01*
X-36527Y-157344D01*
X-36660Y-157233D01*
X-36793Y-157100D01*
X-36926Y-156955D01*
X-37048Y-156789D01*
X-37170Y-156589D01*
Y-156600D01*
X-37181Y-156622D01*
Y-156656D01*
X-37204Y-156700D01*
X-37237Y-156822D01*
X-37304Y-156966D01*
X-37392Y-157133D01*
X-37503Y-157310D01*
X-37648Y-157488D01*
X-37814Y-157643D01*
X-37836Y-157666D01*
X-37903Y-157710D01*
X-38003Y-157766D01*
X-38147Y-157843D01*
X-38314Y-157921D01*
X-38524Y-157976D01*
X-38746Y-158021D01*
X-39002Y-158043D01*
X-39013D01*
X-39046D01*
X-39102D01*
X-39168Y-158032D01*
X-39257Y-158021D01*
X-39357Y-157999D01*
X-39479Y-157976D01*
X-39601Y-157954D01*
X-39867Y-157865D01*
X-40012Y-157799D01*
X-40167Y-157732D01*
X-40311Y-157643D01*
X-40456Y-157543D01*
X-40600Y-157432D01*
X-40733Y-157299D01*
X-40744Y-157288D01*
X-40767Y-157266D01*
X-40800Y-157222D01*
X-40844Y-157166D01*
X-40900Y-157088D01*
X-40955Y-157011D01*
X-41022Y-156900D01*
X-41089Y-156789D01*
X-41155Y-156667D01*
X-41222Y-156522D01*
X-41277Y-156367D01*
X-41333Y-156212D01*
X-41377Y-156034D01*
X-41410Y-155856D01*
X-41433Y-155657D01*
X-41444Y-155457D01*
Y-155357D01*
X-41433Y-155279D01*
X-41421Y-155190D01*
X-41410Y-155091D01*
X-41388Y-154979D01*
X-41366Y-154846D01*
X-41299Y-154580D01*
X-41188Y-154291D01*
X-41122Y-154136D01*
X-41044Y-154003D01*
X-40944Y-153858D01*
X-40844Y-153725D01*
X-40833Y-153714D01*
X-40811Y-153692D01*
X-40778Y-153659D01*
X-40733Y-153614D01*
X-40678Y-153559D01*
X-40600Y-153503D01*
X-40522Y-153437D01*
X-40423Y-153370D01*
X-40311Y-153303D01*
X-40201Y-153226D01*
X-39934Y-153104D01*
X-39623Y-153004D01*
X-39457Y-152959D01*
X-39279Y-152937D01*
X-39102Y-154358D01*
D02*
G37*
G36*
X272392Y-148159D02*
X272381D01*
X272359D01*
X272326D01*
X272281Y-148170D01*
X272170D01*
X272026Y-148192D01*
X271871Y-148214D01*
X271715Y-148248D01*
X271582Y-148292D01*
X271460Y-148348D01*
X271438Y-148359D01*
X271393Y-148392D01*
X271327Y-148448D01*
X271260Y-148536D01*
X271182Y-148636D01*
X271116Y-148769D01*
X271071Y-148925D01*
X271049Y-149102D01*
Y-149191D01*
X271060Y-149280D01*
X271082Y-149380D01*
X271116Y-149502D01*
X271171Y-149624D01*
X271238Y-149735D01*
X271338Y-149824D01*
X271349Y-149835D01*
X271404Y-149857D01*
X271482Y-149890D01*
X271604Y-149935D01*
X271682Y-149957D01*
X271771Y-149979D01*
X271871Y-149990D01*
X271982Y-150013D01*
X272115Y-150024D01*
X272248Y-150035D01*
X272403Y-150046D01*
X272570D01*
X277554D01*
Y-151600D01*
X272681D01*
X272670D01*
X272636D01*
X272592D01*
X272525D01*
X272448D01*
X272348Y-151589D01*
X272137Y-151578D01*
X271904Y-151555D01*
X271660Y-151522D01*
X271416Y-151478D01*
X271205Y-151422D01*
X271194D01*
X271171Y-151411D01*
X271138Y-151400D01*
X271094Y-151378D01*
X270972Y-151322D01*
X270816Y-151234D01*
X270650Y-151123D01*
X270472Y-150978D01*
X270294Y-150812D01*
X270128Y-150601D01*
Y-150590D01*
X270106Y-150579D01*
X270095Y-150545D01*
X270061Y-150490D01*
X270039Y-150434D01*
X270006Y-150368D01*
X269961Y-150279D01*
X269928Y-150190D01*
X269895Y-150079D01*
X269850Y-149968D01*
X269795Y-149702D01*
X269750Y-149391D01*
X269728Y-149047D01*
Y-148936D01*
X269739Y-148858D01*
X269750Y-148758D01*
X269762Y-148658D01*
X269784Y-148536D01*
X269806Y-148403D01*
X269884Y-148115D01*
X269939Y-147970D01*
X269995Y-147826D01*
X270072Y-147682D01*
X270150Y-147548D01*
X270250Y-147415D01*
X270361Y-147293D01*
X270372Y-147282D01*
X270394Y-147271D01*
X270428Y-147238D01*
X270483Y-147193D01*
X270550Y-147149D01*
X270627Y-147104D01*
X270727Y-147049D01*
X270827Y-146993D01*
X270960Y-146927D01*
X271094Y-146871D01*
X271249Y-146827D01*
X271416Y-146783D01*
X271593Y-146738D01*
X271793Y-146705D01*
X272004Y-146694D01*
X272226Y-146683D01*
X272392Y-148159D01*
D02*
G37*
G36*
X271982Y-154408D02*
X271959D01*
X271904Y-154419D01*
X271804Y-154441D01*
X271693Y-154475D01*
X271571Y-154519D01*
X271438Y-154586D01*
X271316Y-154675D01*
X271194Y-154774D01*
X271182Y-154785D01*
X271149Y-154830D01*
X271105Y-154896D01*
X271049Y-154985D01*
X270994Y-155085D01*
X270949Y-155207D01*
X270916Y-155352D01*
X270905Y-155496D01*
Y-155518D01*
X270916Y-155574D01*
X270927Y-155662D01*
X270949Y-155773D01*
X270994Y-155896D01*
X271060Y-156029D01*
X271160Y-156162D01*
X271282Y-156284D01*
X271304Y-156295D01*
X271349Y-156340D01*
X271438Y-156384D01*
X271571Y-156451D01*
X271726Y-156506D01*
X271915Y-156561D01*
X272148Y-156595D01*
X272414Y-156606D01*
X272425D01*
X272448D01*
X272481D01*
X272537D01*
X272659Y-156595D01*
X272814Y-156561D01*
X272992Y-156528D01*
X273169Y-156473D01*
X273336Y-156395D01*
X273480Y-156284D01*
X273491Y-156273D01*
X273535Y-156229D01*
X273591Y-156151D01*
X273669Y-156062D01*
X273735Y-155940D01*
X273791Y-155796D01*
X273835Y-155629D01*
X273846Y-155451D01*
Y-155385D01*
X273835Y-155340D01*
X273813Y-155230D01*
X273780Y-155074D01*
X273713Y-154896D01*
X273613Y-154708D01*
X273547Y-154608D01*
X273469Y-154508D01*
X273380Y-154408D01*
X273280Y-154308D01*
X273447Y-153120D01*
X277454Y-153875D01*
Y-157771D01*
X276077D01*
Y-154985D01*
X274768Y-154752D01*
Y-154763D01*
X274779Y-154774D01*
X274812Y-154841D01*
X274845Y-154941D01*
X274901Y-155063D01*
X274945Y-155218D01*
X274979Y-155385D01*
X275012Y-155574D01*
X275023Y-155762D01*
Y-155862D01*
X275012Y-155929D01*
X275001Y-156006D01*
X274990Y-156106D01*
X274967Y-156217D01*
X274934Y-156340D01*
X274845Y-156595D01*
X274790Y-156739D01*
X274723Y-156872D01*
X274634Y-157017D01*
X274534Y-157161D01*
X274424Y-157294D01*
X274301Y-157427D01*
X274290Y-157438D01*
X274268Y-157460D01*
X274224Y-157494D01*
X274168Y-157538D01*
X274102Y-157583D01*
X274013Y-157649D01*
X273913Y-157705D01*
X273802Y-157771D01*
X273680Y-157838D01*
X273535Y-157893D01*
X273380Y-157960D01*
X273225Y-158004D01*
X273047Y-158049D01*
X272858Y-158082D01*
X272659Y-158104D01*
X272448Y-158115D01*
X272437D01*
X272403D01*
X272359D01*
X272292Y-158104D01*
X272204D01*
X272104Y-158082D01*
X271993Y-158071D01*
X271882Y-158049D01*
X271615Y-157982D01*
X271327Y-157882D01*
X271171Y-157816D01*
X271027Y-157749D01*
X270883Y-157660D01*
X270738Y-157560D01*
X270727Y-157549D01*
X270694Y-157527D01*
X270650Y-157483D01*
X270583Y-157427D01*
X270505Y-157350D01*
X270417Y-157250D01*
X270328Y-157139D01*
X270239Y-157017D01*
X270139Y-156872D01*
X270050Y-156717D01*
X269961Y-156550D01*
X269884Y-156362D01*
X269817Y-156162D01*
X269773Y-155951D01*
X269739Y-155718D01*
X269728Y-155474D01*
Y-155374D01*
X269739Y-155296D01*
X269750Y-155207D01*
X269762Y-155096D01*
X269773Y-154985D01*
X269795Y-154852D01*
X269862Y-154586D01*
X269972Y-154286D01*
X270028Y-154142D01*
X270106Y-153997D01*
X270194Y-153864D01*
X270294Y-153731D01*
X270306Y-153720D01*
X270317Y-153698D01*
X270350Y-153664D01*
X270394Y-153620D01*
X270461Y-153576D01*
X270527Y-153509D01*
X270605Y-153454D01*
X270694Y-153387D01*
X270805Y-153309D01*
X270916Y-153243D01*
X271182Y-153120D01*
X271482Y-153010D01*
X271649Y-152976D01*
X271826Y-152943D01*
X271982Y-154408D01*
D02*
G37*
G36*
X388781Y-141979D02*
X388881Y-141990D01*
X388981Y-142001D01*
X389103Y-142023D01*
X389236Y-142045D01*
X389525Y-142123D01*
X389669Y-142178D01*
X389814Y-142234D01*
X389958Y-142311D01*
X390091Y-142389D01*
X390224Y-142489D01*
X390346Y-142600D01*
X390358Y-142611D01*
X390369Y-142633D01*
X390402Y-142667D01*
X390446Y-142722D01*
X390491Y-142789D01*
X390535Y-142866D01*
X390591Y-142966D01*
X390646Y-143066D01*
X390713Y-143199D01*
X390768Y-143333D01*
X390813Y-143488D01*
X390857Y-143654D01*
X390901Y-143832D01*
X390935Y-144032D01*
X390946Y-144243D01*
X390957Y-144465D01*
X389481Y-144631D01*
Y-144620D01*
Y-144598D01*
Y-144565D01*
X389470Y-144520D01*
Y-144409D01*
X389447Y-144265D01*
X389425Y-144110D01*
X389392Y-143954D01*
X389347Y-143821D01*
X389292Y-143699D01*
X389281Y-143677D01*
X389248Y-143632D01*
X389192Y-143566D01*
X389103Y-143499D01*
X389003Y-143421D01*
X388870Y-143355D01*
X388715Y-143310D01*
X388537Y-143288D01*
X388448D01*
X388360Y-143299D01*
X388260Y-143322D01*
X388138Y-143355D01*
X388016Y-143410D01*
X387905Y-143477D01*
X387816Y-143577D01*
X387805Y-143588D01*
X387783Y-143643D01*
X387749Y-143721D01*
X387705Y-143843D01*
X387683Y-143921D01*
X387660Y-144010D01*
X387649Y-144110D01*
X387627Y-144221D01*
X387616Y-144354D01*
X387605Y-144487D01*
X387594Y-144642D01*
Y-144809D01*
Y-149793D01*
X386040D01*
Y-144920D01*
Y-144909D01*
Y-144875D01*
Y-144831D01*
Y-144764D01*
Y-144687D01*
X386051Y-144587D01*
X386062Y-144376D01*
X386084Y-144143D01*
X386118Y-143899D01*
X386162Y-143654D01*
X386217Y-143444D01*
Y-143433D01*
X386228Y-143410D01*
X386240Y-143377D01*
X386262Y-143333D01*
X386317Y-143210D01*
X386406Y-143055D01*
X386517Y-142889D01*
X386661Y-142711D01*
X386828Y-142533D01*
X387039Y-142367D01*
X387050D01*
X387061Y-142345D01*
X387094Y-142334D01*
X387150Y-142300D01*
X387205Y-142278D01*
X387272Y-142245D01*
X387361Y-142200D01*
X387449Y-142167D01*
X387561Y-142134D01*
X387672Y-142090D01*
X387938Y-142034D01*
X388249Y-141990D01*
X388593Y-141967D01*
X388704D01*
X388781Y-141979D01*
D02*
G37*
G36*
X383687Y-142134D02*
Y-142178D01*
X383675Y-142267D01*
Y-142389D01*
X383664Y-142533D01*
X383642Y-142700D01*
X383620Y-142900D01*
X383587Y-143111D01*
X383553Y-143344D01*
X383509Y-143599D01*
X383453Y-143865D01*
X383398Y-144154D01*
X383320Y-144443D01*
X383243Y-144742D01*
X383143Y-145042D01*
X383032Y-145353D01*
X383021Y-145375D01*
X382998Y-145430D01*
X382965Y-145519D01*
X382921Y-145630D01*
X382854Y-145775D01*
X382776Y-145952D01*
X382688Y-146141D01*
X382588Y-146352D01*
X382477Y-146574D01*
X382355Y-146807D01*
X382221Y-147062D01*
X382066Y-147306D01*
X381744Y-147828D01*
X381378Y-148328D01*
X384719D01*
Y-149693D01*
X379680D01*
Y-148627D01*
X379691Y-148616D01*
X379713Y-148594D01*
X379746Y-148561D01*
X379791Y-148516D01*
X379846Y-148450D01*
X379913Y-148372D01*
X379990Y-148283D01*
X380079Y-148172D01*
X380168Y-148050D01*
X380268Y-147917D01*
X380379Y-147773D01*
X380490Y-147617D01*
X380601Y-147440D01*
X380712Y-147262D01*
X380834Y-147062D01*
X380956Y-146851D01*
X380967Y-146840D01*
X380989Y-146796D01*
X381023Y-146740D01*
X381067Y-146651D01*
X381111Y-146552D01*
X381178Y-146418D01*
X381245Y-146274D01*
X381322Y-146119D01*
X381400Y-145941D01*
X381478Y-145752D01*
X381567Y-145553D01*
X381644Y-145342D01*
X381800Y-144887D01*
X381944Y-144409D01*
Y-144398D01*
X381955Y-144354D01*
X381977Y-144287D01*
X382000Y-144187D01*
X382022Y-144076D01*
X382044Y-143954D01*
X382077Y-143799D01*
X382110Y-143643D01*
X382144Y-143466D01*
X382166Y-143288D01*
X382221Y-142900D01*
X382255Y-142500D01*
X382266Y-142112D01*
X383687D01*
Y-142134D01*
D02*
G37*
G36*
X33279Y-44689D02*
X31802D01*
Y-39128D01*
X31791Y-39139D01*
X31769Y-39161D01*
X31725Y-39194D01*
X31658Y-39250D01*
X31580Y-39316D01*
X31492Y-39383D01*
X31381Y-39461D01*
X31258Y-39550D01*
X31125Y-39638D01*
X30981Y-39727D01*
X30826Y-39827D01*
X30659Y-39916D01*
X30304Y-40082D01*
X29904Y-40238D01*
Y-38906D01*
X29915D01*
X29927Y-38895D01*
X29960Y-38884D01*
X30004Y-38872D01*
X30115Y-38817D01*
X30271Y-38750D01*
X30459Y-38662D01*
X30670Y-38540D01*
X30903Y-38384D01*
X31147Y-38207D01*
X31159Y-38195D01*
X31181Y-38184D01*
X31214Y-38151D01*
X31258Y-38107D01*
X31381Y-37996D01*
X31514Y-37851D01*
X31669Y-37674D01*
X31825Y-37452D01*
X31969Y-37219D01*
X32080Y-36963D01*
X33279D01*
Y-44689D01*
D02*
G37*
G36*
X25642Y-37019D02*
X25931D01*
X26241Y-37041D01*
X26552Y-37063D01*
X26685Y-37074D01*
X26818Y-37085D01*
X26930Y-37108D01*
X27018Y-37130D01*
X27029D01*
X27052Y-37141D01*
X27085Y-37152D01*
X27129Y-37163D01*
X27251Y-37219D01*
X27407Y-37285D01*
X27573Y-37385D01*
X27762Y-37518D01*
X27940Y-37685D01*
X28117Y-37885D01*
Y-37896D01*
X28139Y-37907D01*
X28162Y-37940D01*
X28184Y-37984D01*
X28228Y-38051D01*
X28261Y-38118D01*
X28306Y-38195D01*
X28350Y-38284D01*
X28428Y-38506D01*
X28506Y-38750D01*
X28550Y-39050D01*
X28572Y-39372D01*
Y-39383D01*
Y-39405D01*
Y-39439D01*
Y-39494D01*
X28561Y-39550D01*
Y-39627D01*
X28539Y-39783D01*
X28506Y-39971D01*
X28461Y-40182D01*
X28395Y-40382D01*
X28306Y-40571D01*
X28295Y-40593D01*
X28261Y-40648D01*
X28206Y-40737D01*
X28128Y-40848D01*
X28040Y-40959D01*
X27917Y-41093D01*
X27795Y-41214D01*
X27651Y-41325D01*
X27629Y-41337D01*
X27584Y-41370D01*
X27507Y-41414D01*
X27407Y-41470D01*
X27285Y-41536D01*
X27152Y-41592D01*
X27007Y-41647D01*
X26852Y-41692D01*
X26830D01*
X26796Y-41703D01*
X26752D01*
X26696Y-41714D01*
X26619Y-41725D01*
X26541Y-41736D01*
X26441D01*
X26341Y-41747D01*
X26219Y-41758D01*
X26086Y-41769D01*
X25942Y-41781D01*
X25786D01*
X25620Y-41792D01*
X24243D01*
Y-44689D01*
X22689D01*
Y-37008D01*
X25520D01*
X25642Y-37019D01*
D02*
G37*
G36*
X-361110Y187830D02*
X-361121Y187708D01*
Y187419D01*
X-361143Y187109D01*
X-361165Y186798D01*
X-361176Y186665D01*
X-361187Y186531D01*
X-361209Y186420D01*
X-361232Y186332D01*
Y186320D01*
X-361243Y186298D01*
X-361254Y186265D01*
X-361265Y186221D01*
X-361320Y186098D01*
X-361387Y185943D01*
X-361487Y185777D01*
X-361620Y185588D01*
X-361787Y185410D01*
X-361986Y185233D01*
X-361997D01*
X-362009Y185210D01*
X-362042Y185188D01*
X-362086Y185166D01*
X-362153Y185122D01*
X-362220Y185088D01*
X-362297Y185044D01*
X-362386Y185000D01*
X-362608Y184922D01*
X-362852Y184844D01*
X-363152Y184800D01*
X-363474Y184778D01*
X-363485D01*
X-363507D01*
X-363540D01*
X-363596D01*
X-363651Y184789D01*
X-363729D01*
X-363885Y184811D01*
X-364073Y184844D01*
X-364284Y184889D01*
X-364484Y184955D01*
X-364673Y185044D01*
X-364695Y185055D01*
X-364750Y185088D01*
X-364839Y185144D01*
X-364950Y185222D01*
X-365061Y185310D01*
X-365194Y185432D01*
X-365316Y185555D01*
X-365427Y185699D01*
X-365438Y185721D01*
X-365472Y185765D01*
X-365516Y185843D01*
X-365572Y185943D01*
X-365638Y186065D01*
X-365694Y186198D01*
X-365749Y186343D01*
X-365794Y186498D01*
Y186520D01*
X-365805Y186554D01*
Y186598D01*
X-365816Y186653D01*
X-365827Y186731D01*
X-365838Y186809D01*
Y186909D01*
X-365849Y187009D01*
X-365860Y187131D01*
X-365871Y187264D01*
X-365882Y187408D01*
Y187564D01*
X-365894Y187730D01*
Y189107D01*
X-368791D01*
Y190660D01*
X-361110D01*
Y187830D01*
D02*
G37*
G36*
X-366371Y183845D02*
X-366227Y183823D01*
X-366049Y183779D01*
X-365849Y183734D01*
X-365649Y183657D01*
X-365449Y183557D01*
X-365438D01*
X-365427Y183546D01*
X-365361Y183501D01*
X-365272Y183424D01*
X-365150Y183312D01*
X-365017Y183179D01*
X-364883Y183013D01*
X-364761Y182813D01*
X-364639Y182580D01*
Y182591D01*
X-364628Y182602D01*
X-364595Y182669D01*
X-364539Y182769D01*
X-364473Y182891D01*
X-364373Y183035D01*
X-364262Y183168D01*
X-364129Y183301D01*
X-363984Y183412D01*
X-363962Y183424D01*
X-363907Y183457D01*
X-363829Y183490D01*
X-363707Y183535D01*
X-363574Y183590D01*
X-363407Y183623D01*
X-363241Y183657D01*
X-363052Y183668D01*
X-363041D01*
X-363019D01*
X-362974D01*
X-362908Y183657D01*
X-362841Y183645D01*
X-362752Y183634D01*
X-362552Y183590D01*
X-362331Y183523D01*
X-362086Y183412D01*
X-361975Y183346D01*
X-361853Y183268D01*
X-361742Y183168D01*
X-361631Y183068D01*
X-361620Y183057D01*
X-361609Y183035D01*
X-361576Y183002D01*
X-361542Y182957D01*
X-361498Y182891D01*
X-361454Y182824D01*
X-361398Y182735D01*
X-361343Y182624D01*
X-361298Y182513D01*
X-361243Y182391D01*
X-361198Y182247D01*
X-361154Y182092D01*
X-361121Y181925D01*
X-361087Y181747D01*
X-361076Y181559D01*
X-361065Y181359D01*
Y181248D01*
X-361076Y181181D01*
X-361087Y181081D01*
X-361098Y180982D01*
X-361110Y180859D01*
X-361132Y180737D01*
X-361198Y180460D01*
X-361298Y180171D01*
X-361365Y180038D01*
X-361442Y179894D01*
X-361531Y179772D01*
X-361631Y179650D01*
X-361642Y179638D01*
X-361653Y179627D01*
X-361687Y179594D01*
X-361731Y179550D01*
X-361787Y179505D01*
X-361853Y179461D01*
X-362020Y179339D01*
X-362231Y179228D01*
X-362464Y179139D01*
X-362741Y179061D01*
X-362897Y179050D01*
X-363052Y179039D01*
X-363063D01*
X-363074D01*
X-363141D01*
X-363241Y179050D01*
X-363374Y179072D01*
X-363518Y179106D01*
X-363674Y179161D01*
X-363840Y179228D01*
X-364007Y179328D01*
X-364029Y179339D01*
X-364073Y179383D01*
X-364151Y179439D01*
X-364240Y179527D01*
X-364351Y179638D01*
X-364451Y179772D01*
X-364551Y179927D01*
X-364639Y180105D01*
Y180093D01*
X-364650Y180071D01*
X-364661Y180038D01*
X-364684Y179994D01*
X-364750Y179883D01*
X-364839Y179738D01*
X-364939Y179583D01*
X-365072Y179416D01*
X-365228Y179261D01*
X-365405Y179128D01*
X-365427Y179117D01*
X-365494Y179072D01*
X-365594Y179017D01*
X-365727Y178961D01*
X-365894Y178895D01*
X-366093Y178850D01*
X-366304Y178806D01*
X-366537Y178795D01*
X-366548D01*
X-366582D01*
X-366637D01*
X-366715Y178806D01*
X-366804Y178817D01*
X-366915Y178828D01*
X-367026Y178850D01*
X-367148Y178884D01*
X-367425Y178961D01*
X-367570Y179017D01*
X-367714Y179083D01*
X-367858Y179161D01*
X-368003Y179261D01*
X-368136Y179361D01*
X-368269Y179483D01*
X-368280Y179494D01*
X-368302Y179516D01*
X-368335Y179550D01*
X-368369Y179605D01*
X-368424Y179672D01*
X-368480Y179760D01*
X-368535Y179849D01*
X-368602Y179960D01*
X-368669Y180082D01*
X-368724Y180227D01*
X-368779Y180371D01*
X-368835Y180526D01*
X-368868Y180704D01*
X-368902Y180893D01*
X-368924Y181081D01*
X-368935Y181292D01*
Y181392D01*
X-368924Y181470D01*
X-368913Y181559D01*
X-368902Y181659D01*
X-368890Y181770D01*
X-368868Y181903D01*
X-368802Y182180D01*
X-368702Y182469D01*
X-368646Y182613D01*
X-368569Y182757D01*
X-368491Y182902D01*
X-368391Y183035D01*
X-368380Y183046D01*
X-368358Y183068D01*
X-368324Y183113D01*
X-368269Y183168D01*
X-368202Y183224D01*
X-368125Y183290D01*
X-368025Y183368D01*
X-367925Y183446D01*
X-367803Y183523D01*
X-367669Y183601D01*
X-367525Y183668D01*
X-367359Y183723D01*
X-367192Y183779D01*
X-367004Y183823D01*
X-366815Y183845D01*
X-366604Y183856D01*
X-366593D01*
X-366571D01*
X-366537D01*
X-366493D01*
X-366371Y183845D01*
D02*
G37*
G36*
X-396209Y187830D02*
X-396221Y187708D01*
Y187420D01*
X-396243Y187109D01*
X-396265Y186798D01*
X-396276Y186665D01*
X-396287Y186532D01*
X-396309Y186421D01*
X-396331Y186332D01*
Y186321D01*
X-396343Y186299D01*
X-396354Y186265D01*
X-396365Y186221D01*
X-396420Y186099D01*
X-396487Y185943D01*
X-396587Y185777D01*
X-396720Y185588D01*
X-396886Y185411D01*
X-397086Y185233D01*
X-397097D01*
X-397108Y185211D01*
X-397142Y185189D01*
X-397186Y185166D01*
X-397253Y185122D01*
X-397319Y185089D01*
X-397397Y185044D01*
X-397486Y185000D01*
X-397708Y184922D01*
X-397952Y184844D01*
X-398252Y184800D01*
X-398574Y184778D01*
X-398585D01*
X-398607D01*
X-398640D01*
X-398696D01*
X-398751Y184789D01*
X-398829D01*
X-398984Y184811D01*
X-399173Y184844D01*
X-399384Y184889D01*
X-399584Y184956D01*
X-399772Y185044D01*
X-399795Y185055D01*
X-399850Y185089D01*
X-399939Y185144D01*
X-400050Y185222D01*
X-400161Y185311D01*
X-400294Y185433D01*
X-400416Y185555D01*
X-400527Y185699D01*
X-400538Y185721D01*
X-400572Y185766D01*
X-400616Y185844D01*
X-400672Y185943D01*
X-400738Y186066D01*
X-400794Y186199D01*
X-400849Y186343D01*
X-400894Y186498D01*
Y186521D01*
X-400905Y186554D01*
Y186598D01*
X-400916Y186654D01*
X-400927Y186731D01*
X-400938Y186809D01*
Y186909D01*
X-400949Y187009D01*
X-400960Y187131D01*
X-400971Y187264D01*
X-400982Y187409D01*
Y187564D01*
X-400993Y187731D01*
Y189107D01*
X-403890D01*
Y190661D01*
X-396209D01*
Y187830D01*
D02*
G37*
G36*
X-396309Y178795D02*
X-397375D01*
X-397386Y178806D01*
X-397408Y178828D01*
X-397441Y178862D01*
X-397486Y178906D01*
X-397552Y178962D01*
X-397630Y179028D01*
X-397719Y179106D01*
X-397830Y179195D01*
X-397952Y179284D01*
X-398085Y179383D01*
X-398230Y179494D01*
X-398385Y179605D01*
X-398563Y179716D01*
X-398740Y179827D01*
X-398940Y179949D01*
X-399151Y180072D01*
X-399162Y180083D01*
X-399206Y180105D01*
X-399262Y180138D01*
X-399351Y180183D01*
X-399451Y180227D01*
X-399584Y180294D01*
X-399728Y180360D01*
X-399883Y180438D01*
X-400061Y180516D01*
X-400250Y180593D01*
X-400449Y180682D01*
X-400660Y180760D01*
X-401115Y180915D01*
X-401593Y181059D01*
X-401604D01*
X-401648Y181071D01*
X-401715Y181093D01*
X-401815Y181115D01*
X-401926Y181137D01*
X-402048Y181159D01*
X-402203Y181193D01*
X-402359Y181226D01*
X-402536Y181259D01*
X-402714Y181282D01*
X-403102Y181337D01*
X-403502Y181370D01*
X-403890Y181381D01*
Y182802D01*
X-403868D01*
X-403824D01*
X-403735Y182791D01*
X-403613D01*
X-403469Y182780D01*
X-403302Y182758D01*
X-403102Y182736D01*
X-402892Y182702D01*
X-402658Y182669D01*
X-402403Y182625D01*
X-402137Y182569D01*
X-401848Y182514D01*
X-401559Y182436D01*
X-401260Y182358D01*
X-400960Y182258D01*
X-400649Y182147D01*
X-400627Y182136D01*
X-400572Y182114D01*
X-400483Y182081D01*
X-400372Y182036D01*
X-400228Y181970D01*
X-400050Y181892D01*
X-399861Y181803D01*
X-399650Y181703D01*
X-399428Y181592D01*
X-399195Y181470D01*
X-398940Y181337D01*
X-398696Y181182D01*
X-398174Y180860D01*
X-397675Y180493D01*
Y183834D01*
X-396309D01*
Y178795D01*
D02*
G37*
G36*
X31630Y148026D02*
X31730Y148014D01*
X31841Y148003D01*
X31963Y147981D01*
X32097Y147959D01*
X32385Y147881D01*
X32674Y147770D01*
X32829Y147704D01*
X32962Y147626D01*
X33107Y147526D01*
X33229Y147415D01*
X33240Y147404D01*
X33262Y147393D01*
X33284Y147348D01*
X33329Y147304D01*
X33384Y147249D01*
X33440Y147171D01*
X33495Y147093D01*
X33562Y146993D01*
X33673Y146771D01*
X33784Y146516D01*
X33828Y146372D01*
X33850Y146216D01*
X33872Y146050D01*
X33884Y145883D01*
Y145861D01*
Y145794D01*
X33872Y145695D01*
X33861Y145573D01*
X33839Y145417D01*
X33806Y145251D01*
X33761Y145073D01*
X33695Y144895D01*
X33684Y144873D01*
X33662Y144818D01*
X33617Y144718D01*
X33551Y144596D01*
X33473Y144451D01*
X33373Y144285D01*
X33251Y144107D01*
X33107Y143919D01*
X33096Y143907D01*
X33051Y143852D01*
X32984Y143774D01*
X32885Y143663D01*
X32751Y143530D01*
X32585Y143352D01*
X32385Y143164D01*
X32141Y142931D01*
X32130Y142920D01*
X32108Y142909D01*
X32074Y142875D01*
X32030Y142831D01*
X31908Y142720D01*
X31764Y142587D01*
X31619Y142442D01*
X31475Y142298D01*
X31342Y142176D01*
X31297Y142121D01*
X31253Y142076D01*
X31242Y142065D01*
X31220Y142043D01*
X31186Y141998D01*
X31142Y141943D01*
X31042Y141821D01*
X30953Y141677D01*
X33884D01*
Y140311D01*
X28722D01*
Y140322D01*
Y140344D01*
X28733Y140389D01*
X28744Y140444D01*
X28756Y140511D01*
X28767Y140589D01*
X28811Y140788D01*
X28878Y141011D01*
X28966Y141255D01*
X29077Y141521D01*
X29222Y141776D01*
Y141788D01*
X29244Y141810D01*
X29266Y141854D01*
X29311Y141898D01*
X29355Y141976D01*
X29422Y142054D01*
X29499Y142154D01*
X29588Y142265D01*
X29688Y142398D01*
X29810Y142531D01*
X29943Y142687D01*
X30099Y142853D01*
X30265Y143020D01*
X30454Y143208D01*
X30654Y143408D01*
X30875Y143619D01*
X30887Y143630D01*
X30920Y143663D01*
X30964Y143708D01*
X31031Y143774D01*
X31120Y143841D01*
X31209Y143930D01*
X31408Y144129D01*
X31608Y144340D01*
X31808Y144551D01*
X31897Y144640D01*
X31985Y144740D01*
X32052Y144818D01*
X32097Y144884D01*
X32108Y144907D01*
X32141Y144962D01*
X32196Y145051D01*
X32252Y145173D01*
X32307Y145306D01*
X32363Y145462D01*
X32396Y145617D01*
X32407Y145783D01*
Y145794D01*
Y145806D01*
Y145861D01*
X32396Y145961D01*
X32374Y146072D01*
X32341Y146194D01*
X32296Y146316D01*
X32230Y146438D01*
X32141Y146549D01*
X32130Y146560D01*
X32097Y146594D01*
X32030Y146638D01*
X31952Y146683D01*
X31841Y146727D01*
X31719Y146771D01*
X31575Y146805D01*
X31408Y146816D01*
X31331D01*
X31242Y146805D01*
X31142Y146782D01*
X31020Y146749D01*
X30898Y146694D01*
X30776Y146627D01*
X30665Y146538D01*
X30654Y146527D01*
X30620Y146483D01*
X30576Y146416D01*
X30531Y146316D01*
X30476Y146194D01*
X30431Y146028D01*
X30387Y145839D01*
X30365Y145617D01*
X28900Y145761D01*
Y145772D01*
X28911Y145817D01*
Y145872D01*
X28933Y145961D01*
X28944Y146061D01*
X28977Y146172D01*
X29011Y146294D01*
X29044Y146438D01*
X29155Y146716D01*
X29288Y147004D01*
X29377Y147149D01*
X29477Y147282D01*
X29588Y147393D01*
X29710Y147504D01*
X29721Y147515D01*
X29743Y147526D01*
X29777Y147548D01*
X29832Y147593D01*
X29899Y147626D01*
X29987Y147670D01*
X30076Y147726D01*
X30187Y147770D01*
X30309Y147826D01*
X30443Y147870D01*
X30731Y147959D01*
X31075Y148014D01*
X31253Y148026D01*
X31442Y148037D01*
X31553D01*
X31630Y148026D01*
D02*
G37*
G36*
X25037Y147981D02*
X25326D01*
X25636Y147959D01*
X25947Y147937D01*
X26080Y147926D01*
X26214Y147915D01*
X26325Y147892D01*
X26413Y147870D01*
X26425D01*
X26447Y147859D01*
X26480Y147848D01*
X26524Y147837D01*
X26646Y147781D01*
X26802Y147715D01*
X26968Y147615D01*
X27157Y147482D01*
X27335Y147315D01*
X27512Y147115D01*
Y147104D01*
X27534Y147093D01*
X27557Y147060D01*
X27579Y147015D01*
X27623Y146949D01*
X27657Y146882D01*
X27701Y146805D01*
X27745Y146716D01*
X27823Y146494D01*
X27901Y146250D01*
X27945Y145950D01*
X27967Y145628D01*
Y145617D01*
Y145595D01*
Y145561D01*
Y145506D01*
X27956Y145450D01*
Y145373D01*
X27934Y145217D01*
X27901Y145029D01*
X27856Y144818D01*
X27790Y144618D01*
X27701Y144429D01*
X27690Y144407D01*
X27657Y144352D01*
X27601Y144263D01*
X27523Y144152D01*
X27435Y144041D01*
X27313Y143907D01*
X27190Y143785D01*
X27046Y143674D01*
X27024Y143663D01*
X26979Y143630D01*
X26902Y143586D01*
X26802Y143530D01*
X26680Y143463D01*
X26547Y143408D01*
X26402Y143352D01*
X26247Y143308D01*
X26225D01*
X26191Y143297D01*
X26147D01*
X26091Y143286D01*
X26014Y143275D01*
X25936Y143264D01*
X25836D01*
X25736Y143253D01*
X25614Y143242D01*
X25481Y143230D01*
X25337Y143219D01*
X25181D01*
X25015Y143208D01*
X23639D01*
Y140311D01*
X22085D01*
Y147992D01*
X24915D01*
X25037Y147981D01*
D02*
G37*
G36*
X363890Y189597D02*
X363879Y189475D01*
Y189187D01*
X363857Y188876D01*
X363835Y188565D01*
X363824Y188432D01*
X363813Y188299D01*
X363791Y188188D01*
X363768Y188099D01*
Y188088D01*
X363757Y188065D01*
X363746Y188032D01*
X363735Y187988D01*
X363680Y187866D01*
X363613Y187710D01*
X363513Y187544D01*
X363380Y187355D01*
X363213Y187178D01*
X363014Y187000D01*
X363003D01*
X362991Y186978D01*
X362958Y186956D01*
X362914Y186933D01*
X362847Y186889D01*
X362780Y186856D01*
X362703Y186811D01*
X362614Y186767D01*
X362392Y186689D01*
X362148Y186611D01*
X361848Y186567D01*
X361526Y186545D01*
X361515D01*
X361493D01*
X361460D01*
X361404D01*
X361349Y186556D01*
X361271D01*
X361115Y186578D01*
X360927Y186611D01*
X360716Y186656D01*
X360516Y186722D01*
X360327Y186811D01*
X360305Y186822D01*
X360250Y186856D01*
X360161Y186911D01*
X360050Y186989D01*
X359939Y187078D01*
X359806Y187200D01*
X359684Y187322D01*
X359573Y187466D01*
X359562Y187488D01*
X359528Y187533D01*
X359484Y187610D01*
X359428Y187710D01*
X359362Y187832D01*
X359306Y187966D01*
X359251Y188110D01*
X359206Y188265D01*
Y188288D01*
X359195Y188321D01*
Y188365D01*
X359184Y188421D01*
X359173Y188498D01*
X359162Y188576D01*
Y188676D01*
X359151Y188776D01*
X359140Y188898D01*
X359129Y189031D01*
X359118Y189175D01*
Y189331D01*
X359106Y189497D01*
Y190874D01*
X356209D01*
Y192428D01*
X363890D01*
Y189597D01*
D02*
G37*
G36*
X361515Y185701D02*
X361615Y185690D01*
X361726Y185679D01*
X361859Y185657D01*
X361992Y185624D01*
X362292Y185546D01*
X362459Y185490D01*
X362614Y185424D01*
X362769Y185346D01*
X362925Y185246D01*
X363069Y185146D01*
X363213Y185024D01*
X363224Y185013D01*
X363247Y184991D01*
X363280Y184958D01*
X363324Y184902D01*
X363380Y184824D01*
X363447Y184747D01*
X363502Y184647D01*
X363580Y184536D01*
X363646Y184425D01*
X363702Y184280D01*
X363768Y184136D01*
X363824Y183981D01*
X363868Y183814D01*
X363902Y183637D01*
X363924Y183459D01*
X363935Y183259D01*
Y183204D01*
X363924Y183148D01*
Y183060D01*
X363913Y182960D01*
X363890Y182849D01*
X363857Y182715D01*
X363824Y182582D01*
X363768Y182427D01*
X363713Y182271D01*
X363635Y182116D01*
X363546Y181950D01*
X363447Y181794D01*
X363324Y181639D01*
X363180Y181483D01*
X363025Y181339D01*
X363014Y181328D01*
X362980Y181306D01*
X362925Y181272D01*
X362847Y181217D01*
X362747Y181161D01*
X362625Y181095D01*
X362481Y181028D01*
X362314Y180962D01*
X362114Y180895D01*
X361893Y180817D01*
X361648Y180762D01*
X361382Y180706D01*
X361082Y180651D01*
X360760Y180618D01*
X360416Y180595D01*
X360039Y180584D01*
X360028D01*
X360017D01*
X359983D01*
X359950D01*
X359839D01*
X359695Y180595D01*
X359517Y180606D01*
X359317Y180629D01*
X359106Y180651D01*
X358873Y180684D01*
X358618Y180728D01*
X358374Y180773D01*
X358119Y180840D01*
X357863Y180917D01*
X357630Y181006D01*
X357397Y181117D01*
X357186Y181228D01*
X356997Y181372D01*
X356986Y181383D01*
X356953Y181406D01*
X356909Y181450D01*
X356853Y181517D01*
X356787Y181594D01*
X356698Y181683D01*
X356620Y181794D01*
X356531Y181916D01*
X356442Y182049D01*
X356365Y182205D01*
X356287Y182371D01*
X356209Y182549D01*
X356154Y182749D01*
X356110Y182948D01*
X356076Y183159D01*
X356065Y183393D01*
Y183481D01*
X356076Y183537D01*
Y183615D01*
X356087Y183703D01*
X356121Y183914D01*
X356187Y184147D01*
X356265Y184380D01*
X356387Y184625D01*
X356454Y184736D01*
X356542Y184847D01*
X356553Y184858D01*
X356565Y184869D01*
X356598Y184902D01*
X356631Y184935D01*
X356687Y184980D01*
X356742Y185035D01*
X356820Y185080D01*
X356898Y185146D01*
X356997Y185202D01*
X357097Y185268D01*
X357220Y185324D01*
X357353Y185379D01*
X357486Y185435D01*
X357641Y185479D01*
X357797Y185524D01*
X357974Y185557D01*
X358141Y184136D01*
X358119D01*
X358063Y184125D01*
X357985Y184114D01*
X357897Y184081D01*
X357786Y184047D01*
X357675Y184003D01*
X357575Y183948D01*
X357486Y183870D01*
X357475Y183859D01*
X357453Y183825D01*
X357419Y183781D01*
X357386Y183714D01*
X357353Y183626D01*
X357319Y183537D01*
X357297Y183415D01*
X357286Y183293D01*
Y183270D01*
X357297Y183215D01*
X357308Y183137D01*
X357342Y183026D01*
X357386Y182904D01*
X357464Y182782D01*
X357564Y182649D01*
X357697Y182527D01*
X357719Y182516D01*
X357741Y182493D01*
X357786Y182471D01*
X357830Y182449D01*
X357897Y182416D01*
X357974Y182393D01*
X358074Y182349D01*
X358185Y182316D01*
X358307Y182283D01*
X358452Y182249D01*
X358607Y182216D01*
X358785Y182183D01*
X358984Y182160D01*
X359206Y182138D01*
X359440Y182116D01*
X359428Y182127D01*
X359417Y182138D01*
X359384Y182171D01*
X359340Y182216D01*
X359295Y182271D01*
X359240Y182338D01*
X359118Y182493D01*
X358996Y182693D01*
X358896Y182937D01*
X358851Y183071D01*
X358829Y183204D01*
X358807Y183348D01*
X358796Y183503D01*
Y183592D01*
X358807Y183659D01*
X358818Y183737D01*
X358829Y183825D01*
X358885Y184036D01*
X358962Y184280D01*
X359029Y184403D01*
X359095Y184536D01*
X359173Y184669D01*
X359262Y184802D01*
X359373Y184935D01*
X359495Y185058D01*
X359506Y185069D01*
X359528Y185091D01*
X359573Y185113D01*
X359617Y185157D01*
X359695Y185213D01*
X359772Y185268D01*
X359872Y185324D01*
X359983Y185379D01*
X360106Y185446D01*
X360250Y185501D01*
X360394Y185557D01*
X360560Y185613D01*
X360727Y185657D01*
X360916Y185679D01*
X361115Y185701D01*
X361315Y185712D01*
X361326D01*
X361371D01*
X361426D01*
X361515Y185701D01*
D02*
G37*
G36*
X398890Y192567D02*
X398879Y192444D01*
Y192156D01*
X398857Y191845D01*
X398835Y191534D01*
X398824Y191401D01*
X398813Y191268D01*
X398791Y191157D01*
X398768Y191068D01*
Y191057D01*
X398757Y191035D01*
X398746Y191001D01*
X398735Y190957D01*
X398680Y190835D01*
X398613Y190679D01*
X398513Y190513D01*
X398380Y190324D01*
X398213Y190147D01*
X398014Y189969D01*
X398003D01*
X397991Y189947D01*
X397958Y189925D01*
X397914Y189902D01*
X397847Y189858D01*
X397780Y189825D01*
X397703Y189780D01*
X397614Y189736D01*
X397392Y189658D01*
X397148Y189581D01*
X396848Y189536D01*
X396526Y189514D01*
X396515D01*
X396493D01*
X396460D01*
X396404D01*
X396349Y189525D01*
X396271D01*
X396115Y189547D01*
X395927Y189581D01*
X395716Y189625D01*
X395516Y189692D01*
X395327Y189780D01*
X395305Y189792D01*
X395250Y189825D01*
X395161Y189880D01*
X395050Y189958D01*
X394939Y190047D01*
X394806Y190169D01*
X394684Y190291D01*
X394573Y190435D01*
X394562Y190457D01*
X394528Y190502D01*
X394484Y190580D01*
X394428Y190679D01*
X394362Y190802D01*
X394306Y190935D01*
X394251Y191079D01*
X394206Y191234D01*
Y191257D01*
X394195Y191290D01*
Y191334D01*
X394184Y191390D01*
X394173Y191468D01*
X394162Y191545D01*
Y191645D01*
X394151Y191745D01*
X394140Y191867D01*
X394129Y192000D01*
X394118Y192145D01*
Y192300D01*
X394106Y192467D01*
Y193843D01*
X391209D01*
Y195397D01*
X398890D01*
Y192567D01*
D02*
G37*
G36*
X396992Y188171D02*
X397004Y188160D01*
X397015Y188127D01*
X397026Y188082D01*
X397081Y187971D01*
X397148Y187816D01*
X397237Y187627D01*
X397359Y187416D01*
X397514Y187183D01*
X397692Y186939D01*
X397703Y186928D01*
X397714Y186906D01*
X397747Y186872D01*
X397792Y186828D01*
X397903Y186706D01*
X398047Y186573D01*
X398224Y186417D01*
X398447Y186262D01*
X398680Y186117D01*
X398935Y186007D01*
Y184808D01*
X391209D01*
Y186284D01*
X396770D01*
X396759Y186295D01*
X396737Y186317D01*
X396704Y186362D01*
X396648Y186428D01*
X396582Y186506D01*
X396515Y186595D01*
X396437Y186706D01*
X396349Y186828D01*
X396260Y186961D01*
X396171Y187105D01*
X396071Y187261D01*
X395982Y187427D01*
X395816Y187782D01*
X395660Y188182D01*
X396992D01*
Y188171D01*
D02*
G37*
G36*
X395361Y182588D02*
X395538Y182577D01*
X395749Y182554D01*
X395971Y182532D01*
X396215Y182510D01*
X396471Y182466D01*
X396726Y182421D01*
X396992Y182355D01*
X397248Y182288D01*
X397492Y182199D01*
X397725Y182099D01*
X397947Y181988D01*
X398136Y181855D01*
X398147Y181844D01*
X398169Y181822D01*
X398213Y181789D01*
X398258Y181733D01*
X398324Y181678D01*
X398391Y181600D01*
X398458Y181500D01*
X398535Y181400D01*
X398613Y181278D01*
X398680Y181156D01*
X398746Y181012D01*
X398813Y180856D01*
X398857Y180690D01*
X398902Y180501D01*
X398924Y180312D01*
X398935Y180112D01*
Y180002D01*
X398924Y179924D01*
X398913Y179835D01*
X398890Y179724D01*
X398868Y179613D01*
X398835Y179480D01*
X398791Y179335D01*
X398735Y179202D01*
X398680Y179058D01*
X398602Y178914D01*
X398502Y178769D01*
X398402Y178625D01*
X398280Y178492D01*
X398136Y178370D01*
X398125Y178359D01*
X398091Y178337D01*
X398036Y178303D01*
X397958Y178248D01*
X397847Y178192D01*
X397714Y178126D01*
X397570Y178059D01*
X397381Y177992D01*
X397181Y177926D01*
X396948Y177848D01*
X396693Y177793D01*
X396404Y177737D01*
X396093Y177682D01*
X395760Y177648D01*
X395394Y177626D01*
X394994Y177615D01*
X394983D01*
X394972D01*
X394939D01*
X394894D01*
X394784D01*
X394639Y177626D01*
X394462Y177637D01*
X394251Y177659D01*
X394029Y177682D01*
X393785Y177704D01*
X393529Y177748D01*
X393263Y177804D01*
X393008Y177859D01*
X392752Y177937D01*
X392497Y178015D01*
X392264Y178126D01*
X392042Y178237D01*
X391853Y178370D01*
X391842Y178381D01*
X391820Y178403D01*
X391776Y178436D01*
X391731Y178481D01*
X391676Y178547D01*
X391609Y178625D01*
X391531Y178725D01*
X391465Y178825D01*
X391387Y178947D01*
X391309Y179069D01*
X391243Y179213D01*
X391187Y179369D01*
X391143Y179535D01*
X391098Y179724D01*
X391076Y179913D01*
X391065Y180112D01*
Y180157D01*
X391076Y180224D01*
Y180301D01*
X391087Y180390D01*
X391110Y180501D01*
X391132Y180623D01*
X391176Y180756D01*
X391221Y180901D01*
X391276Y181045D01*
X391343Y181200D01*
X391431Y181345D01*
X391520Y181500D01*
X391642Y181644D01*
X391764Y181789D01*
X391920Y181922D01*
X391931Y181933D01*
X391964Y181955D01*
X392020Y181988D01*
X392086Y182022D01*
X392186Y182077D01*
X392308Y182133D01*
X392464Y182199D01*
X392630Y182255D01*
X392830Y182321D01*
X393052Y182388D01*
X393307Y182444D01*
X393585Y182488D01*
X393896Y182532D01*
X394240Y182565D01*
X394606Y182588D01*
X395005Y182599D01*
X395017D01*
X395028D01*
X395061D01*
X395105D01*
X395216D01*
X395361Y182588D01*
D02*
G37*
G36*
X-304459Y-152186D02*
X-304382D01*
X-304293Y-152197D01*
X-304093Y-152241D01*
X-303871Y-152297D01*
X-303627Y-152386D01*
X-303383Y-152508D01*
X-303272Y-152585D01*
X-303161Y-152674D01*
X-303150D01*
X-303139Y-152696D01*
X-303105Y-152730D01*
X-303072Y-152763D01*
X-303016Y-152818D01*
X-302972Y-152874D01*
X-302850Y-153029D01*
X-302728Y-153240D01*
X-302606Y-153484D01*
X-302495Y-153762D01*
X-302417Y-154095D01*
X-303838Y-154250D01*
Y-154228D01*
X-303849Y-154184D01*
X-303871Y-154106D01*
X-303893Y-154006D01*
X-303927Y-153906D01*
X-303982Y-153795D01*
X-304038Y-153695D01*
X-304115Y-153607D01*
X-304126Y-153596D01*
X-304160Y-153573D01*
X-304204Y-153540D01*
X-304271Y-153496D01*
X-304348Y-153462D01*
X-304448Y-153429D01*
X-304570Y-153407D01*
X-304692Y-153396D01*
X-304715D01*
X-304770Y-153407D01*
X-304859Y-153418D01*
X-304970Y-153451D01*
X-305092Y-153496D01*
X-305225Y-153573D01*
X-305359Y-153673D01*
X-305481Y-153817D01*
X-305492Y-153840D01*
X-305514Y-153862D01*
X-305536Y-153906D01*
X-305558Y-153951D01*
X-305592Y-154017D01*
X-305614Y-154095D01*
X-305647Y-154195D01*
X-305692Y-154306D01*
X-305725Y-154428D01*
X-305758Y-154572D01*
X-305791Y-154728D01*
X-305825Y-154905D01*
X-305847Y-155105D01*
X-305869Y-155327D01*
X-305891Y-155560D01*
X-305880Y-155549D01*
X-305869Y-155527D01*
X-305836Y-155505D01*
X-305791Y-155460D01*
X-305736Y-155405D01*
X-305669Y-155349D01*
X-305514Y-155227D01*
X-305314Y-155116D01*
X-305081Y-155005D01*
X-304948Y-154961D01*
X-304815Y-154938D01*
X-304670Y-154916D01*
X-304515Y-154905D01*
X-304426D01*
X-304359Y-154916D01*
X-304282Y-154927D01*
X-304193Y-154938D01*
X-304082Y-154961D01*
X-303971Y-154994D01*
X-303727Y-155083D01*
X-303594Y-155138D01*
X-303461Y-155205D01*
X-303327Y-155283D01*
X-303194Y-155382D01*
X-303061Y-155493D01*
X-302939Y-155616D01*
X-302928Y-155627D01*
X-302906Y-155649D01*
X-302872Y-155682D01*
X-302839Y-155738D01*
X-302783Y-155815D01*
X-302728Y-155893D01*
X-302672Y-155993D01*
X-302606Y-156104D01*
X-302539Y-156226D01*
X-302484Y-156370D01*
X-302428Y-156515D01*
X-302373Y-156681D01*
X-302339Y-156848D01*
X-302306Y-157036D01*
X-302284Y-157225D01*
X-302273Y-157436D01*
Y-157447D01*
Y-157492D01*
Y-157547D01*
X-302284Y-157636D01*
X-302295Y-157736D01*
X-302306Y-157847D01*
X-302328Y-157980D01*
X-302362Y-158113D01*
X-302439Y-158424D01*
X-302495Y-158579D01*
X-302572Y-158735D01*
X-302650Y-158890D01*
X-302739Y-159045D01*
X-302850Y-159201D01*
X-302972Y-159334D01*
X-302983Y-159345D01*
X-303005Y-159367D01*
X-303039Y-159401D01*
X-303094Y-159445D01*
X-303161Y-159501D01*
X-303250Y-159556D01*
X-303338Y-159623D01*
X-303449Y-159689D01*
X-303571Y-159756D01*
X-303705Y-159822D01*
X-303849Y-159878D01*
X-304015Y-159933D01*
X-304182Y-159978D01*
X-304359Y-160011D01*
X-304548Y-160033D01*
X-304748Y-160044D01*
X-304804D01*
X-304859Y-160033D01*
X-304937D01*
X-305037Y-160011D01*
X-305159Y-160000D01*
X-305281Y-159967D01*
X-305425Y-159933D01*
X-305569Y-159889D01*
X-305725Y-159822D01*
X-305891Y-159756D01*
X-306047Y-159667D01*
X-306213Y-159567D01*
X-306369Y-159445D01*
X-306524Y-159301D01*
X-306668Y-159145D01*
X-306679Y-159134D01*
X-306702Y-159101D01*
X-306735Y-159045D01*
X-306779Y-158968D01*
X-306846Y-158868D01*
X-306901Y-158746D01*
X-306968Y-158602D01*
X-307035Y-158435D01*
X-307112Y-158235D01*
X-307179Y-158024D01*
X-307234Y-157780D01*
X-307290Y-157503D01*
X-307345Y-157214D01*
X-307379Y-156892D01*
X-307401Y-156548D01*
X-307412Y-156171D01*
Y-156159D01*
Y-156148D01*
Y-156115D01*
Y-156082D01*
Y-155971D01*
X-307401Y-155827D01*
X-307390Y-155649D01*
X-307368Y-155449D01*
X-307345Y-155227D01*
X-307312Y-154994D01*
X-307279Y-154750D01*
X-307223Y-154494D01*
X-307157Y-154239D01*
X-307079Y-153984D01*
X-306990Y-153751D01*
X-306890Y-153518D01*
X-306768Y-153307D01*
X-306635Y-153118D01*
X-306624Y-153107D01*
X-306602Y-153074D01*
X-306557Y-153029D01*
X-306491Y-152974D01*
X-306413Y-152896D01*
X-306324Y-152818D01*
X-306213Y-152730D01*
X-306091Y-152641D01*
X-305947Y-152563D01*
X-305802Y-152474D01*
X-305625Y-152397D01*
X-305447Y-152319D01*
X-305259Y-152263D01*
X-305048Y-152219D01*
X-304837Y-152186D01*
X-304604Y-152175D01*
X-304515D01*
X-304459Y-152186D01*
D02*
G37*
G36*
X-308733Y-157092D02*
Y-157103D01*
Y-157136D01*
Y-157181D01*
Y-157247D01*
Y-157325D01*
X-308744Y-157425D01*
X-308755Y-157636D01*
X-308777Y-157869D01*
X-308811Y-158113D01*
X-308855Y-158357D01*
X-308911Y-158568D01*
Y-158579D01*
X-308922Y-158602D01*
X-308933Y-158635D01*
X-308955Y-158679D01*
X-309010Y-158801D01*
X-309099Y-158957D01*
X-309210Y-159123D01*
X-309354Y-159301D01*
X-309521Y-159478D01*
X-309732Y-159645D01*
X-309743D01*
X-309754Y-159667D01*
X-309787Y-159678D01*
X-309843Y-159711D01*
X-309898Y-159734D01*
X-309965Y-159767D01*
X-310054Y-159811D01*
X-310142Y-159845D01*
X-310254Y-159878D01*
X-310364Y-159922D01*
X-310631Y-159978D01*
X-310942Y-160022D01*
X-311286Y-160044D01*
X-311397D01*
X-311474Y-160033D01*
X-311574Y-160022D01*
X-311674Y-160011D01*
X-311796Y-159989D01*
X-311930Y-159967D01*
X-312218Y-159889D01*
X-312362Y-159833D01*
X-312507Y-159778D01*
X-312651Y-159700D01*
X-312784Y-159623D01*
X-312917Y-159523D01*
X-313040Y-159412D01*
X-313051Y-159401D01*
X-313062Y-159378D01*
X-313095Y-159345D01*
X-313139Y-159290D01*
X-313184Y-159223D01*
X-313228Y-159145D01*
X-313284Y-159045D01*
X-313339Y-158946D01*
X-313406Y-158812D01*
X-313461Y-158679D01*
X-313506Y-158524D01*
X-313550Y-158357D01*
X-313595Y-158180D01*
X-313628Y-157980D01*
X-313639Y-157769D01*
X-313650Y-157547D01*
X-312174Y-157381D01*
Y-157392D01*
Y-157414D01*
Y-157447D01*
X-312163Y-157492D01*
Y-157603D01*
X-312141Y-157747D01*
X-312118Y-157902D01*
X-312085Y-158058D01*
X-312041Y-158191D01*
X-311985Y-158313D01*
X-311974Y-158335D01*
X-311941Y-158379D01*
X-311885Y-158446D01*
X-311796Y-158513D01*
X-311696Y-158590D01*
X-311563Y-158657D01*
X-311408Y-158701D01*
X-311230Y-158724D01*
X-311141D01*
X-311053Y-158713D01*
X-310953Y-158690D01*
X-310831Y-158657D01*
X-310709Y-158602D01*
X-310598Y-158535D01*
X-310509Y-158435D01*
X-310498Y-158424D01*
X-310476Y-158368D01*
X-310442Y-158291D01*
X-310398Y-158169D01*
X-310376Y-158091D01*
X-310353Y-158002D01*
X-310342Y-157902D01*
X-310320Y-157791D01*
X-310309Y-157658D01*
X-310298Y-157525D01*
X-310287Y-157369D01*
Y-157203D01*
Y-152219D01*
X-308733D01*
Y-157092D01*
D02*
G37*
%LPC*%
G36*
X113175Y-153992D02*
Y-155779D01*
X115817D01*
X113175Y-153992D01*
D02*
G37*
G36*
X25398Y-38306D02*
X24243D01*
Y-40493D01*
X25309D01*
X25387Y-40482D01*
X25587D01*
X25786Y-40471D01*
X25986Y-40449D01*
X26164Y-40415D01*
X26241Y-40404D01*
X26308Y-40382D01*
X26319Y-40371D01*
X26363Y-40360D01*
X26419Y-40327D01*
X26486Y-40293D01*
X26563Y-40238D01*
X26641Y-40171D01*
X26730Y-40093D01*
X26796Y-40005D01*
X26807Y-39994D01*
X26830Y-39960D01*
X26852Y-39905D01*
X26885Y-39827D01*
X26918Y-39738D01*
X26952Y-39638D01*
X26963Y-39527D01*
X26974Y-39405D01*
Y-39383D01*
Y-39339D01*
X26963Y-39261D01*
X26941Y-39161D01*
X26907Y-39050D01*
X26863Y-38928D01*
X26807Y-38817D01*
X26719Y-38706D01*
X26707Y-38695D01*
X26674Y-38662D01*
X26619Y-38617D01*
X26552Y-38562D01*
X26463Y-38495D01*
X26352Y-38440D01*
X26230Y-38395D01*
X26097Y-38362D01*
X26086D01*
X26042Y-38351D01*
X25964Y-38340D01*
X25853Y-38329D01*
X25709D01*
X25609Y-38317D01*
X25509D01*
X25398Y-38306D01*
D02*
G37*
G36*
X-362408Y189107D02*
X-364595D01*
Y188041D01*
X-364584Y187963D01*
Y187764D01*
X-364573Y187564D01*
X-364551Y187364D01*
X-364517Y187186D01*
X-364506Y187109D01*
X-364484Y187042D01*
X-364473Y187031D01*
X-364462Y186987D01*
X-364428Y186931D01*
X-364395Y186864D01*
X-364340Y186787D01*
X-364273Y186709D01*
X-364195Y186620D01*
X-364106Y186554D01*
X-364095Y186542D01*
X-364062Y186520D01*
X-364007Y186498D01*
X-363929Y186465D01*
X-363840Y186432D01*
X-363740Y186398D01*
X-363629Y186387D01*
X-363507Y186376D01*
X-363485D01*
X-363441D01*
X-363363Y186387D01*
X-363263Y186409D01*
X-363152Y186443D01*
X-363030Y186487D01*
X-362919Y186542D01*
X-362808Y186631D01*
X-362797Y186642D01*
X-362763Y186676D01*
X-362719Y186731D01*
X-362663Y186798D01*
X-362597Y186887D01*
X-362541Y186998D01*
X-362497Y187120D01*
X-362464Y187253D01*
Y187264D01*
X-362453Y187308D01*
X-362441Y187386D01*
X-362430Y187497D01*
Y187641D01*
X-362419Y187741D01*
Y187841D01*
X-362408Y187952D01*
Y189107D01*
D02*
G37*
G36*
X-363163Y182269D02*
X-363185D01*
X-363241D01*
X-363318Y182258D01*
X-363418Y182236D01*
X-363529Y182214D01*
X-363640Y182169D01*
X-363751Y182103D01*
X-363851Y182025D01*
X-363862Y182014D01*
X-363885Y181980D01*
X-363929Y181925D01*
X-363973Y181847D01*
X-364018Y181747D01*
X-364062Y181636D01*
X-364084Y181503D01*
X-364095Y181359D01*
Y181292D01*
X-364084Y181215D01*
X-364062Y181115D01*
X-364040Y181004D01*
X-363996Y180893D01*
X-363929Y180782D01*
X-363851Y180682D01*
X-363840Y180671D01*
X-363807Y180637D01*
X-363751Y180604D01*
X-363662Y180549D01*
X-363563Y180504D01*
X-363452Y180471D01*
X-363307Y180438D01*
X-363152Y180427D01*
X-363130D01*
X-363085D01*
X-363008Y180438D01*
X-362919Y180460D01*
X-362808Y180493D01*
X-362697Y180537D01*
X-362586Y180593D01*
X-362486Y180682D01*
X-362475Y180693D01*
X-362441Y180726D01*
X-362408Y180782D01*
X-362353Y180859D01*
X-362308Y180959D01*
X-362275Y181070D01*
X-362242Y181203D01*
X-362231Y181348D01*
Y181414D01*
X-362242Y181492D01*
X-362264Y181592D01*
X-362297Y181703D01*
X-362342Y181814D01*
X-362397Y181925D01*
X-362486Y182025D01*
X-362497Y182036D01*
X-362530Y182058D01*
X-362586Y182103D01*
X-362663Y182147D01*
X-362763Y182191D01*
X-362874Y182236D01*
X-363008Y182258D01*
X-363163Y182269D01*
D02*
G37*
G36*
X-366449Y182402D02*
X-366460D01*
X-366471D01*
X-366504D01*
X-366548D01*
X-366659Y182380D01*
X-366804Y182358D01*
X-366959Y182325D01*
X-367114Y182269D01*
X-367270Y182191D01*
X-367414Y182092D01*
X-367425Y182080D01*
X-367470Y182036D01*
X-367514Y181969D01*
X-367581Y181881D01*
X-367636Y181770D01*
X-367692Y181636D01*
X-367736Y181481D01*
X-367747Y181315D01*
Y181237D01*
X-367725Y181159D01*
X-367703Y181048D01*
X-367669Y180926D01*
X-367614Y180804D01*
X-367536Y180682D01*
X-367425Y180560D01*
X-367414Y180549D01*
X-367359Y180515D01*
X-367292Y180460D01*
X-367181Y180404D01*
X-367048Y180349D01*
X-366881Y180293D01*
X-366693Y180260D01*
X-366471Y180249D01*
X-366460D01*
X-366449D01*
X-366382D01*
X-366282Y180260D01*
X-366160Y180282D01*
X-366016Y180327D01*
X-365871Y180382D01*
X-365727Y180460D01*
X-365594Y180560D01*
X-365583Y180571D01*
X-365538Y180615D01*
X-365483Y180682D01*
X-365427Y180771D01*
X-365361Y180882D01*
X-365316Y181015D01*
X-365272Y181170D01*
X-365261Y181337D01*
Y181425D01*
X-365283Y181525D01*
X-365305Y181636D01*
X-365350Y181770D01*
X-365416Y181903D01*
X-365516Y182036D01*
X-365638Y182147D01*
X-365660Y182158D01*
X-365705Y182191D01*
X-365783Y182225D01*
X-365882Y182269D01*
X-366004Y182325D01*
X-366138Y182358D01*
X-366293Y182391D01*
X-366449Y182402D01*
D02*
G37*
G36*
X-397508Y189107D02*
X-399695D01*
Y188041D01*
X-399684Y187964D01*
Y187764D01*
X-399673Y187564D01*
X-399650Y187364D01*
X-399617Y187187D01*
X-399606Y187109D01*
X-399584Y187042D01*
X-399573Y187031D01*
X-399562Y186987D01*
X-399528Y186931D01*
X-399495Y186865D01*
X-399440Y186787D01*
X-399373Y186709D01*
X-399295Y186621D01*
X-399206Y186554D01*
X-399195Y186543D01*
X-399162Y186521D01*
X-399106Y186498D01*
X-399029Y186465D01*
X-398940Y186432D01*
X-398840Y186399D01*
X-398729Y186387D01*
X-398607Y186376D01*
X-398585D01*
X-398540D01*
X-398463Y186387D01*
X-398363Y186410D01*
X-398252Y186443D01*
X-398130Y186487D01*
X-398019Y186543D01*
X-397908Y186632D01*
X-397897Y186643D01*
X-397863Y186676D01*
X-397819Y186731D01*
X-397763Y186798D01*
X-397697Y186887D01*
X-397641Y186998D01*
X-397597Y187120D01*
X-397564Y187253D01*
Y187264D01*
X-397552Y187309D01*
X-397541Y187386D01*
X-397530Y187497D01*
Y187642D01*
X-397519Y187742D01*
Y187841D01*
X-397508Y187952D01*
Y189107D01*
D02*
G37*
G36*
X24793Y146694D02*
X23639D01*
Y144507D01*
X24704D01*
X24782Y144518D01*
X24982D01*
X25181Y144529D01*
X25381Y144551D01*
X25559Y144585D01*
X25636Y144596D01*
X25703Y144618D01*
X25714Y144629D01*
X25759Y144640D01*
X25814Y144673D01*
X25881Y144707D01*
X25958Y144762D01*
X26036Y144829D01*
X26125Y144907D01*
X26191Y144995D01*
X26202Y145006D01*
X26225Y145040D01*
X26247Y145095D01*
X26280Y145173D01*
X26314Y145262D01*
X26347Y145362D01*
X26358Y145473D01*
X26369Y145595D01*
Y145617D01*
Y145661D01*
X26358Y145739D01*
X26336Y145839D01*
X26302Y145950D01*
X26258Y146072D01*
X26202Y146183D01*
X26114Y146294D01*
X26103Y146305D01*
X26069Y146338D01*
X26014Y146383D01*
X25947Y146438D01*
X25858Y146505D01*
X25747Y146560D01*
X25625Y146605D01*
X25492Y146638D01*
X25481D01*
X25437Y146649D01*
X25359Y146660D01*
X25248Y146671D01*
X25104D01*
X25004Y146683D01*
X24904D01*
X24793Y146694D01*
D02*
G37*
G36*
X362592Y190874D02*
X360405D01*
Y189808D01*
X360416Y189730D01*
Y189531D01*
X360427Y189331D01*
X360449Y189131D01*
X360483Y188953D01*
X360494Y188876D01*
X360516Y188809D01*
X360527Y188798D01*
X360538Y188754D01*
X360572Y188698D01*
X360605Y188632D01*
X360660Y188554D01*
X360727Y188476D01*
X360805Y188387D01*
X360894Y188321D01*
X360905Y188310D01*
X360938Y188288D01*
X360993Y188265D01*
X361071Y188232D01*
X361160Y188199D01*
X361260Y188165D01*
X361371Y188154D01*
X361493Y188143D01*
X361515D01*
X361559D01*
X361637Y188154D01*
X361737Y188176D01*
X361848Y188210D01*
X361970Y188254D01*
X362081Y188310D01*
X362192Y188398D01*
X362203Y188410D01*
X362237Y188443D01*
X362281Y188498D01*
X362337Y188565D01*
X362403Y188654D01*
X362459Y188765D01*
X362503Y188887D01*
X362536Y189020D01*
Y189031D01*
X362547Y189076D01*
X362559Y189153D01*
X362570Y189264D01*
Y189409D01*
X362581Y189508D01*
Y189608D01*
X362592Y189719D01*
Y190874D01*
D02*
G37*
G36*
X361315Y184269D02*
X361304D01*
X361282D01*
X361249D01*
X361193D01*
X361060Y184258D01*
X360905Y184236D01*
X360716Y184203D01*
X360538Y184147D01*
X360361Y184081D01*
X360216Y183981D01*
X360205Y183970D01*
X360161Y183925D01*
X360106Y183870D01*
X360050Y183781D01*
X359983Y183670D01*
X359928Y183548D01*
X359883Y183404D01*
X359872Y183248D01*
Y183226D01*
X359883Y183182D01*
X359895Y183104D01*
X359917Y183004D01*
X359950Y182893D01*
X360017Y182771D01*
X360094Y182649D01*
X360205Y182538D01*
X360216Y182527D01*
X360272Y182493D01*
X360350Y182438D01*
X360449Y182382D01*
X360594Y182338D01*
X360760Y182283D01*
X360960Y182249D01*
X361193Y182238D01*
X361204D01*
X361227D01*
X361260D01*
X361315D01*
X361437Y182260D01*
X361604Y182283D01*
X361782Y182316D01*
X361970Y182382D01*
X362148Y182460D01*
X362314Y182571D01*
X362337Y182582D01*
X362381Y182627D01*
X362436Y182693D01*
X362514Y182782D01*
X362592Y182893D01*
X362647Y183026D01*
X362692Y183171D01*
X362714Y183326D01*
Y183393D01*
X362692Y183470D01*
X362669Y183559D01*
X362636Y183670D01*
X362570Y183781D01*
X362492Y183892D01*
X362381Y184003D01*
X362370Y184014D01*
X362314Y184047D01*
X362237Y184092D01*
X362126Y184136D01*
X361981Y184181D01*
X361793Y184225D01*
X361571Y184258D01*
X361315Y184269D01*
D02*
G37*
G36*
X397592Y193843D02*
X395405D01*
Y192777D01*
X395416Y192700D01*
Y192500D01*
X395427Y192300D01*
X395449Y192100D01*
X395483Y191923D01*
X395494Y191845D01*
X395516Y191778D01*
X395527Y191767D01*
X395538Y191723D01*
X395572Y191667D01*
X395605Y191601D01*
X395660Y191523D01*
X395727Y191445D01*
X395805Y191357D01*
X395894Y191290D01*
X395905Y191279D01*
X395938Y191257D01*
X395993Y191234D01*
X396071Y191201D01*
X396160Y191168D01*
X396260Y191135D01*
X396371Y191124D01*
X396493Y191112D01*
X396515D01*
X396559D01*
X396637Y191124D01*
X396737Y191146D01*
X396848Y191179D01*
X396970Y191223D01*
X397081Y191279D01*
X397192Y191368D01*
X397203Y191379D01*
X397237Y191412D01*
X397281Y191468D01*
X397337Y191534D01*
X397403Y191623D01*
X397459Y191734D01*
X397503Y191856D01*
X397536Y191989D01*
Y192000D01*
X397547Y192045D01*
X397559Y192122D01*
X397570Y192234D01*
Y192378D01*
X397581Y192478D01*
Y192578D01*
X397592Y192689D01*
Y193843D01*
D02*
G37*
G36*
X395239Y181045D02*
X394994D01*
X394983D01*
X394939D01*
X394861D01*
X394772D01*
X394661D01*
X394539Y181034D01*
X394395D01*
X394251Y181023D01*
X393940Y181012D01*
X393629Y180989D01*
X393485Y180978D01*
X393352Y180956D01*
X393230Y180934D01*
X393119Y180912D01*
X393096Y180901D01*
X393041Y180889D01*
X392952Y180856D01*
X392852Y180823D01*
X392741Y180767D01*
X392630Y180712D01*
X392530Y180645D01*
X392453Y180579D01*
X392441Y180568D01*
X392430Y180545D01*
X392397Y180501D01*
X392375Y180445D01*
X392342Y180379D01*
X392308Y180301D01*
X392297Y180212D01*
X392286Y180112D01*
Y180068D01*
X392297Y180013D01*
X392308Y179957D01*
X392331Y179879D01*
X392353Y179802D01*
X392397Y179724D01*
X392453Y179646D01*
X392464Y179635D01*
X392486Y179613D01*
X392530Y179569D01*
X392597Y179524D01*
X392675Y179480D01*
X392786Y179424D01*
X392908Y179369D01*
X393063Y179324D01*
X393074D01*
X393085Y179313D01*
X393130D01*
X393174Y179302D01*
X393241Y179291D01*
X393318Y179280D01*
X393407Y179258D01*
X393518Y179247D01*
X393640Y179236D01*
X393785Y179213D01*
X393940Y179202D01*
X394118Y179191D01*
X394306Y179180D01*
X394517D01*
X394750Y179169D01*
X394994D01*
X395005D01*
X395050D01*
X395128D01*
X395216D01*
X395327D01*
X395449Y179180D01*
X395594D01*
X395738Y179191D01*
X396049Y179202D01*
X396349Y179224D01*
X396493Y179247D01*
X396637Y179269D01*
X396759Y179291D01*
X396859Y179313D01*
X396870D01*
X396881Y179324D01*
X396937Y179335D01*
X397026Y179369D01*
X397137Y179402D01*
X397248Y179458D01*
X397359Y179513D01*
X397459Y179580D01*
X397536Y179646D01*
X397547Y179657D01*
X397570Y179680D01*
X397592Y179724D01*
X397625Y179779D01*
X397658Y179846D01*
X397692Y179924D01*
X397703Y180013D01*
X397714Y180112D01*
Y180157D01*
X397703Y180212D01*
X397692Y180268D01*
X397669Y180346D01*
X397636Y180423D01*
X397592Y180512D01*
X397536Y180590D01*
X397525Y180601D01*
X397503Y180623D01*
X397459Y180656D01*
X397403Y180701D01*
X397314Y180756D01*
X397214Y180801D01*
X397081Y180856D01*
X396926Y180901D01*
X396915D01*
X396904Y180912D01*
X396859D01*
X396815Y180923D01*
X396748Y180934D01*
X396670Y180945D01*
X396582Y180956D01*
X396471Y180967D01*
X396338Y180989D01*
X396204Y181000D01*
X396038Y181012D01*
X395871Y181023D01*
X395672Y181034D01*
X395472D01*
X395239Y181045D01*
D02*
G37*
G36*
X-304748Y-155993D02*
X-304815D01*
X-304903Y-156015D01*
X-305003Y-156037D01*
X-305114Y-156082D01*
X-305236Y-156137D01*
X-305359Y-156226D01*
X-305469Y-156337D01*
X-305481Y-156348D01*
X-305514Y-156404D01*
X-305558Y-156481D01*
X-305614Y-156581D01*
X-305669Y-156726D01*
X-305714Y-156892D01*
X-305747Y-157092D01*
X-305758Y-157325D01*
Y-157336D01*
Y-157358D01*
Y-157392D01*
Y-157447D01*
X-305736Y-157569D01*
X-305714Y-157736D01*
X-305680Y-157913D01*
X-305625Y-158102D01*
X-305547Y-158280D01*
X-305436Y-158435D01*
X-305425Y-158446D01*
X-305381Y-158490D01*
X-305303Y-158557D01*
X-305214Y-158624D01*
X-305103Y-158701D01*
X-304981Y-158757D01*
X-304837Y-158801D01*
X-304681Y-158823D01*
X-304615D01*
X-304537Y-158801D01*
X-304437Y-158779D01*
X-304337Y-158746D01*
X-304215Y-158690D01*
X-304104Y-158613D01*
X-303993Y-158513D01*
X-303982Y-158502D01*
X-303949Y-158446D01*
X-303904Y-158368D01*
X-303849Y-158257D01*
X-303804Y-158113D01*
X-303760Y-157935D01*
X-303727Y-157713D01*
X-303716Y-157458D01*
Y-157447D01*
Y-157425D01*
Y-157381D01*
Y-157336D01*
X-303727Y-157203D01*
X-303749Y-157036D01*
X-303793Y-156859D01*
X-303838Y-156670D01*
X-303916Y-156493D01*
X-304015Y-156348D01*
X-304027Y-156337D01*
X-304071Y-156293D01*
X-304126Y-156237D01*
X-304215Y-156171D01*
X-304326Y-156104D01*
X-304448Y-156048D01*
X-304593Y-156004D01*
X-304748Y-155993D01*
D02*
G37*
%LPD*%
D10*
X-257558Y-158874D02*
X-272794D01*
Y-166492D01*
X-270254Y-169031D01*
X-260098D01*
X-257558Y-166492D01*
Y-158874D01*
X-272794Y-184266D02*
Y-174109D01*
X-262637Y-184266D01*
X-260098D01*
X-257558Y-181727D01*
Y-176648D01*
X-260098Y-174109D01*
X-275079Y-52575D02*
X-259844D01*
Y-44957D01*
X-262384Y-42418D01*
X-272540D01*
X-275079Y-44957D01*
Y-52575D01*
X-259844Y-37340D02*
Y-32261D01*
Y-34800D01*
X-275079D01*
X-272540Y-37340D01*
D12*
X36429Y-66121D02*
Y-76118D01*
X31430D01*
X29764Y-74452D01*
Y-71120D01*
X31430Y-69454D01*
X36429D01*
X19767Y-76118D02*
X23100Y-74452D01*
X26432Y-71120D01*
Y-67787D01*
X24766Y-66121D01*
X21434D01*
X19767Y-67787D01*
Y-69454D01*
X21434Y-71120D01*
X26432D01*
X36175Y201595D02*
Y191598D01*
X31176D01*
X29510Y193264D01*
Y196596D01*
X31176Y198262D01*
X36175D01*
X19513Y191598D02*
X26178D01*
Y196596D01*
X22846Y194930D01*
X21180D01*
X19513Y196596D01*
Y199928D01*
X21180Y201595D01*
X24512D01*
X26178Y199928D01*
D15*
X351883Y110523D02*
X353549Y112190D01*
Y115522D01*
X351883Y117188D01*
X345218D01*
X343552Y115522D01*
Y112190D01*
X345218Y110523D01*
X343552Y107191D02*
Y103859D01*
Y105525D01*
X353549D01*
X351883Y107191D01*
M02*
