G04*
G04 #@! TF.GenerationSoftware,Altium Limited,Altium Designer,26.7.1 (11)*
G04*
G04 Layer_Color=16711935*
G04 Board_Origin=18897639|9055118*
%FSLAX44Y44*%
%MOMM*%
G71*
G04*
G04 #@! TF.SameCoordinates,9D334BE7-458A-4C32-9C0E-2377755E4B48*
G04*
G04*
G04 #@! TF.FilePolarity,Negative*
G04*
G01*
G75*
%ADD30R,2.0032X2.0032*%
%ADD31C,2.0032*%
%ADD32C,1.8032*%
%ADD33C,1.7032*%
G04:AMPARAMS|DCode=34|XSize=2.2032mm|YSize=2.2032mm|CornerRadius=0mm|HoleSize=0mm|Usage=FLASHONLY|Rotation=0.000|XOffset=0mm|YOffset=0mm|HoleType=Round|Shape=Octagon|*
%AMOCTAGOND34*
4,1,8,1.1016,-0.5508,1.1016,0.5508,0.5508,1.1016,-0.5508,1.1016,-1.1016,0.5508,-1.1016,-0.5508,-0.5508,-1.1016,0.5508,-1.1016,1.1016,-0.5508,0.0*
%
%ADD34OCTAGOND34*%

%ADD35R,2.0032X2.0032*%
%ADD36C,2.2032*%
%ADD37R,1.8032X1.8032*%
%ADD38C,0.8032*%
%ADD39C,5.2032*%
D30*
X395000Y213106D02*
D03*
X360000D02*
D03*
X-400050Y211328D02*
D03*
X-365000D02*
D03*
X320802Y115824D02*
D03*
X423418Y-151130D02*
D03*
D31*
X320802Y90424D02*
D03*
X243534Y-40826D02*
D03*
X347218Y-151130D02*
D03*
X278892Y-190500D02*
D03*
X119380Y-190499D02*
D03*
X-188266Y144174D02*
D03*
X-32258Y-190499D02*
D03*
X32004D02*
D03*
X-96520Y-190500D02*
D03*
X320802Y-36576D02*
D03*
Y-11176D02*
D03*
Y14224D02*
D03*
Y39624D02*
D03*
Y65024D02*
D03*
Y-61976D02*
D03*
X119380Y-165100D02*
D03*
Y-139699D02*
D03*
X-96520Y-165100D02*
D03*
Y-139700D02*
D03*
X32004Y-165100D02*
D03*
Y-139699D02*
D03*
X-32258D02*
D03*
Y-165100D02*
D03*
X-86666Y-40826D02*
D03*
X91134Y144174D02*
D03*
X-61266Y-40826D02*
D03*
X278892Y-139700D02*
D03*
Y-165100D02*
D03*
X65734Y144174D02*
D03*
X116534Y-40826D02*
D03*
X141934D02*
D03*
X398018Y-151130D02*
D03*
X372618D02*
D03*
X218134Y-40826D02*
D03*
X192734D02*
D03*
X91134D02*
D03*
X40334D02*
D03*
X-10466D02*
D03*
X-112066D02*
D03*
X-162866D02*
D03*
X-188266D02*
D03*
X-137466D02*
D03*
X-35866D02*
D03*
X14934D02*
D03*
X65734D02*
D03*
X167334D02*
D03*
X268934D02*
D03*
X-365000Y160528D02*
D03*
Y185928D02*
D03*
X-400050Y160528D02*
D03*
Y185928D02*
D03*
X268934Y144174D02*
D03*
X243534D02*
D03*
X167334D02*
D03*
X141934D02*
D03*
X14934D02*
D03*
X-35866D02*
D03*
X-86666D02*
D03*
X-137466D02*
D03*
X-162866D02*
D03*
X-112066Y144173D02*
D03*
X-61266Y144174D02*
D03*
X-10466D02*
D03*
X40334D02*
D03*
X116534D02*
D03*
X192734D02*
D03*
X218134D02*
D03*
X360000Y162306D02*
D03*
Y187706D02*
D03*
X395000D02*
D03*
Y162306D02*
D03*
D32*
X244348Y-71120D02*
D03*
X-187706Y196596D02*
D03*
X-85852Y-71120D02*
D03*
X91694Y196596D02*
D03*
X-60452Y-71120D02*
D03*
X66294Y196596D02*
D03*
X117348Y-71120D02*
D03*
X142748D02*
D03*
X-212852D02*
D03*
X-187452D02*
D03*
X-111252D02*
D03*
X-9652D02*
D03*
X41148D02*
D03*
X91948D02*
D03*
X193548D02*
D03*
X218948D02*
D03*
X168148Y-71119D02*
D03*
X66548Y-71120D02*
D03*
X15748D02*
D03*
X-35052D02*
D03*
X-136652D02*
D03*
X-162052D02*
D03*
X-213106Y196596D02*
D03*
X-111506D02*
D03*
X-86106D02*
D03*
X-9906D02*
D03*
X40894D02*
D03*
X142494D02*
D03*
X193294D02*
D03*
X244094D02*
D03*
X218694D02*
D03*
X167894Y196597D02*
D03*
X117094Y196596D02*
D03*
X15494D02*
D03*
X-35306D02*
D03*
X-60706D02*
D03*
X-136906D02*
D03*
X-162306D02*
D03*
D33*
X-265088Y70150D02*
D03*
Y95550D02*
D03*
X-450088D02*
D03*
Y70150D02*
D03*
Y-19050D02*
D03*
Y-44450D02*
D03*
X-265088D02*
D03*
Y-19050D02*
D03*
D34*
X-353960Y-131110D02*
D03*
D35*
X119380Y-114299D02*
D03*
X-96520Y-114300D02*
D03*
X32004Y-114299D02*
D03*
X-32258D02*
D03*
X278892Y-114300D02*
D03*
X-213666Y-40826D02*
D03*
Y144174D02*
D03*
D36*
X-353960Y-181110D02*
D03*
D37*
X269748Y-71120D02*
D03*
X269494Y196596D02*
D03*
D38*
X473000Y218000D02*
D03*
X468000Y208000D02*
D03*
X473000Y198000D02*
D03*
X468000Y188000D02*
D03*
X473000Y178000D02*
D03*
Y118000D02*
D03*
X468000Y108000D02*
D03*
X473000Y98000D02*
D03*
X468000Y88000D02*
D03*
X473000Y78000D02*
D03*
X468000Y68000D02*
D03*
X473000Y58000D02*
D03*
X468000Y48000D02*
D03*
X473000Y38000D02*
D03*
X468000Y28000D02*
D03*
X473000Y18000D02*
D03*
X468000Y8000D02*
D03*
X473000Y-2000D02*
D03*
X468000Y-12000D02*
D03*
X473000Y-22000D02*
D03*
X468000Y-32000D02*
D03*
X473000Y-42000D02*
D03*
X468000Y-52000D02*
D03*
X473000Y-62000D02*
D03*
X468000Y-72000D02*
D03*
X473000Y-82000D02*
D03*
X468000Y-92000D02*
D03*
X473000Y-102000D02*
D03*
X468000Y-112000D02*
D03*
X473000Y-122000D02*
D03*
X468000Y-132000D02*
D03*
X473000Y-142000D02*
D03*
X468000Y-152000D02*
D03*
X473000Y-162000D02*
D03*
X468000Y-172000D02*
D03*
X473000Y-182000D02*
D03*
X468000Y-192000D02*
D03*
X473000Y-202000D02*
D03*
X468000Y-212000D02*
D03*
X463000Y218000D02*
D03*
X458000Y208000D02*
D03*
X463000Y198000D02*
D03*
Y118000D02*
D03*
X458000Y108000D02*
D03*
X463000Y98000D02*
D03*
X458000Y88000D02*
D03*
X463000Y78000D02*
D03*
X458000Y68000D02*
D03*
X463000Y58000D02*
D03*
X458000Y48000D02*
D03*
X463000Y38000D02*
D03*
X458000Y28000D02*
D03*
X463000Y18000D02*
D03*
X458000Y8000D02*
D03*
X463000Y-2000D02*
D03*
X458000Y-12000D02*
D03*
X463000Y-22000D02*
D03*
X458000Y-32000D02*
D03*
X463000Y-42000D02*
D03*
X458000Y-52000D02*
D03*
X463000Y-62000D02*
D03*
X458000Y-72000D02*
D03*
X463000Y-82000D02*
D03*
X458000Y-92000D02*
D03*
X463000Y-102000D02*
D03*
X458000Y-112000D02*
D03*
X463000Y-122000D02*
D03*
X458000Y-132000D02*
D03*
X463000Y-142000D02*
D03*
X458000Y-152000D02*
D03*
X463000Y-162000D02*
D03*
X458000Y-172000D02*
D03*
X463000Y-182000D02*
D03*
Y-202000D02*
D03*
X458000Y-212000D02*
D03*
X453000Y218000D02*
D03*
Y118000D02*
D03*
X448000Y108000D02*
D03*
X453000Y98000D02*
D03*
X448000Y88000D02*
D03*
X453000Y78000D02*
D03*
X448000Y68000D02*
D03*
X453000Y58000D02*
D03*
X448000Y48000D02*
D03*
X453000Y38000D02*
D03*
X448000Y28000D02*
D03*
X453000Y18000D02*
D03*
X448000Y8000D02*
D03*
X453000Y-2000D02*
D03*
X448000Y-12000D02*
D03*
X453000Y-22000D02*
D03*
X448000Y-32000D02*
D03*
X453000Y-42000D02*
D03*
X448000Y-52000D02*
D03*
X453000Y-62000D02*
D03*
X448000Y-72000D02*
D03*
X453000Y-82000D02*
D03*
X448000Y-92000D02*
D03*
X453000Y-102000D02*
D03*
X448000Y-112000D02*
D03*
X453000Y-122000D02*
D03*
X448000Y-132000D02*
D03*
X453000Y-142000D02*
D03*
X448000Y-152000D02*
D03*
X453000Y-162000D02*
D03*
X448000Y-172000D02*
D03*
Y-212000D02*
D03*
X443000Y218000D02*
D03*
X438000Y108000D02*
D03*
X443000Y98000D02*
D03*
X438000Y88000D02*
D03*
X443000Y78000D02*
D03*
X438000Y68000D02*
D03*
X443000Y58000D02*
D03*
X438000Y48000D02*
D03*
X443000Y38000D02*
D03*
X438000Y28000D02*
D03*
X443000Y18000D02*
D03*
X438000Y8000D02*
D03*
X443000Y-2000D02*
D03*
X438000Y-12000D02*
D03*
X443000Y-22000D02*
D03*
X438000Y-32000D02*
D03*
X443000Y-42000D02*
D03*
X438000Y-52000D02*
D03*
X443000Y-62000D02*
D03*
X438000Y-72000D02*
D03*
X443000Y-82000D02*
D03*
X438000Y-92000D02*
D03*
X443000Y-102000D02*
D03*
X438000Y-112000D02*
D03*
X443000Y-122000D02*
D03*
X438000Y-132000D02*
D03*
X443000Y-142000D02*
D03*
Y-162000D02*
D03*
X438000Y-172000D02*
D03*
Y-212000D02*
D03*
X433000Y218000D02*
D03*
X428000Y208000D02*
D03*
Y188000D02*
D03*
X433000Y118000D02*
D03*
X428000Y108000D02*
D03*
X433000Y98000D02*
D03*
X428000Y-172000D02*
D03*
X433000Y-182000D02*
D03*
X428000Y-212000D02*
D03*
X423000Y218000D02*
D03*
X418000Y208000D02*
D03*
X423000Y198000D02*
D03*
X418000Y188000D02*
D03*
Y128000D02*
D03*
X423000Y118000D02*
D03*
X418000Y-172000D02*
D03*
X423000Y-182000D02*
D03*
X418000Y-192000D02*
D03*
X423000Y-202000D02*
D03*
X418000Y-212000D02*
D03*
X413000Y178000D02*
D03*
X408000Y148000D02*
D03*
Y128000D02*
D03*
Y88000D02*
D03*
Y68000D02*
D03*
Y48000D02*
D03*
Y28000D02*
D03*
Y8000D02*
D03*
Y-12000D02*
D03*
Y-32000D02*
D03*
Y-52000D02*
D03*
Y-72000D02*
D03*
Y-92000D02*
D03*
Y-112000D02*
D03*
Y-132000D02*
D03*
Y-172000D02*
D03*
X413000Y-182000D02*
D03*
X408000Y-192000D02*
D03*
X413000Y-202000D02*
D03*
X408000Y-212000D02*
D03*
X403000Y138000D02*
D03*
X398000Y88000D02*
D03*
X403000Y78000D02*
D03*
X398000Y68000D02*
D03*
X403000Y58000D02*
D03*
X398000Y48000D02*
D03*
X403000Y38000D02*
D03*
X398000Y28000D02*
D03*
X403000Y18000D02*
D03*
X398000Y8000D02*
D03*
X403000Y-2000D02*
D03*
X398000Y-12000D02*
D03*
X403000Y-22000D02*
D03*
X398000Y-32000D02*
D03*
X403000Y-42000D02*
D03*
X398000Y-52000D02*
D03*
X403000Y-62000D02*
D03*
X398000Y-72000D02*
D03*
X403000Y-82000D02*
D03*
X398000Y-92000D02*
D03*
X403000Y-102000D02*
D03*
X398000Y-112000D02*
D03*
X403000Y-122000D02*
D03*
X398000Y-132000D02*
D03*
Y-172000D02*
D03*
X403000Y-182000D02*
D03*
X398000Y-192000D02*
D03*
X403000Y-202000D02*
D03*
X398000Y-212000D02*
D03*
X393000Y138000D02*
D03*
Y98000D02*
D03*
X388000Y88000D02*
D03*
X393000Y78000D02*
D03*
X388000Y68000D02*
D03*
X393000Y58000D02*
D03*
X388000Y48000D02*
D03*
X393000Y38000D02*
D03*
X388000Y28000D02*
D03*
X393000Y18000D02*
D03*
X388000Y8000D02*
D03*
X393000Y-2000D02*
D03*
X388000Y-12000D02*
D03*
X393000Y-22000D02*
D03*
X388000Y-32000D02*
D03*
X393000Y-42000D02*
D03*
X388000Y-52000D02*
D03*
X393000Y-62000D02*
D03*
X388000Y-72000D02*
D03*
X393000Y-82000D02*
D03*
X388000Y-92000D02*
D03*
X393000Y-102000D02*
D03*
X388000Y-172000D02*
D03*
X393000Y-182000D02*
D03*
X388000Y-192000D02*
D03*
X393000Y-202000D02*
D03*
X388000Y-212000D02*
D03*
X378000Y168000D02*
D03*
X383000Y98000D02*
D03*
X378000Y88000D02*
D03*
X383000Y78000D02*
D03*
X378000Y68000D02*
D03*
X383000Y58000D02*
D03*
X378000Y48000D02*
D03*
X383000Y38000D02*
D03*
X378000Y28000D02*
D03*
X383000Y18000D02*
D03*
X378000Y8000D02*
D03*
X383000Y-2000D02*
D03*
X378000Y-12000D02*
D03*
X383000Y-22000D02*
D03*
X378000Y-32000D02*
D03*
X383000Y-42000D02*
D03*
X378000Y-52000D02*
D03*
X383000Y-62000D02*
D03*
X378000Y-72000D02*
D03*
X383000Y-82000D02*
D03*
X378000Y-92000D02*
D03*
Y-172000D02*
D03*
X383000Y-182000D02*
D03*
X378000Y-192000D02*
D03*
X383000Y-202000D02*
D03*
X378000Y-212000D02*
D03*
X373000Y98000D02*
D03*
X368000Y88000D02*
D03*
X373000Y78000D02*
D03*
X368000Y68000D02*
D03*
X373000Y58000D02*
D03*
X368000Y48000D02*
D03*
X373000Y38000D02*
D03*
X368000Y28000D02*
D03*
X373000Y18000D02*
D03*
X368000Y8000D02*
D03*
X373000Y-2000D02*
D03*
X368000Y-12000D02*
D03*
X373000Y-22000D02*
D03*
X368000Y-32000D02*
D03*
X373000Y-42000D02*
D03*
X368000Y-52000D02*
D03*
X373000Y-62000D02*
D03*
X368000Y-72000D02*
D03*
X373000Y-82000D02*
D03*
X368000Y-132000D02*
D03*
Y-172000D02*
D03*
X373000Y-182000D02*
D03*
X368000Y-192000D02*
D03*
X373000Y-202000D02*
D03*
X368000Y-212000D02*
D03*
X363000Y78000D02*
D03*
X358000Y68000D02*
D03*
X363000Y58000D02*
D03*
X358000Y48000D02*
D03*
X363000Y38000D02*
D03*
X358000Y28000D02*
D03*
X363000Y18000D02*
D03*
X358000Y8000D02*
D03*
X363000Y-2000D02*
D03*
X358000Y-12000D02*
D03*
X363000Y-22000D02*
D03*
X358000Y-32000D02*
D03*
X363000Y-42000D02*
D03*
X358000Y-52000D02*
D03*
X363000Y-62000D02*
D03*
X358000Y-72000D02*
D03*
Y-112000D02*
D03*
X363000Y-122000D02*
D03*
X358000Y-132000D02*
D03*
Y-172000D02*
D03*
X363000Y-182000D02*
D03*
X358000Y-192000D02*
D03*
X363000Y-202000D02*
D03*
X358000Y-212000D02*
D03*
X348000Y148000D02*
D03*
X353000Y78000D02*
D03*
X348000Y68000D02*
D03*
X353000Y58000D02*
D03*
X348000Y48000D02*
D03*
X353000Y38000D02*
D03*
X348000Y28000D02*
D03*
X353000Y18000D02*
D03*
X348000Y8000D02*
D03*
X353000Y-2000D02*
D03*
X348000Y-12000D02*
D03*
X353000Y-22000D02*
D03*
X348000Y-32000D02*
D03*
X353000Y-42000D02*
D03*
X348000Y-52000D02*
D03*
X353000Y-62000D02*
D03*
X348000Y-72000D02*
D03*
Y-112000D02*
D03*
X353000Y-122000D02*
D03*
X348000Y-172000D02*
D03*
X353000Y-182000D02*
D03*
X348000Y-192000D02*
D03*
X353000Y-202000D02*
D03*
X348000Y-212000D02*
D03*
X338000Y208000D02*
D03*
Y148000D02*
D03*
X343000Y78000D02*
D03*
X338000Y68000D02*
D03*
X343000Y58000D02*
D03*
X338000Y48000D02*
D03*
X343000Y38000D02*
D03*
X338000Y28000D02*
D03*
X343000Y18000D02*
D03*
X338000Y8000D02*
D03*
X343000Y-2000D02*
D03*
X338000Y-12000D02*
D03*
X343000Y-22000D02*
D03*
X338000Y-32000D02*
D03*
X343000Y-42000D02*
D03*
X338000Y-52000D02*
D03*
X343000Y-62000D02*
D03*
X338000Y-72000D02*
D03*
Y-112000D02*
D03*
X343000Y-122000D02*
D03*
X338000Y-132000D02*
D03*
Y-172000D02*
D03*
X343000Y-182000D02*
D03*
X338000Y-192000D02*
D03*
X343000Y-202000D02*
D03*
X338000Y-212000D02*
D03*
X333000Y218000D02*
D03*
X328000Y208000D02*
D03*
Y148000D02*
D03*
X333000Y-22000D02*
D03*
X328000Y-112000D02*
D03*
X333000Y-122000D02*
D03*
X328000Y-132000D02*
D03*
Y-172000D02*
D03*
X333000Y-182000D02*
D03*
X328000Y-192000D02*
D03*
X333000Y-202000D02*
D03*
X328000Y-212000D02*
D03*
X323000Y218000D02*
D03*
Y178000D02*
D03*
X318000Y148000D02*
D03*
Y-112000D02*
D03*
X323000Y-122000D02*
D03*
X318000Y-132000D02*
D03*
X323000Y-142000D02*
D03*
X318000Y-152000D02*
D03*
X323000Y-162000D02*
D03*
X318000Y-172000D02*
D03*
X323000Y-182000D02*
D03*
X318000Y-192000D02*
D03*
X323000Y-202000D02*
D03*
X318000Y-212000D02*
D03*
X308000Y188000D02*
D03*
X313000Y178000D02*
D03*
X308000Y28000D02*
D03*
Y-52000D02*
D03*
Y-72000D02*
D03*
Y-112000D02*
D03*
X313000Y-122000D02*
D03*
X308000Y-132000D02*
D03*
X313000Y-142000D02*
D03*
X308000Y-152000D02*
D03*
X313000Y-162000D02*
D03*
X308000Y-172000D02*
D03*
X313000Y-182000D02*
D03*
X308000Y-192000D02*
D03*
X313000Y-202000D02*
D03*
X308000Y-212000D02*
D03*
X298000Y188000D02*
D03*
X303000Y178000D02*
D03*
X298000Y168000D02*
D03*
Y88000D02*
D03*
X303000Y78000D02*
D03*
X298000Y28000D02*
D03*
X303000Y18000D02*
D03*
X298000Y-112000D02*
D03*
X303000Y-122000D02*
D03*
X298000Y-132000D02*
D03*
X303000Y-142000D02*
D03*
X298000Y-152000D02*
D03*
X303000Y-162000D02*
D03*
X298000Y-172000D02*
D03*
X303000Y-182000D02*
D03*
Y-202000D02*
D03*
X298000Y-212000D02*
D03*
X293000Y198000D02*
D03*
X288000Y188000D02*
D03*
X293000Y178000D02*
D03*
X288000Y168000D02*
D03*
X293000Y158000D02*
D03*
Y98000D02*
D03*
X288000Y88000D02*
D03*
X293000Y78000D02*
D03*
X288000Y28000D02*
D03*
X293000Y18000D02*
D03*
X288000Y-92000D02*
D03*
Y-212000D02*
D03*
X283000Y178000D02*
D03*
Y158000D02*
D03*
Y78000D02*
D03*
X278000Y28000D02*
D03*
X283000Y18000D02*
D03*
X278000Y-92000D02*
D03*
Y-212000D02*
D03*
X273000Y78000D02*
D03*
X268000Y28000D02*
D03*
X273000Y18000D02*
D03*
Y-22000D02*
D03*
X268000Y-92000D02*
D03*
Y-212000D02*
D03*
X258000Y28000D02*
D03*
X263000Y18000D02*
D03*
Y-22000D02*
D03*
X258000Y-92000D02*
D03*
Y-192000D02*
D03*
Y-212000D02*
D03*
X248000Y28000D02*
D03*
X253000Y18000D02*
D03*
Y-22000D02*
D03*
X248000Y-92000D02*
D03*
X253000Y-102000D02*
D03*
Y-182000D02*
D03*
X248000Y-192000D02*
D03*
X253000Y-202000D02*
D03*
X248000Y-212000D02*
D03*
X238000Y28000D02*
D03*
X243000Y18000D02*
D03*
X238000Y-92000D02*
D03*
X243000Y-102000D02*
D03*
X238000Y-172000D02*
D03*
X243000Y-182000D02*
D03*
X238000Y-192000D02*
D03*
X243000Y-202000D02*
D03*
X238000Y-212000D02*
D03*
X228000Y28000D02*
D03*
X233000Y18000D02*
D03*
Y-22000D02*
D03*
X228000Y-92000D02*
D03*
X233000Y-102000D02*
D03*
X228000Y-172000D02*
D03*
X233000Y-182000D02*
D03*
X228000Y-192000D02*
D03*
X233000Y-202000D02*
D03*
X228000Y-212000D02*
D03*
X223000Y18000D02*
D03*
Y-22000D02*
D03*
X218000Y-92000D02*
D03*
X223000Y-102000D02*
D03*
X218000Y-152000D02*
D03*
X208000Y68000D02*
D03*
X213000Y-22000D02*
D03*
X208000Y-92000D02*
D03*
Y-152000D02*
D03*
X198000Y68000D02*
D03*
X203000Y58000D02*
D03*
Y-22000D02*
D03*
X198000Y-92000D02*
D03*
Y-152000D02*
D03*
X193000Y58000D02*
D03*
X188000Y48000D02*
D03*
X193000Y-22000D02*
D03*
X188000Y-92000D02*
D03*
Y-152000D02*
D03*
X183000Y58000D02*
D03*
X178000Y48000D02*
D03*
X183000Y38000D02*
D03*
Y-22000D02*
D03*
Y-82000D02*
D03*
X178000Y-92000D02*
D03*
Y-152000D02*
D03*
X173000Y38000D02*
D03*
X168000Y28000D02*
D03*
Y-92000D02*
D03*
Y-152000D02*
D03*
X163000Y78000D02*
D03*
X158000Y68000D02*
D03*
X163000Y38000D02*
D03*
X158000Y28000D02*
D03*
X163000Y18000D02*
D03*
X158000Y-92000D02*
D03*
X163000Y-102000D02*
D03*
X153000Y98000D02*
D03*
Y18000D02*
D03*
X148000Y-92000D02*
D03*
X153000Y-102000D02*
D03*
Y-162000D02*
D03*
X148000Y-172000D02*
D03*
X153000Y-182000D02*
D03*
X148000Y-192000D02*
D03*
X153000Y-202000D02*
D03*
X148000Y-212000D02*
D03*
X143000Y98000D02*
D03*
X138000Y88000D02*
D03*
X143000Y58000D02*
D03*
X138000Y48000D02*
D03*
X143000Y18000D02*
D03*
X138000Y-92000D02*
D03*
X143000Y-102000D02*
D03*
Y-182000D02*
D03*
Y-202000D02*
D03*
X138000Y-212000D02*
D03*
X133000Y98000D02*
D03*
X128000Y88000D02*
D03*
X133000Y78000D02*
D03*
X128000Y-92000D02*
D03*
Y-212000D02*
D03*
X123000Y98000D02*
D03*
X118000Y88000D02*
D03*
X123000Y78000D02*
D03*
X118000Y68000D02*
D03*
X123000Y38000D02*
D03*
Y-22000D02*
D03*
X118000Y-92000D02*
D03*
Y-212000D02*
D03*
X113000Y98000D02*
D03*
X108000Y88000D02*
D03*
X113000Y78000D02*
D03*
X108000Y68000D02*
D03*
X113000Y38000D02*
D03*
Y-22000D02*
D03*
X108000Y-212000D02*
D03*
X103000Y98000D02*
D03*
X98000Y88000D02*
D03*
X103000Y78000D02*
D03*
X98000Y68000D02*
D03*
X103000Y38000D02*
D03*
Y-22000D02*
D03*
Y-82000D02*
D03*
X98000Y-192000D02*
D03*
X103000Y-202000D02*
D03*
X98000Y-212000D02*
D03*
X93000Y98000D02*
D03*
Y78000D02*
D03*
X88000Y68000D02*
D03*
X93000Y38000D02*
D03*
Y-22000D02*
D03*
Y-182000D02*
D03*
X88000Y-192000D02*
D03*
X93000Y-202000D02*
D03*
X88000Y-212000D02*
D03*
X78000Y68000D02*
D03*
X83000Y38000D02*
D03*
Y-22000D02*
D03*
Y-182000D02*
D03*
X68000Y68000D02*
D03*
X73000Y38000D02*
D03*
Y-22000D02*
D03*
X58000Y68000D02*
D03*
X63000Y38000D02*
D03*
Y-22000D02*
D03*
Y-182000D02*
D03*
X58000Y-212000D02*
D03*
X48000Y88000D02*
D03*
X53000Y78000D02*
D03*
X48000Y68000D02*
D03*
X53000Y38000D02*
D03*
Y-22000D02*
D03*
Y-182000D02*
D03*
Y-202000D02*
D03*
X48000Y-212000D02*
D03*
X43000Y78000D02*
D03*
X38000Y68000D02*
D03*
X43000Y38000D02*
D03*
Y-22000D02*
D03*
X38000Y-212000D02*
D03*
X28000Y68000D02*
D03*
X33000Y38000D02*
D03*
Y-22000D02*
D03*
X28000Y-212000D02*
D03*
X23000Y38000D02*
D03*
Y-22000D02*
D03*
X18000Y-212000D02*
D03*
X13000Y38000D02*
D03*
Y-22000D02*
D03*
X8000Y-132000D02*
D03*
X13000Y-142000D02*
D03*
Y-182000D02*
D03*
X8000Y-192000D02*
D03*
X13000Y-202000D02*
D03*
X8000Y-212000D02*
D03*
X3000Y98000D02*
D03*
Y38000D02*
D03*
Y-22000D02*
D03*
X-2000Y-132000D02*
D03*
X3000Y-142000D02*
D03*
Y-182000D02*
D03*
X-2000Y-192000D02*
D03*
X3000Y-202000D02*
D03*
X-2000Y-212000D02*
D03*
X-7000Y98000D02*
D03*
X-12000Y88000D02*
D03*
Y8000D02*
D03*
X-7000Y-122000D02*
D03*
X-12000Y-132000D02*
D03*
X-7000Y-142000D02*
D03*
Y-182000D02*
D03*
X-12000Y-192000D02*
D03*
X-7000Y-202000D02*
D03*
X-12000Y-212000D02*
D03*
X-17000Y98000D02*
D03*
X-22000Y88000D02*
D03*
X-17000Y78000D02*
D03*
X-22000Y8000D02*
D03*
X-17000Y-2000D02*
D03*
X-22000Y-212000D02*
D03*
X-27000Y98000D02*
D03*
X-32000Y88000D02*
D03*
X-27000Y78000D02*
D03*
X-32000Y8000D02*
D03*
X-27000Y-2000D02*
D03*
X-32000Y-12000D02*
D03*
Y-212000D02*
D03*
X-37000Y98000D02*
D03*
X-42000Y88000D02*
D03*
X-37000Y78000D02*
D03*
X-42000Y8000D02*
D03*
X-37000Y-2000D02*
D03*
X-42000Y-12000D02*
D03*
X-37000Y-22000D02*
D03*
X-42000Y-212000D02*
D03*
X-47000Y98000D02*
D03*
X-52000Y88000D02*
D03*
X-47000Y78000D02*
D03*
Y-2000D02*
D03*
X-52000Y-12000D02*
D03*
X-47000Y-22000D02*
D03*
X-52000Y-212000D02*
D03*
X-57000Y98000D02*
D03*
X-62000Y88000D02*
D03*
X-57000Y78000D02*
D03*
Y-2000D02*
D03*
X-62000Y-12000D02*
D03*
X-57000Y-22000D02*
D03*
Y-182000D02*
D03*
X-62000Y-192000D02*
D03*
X-57000Y-202000D02*
D03*
X-62000Y-212000D02*
D03*
X-67000Y98000D02*
D03*
X-72000Y88000D02*
D03*
X-67000Y78000D02*
D03*
Y-22000D02*
D03*
Y-182000D02*
D03*
X-72000Y-192000D02*
D03*
X-67000Y-202000D02*
D03*
X-72000Y-212000D02*
D03*
X-77000Y98000D02*
D03*
X-82000Y88000D02*
D03*
X-77000Y78000D02*
D03*
Y-22000D02*
D03*
X-82000Y-92000D02*
D03*
X-77000Y-102000D02*
D03*
Y-182000D02*
D03*
Y-202000D02*
D03*
X-82000Y-212000D02*
D03*
X-87000Y98000D02*
D03*
Y78000D02*
D03*
X-92000Y28000D02*
D03*
Y-92000D02*
D03*
Y-212000D02*
D03*
X-102000Y28000D02*
D03*
X-97000Y18000D02*
D03*
Y-82000D02*
D03*
X-102000Y-92000D02*
D03*
Y-212000D02*
D03*
X-112000Y28000D02*
D03*
X-107000Y18000D02*
D03*
X-112000Y8000D02*
D03*
Y-92000D02*
D03*
Y-212000D02*
D03*
X-122000Y28000D02*
D03*
X-117000Y18000D02*
D03*
X-122000Y8000D02*
D03*
X-117000Y-2000D02*
D03*
X-122000Y-92000D02*
D03*
X-117000Y-102000D02*
D03*
Y-182000D02*
D03*
X-122000Y-192000D02*
D03*
X-117000Y-202000D02*
D03*
X-122000Y-212000D02*
D03*
X-127000Y98000D02*
D03*
X-132000Y88000D02*
D03*
X-127000Y78000D02*
D03*
X-132000Y28000D02*
D03*
X-127000Y18000D02*
D03*
X-132000Y8000D02*
D03*
X-127000Y-2000D02*
D03*
X-132000Y-12000D02*
D03*
Y-92000D02*
D03*
X-127000Y-102000D02*
D03*
X-132000Y-172000D02*
D03*
X-127000Y-182000D02*
D03*
X-132000Y-192000D02*
D03*
X-127000Y-202000D02*
D03*
X-132000Y-212000D02*
D03*
X-137000Y98000D02*
D03*
X-142000Y88000D02*
D03*
X-137000Y78000D02*
D03*
X-142000Y28000D02*
D03*
X-137000Y18000D02*
D03*
X-142000Y8000D02*
D03*
X-137000Y-2000D02*
D03*
X-142000Y-12000D02*
D03*
X-137000Y-22000D02*
D03*
X-142000Y-92000D02*
D03*
X-137000Y-102000D02*
D03*
X-142000Y-172000D02*
D03*
X-137000Y-182000D02*
D03*
X-142000Y-192000D02*
D03*
X-137000Y-202000D02*
D03*
X-142000Y-212000D02*
D03*
X-147000Y98000D02*
D03*
X-152000Y88000D02*
D03*
X-147000Y78000D02*
D03*
X-152000Y28000D02*
D03*
X-147000Y18000D02*
D03*
X-152000Y8000D02*
D03*
X-147000Y-2000D02*
D03*
X-152000Y-12000D02*
D03*
X-147000Y-22000D02*
D03*
X-152000Y-92000D02*
D03*
X-147000Y-102000D02*
D03*
X-152000Y-152000D02*
D03*
X-147000Y-162000D02*
D03*
X-152000Y-172000D02*
D03*
X-147000Y-182000D02*
D03*
X-152000Y-192000D02*
D03*
X-147000Y-202000D02*
D03*
X-152000Y-212000D02*
D03*
X-157000Y98000D02*
D03*
X-162000Y88000D02*
D03*
X-157000Y78000D02*
D03*
X-162000Y28000D02*
D03*
X-157000Y18000D02*
D03*
X-162000Y8000D02*
D03*
X-157000Y-2000D02*
D03*
X-162000Y-92000D02*
D03*
X-157000Y-102000D02*
D03*
X-162000Y-152000D02*
D03*
X-172000Y168000D02*
D03*
X-167000Y98000D02*
D03*
X-172000Y88000D02*
D03*
X-167000Y78000D02*
D03*
X-172000Y28000D02*
D03*
X-167000Y18000D02*
D03*
X-172000Y-92000D02*
D03*
X-167000Y-102000D02*
D03*
X-172000Y-152000D02*
D03*
X-177000Y178000D02*
D03*
X-182000Y168000D02*
D03*
X-177000Y98000D02*
D03*
X-182000Y88000D02*
D03*
X-177000Y78000D02*
D03*
Y18000D02*
D03*
X-182000Y-92000D02*
D03*
X-177000Y-102000D02*
D03*
X-182000Y-152000D02*
D03*
X-192000Y168000D02*
D03*
X-187000Y98000D02*
D03*
X-192000Y88000D02*
D03*
X-187000Y78000D02*
D03*
X-192000Y68000D02*
D03*
Y-92000D02*
D03*
X-187000Y-102000D02*
D03*
X-192000Y-152000D02*
D03*
X-197000Y178000D02*
D03*
Y98000D02*
D03*
X-202000Y88000D02*
D03*
X-197000Y78000D02*
D03*
X-202000Y68000D02*
D03*
X-197000Y58000D02*
D03*
X-202000Y-92000D02*
D03*
X-197000Y-102000D02*
D03*
X-202000Y-152000D02*
D03*
X-207000Y98000D02*
D03*
X-212000Y88000D02*
D03*
X-207000Y78000D02*
D03*
X-212000Y68000D02*
D03*
X-207000Y58000D02*
D03*
X-212000Y48000D02*
D03*
X-207000Y-22000D02*
D03*
X-212000Y-152000D02*
D03*
X-222000Y108000D02*
D03*
X-217000Y98000D02*
D03*
X-222000Y88000D02*
D03*
X-217000Y78000D02*
D03*
X-222000Y68000D02*
D03*
X-217000Y58000D02*
D03*
X-222000Y48000D02*
D03*
X-217000Y38000D02*
D03*
Y-22000D02*
D03*
Y-142000D02*
D03*
X-222000Y-152000D02*
D03*
X-232000Y188000D02*
D03*
X-227000Y178000D02*
D03*
X-232000Y168000D02*
D03*
Y148000D02*
D03*
Y128000D02*
D03*
X-227000Y118000D02*
D03*
X-232000Y108000D02*
D03*
X-227000Y98000D02*
D03*
X-232000Y88000D02*
D03*
X-227000Y78000D02*
D03*
X-232000Y68000D02*
D03*
X-227000Y58000D02*
D03*
X-232000Y48000D02*
D03*
X-227000Y38000D02*
D03*
X-232000Y28000D02*
D03*
X-227000Y-142000D02*
D03*
X-232000Y-152000D02*
D03*
X-227000Y-162000D02*
D03*
X-232000Y-172000D02*
D03*
X-227000Y-182000D02*
D03*
X-232000Y-192000D02*
D03*
X-227000Y-202000D02*
D03*
X-232000Y-212000D02*
D03*
X-242000Y188000D02*
D03*
X-237000Y178000D02*
D03*
X-242000Y168000D02*
D03*
X-237000Y158000D02*
D03*
X-242000Y148000D02*
D03*
X-237000Y138000D02*
D03*
X-242000Y128000D02*
D03*
X-237000Y118000D02*
D03*
X-242000Y108000D02*
D03*
X-237000Y98000D02*
D03*
X-242000Y88000D02*
D03*
X-237000Y78000D02*
D03*
X-242000Y68000D02*
D03*
X-237000Y58000D02*
D03*
X-242000Y48000D02*
D03*
X-237000Y38000D02*
D03*
X-242000Y28000D02*
D03*
X-237000Y-142000D02*
D03*
X-242000Y-152000D02*
D03*
X-237000Y-162000D02*
D03*
X-242000Y-172000D02*
D03*
X-237000Y-182000D02*
D03*
X-242000Y-192000D02*
D03*
X-237000Y-202000D02*
D03*
X-242000Y-212000D02*
D03*
X-247000Y178000D02*
D03*
X-252000Y168000D02*
D03*
X-247000Y158000D02*
D03*
X-252000Y148000D02*
D03*
X-247000Y138000D02*
D03*
X-252000Y128000D02*
D03*
X-247000Y118000D02*
D03*
Y78000D02*
D03*
Y58000D02*
D03*
X-252000Y48000D02*
D03*
X-247000Y38000D02*
D03*
X-252000Y28000D02*
D03*
X-247000Y-142000D02*
D03*
X-252000Y-152000D02*
D03*
X-247000Y-162000D02*
D03*
Y-182000D02*
D03*
Y-202000D02*
D03*
X-252000Y-212000D02*
D03*
X-257000Y218000D02*
D03*
X-262000Y208000D02*
D03*
Y168000D02*
D03*
X-257000Y158000D02*
D03*
X-262000Y148000D02*
D03*
X-257000Y138000D02*
D03*
X-262000Y128000D02*
D03*
X-257000Y118000D02*
D03*
X-262000Y48000D02*
D03*
X-257000Y38000D02*
D03*
X-262000Y28000D02*
D03*
X-257000Y-62000D02*
D03*
X-262000Y-72000D02*
D03*
X-257000Y-82000D02*
D03*
Y-142000D02*
D03*
Y-202000D02*
D03*
X-262000Y-212000D02*
D03*
X-267000Y218000D02*
D03*
X-272000Y208000D02*
D03*
Y168000D02*
D03*
X-267000Y158000D02*
D03*
X-272000Y148000D02*
D03*
X-267000Y138000D02*
D03*
X-272000Y128000D02*
D03*
X-267000Y118000D02*
D03*
X-272000Y48000D02*
D03*
X-267000Y38000D02*
D03*
X-272000Y28000D02*
D03*
Y-72000D02*
D03*
X-267000Y-142000D02*
D03*
Y-202000D02*
D03*
X-272000Y-212000D02*
D03*
X-277000Y218000D02*
D03*
X-282000Y208000D02*
D03*
Y168000D02*
D03*
X-277000Y158000D02*
D03*
X-282000Y148000D02*
D03*
X-277000Y138000D02*
D03*
X-282000Y128000D02*
D03*
X-277000Y118000D02*
D03*
X-282000Y108000D02*
D03*
Y88000D02*
D03*
Y48000D02*
D03*
X-277000Y38000D02*
D03*
X-282000Y28000D02*
D03*
Y-32000D02*
D03*
X-277000Y-142000D02*
D03*
Y-202000D02*
D03*
X-282000Y-212000D02*
D03*
X-287000Y218000D02*
D03*
X-292000Y208000D02*
D03*
Y168000D02*
D03*
X-287000Y158000D02*
D03*
X-292000Y148000D02*
D03*
X-287000Y138000D02*
D03*
X-292000Y128000D02*
D03*
X-287000Y118000D02*
D03*
X-292000Y108000D02*
D03*
X-287000Y98000D02*
D03*
X-292000Y88000D02*
D03*
X-287000Y78000D02*
D03*
X-292000Y68000D02*
D03*
X-287000Y58000D02*
D03*
X-292000Y48000D02*
D03*
X-287000Y38000D02*
D03*
X-292000Y28000D02*
D03*
X-287000Y-22000D02*
D03*
X-292000Y-32000D02*
D03*
X-287000Y-42000D02*
D03*
X-292000Y-52000D02*
D03*
X-287000Y-142000D02*
D03*
Y-202000D02*
D03*
X-292000Y-212000D02*
D03*
X-297000Y218000D02*
D03*
X-302000Y208000D02*
D03*
Y168000D02*
D03*
X-297000Y158000D02*
D03*
X-302000Y148000D02*
D03*
X-297000Y138000D02*
D03*
X-302000Y128000D02*
D03*
X-297000Y118000D02*
D03*
X-302000Y108000D02*
D03*
X-297000Y98000D02*
D03*
X-302000Y88000D02*
D03*
X-297000Y78000D02*
D03*
X-302000Y68000D02*
D03*
X-297000Y58000D02*
D03*
X-302000Y48000D02*
D03*
X-297000Y38000D02*
D03*
Y-22000D02*
D03*
X-302000Y-32000D02*
D03*
X-297000Y-42000D02*
D03*
X-302000Y-52000D02*
D03*
X-297000Y-202000D02*
D03*
X-302000Y-212000D02*
D03*
X-307000Y218000D02*
D03*
X-312000Y208000D02*
D03*
X-307000Y-22000D02*
D03*
X-312000Y-32000D02*
D03*
X-307000Y-42000D02*
D03*
X-312000Y-52000D02*
D03*
X-307000Y-62000D02*
D03*
X-312000Y-72000D02*
D03*
X-307000Y-82000D02*
D03*
X-312000Y-92000D02*
D03*
Y-112000D02*
D03*
X-307000Y-202000D02*
D03*
X-312000Y-212000D02*
D03*
X-317000Y218000D02*
D03*
X-322000Y208000D02*
D03*
X-317000Y-22000D02*
D03*
X-322000Y-32000D02*
D03*
X-317000Y-42000D02*
D03*
X-322000Y-52000D02*
D03*
X-317000Y-62000D02*
D03*
X-322000Y-72000D02*
D03*
X-317000Y-82000D02*
D03*
X-322000Y-92000D02*
D03*
X-317000Y-102000D02*
D03*
X-322000Y-112000D02*
D03*
X-317000Y-122000D02*
D03*
Y-202000D02*
D03*
X-322000Y-212000D02*
D03*
X-327000Y218000D02*
D03*
X-332000Y208000D02*
D03*
Y168000D02*
D03*
X-327000Y158000D02*
D03*
X-332000Y148000D02*
D03*
X-327000Y138000D02*
D03*
X-332000Y128000D02*
D03*
X-327000Y118000D02*
D03*
X-332000Y108000D02*
D03*
X-327000Y98000D02*
D03*
X-332000Y88000D02*
D03*
X-327000Y78000D02*
D03*
X-332000Y68000D02*
D03*
X-327000Y58000D02*
D03*
X-332000Y-12000D02*
D03*
X-327000Y-22000D02*
D03*
X-332000Y-32000D02*
D03*
X-327000Y-42000D02*
D03*
X-332000Y-52000D02*
D03*
X-327000Y-62000D02*
D03*
X-332000Y-72000D02*
D03*
X-327000Y-82000D02*
D03*
X-332000Y-92000D02*
D03*
X-327000Y-102000D02*
D03*
X-332000Y-112000D02*
D03*
X-327000Y-122000D02*
D03*
X-332000Y-132000D02*
D03*
X-327000Y-202000D02*
D03*
X-332000Y-212000D02*
D03*
X-337000Y218000D02*
D03*
X-342000Y208000D02*
D03*
Y168000D02*
D03*
X-337000Y158000D02*
D03*
X-342000Y148000D02*
D03*
X-337000Y138000D02*
D03*
X-342000Y128000D02*
D03*
X-337000Y118000D02*
D03*
X-342000Y108000D02*
D03*
X-337000Y98000D02*
D03*
X-342000Y88000D02*
D03*
X-337000Y78000D02*
D03*
X-342000Y68000D02*
D03*
X-337000Y-2000D02*
D03*
X-342000Y-12000D02*
D03*
X-337000Y-22000D02*
D03*
X-342000Y-32000D02*
D03*
X-337000Y-42000D02*
D03*
X-342000Y-52000D02*
D03*
X-337000Y-62000D02*
D03*
X-342000Y-72000D02*
D03*
X-337000Y-82000D02*
D03*
X-342000Y-92000D02*
D03*
X-337000Y-102000D02*
D03*
X-342000Y-112000D02*
D03*
X-337000Y-202000D02*
D03*
X-342000Y-212000D02*
D03*
X-347000Y158000D02*
D03*
X-352000Y148000D02*
D03*
X-347000Y138000D02*
D03*
X-352000Y128000D02*
D03*
X-347000Y118000D02*
D03*
X-352000Y108000D02*
D03*
X-347000Y98000D02*
D03*
X-352000Y88000D02*
D03*
X-347000Y78000D02*
D03*
X-352000Y8000D02*
D03*
X-347000Y-2000D02*
D03*
X-352000Y-12000D02*
D03*
X-347000Y-22000D02*
D03*
X-352000Y-32000D02*
D03*
X-347000Y-42000D02*
D03*
X-352000Y-52000D02*
D03*
X-347000Y-62000D02*
D03*
X-352000Y-72000D02*
D03*
X-347000Y-82000D02*
D03*
X-352000Y-92000D02*
D03*
X-347000Y-102000D02*
D03*
Y-202000D02*
D03*
X-352000Y-212000D02*
D03*
X-357000Y18000D02*
D03*
X-362000Y8000D02*
D03*
X-357000Y-2000D02*
D03*
X-362000Y-12000D02*
D03*
X-357000Y-22000D02*
D03*
X-362000Y-32000D02*
D03*
X-357000Y-42000D02*
D03*
X-362000Y-52000D02*
D03*
X-357000Y-62000D02*
D03*
X-362000Y-72000D02*
D03*
X-357000Y-82000D02*
D03*
X-362000Y-92000D02*
D03*
X-357000Y-102000D02*
D03*
X-362000Y-152000D02*
D03*
X-357000Y-202000D02*
D03*
X-362000Y-212000D02*
D03*
X-372000Y28000D02*
D03*
X-367000Y18000D02*
D03*
X-372000Y8000D02*
D03*
X-367000Y-2000D02*
D03*
X-372000Y-12000D02*
D03*
X-367000Y-22000D02*
D03*
X-372000Y-32000D02*
D03*
X-367000Y-42000D02*
D03*
X-372000Y-52000D02*
D03*
X-367000Y-62000D02*
D03*
X-372000Y-72000D02*
D03*
X-367000Y-82000D02*
D03*
X-372000Y-92000D02*
D03*
X-367000Y-102000D02*
D03*
X-372000Y-112000D02*
D03*
Y-192000D02*
D03*
X-367000Y-202000D02*
D03*
X-372000Y-212000D02*
D03*
X-377000Y38000D02*
D03*
X-382000Y28000D02*
D03*
X-377000Y18000D02*
D03*
X-382000Y8000D02*
D03*
X-377000Y-2000D02*
D03*
X-382000Y-12000D02*
D03*
X-377000Y-22000D02*
D03*
X-382000Y-32000D02*
D03*
X-377000Y-42000D02*
D03*
X-382000Y-52000D02*
D03*
X-377000Y-62000D02*
D03*
X-382000Y-72000D02*
D03*
X-377000Y-82000D02*
D03*
X-382000Y-92000D02*
D03*
X-377000Y-102000D02*
D03*
X-382000Y-112000D02*
D03*
X-377000Y-122000D02*
D03*
X-382000Y-132000D02*
D03*
X-377000Y-182000D02*
D03*
X-382000Y-192000D02*
D03*
X-377000Y-202000D02*
D03*
X-382000Y-212000D02*
D03*
X-392000Y48000D02*
D03*
X-387000Y38000D02*
D03*
X-392000Y28000D02*
D03*
X-387000Y18000D02*
D03*
X-392000Y8000D02*
D03*
X-387000Y-2000D02*
D03*
X-392000Y-12000D02*
D03*
X-387000Y-22000D02*
D03*
X-392000Y-32000D02*
D03*
X-387000Y-42000D02*
D03*
X-392000Y-52000D02*
D03*
X-387000Y-62000D02*
D03*
X-392000Y-72000D02*
D03*
X-387000Y-82000D02*
D03*
X-392000Y-92000D02*
D03*
X-387000Y-102000D02*
D03*
X-392000Y-112000D02*
D03*
X-387000Y-122000D02*
D03*
X-392000Y-172000D02*
D03*
X-387000Y-182000D02*
D03*
X-392000Y-192000D02*
D03*
X-387000Y-202000D02*
D03*
X-392000Y-212000D02*
D03*
X-397000Y58000D02*
D03*
X-402000Y48000D02*
D03*
X-397000Y38000D02*
D03*
X-402000Y28000D02*
D03*
X-397000Y18000D02*
D03*
X-402000Y8000D02*
D03*
X-397000Y-2000D02*
D03*
X-402000Y-12000D02*
D03*
X-397000Y-22000D02*
D03*
X-402000Y-32000D02*
D03*
X-397000Y-42000D02*
D03*
X-402000Y-52000D02*
D03*
X-397000Y-62000D02*
D03*
X-402000Y-72000D02*
D03*
X-397000Y-82000D02*
D03*
X-402000Y-92000D02*
D03*
X-397000Y-102000D02*
D03*
X-402000Y-112000D02*
D03*
X-397000Y-162000D02*
D03*
X-402000Y-172000D02*
D03*
X-397000Y-182000D02*
D03*
X-402000Y-192000D02*
D03*
X-397000Y-202000D02*
D03*
X-402000Y-212000D02*
D03*
X-412000Y148000D02*
D03*
X-407000Y58000D02*
D03*
Y38000D02*
D03*
Y18000D02*
D03*
Y-2000D02*
D03*
X-412000Y-12000D02*
D03*
X-407000Y-22000D02*
D03*
X-412000Y-32000D02*
D03*
X-407000Y-42000D02*
D03*
X-412000Y-52000D02*
D03*
X-407000Y-62000D02*
D03*
X-412000Y-72000D02*
D03*
X-407000Y-82000D02*
D03*
X-412000Y-92000D02*
D03*
X-407000Y-102000D02*
D03*
X-412000Y-152000D02*
D03*
X-407000Y-162000D02*
D03*
X-412000Y-172000D02*
D03*
X-407000Y-182000D02*
D03*
X-412000Y-192000D02*
D03*
X-407000Y-202000D02*
D03*
X-412000Y-212000D02*
D03*
X-422000Y208000D02*
D03*
Y188000D02*
D03*
X-417000Y178000D02*
D03*
X-422000Y-12000D02*
D03*
X-417000Y-22000D02*
D03*
X-422000Y-32000D02*
D03*
X-417000Y-42000D02*
D03*
X-422000Y-52000D02*
D03*
X-417000Y-62000D02*
D03*
X-422000Y-72000D02*
D03*
X-417000Y-82000D02*
D03*
X-422000Y-92000D02*
D03*
X-417000Y-142000D02*
D03*
X-422000Y-152000D02*
D03*
X-417000Y-162000D02*
D03*
X-422000Y-172000D02*
D03*
X-417000Y-182000D02*
D03*
X-422000Y-192000D02*
D03*
X-417000Y-202000D02*
D03*
X-422000Y-212000D02*
D03*
X-427000Y218000D02*
D03*
X-432000Y208000D02*
D03*
X-427000Y198000D02*
D03*
Y-22000D02*
D03*
X-432000Y-32000D02*
D03*
X-427000Y-42000D02*
D03*
X-432000Y-52000D02*
D03*
X-427000Y-62000D02*
D03*
X-432000Y-72000D02*
D03*
X-427000Y-82000D02*
D03*
X-432000Y-132000D02*
D03*
X-427000Y-142000D02*
D03*
X-432000Y-152000D02*
D03*
X-427000Y-162000D02*
D03*
X-432000Y-172000D02*
D03*
X-427000Y-182000D02*
D03*
Y-202000D02*
D03*
X-432000Y-212000D02*
D03*
X-437000Y218000D02*
D03*
X-442000Y48000D02*
D03*
Y28000D02*
D03*
X-437000Y-122000D02*
D03*
X-442000Y-132000D02*
D03*
X-437000Y-142000D02*
D03*
X-442000Y-152000D02*
D03*
X-437000Y-162000D02*
D03*
X-442000Y-172000D02*
D03*
X-447000Y218000D02*
D03*
Y118000D02*
D03*
X-452000Y48000D02*
D03*
X-447000Y38000D02*
D03*
X-452000Y28000D02*
D03*
X-447000Y18000D02*
D03*
X-452000Y8000D02*
D03*
Y-112000D02*
D03*
X-447000Y-122000D02*
D03*
X-452000Y-132000D02*
D03*
X-447000Y-142000D02*
D03*
X-452000Y-152000D02*
D03*
X-447000Y-162000D02*
D03*
X-452000Y-172000D02*
D03*
Y-212000D02*
D03*
X-457000Y218000D02*
D03*
X-462000Y208000D02*
D03*
Y188000D02*
D03*
X-457000Y118000D02*
D03*
X-462000Y48000D02*
D03*
X-457000Y38000D02*
D03*
X-462000Y28000D02*
D03*
X-457000Y18000D02*
D03*
X-462000Y8000D02*
D03*
X-457000Y-2000D02*
D03*
Y-102000D02*
D03*
X-462000Y-112000D02*
D03*
X-457000Y-122000D02*
D03*
X-462000Y-132000D02*
D03*
X-457000Y-142000D02*
D03*
X-462000Y-152000D02*
D03*
X-457000Y-162000D02*
D03*
X-462000Y-172000D02*
D03*
X-457000Y-182000D02*
D03*
X-462000Y-192000D02*
D03*
Y-212000D02*
D03*
X216662Y116840D02*
D03*
D39*
X444560Y153670D02*
D03*
X-444440D02*
D03*
M02*
