M48
;Layer_Color=9474304
;FILE_FORMAT=4:4
METRIC,LZ
;TYPE=PLATED
T01F00S00C0.3000
T02F00S00C0.8128
T03F00S00C0.9000
T04F00S00C1.0000
T05F00S00C3.0000
%
T01
X-00462Y-00212
X-00452
X-00432
X-00422
X-00412
X-00402
X-00392
X-00382
X-00372
X-00362
X-00352
X-00342
X-00332
X-00322
X-00312
X-00302
X-00292
X-00282
X-00272
X-00262
X-00252
X-00242
X-00232
X-00227Y-00202
X-00237
X-00247
X-00257
X-00267
X-00277
X-00287
X-00297
X-00307
X-00317
X-00327
X-00337
X-00347
X-00357
X-00367
X-00377
X-00387
X-00397
X-00407
X-00417
X-00427
X-00422Y-00192
X-00412
X-00402
X-00392
X-00382
X-00372
X-00377Y-00182
X-00387
X-00397
X-00407
X-00417
X-00427
X-00432Y-00172
X-00422
X-00412
X-00402
X-00392
X-00397Y-00162
X-00407
X-00417
X-00427
X-00437
X-00447
X-00457
X-00462Y-00152
X-00452
X-00442
X-00432
X-00422
X-00412
X-00417Y-00142
X-00427
X-00437
X-00447
X-00457
X-00462Y-00132
X-00452
X-00442
X-00432
X-00437Y-00122
X-00447
X-00457
X-00462Y-00112
X-00452
X-00457Y-00102
X-00422Y-00092
X-00412
X-00402
X-00392
X-00382
X-00372
X-00362
X-00352
X-00342
X-00332
X-00322
X-00312
X-00307Y-00082
X-00317
X-00327
X-00337
X-00347
X-00357
X-00367
X-00377
X-00387
X-00397
X-00407
X-00417
X-00427
X-00432Y-00072
X-00422
X-00412
X-00402
X-00392
X-00382
X-00372
X-00362
X-00352
X-00342
X-00332
X-00322
X-00312
X-00307Y-00062
X-00317
X-00327
X-00337
X-00347
X-00357
X-00367
X-00377
X-00387
X-00397
X-00407
X-00417
X-00427
X-00432Y-00052
X-00422
X-00412
X-00402
X-00392
X-00382
X-00372
X-00362
X-00352
X-00342
X-00332
X-00322
X-00312
X-00302
X-00292
X-00287Y-00042
X-00297
X-00307
X-00317
X-00327
X-00337
X-00347
X-00357
X-00367
X-00377
X-00387
X-00397
X-00407
X-00417
X-00427
X-00432Y-00032
X-00422
X-00412
X-00402
X-00392
X-00382
X-00372
X-00362
X-00352
X-00342
X-00332
X-00322
X-00312
X-00302
X-00292
X-00282
X-00287Y-00022
X-00297
X-00307
X-00317
X-00327
X-00337
X-00347
X-00357
X-00367
X-00377
X-00387
X-00397
X-00407
X-00417
X-00427
X-00422Y-00012
X-00412
X-00402
X-00392
X-00382
X-00372
X-00362
X-00352
X-00342
X-00332
X-00337Y-00002
X-00347
X-00357
X-00367
X-00377
X-00387
X-00397
X-00407
X-00402Y00008
X-00392
X-00382
X-00372
X-00362
X-00352
X-00357Y00018
X-00367
X-00377
X-00387
X-00397
X-00407
X-00402Y00028
X-00392
X-00382
X-00372
X-00377Y00038
X-00387
X-00397
X-00407
X-00402Y00048
X-00392
X-00397Y00058
X-00407
X-00442Y00048
X-00452
X-00462
X-00457Y00038
X-00447
X-00452Y00028
X-00442
X-00447Y00018
X-00457
X-00462Y00028
Y00008
X-00452
X-00457Y-00002
Y00118
X-00447
X-00412Y00148
X-00352
X-00342
X-00332
X-00327Y00158
X-00337
X-00347
Y00138
X-00337
X-00327
X-00332Y00128
X-00342
X-00352
X-00347Y00118
X-00337
X-00327
X-00332Y00108
X-00342
X-00352
X-00347Y00098
X-00337
X-00327
X-00332Y00088
X-00342
X-00352
X-00347Y00078
X-00337
X-00327
X-00332Y00068
X-00342
X-00327Y00058
X-00297
X-00287
X-00292Y00068
X-00302
X-00297Y00078
X-00287
X-00292Y00088
X-00282
X-00287Y00098
X-00297
X-00302Y00108
X-00292
X-00282
X-00277Y00118
X-00267
X-00257
X-00247
X-00237
X-00227
X-00232Y00128
X-00242
X-00252
X-00262
X-00272
X-00282
X-00292
X-00302
X-00297Y00138
X-00287
X-00277
X-00267
X-00257
X-00247
X-00237
X-00242Y00148
X-00232
X-00237Y00158
X-00247
X-00257
X-00267
X-00277
X-00287
X-00297
X-00302Y00148
X-00292
X-00282
X-00272
X-00262
X-00252
X-00242Y00108
X-00232
X-00222
X-00217Y00098
X-00207
X-00197
X-00187
X-00177
X-00167
X-00157
X-00147
X-00137
X-00127
X-00132Y00088
X-00142
X-00152
X-00162
X-00172
X-00182
X-00192
X-00202
X-00212
X-00222
X-00232
X-00242
X-00237Y00098
X-00227
Y00078
X-00217
X-00207
X-00197
X-00187
X-00177
X-00167
X-00157
X-00147
X-00137
X-00127
X-00087
Y00098
X-00092Y00028
X-00102
X-00112
X-00122
X-00132
X-00142
X-00152
X-00162
X-00172
X-00167Y00018
X-00157
X-00147
X-00137
X-00127
X-00117
X-00107
X-00097
X-00112Y00008
X-00122
X-00132
X-00142
X-00152
X-00162
X-00157Y-00002
X-00147
X-00137
X-00127
X-00117
X-00132Y-00012
X-00142
X-00152
X-00147Y-00022
X-00137
X-00207
X-00217
Y00038
X-00227
X-00237
X-00247
X-00257
X-00267
X-00277
X-00287
X-00297
X-00302Y00048
X-00292
X-00282
X-00272
X-00262
X-00252
X-00242
X-00232
X-00222
X-00212
X-00207Y00058
X-00197
X-00202Y00068
X-00192
X-00212
X-00222
X-00232
X-00242
X-00237Y00078
X-00247
Y00058
X-00237
X-00227
X-00217
X-00232Y00028
X-00242
X-00252
X-00262
X-00272
X-00282
X-00292
X-00302Y00088
X-00297Y00118
X-00287
X-00272Y-00072
X-00262
X-00257Y-00062
Y-00082
Y-00142
X-00247
X-00237
X-00227
X-00217
X-00222Y-00152
X-00212
X-00202
X-00192
X-00182
X-00172
X-00162
X-00152
X-00147Y-00162
X-00152Y-00172
X-00142
X-00132
X-00127Y-00182
X-00117
X-00122Y-00192
X-00132
X-00142
X-00152
X-00147Y-00182
X-00137
Y-00202
X-00127
X-00117
X-00122Y-00212
X-00112
X-00102
X-00092
X-00132
X-00142
X-00152
X-00147Y-00202
X-00232Y-00192
X-00242
X-00237Y-00182
X-00227
X-00232Y-00172
X-00242
X-00237Y-00162
X-00227
X-00232Y-00152
X-00242
X-00252
X-00247Y-00162
Y-00182
X-00267Y-00142
X-00277
X-00287
X-00317Y-00122
X-00327
X-00332Y-00112
X-00322
X-00312
X-00317Y-00102
X-00327
X-00337
X-00347
X-00357
X-00367
X-00377
X-00387
X-00397
X-00407
X-00402Y-00112
X-00392
X-00382
X-00372
X-00377Y-00122
X-00387
X-00382Y-00132
X-00362Y-00152
X-00332Y-00132
X-00342Y-00112
X-00197Y-00102
X-00187
X-00177
X-00167
X-00157
X-00147
X-00137
X-00127
X-00117
X-00122Y-00092
X-00112
X-00102
X-00092
X-00097Y-00082
X-00132Y-00092
X-00142
X-00152
X-00162
X-00172
X-00182
X-00192
X-00202
X-00177Y00018
X-00442Y-00172
X-00452
X-00462
X-00457Y-00182
X-00462Y-00192
X-00072
X-00062
X-00057Y-00182
X-00067
X-00077
Y-00202
X-00067
X-00057
X-00062Y-00212
X-00052
X-00042
X-00032
X-00022
X-00012
X-00002
X00008
X00018
X00028
X00038
X00048
X00058
X00053Y-00202
Y-00182
X00063
X00083
X00093
X00088Y-00192
X00098
X00103Y-00202
X00093
X00088Y-00212
X00098
X00108
X00118
X00128
X00138
X00148
X00153Y-00202
X00143
X00148Y-00192
X00153Y-00182
X00143
X00148Y-00172
X00153Y-00162
X00168Y-00152
X00178
X00188
X00198
X00208
X00218
X00228Y-00172
X00238
X00243Y-00182
X00253
X00248Y-00192
X00258
X00253Y-00202
X00243
X00233
X00228Y-00192
X00238
X00233Y-00182
X00228Y-00212
X00238
X00248
X00258
X00268
X00278
X00288
X00298
X00308
X00313Y-00202
X00303
X00308Y-00192
X00313Y-00182
X00303
X00298Y-00172
X00308
X00313Y-00162
X00303
X00298Y-00152
X00308
X00313Y-00142
X00303
X00298Y-00132
X00308
X00313Y-00122
X00303
X00298Y-00112
X00308
Y-00072
Y-00052
X00288Y-00092
X00278
X00268
X00258
X00248
X00238
X00228
X00218
X00208
X00198
X00188
X00178
X00168
X00158
X00148
X00138
X00128
X00118
X00103Y-00082
X00143Y-00102
X00153
X00163
X00183Y-00082
X00223Y-00102
X00233
X00243
X00253
Y-00022
X00263
X00273
Y00018
X00283
X00293
X00303
X00298Y00028
X00308
X00288
X00278
X00268
X00258
X00248
X00238
X00228
X00233Y00018
X00243
X00253
X00263
X00223
Y-00022
X00233
X00213
X00203
X00193
X00183
Y00038
X00173
X00163
X00158Y00028
X00168
X00163Y00018
X00153
X00143
X00138Y00048
X00143Y00058
X00158Y00068
X00163Y00078
X00153Y00098
X00143
X00133
X00123
X00113
X00103
X00093
X00098Y00088
X00108
X00118
X00128
X00138
X00133Y00078
X00123
X00113
X00103
X00093
X00088Y00068
X00098
X00108
X00118
X00123Y00038
X00113
X00103
X00093
X00083
X00073
X00063
X00053
X00043
X00033
X00023
X00013
X00003
X-00012Y00008
X-00022
X-00032
X-00042
X-00037Y-00002
X-00027
X-00017
X-00032Y-00012
X-00042
X-00052
X-00062
X-00057Y-00002
X-00047
Y-00022
X-00037
X-00057
X-00067
X-00077
X-00082Y-00092
X-00077Y-00102
X-00007Y-00122
X-00012Y-00132
X-00002
X00008
X00013Y-00142
X00003
X-00007
Y-00182
X00003
X00013
X00008Y-00192
X-00002
X-00012
X-00007Y-00202
X00003
X00013
X-00072Y-00212
X-00082
X00003Y-00022
X00013
X00023
X00033
X00043
X00053
X00063
X00073
X00083
X00093
X00103
X00113
X00123
X00178Y00048
X00188
X00193Y00058
X00203
X00198Y00068
X00208
X00183Y00058
X00216662Y0011684
X00293Y00098
X00288Y00088
X00298
X00303Y00078
X00293
X00283
X00273
X00283Y00158
X00293
X00078Y00068
X00068
X00058
X00048
X00038
X00028
X00043Y00078
X00053
X00048Y00088
X00003Y00098
X-00007
X-00017
X-00027
X-00037
X-00047
X-00057
X-00067
X-00077
X-00082Y00088
X-00072
X-00062
X-00052
X-00042
X-00032
X-00022
X-00012
X-00017Y00078
X-00027
X-00037
X-00047
X-00057
X-00067
X-00077
X00343
X00353
X00363
X00373
X00383
X00393
X00403
X00398Y00088
X00408
Y00068
X00398
X00388
X00378
X00368
X00358
X00348
X00338
X00343Y00058
X00353
X00363
X00373
X00383
X00393
X00403
X00398Y00048
X00408
X00403Y00038
X00393
X00383
X00373
X00363
X00353
X00343
X00338Y00048
X00348
X00358
X00368
X00378
X00388
Y00028
X00398
X00408
X00403Y00018
X00393
X00383
X00373
X00363
X00353
X00343
X00338Y00028
X00348
X00358
X00368
X00378
Y00008
X00388
X00398
X00408
X00403Y-00002
X00393
X00383
X00373
X00363
X00353
X00343
X00338Y00008
X00348
X00358
X00368
Y-00012
X00378
X00388
X00398
X00408
X00403Y-00022
X00393
X00383
X00373
X00363
X00353
X00343
X00333
X00338Y-00012
X00348
X00358
Y-00032
X00368
X00378
X00388
X00398
X00408
X00403Y-00042
X00393
X00383
X00373
X00363
X00353
X00343
X00338Y-00032
X00348
Y-00052
X00358
X00368
X00378
X00388
X00398
X00408
X00403Y-00062
X00393
X00383
X00373
X00363
X00353
X00343
X00338Y-00052
Y-00072
X00348
X00358
X00368
X00378
X00388
X00398
X00408
X00403Y-00082
X00393
X00383
X00373
X00378Y-00092
X00388
X00398
X00408
X00403Y-00102
X00393
X00398Y-00112
X00408
X00403Y-00122
X00398Y-00132
X00408
X00438
X00448
X00458
X00468
X00473Y-00122
X00463
X00453
X00443
X00438Y-00112
X00448
X00458
X00468
X00473Y-00102
X00463
X00453
X00443
X00438Y-00092
X00448
X00458
X00468
X00473Y-00082
X00463
X00453
X00443
X00438Y-00072
X00448
X00458
X00468
X00473Y-00062
X00463
X00453
X00443
X00438Y-00052
X00448
X00458
X00468
X00473Y-00042
X00463
X00453
X00443
X00438Y-00032
X00448
X00458
X00468
X00473Y-00022
X00463
X00453
X00443
X00438Y-00012
X00448
X00458
X00468
X00473Y-00002
X00463
X00453
X00443
X00438Y00008
X00448
X00458
X00468
X00473Y00018
X00463
X00453
X00443
X00438Y00028
X00448
X00458
X00468
X00473Y00038
X00463
X00453
X00443
X00438Y00048
X00448
X00458
X00468
X00473Y00058
X00463
X00453
X00443
X00438Y00068
X00448
X00458
X00468
X00473Y00078
X00463
X00453
X00443
X00438Y00088
X00448
X00458
X00468
X00473Y00098
X00463
X00453
X00443
X00433
X00428Y00108
X00438
X00448
X00458
X00468
X00473Y00118
X00463
X00453
X00433
X00423
X00418Y00128
X00408
X00403Y00138
X00393
X00408Y00148
X00348
X00338
X00328
X00318
X00373Y00098
X00383
X00393
X00388Y00088
X00378
X00368
X00358Y-00112
X00348
X00338
X00328
X00318
X00323Y-00122
X00333
X00343
X00353
X00363
X00358Y-00132
X00368
X00338
X00328
X00318
X00323Y-00142
X00318Y-00152
X00323Y-00162
X00318Y-00172
X00328
X00338
X00348
X00358
X00368
X00378
X00388
X00398
X00408
X00418
X00428
X00438
X00448
X00458
X00468
X00473Y-00162
X00463
X00453
X00443
X00448Y-00152
X00458
X00468
X00473Y-00142
X00463
X00453
X00443
X00433Y-00182
X00423
X00413
X00403
X00393
X00383
X00373
X00363
X00353
X00343
X00333
X00323
X00318Y-00192
X00328
X00338
X00348
X00358
X00368
X00378
X00388
X00398
X00408
X00418
X00423Y-00202
X00413
X00403
X00393
X00383
X00373
X00363
X00353
X00343
X00333
X00323
X00318Y-00212
X00328
X00338
X00348
X00358
X00368
X00378
X00388
X00398
X00408
X00418
X00428
X00438
X00448
X00458
X00468
X00473Y-00202
X00463
X00468Y-00192
X00473Y-00182
X00463
X00473Y00178
X00468Y00188
X00473Y00198
X00463
X00458Y00208
X00468
X00473Y00218
X00463
X00453
X00443
X00433
X00423
X00418Y00208
X00428
X00423Y00198
X00418Y00188
X00428
X00413Y00178
X00378Y00168
X00323Y00178
X00328Y00208
X00338
X00333Y00218
X00323
X00308Y00188
X00298
X00288
X00293Y00198
Y00178
X00303
X00313
X00298Y00168
X00288
X00283Y00178
X-00177
X-00182Y00168
X-00172
X-00192
X-00197Y00178
X-00227
X-00237
X-00247
X-00252Y00168
X-00242
X-00232
Y00188
X-00242
X-00262Y00208
X-00272
X-00282
X-00292
X-00302
X-00312
X-00322
X-00332
X-00342
X-00337Y00218
X-00327
X-00317
X-00307
X-00297
X-00287
X-00277
X-00267
X-00257
X-00262Y00168
X-00272
X-00282
X-00292
X-00302
X-00332
X-00342
X-00417Y00178
X-00422Y00188
X-00427Y00198
X-00432Y00208
X-00422
X-00427Y00218
X-00437
X-00447
X-00457
X-00462Y00208
Y00188
T02
X-00450088Y-0004445
Y-0001905
Y0007015
Y0009555
X-00265088
Y0007015
Y-0001905
Y-0004445
T03
X-00212852Y-0007112
X-00187452
X-00162052
X-00136652
X-00111252
X-00085852
X-00060452
X-00035052
X-00009652
X00015748
X00041148
X00066548
X00091948
X00117348
X00142748
X00168148Y-00071119
X00193548Y-0007112
X00218948
X00244348
X00269748
X00269494Y00196596
X00244094
X00218694
X00193294
X00167894Y00196597
X00142494Y00196596
X00117094
X00091694
X00066294
X00040894
X00015494
X-00009906
X-00035306
X-00060706
X-00086106
X-00111506
X-00136906
X-00162306
X-00187706
X-00213106
T04
X-0035396Y-0018111
Y-0013111
X-00213666Y-00040826
X-00188266
X-00162866
X-00137466
X-00112066
X-00086666
X-0009652Y-001143
Y-001397
Y-001651
Y-001905
X-00086666Y00144174
X-00112066Y00144173
X-00137466Y00144174
X-00162866
X-00188266
X-00213666
X-00365Y00160528
X-0040005
X-00061266Y00144174
X-00035866
X-00010466
X00014934
X00040334
X00065734
X00091134
X00116534
X00141934
X00167334
X00192734
X00218134
X00243534
X00268934
Y-00040826
X00243534
X00218134
X00192734
X00167334
X00141934
X00116534
X00091134
X00065734
X00040334
X00014934
X-00010466
X-00035866
X-00061266
X-00032258Y-00114299
Y-00139699
Y-001651
Y-00190499
X00032004
Y-001651
Y-00139699
Y-00114299
X0011938
Y-00139699
Y-001651
Y-00190499
X00278892Y-001905
Y-001651
Y-001397
Y-001143
X00320802Y-00061976
Y-00036576
Y-00011176
Y00014224
Y00039624
Y00065024
Y00090424
Y00115824
X0036Y00162306
X00395
X00398018Y-0015113
X00372618
X00347218
X00423418
X00395Y00187706
Y00213106
X0036
Y00187706
X-00365Y00185928
Y00211328
X-0040005
Y00185928
T05
X-0044444Y0015367
X0044456
M30
