G04*
G04 #@! TF.GenerationSoftware,Altium Limited,Altium Designer,26.7.1 (11)*
G04*
G04 Layer_Color=16711935*
G04 Board_Origin=18897639|9055118*
%FSLAX44Y44*%
%MOMM*%
G71*
G04*
G04 #@! TF.SameCoordinates,9D334BE7-458A-4C32-9C0E-2377755E4B48*
G04*
G04*
G04 #@! TF.FilePolarity,Positive*
G04*
G01*
G75*
%ADD55C,0.0127*%
D55*
X-158897Y-224937D02*
G03*
X-153897Y-229937I5000J0D01*
G01*
X460064Y-229937D02*
G03*
X480064Y-209937I0J20000D01*
G01*
X-227435Y-229937D02*
G03*
X-222435Y-224937I0J5000D01*
G01*
X222562D02*
G03*
X227562Y-229937I5000J0D01*
G01*
X154023D02*
G03*
X159023Y-224937I0J5000D01*
G01*
X480064Y210063D02*
G03*
X460064Y230063I-20000J0D01*
G01*
X-479936Y-209937D02*
G03*
X-459936Y-229937I20000J0D01*
G01*
Y230063D02*
G03*
X-479936Y210063I0J-20000D01*
G01*
X-459936Y230063D02*
G03*
X-479936Y210063I0J-20000D01*
G01*
Y-209937D02*
G03*
X-459936Y-229937I20000J0D01*
G01*
X480064Y210063D02*
G03*
X460064Y230063I-20000J0D01*
G01*
X154023Y-229937D02*
G03*
X159023Y-224937I0J5000D01*
G01*
X222562D02*
G03*
X227562Y-229937I5000J0D01*
G01*
X-227435D02*
G03*
X-222435Y-224937I0J5000D01*
G01*
X460064Y-229937D02*
G03*
X480064Y-209937I0J20000D01*
G01*
X-158897Y-224937D02*
G03*
X-153897Y-229937I5000J0D01*
G01*
X-434436Y-194937D02*
G03*
X-434436Y-194937I-10000J0D01*
G01*
X81564Y86063D02*
G03*
X81564Y86063I-10000J0D01*
G01*
X-97437D02*
G03*
X-97437Y86063I-10000J0D01*
G01*
X-434436Y195063D02*
G03*
X-434436Y195063I-10000J0D01*
G01*
X454563Y-194937D02*
G03*
X454563Y-194937I-10000J0D01*
G01*
Y195063D02*
G03*
X454563Y195063I-10000J0D01*
G01*
X100063Y170564D02*
G03*
X100063Y170564I-10000J0D01*
G01*
X-79936D02*
G03*
X-79936Y170564I-10000J0D01*
G01*
X81564Y-196936D02*
G03*
X81564Y-196936I-10000J0D01*
G01*
X454563Y195063D02*
G03*
X454563Y195063I-10000J0D01*
G01*
X-434436Y-194937D02*
G03*
X-434436Y-194937I-10000J0D01*
G01*
Y195063D02*
G03*
X-434436Y195063I-10000J0D01*
G01*
X454563Y-194937D02*
G03*
X454563Y-194937I-10000J0D01*
G01*
Y195063D02*
G03*
X454563Y195063I-10000J0D01*
G01*
X-434436Y-194937D02*
G03*
X-434436Y-194937I-10000J0D01*
G01*
Y195063D02*
G03*
X-434436Y195063I-10000J0D01*
G01*
X454563Y-194937D02*
G03*
X454563Y-194937I-10000J0D01*
G01*
X-434436Y195063D02*
G03*
X-434436Y195063I-10000J0D01*
G01*
X454563Y-194937D02*
G03*
X454563Y-194937I-10000J0D01*
G01*
X159023Y-158336D02*
X222562D01*
X159023Y-224937D02*
Y-158336D01*
X-222435D02*
X-158897D01*
X-222435Y-224937D02*
Y-158336D01*
X-158897Y-224937D02*
Y-158336D01*
X-459936Y230063D02*
X460064D01*
X480064Y-209937D02*
Y210063D01*
X227562Y-229937D02*
X460064D01*
X222562Y-224937D02*
Y-158336D01*
X-153897Y-229937D02*
X154023D01*
X-459936D02*
X-227435D01*
X-479936Y-209937D02*
Y210063D01*
Y-209937D02*
Y210063D01*
X-459936Y-229937D02*
X-227435D01*
X-153897D02*
X154023D01*
X222562Y-224937D02*
Y-158336D01*
X227562Y-229937D02*
X460064D01*
X480064Y-209937D02*
Y210063D01*
X-459936Y230063D02*
X460064D01*
X-158897Y-224937D02*
Y-158336D01*
X-222435Y-224937D02*
Y-158336D01*
X-158897D01*
X159023Y-224937D02*
Y-158336D01*
X222562D01*
X63Y63D02*
Y80325D01*
X-40067Y63D02*
X63D01*
M02*
