G04*
G04 #@! TF.GenerationSoftware,Altium Limited,Altium Designer,26.7.1 (11)*
G04*
G04 Layer_Color=255*
G04 Board_Origin=18897639|9055118*
%FSLAX44Y44*%
%MOMM*%
G71*
G04*
G04 #@! TF.SameCoordinates,9D334BE7-458A-4C32-9C0E-2377755E4B48*
G04*
G04*
G04 #@! TF.FilePolarity,Positive*
G04*
G01*
G75*
%ADD44R,1.8000X1.8000*%
%ADD45C,1.8000*%
%ADD46C,1.6000*%
%ADD47C,1.5000*%
G04:AMPARAMS|DCode=48|XSize=2mm|YSize=2mm|CornerRadius=0mm|HoleSize=0mm|Usage=FLASHONLY|Rotation=0.000|XOffset=0mm|YOffset=0mm|HoleType=Round|Shape=Octagon|*
%AMOCTAGOND48*
4,1,8,1.0000,-0.5000,1.0000,0.5000,0.5000,1.0000,-0.5000,1.0000,-1.0000,0.5000,-1.0000,-0.5000,-0.5000,-1.0000,0.5000,-1.0000,1.0000,-0.5000,0.0*
%
%ADD48OCTAGOND48*%

%ADD49R,1.8000X1.8000*%
%ADD50C,2.0000*%
%ADD51R,1.6000X1.6000*%
D44*
X395000Y213106D02*
D03*
X360000D02*
D03*
X-400050Y211328D02*
D03*
X-365000D02*
D03*
X320802Y115824D02*
D03*
X423418Y-151130D02*
D03*
D45*
X320802Y90424D02*
D03*
X243534Y-40826D02*
D03*
X347218Y-151130D02*
D03*
X278892Y-190500D02*
D03*
X119380Y-190499D02*
D03*
X-188266Y144174D02*
D03*
X-32258Y-190499D02*
D03*
X32004D02*
D03*
X-96520Y-190500D02*
D03*
X320802Y-36576D02*
D03*
Y-11176D02*
D03*
Y14224D02*
D03*
Y39624D02*
D03*
Y65024D02*
D03*
Y-61976D02*
D03*
X119380Y-165100D02*
D03*
Y-139699D02*
D03*
X-96520Y-165100D02*
D03*
Y-139700D02*
D03*
X32004Y-165100D02*
D03*
Y-139699D02*
D03*
X-32258D02*
D03*
Y-165100D02*
D03*
X-86666Y-40826D02*
D03*
X91134Y144174D02*
D03*
X-61266Y-40826D02*
D03*
X278892Y-139700D02*
D03*
Y-165100D02*
D03*
X65734Y144174D02*
D03*
X116534Y-40826D02*
D03*
X141934D02*
D03*
X398018Y-151130D02*
D03*
X372618D02*
D03*
X218134Y-40826D02*
D03*
X192734D02*
D03*
X91134D02*
D03*
X40334D02*
D03*
X-10466D02*
D03*
X-112066D02*
D03*
X-162866D02*
D03*
X-188266D02*
D03*
X-137466D02*
D03*
X-35866D02*
D03*
X14934D02*
D03*
X65734D02*
D03*
X167334D02*
D03*
X268934D02*
D03*
X-365000Y160528D02*
D03*
Y185928D02*
D03*
X-400050Y160528D02*
D03*
Y185928D02*
D03*
X268934Y144174D02*
D03*
X243534D02*
D03*
X167334D02*
D03*
X141934D02*
D03*
X14934D02*
D03*
X-35866D02*
D03*
X-86666D02*
D03*
X-137466D02*
D03*
X-162866D02*
D03*
X-112066Y144173D02*
D03*
X-61266Y144174D02*
D03*
X-10466D02*
D03*
X40334D02*
D03*
X116534D02*
D03*
X192734D02*
D03*
X218134D02*
D03*
X360000Y162306D02*
D03*
Y187706D02*
D03*
X395000D02*
D03*
Y162306D02*
D03*
D46*
X244348Y-71120D02*
D03*
X-187706Y196596D02*
D03*
X-85852Y-71120D02*
D03*
X91694Y196596D02*
D03*
X-60452Y-71120D02*
D03*
X66294Y196596D02*
D03*
X117348Y-71120D02*
D03*
X142748D02*
D03*
X-212852D02*
D03*
X-187452D02*
D03*
X-111252D02*
D03*
X-9652D02*
D03*
X41148D02*
D03*
X91948D02*
D03*
X193548D02*
D03*
X218948D02*
D03*
X168148Y-71119D02*
D03*
X66548Y-71120D02*
D03*
X15748D02*
D03*
X-35052D02*
D03*
X-136652D02*
D03*
X-162052D02*
D03*
X-213106Y196596D02*
D03*
X-111506D02*
D03*
X-86106D02*
D03*
X-9906D02*
D03*
X40894D02*
D03*
X142494D02*
D03*
X193294D02*
D03*
X244094D02*
D03*
X218694D02*
D03*
X167894Y196597D02*
D03*
X117094Y196596D02*
D03*
X15494D02*
D03*
X-35306D02*
D03*
X-60706D02*
D03*
X-136906D02*
D03*
X-162306D02*
D03*
D47*
X-265088Y70150D02*
D03*
Y95550D02*
D03*
X-450088D02*
D03*
Y70150D02*
D03*
Y-19050D02*
D03*
Y-44450D02*
D03*
X-265088D02*
D03*
Y-19050D02*
D03*
D48*
X-353960Y-131110D02*
D03*
D49*
X119380Y-114299D02*
D03*
X-96520Y-114300D02*
D03*
X32004Y-114299D02*
D03*
X-32258D02*
D03*
X278892Y-114300D02*
D03*
X-213666Y-40826D02*
D03*
Y144174D02*
D03*
D50*
X-353960Y-181110D02*
D03*
D51*
X269748Y-71120D02*
D03*
X269494Y196596D02*
D03*
M02*
