G04*
G04 #@! TF.GenerationSoftware,Altium Limited,Altium Designer,26.7.1 (11)*
G04*
G04 Layer_Color=16711935*
G04 Board_Origin=18897639|9055118*
%FSLAX44Y44*%
%MOMM*%
G71*
G04*
G04 #@! TF.SameCoordinates,9D334BE7-458A-4C32-9C0E-2377755E4B48*
G04*
G04*
G04 #@! TF.FilePolarity,Positive*
G04*
G01*
G75*
%ADD11C,0.1000*%
%ADD56C,0.1280*%
D11*
X-270446Y-169704D02*
X-262446D01*
X-270446D02*
X-266446Y-173704D01*
X-262446Y-169704D01*
X-270446Y-173704D02*
X-262446D01*
X-266446Y-175704D02*
Y-167704D01*
X-275446Y-168704D02*
X-272446Y-171704D01*
X-276446Y-170704D02*
X-273446Y-173704D01*
X-272732Y-109188D02*
X-264732D01*
X-268732Y-105188D02*
X-264732Y-109188D01*
X-272732D02*
X-268732Y-105188D01*
X-272732D02*
X-264732D01*
X-268732Y-111188D02*
Y-103188D01*
X-262732Y-107188D02*
X-259732Y-110188D01*
X-261732Y-105188D02*
X-258732Y-108188D01*
X347282Y100458D02*
X355282D01*
Y116458D01*
X347282Y100458D02*
Y116458D01*
X355282D01*
X-286366Y-182958D02*
Y-160958D01*
X-299866Y-182958D02*
Y-160958D01*
X-286366D01*
X-299866Y-182958D02*
X-286366D01*
X-300628Y-117934D02*
Y-95934D01*
X-287128Y-117934D02*
Y-95934D01*
X-300628Y-117934D02*
X-287128D01*
X-300628Y-95934D02*
X-287128D01*
D56*
X-398128Y-206484D02*
X-322976D01*
X-398128D02*
Y-103250D01*
X-322976Y-206484D02*
Y-103250D01*
X-398128D02*
X-322976D01*
M02*
