G04*
G04 #@! TF.GenerationSoftware,Altium Limited,Altium Designer,26.7.1 (11)*
G04*
G04 Layer_Color=32768*
G04 Board_Origin=18897639|9055118*
%FSLAX44Y44*%
%MOMM*%
G71*
G04*
G04 #@! TF.SameCoordinates,9D334BE7-458A-4C32-9C0E-2377755E4B48*
G04*
G04*
G04 #@! TF.FilePolarity,Positive*
G04*
G01*
G75*
%ADD11C,0.1000*%
%ADD57C,0.0500*%
D11*
X307802Y129924D02*
X333802D01*
X307802Y-76076D02*
Y129924D01*
Y-76076D02*
X333802D01*
Y129924D01*
X320802Y21924D02*
Y31924D01*
X315802Y26924D02*
X325802D01*
X28448Y-76120D02*
Y-66120D01*
X23448Y-71119D02*
X33448D01*
X-226552Y-84120D02*
X283448D01*
X-226552D02*
Y-58120D01*
X283448D01*
Y-84120D02*
Y-58120D01*
X27634Y-45826D02*
Y-35826D01*
X22634Y-40826D02*
X32634D01*
X-227366Y-27826D02*
X282634D01*
Y-53826D02*
Y-27826D01*
X-227366Y-53826D02*
X282634D01*
X-227366D02*
Y-27826D01*
X-352000Y145928D02*
Y222928D01*
X-378000Y145928D02*
X-352000D01*
X-378000D02*
Y222928D01*
X-352000D01*
X-387050Y145928D02*
Y222928D01*
X-413050Y145928D02*
X-387050D01*
X-413050D02*
Y222928D01*
X-387050D01*
X27634Y139174D02*
Y149174D01*
X22634Y144173D02*
X32634D01*
X-227366Y157174D02*
X282634D01*
Y131174D02*
Y157174D01*
X-227366Y131174D02*
X282634D01*
X-227366D02*
Y157174D01*
X347000Y224706D02*
X373000D01*
X347000Y147706D02*
Y224706D01*
Y147706D02*
X373000D01*
Y224706D01*
X408000Y147706D02*
Y224706D01*
X382000Y147706D02*
X408000D01*
X382000D02*
Y224706D01*
X408000D01*
X28194Y191596D02*
Y201596D01*
X23194Y196597D02*
X33194D01*
X-226806Y183596D02*
X283194D01*
X-226806D02*
Y209596D01*
X283194D01*
Y183596D02*
Y209596D01*
X-399961Y-209110D02*
Y-101110D01*
Y-209110D02*
X-320961D01*
Y-101110D01*
X-399961D02*
X-320961D01*
X-298116Y-171958D02*
X-288116D01*
X-293116Y-176958D02*
Y-166958D01*
X-298878Y-106934D02*
X-288878D01*
X-293878Y-111934D02*
Y-101934D01*
D57*
X357782Y94708D02*
Y122208D01*
X344532Y94708D02*
X357782D01*
X344532D02*
Y122208D01*
X357782D01*
X-280616Y-193458D02*
Y-150458D01*
X-305616Y-193458D02*
Y-150458D01*
X-280616D01*
X-305616Y-193458D02*
X-280616D01*
X-306378Y-128434D02*
Y-85434D01*
X-281378Y-128434D02*
Y-85434D01*
X-306378Y-128434D02*
X-281378D01*
X-306378Y-85434D02*
X-281378D01*
M02*
