G04*
G04 #@! TF.GenerationSoftware,Altium Limited,Altium Designer,26.7.1 (11)*
G04*
G04 Layer_Physical_Order=1*
G04 Layer_Color=255*
G04 Board_Origin=18897639|9055118*
%FSLAX44Y44*%
%MOMM*%
G71*
G04*
G04 #@! TF.SameCoordinates,9D334BE7-458A-4C32-9C0E-2377755E4B48*
G04*
G04*
G04 #@! TF.FilePolarity,Positive*
G04*
G01*
G75*
%ADD14C,1.0000*%
%ADD18C,0.5000*%
%ADD24R,1.4700X1.1600*%
%ADD25R,1.4500X1.3500*%
%ADD26R,0.8000X0.8000*%
%ADD40C,0.3810*%
%ADD41C,1.5000*%
%ADD42C,0.8000*%
%ADD43C,0.7000*%
%ADD44R,1.8000X1.8000*%
%ADD45C,1.8000*%
%ADD46C,1.6000*%
%ADD47C,1.5000*%
G04:AMPARAMS|DCode=48|XSize=2mm|YSize=2mm|CornerRadius=0mm|HoleSize=0mm|Usage=FLASHONLY|Rotation=0.000|XOffset=0mm|YOffset=0mm|HoleType=Round|Shape=Octagon|*
%AMOCTAGOND48*
4,1,8,1.0000,-0.5000,1.0000,0.5000,0.5000,1.0000,-0.5000,1.0000,-1.0000,0.5000,-1.0000,-0.5000,-0.5000,-1.0000,0.5000,-1.0000,1.0000,-0.5000,0.0*
%
%ADD48OCTAGOND48*%

%ADD49R,1.8000X1.8000*%
%ADD50C,2.0000*%
%ADD51R,1.6000X1.6000*%
%ADD52C,0.6000*%
%ADD53C,5.0000*%
G36*
X460063Y230063D02*
X460064Y230063D01*
X462033Y230063D01*
X465897Y229295D01*
X469537Y227787D01*
X472813Y225599D01*
X475598Y222813D01*
X477787Y219537D01*
X479295Y215897D01*
X480064Y212033D01*
X480063Y210063D01*
X480064Y-209937D01*
X480063Y-209937D01*
Y-211906D01*
X479295Y-215770D01*
X477787Y-219410D01*
X475598Y-222686D01*
X472813Y-225471D01*
X469537Y-227660D01*
X465897Y-229168D01*
X462033Y-229937D01*
X460063Y-229937D01*
X227562D01*
X226567Y-229937D01*
X224730Y-229175D01*
X223323Y-227769D01*
X222562Y-225931D01*
Y-224937D01*
Y-158336D01*
X159023D01*
Y-224937D01*
X159023Y-224937D01*
X159023Y-225931D01*
X158262Y-227769D01*
X156856Y-229175D01*
X155018Y-229937D01*
X-153897D01*
X-154891Y-229937D01*
X-156729Y-229175D01*
X-158135Y-227769D01*
X-158897Y-225931D01*
Y-224937D01*
Y-158336D01*
X-222435D01*
X-222435Y-224937D01*
Y-225931D01*
X-223196Y-227769D01*
X-224603Y-229175D01*
X-226440Y-229937D01*
X-227435D01*
X-459936Y-229937D01*
Y-229937D01*
X-461906Y-229937D01*
X-465770Y-229168D01*
X-469410Y-227660D01*
X-472686Y-225471D01*
X-475471Y-222686D01*
X-477660Y-219410D01*
X-479168Y-215770D01*
X-479936Y-211906D01*
Y-209937D01*
X-479936Y208180D01*
X-479936Y210063D01*
X-479936Y210064D01*
X-479936Y210064D01*
X-479937Y212033D01*
X-479168Y215897D01*
X-477660Y219537D01*
X-475472Y222813D01*
X-472686Y225599D01*
X-469410Y227787D01*
X-465770Y229295D01*
X-461906Y230063D01*
X-459936Y230063D01*
X460063Y230063D01*
X460063Y230063D01*
D02*
G37*
%LPC*%
G36*
X445548Y209142D02*
X443578D01*
X443185Y209063D01*
X442783D01*
X440851Y208679D01*
X440480Y208526D01*
X440086Y208447D01*
X438266Y207693D01*
X437932Y207470D01*
X437561Y207316D01*
X435923Y206222D01*
X435639Y205938D01*
X435305Y205715D01*
X433912Y204322D01*
X433689Y203988D01*
X433405Y203704D01*
X432311Y202066D01*
X432157Y201695D01*
X431934Y201361D01*
X431180Y199541D01*
X431101Y199147D01*
X430948Y198776D01*
X430564Y196844D01*
Y196442D01*
X430485Y196048D01*
Y194079D01*
X430564Y193685D01*
Y193283D01*
X430948Y191351D01*
X431101Y190980D01*
X431180Y190586D01*
X431934Y188766D01*
X432157Y188432D01*
X432311Y188061D01*
X433405Y186423D01*
X433689Y186139D01*
X433912Y185805D01*
X435305Y184412D01*
X435639Y184189D01*
X435923Y183905D01*
X437561Y182811D01*
X437932Y182657D01*
X438266Y182434D01*
X440086Y181680D01*
X440480Y181602D01*
X440851Y181448D01*
X442783Y181063D01*
X443185D01*
X443578Y180985D01*
X445548D01*
X445942Y181063D01*
X446344D01*
X448276Y181448D01*
X448647Y181602D01*
X449041Y181680D01*
X450861Y182434D01*
X451195Y182657D01*
X451566Y182811D01*
X453204Y183905D01*
X453488Y184189D01*
X453822Y184412D01*
X455215Y185805D01*
X455438Y186139D01*
X455722Y186423D01*
X456816Y188061D01*
X456970Y188432D01*
X457193Y188766D01*
X457947Y190586D01*
X458025Y190980D01*
X458179Y191351D01*
X458563Y193283D01*
Y193685D01*
X458642Y194079D01*
Y196048D01*
X458563Y196442D01*
Y196844D01*
X458179Y198776D01*
X458025Y199147D01*
X457947Y199541D01*
X457193Y201361D01*
X456970Y201695D01*
X456816Y202066D01*
X455722Y203704D01*
X455438Y203988D01*
X455215Y204322D01*
X453822Y205715D01*
X453488Y205938D01*
X453204Y206222D01*
X451566Y207316D01*
X451195Y207470D01*
X450861Y207693D01*
X449041Y208447D01*
X448647Y208526D01*
X448276Y208679D01*
X446344Y209063D01*
X445942D01*
X445548Y209142D01*
D02*
G37*
G36*
X300228Y226756D02*
X-230886D01*
X-233235Y226446D01*
X-235425Y225539D01*
X-237305Y224097D01*
X-266396Y195006D01*
X-355579D01*
X-355728Y195200D01*
X-358444Y197283D01*
X-361606Y198593D01*
X-365000Y199040D01*
X-368393Y198593D01*
X-371556Y197283D01*
X-374272Y195200D01*
X-376355Y192484D01*
X-377665Y189322D01*
X-378112Y185928D01*
X-377665Y182534D01*
X-376355Y179372D01*
X-374272Y176656D01*
X-371556Y174573D01*
X-370923Y174310D01*
Y172146D01*
X-371556Y171884D01*
X-374272Y169800D01*
X-376355Y167084D01*
X-377665Y163922D01*
X-378112Y160528D01*
X-377665Y157134D01*
X-376355Y153972D01*
X-374272Y151256D01*
X-371556Y149173D01*
X-368393Y147863D01*
X-365000Y147416D01*
X-361606Y147863D01*
X-358444Y149173D01*
X-355728Y151256D01*
X-353644Y153972D01*
X-352334Y157134D01*
X-351888Y160528D01*
X-352334Y163922D01*
X-353644Y167084D01*
X-355728Y169800D01*
X-358444Y171884D01*
X-359077Y172146D01*
Y174310D01*
X-358444Y174573D01*
X-355728Y176656D01*
X-355579Y176850D01*
X-323724D01*
Y28388D01*
X-323414Y26039D01*
X-322508Y23849D01*
X-321065Y21969D01*
X-275760Y-23335D01*
X-275133Y-24850D01*
X-273746Y-26658D01*
Y-36842D01*
X-275133Y-38650D01*
X-276292Y-41448D01*
X-276499Y-43024D01*
X-300297Y-66821D01*
X-301739Y-68701D01*
X-302646Y-70890D01*
X-302956Y-73240D01*
Y-86434D01*
X-305128D01*
Y-107934D01*
Y-127434D01*
X-282628D01*
Y-124455D01*
X-280082D01*
Y-125888D01*
X-257382D01*
Y-106288D01*
X-280082D01*
Y-108317D01*
X-282628D01*
Y-86434D01*
X-284800D01*
Y-77000D01*
X-263662Y-55862D01*
X-262086Y-55654D01*
X-259288Y-54495D01*
X-256886Y-52652D01*
X-255698Y-51104D01*
X-253698Y-51782D01*
Y-92710D01*
X-253475Y-94407D01*
X-252820Y-95988D01*
X-251778Y-97346D01*
X-205804Y-143320D01*
X-204446Y-144362D01*
X-202865Y-145017D01*
X-201168Y-145240D01*
X-108296D01*
X-107875Y-146256D01*
X-105792Y-148972D01*
X-103076Y-151055D01*
X-102443Y-151318D01*
Y-153482D01*
X-103076Y-153744D01*
X-105792Y-155828D01*
X-107875Y-158544D01*
X-109185Y-161706D01*
X-109632Y-165100D01*
X-109185Y-168494D01*
X-107875Y-171656D01*
X-105792Y-174372D01*
X-103076Y-176455D01*
X-99914Y-177765D01*
X-96520Y-178212D01*
X-93126Y-177765D01*
X-89964Y-176455D01*
X-87248Y-174372D01*
X-85164Y-171656D01*
X-83855Y-168494D01*
X-83408Y-165100D01*
X-83855Y-161706D01*
X-85164Y-158544D01*
X-87248Y-155828D01*
X-89964Y-153744D01*
X-90597Y-153482D01*
Y-151318D01*
X-89964Y-151055D01*
X-87248Y-148972D01*
X-85164Y-146256D01*
X-84744Y-145240D01*
X-44034D01*
X-43614Y-146256D01*
X-41530Y-148971D01*
X-38814Y-151055D01*
X-38181Y-151317D01*
Y-153482D01*
X-38814Y-153744D01*
X-41530Y-155828D01*
X-43614Y-158543D01*
X-44923Y-161706D01*
X-45370Y-165100D01*
X-44923Y-168493D01*
X-43614Y-171656D01*
X-41530Y-174371D01*
X-38814Y-176455D01*
X-35652Y-177765D01*
X-32258Y-178212D01*
X-28864Y-177765D01*
X-25702Y-176455D01*
X-22986Y-174371D01*
X-20903Y-171656D01*
X-19593Y-168493D01*
X-19146Y-165100D01*
X-19593Y-161706D01*
X-20903Y-158543D01*
X-22986Y-155828D01*
X-25702Y-153744D01*
X-26335Y-153482D01*
Y-151317D01*
X-25702Y-151055D01*
X-22986Y-148971D01*
X-20903Y-146256D01*
X-19593Y-143093D01*
X-19146Y-139699D01*
X-19593Y-136306D01*
X-20903Y-133143D01*
X-22986Y-130428D01*
X-24457Y-129299D01*
X-23778Y-127299D01*
X-19258D01*
Y-104340D01*
X-17200D01*
X-3620Y-117920D01*
X-2262Y-118961D01*
X-681Y-119616D01*
X1016Y-119840D01*
X19004D01*
Y-127299D01*
X23524D01*
X24203Y-129299D01*
X22732Y-130428D01*
X20649Y-133143D01*
X19339Y-136306D01*
X18892Y-139699D01*
X19339Y-143093D01*
X20649Y-146256D01*
X22732Y-148971D01*
X25448Y-151055D01*
X26081Y-151317D01*
Y-153482D01*
X25448Y-153744D01*
X22732Y-155828D01*
X20649Y-158543D01*
X19339Y-161706D01*
X18892Y-165100D01*
X19339Y-168493D01*
X20649Y-171656D01*
X22732Y-174371D01*
X25448Y-176455D01*
X28610Y-177765D01*
X32004Y-178212D01*
X35398Y-177765D01*
X38560Y-176455D01*
X41276Y-174371D01*
X43359Y-171656D01*
X44669Y-168493D01*
X45116Y-165100D01*
X44669Y-161706D01*
X43359Y-158543D01*
X41276Y-155828D01*
X38560Y-153744D01*
X37927Y-153482D01*
Y-151317D01*
X38560Y-151055D01*
X41276Y-148971D01*
X43359Y-146256D01*
X43885Y-144986D01*
X107499D01*
X108025Y-146256D01*
X110108Y-148971D01*
X112824Y-151055D01*
X113457Y-151317D01*
Y-153482D01*
X112824Y-153744D01*
X110108Y-155828D01*
X108025Y-158543D01*
X106715Y-161706D01*
X106268Y-165100D01*
X106715Y-168493D01*
X108025Y-171656D01*
X110108Y-174371D01*
X112824Y-176455D01*
X115986Y-177765D01*
X119380Y-178212D01*
X122774Y-177765D01*
X125936Y-176455D01*
X128652Y-174371D01*
X130736Y-171656D01*
X132045Y-168493D01*
X132492Y-165100D01*
X132045Y-161706D01*
X130736Y-158543D01*
X128652Y-155828D01*
X125936Y-153744D01*
X125303Y-153482D01*
Y-151317D01*
X125936Y-151055D01*
X128652Y-148971D01*
X130735Y-146256D01*
X267537D01*
X269620Y-148972D01*
X272336Y-151055D01*
X272969Y-151318D01*
Y-153482D01*
X272336Y-153744D01*
X269620Y-155828D01*
X267537Y-158544D01*
X266227Y-161706D01*
X265780Y-165100D01*
X266227Y-168494D01*
X267537Y-171656D01*
X269620Y-174372D01*
X272336Y-176455D01*
X275498Y-177765D01*
X278892Y-178212D01*
X282286Y-177765D01*
X285448Y-176455D01*
X288164Y-174372D01*
X290247Y-171656D01*
X291557Y-168494D01*
X292004Y-165100D01*
X291557Y-161706D01*
X290247Y-158544D01*
X288164Y-155828D01*
X285448Y-153744D01*
X284815Y-153482D01*
Y-151318D01*
X285448Y-151055D01*
X288164Y-148972D01*
X290247Y-146256D01*
X291557Y-143094D01*
X292004Y-139700D01*
X291557Y-136306D01*
X290247Y-133144D01*
X288164Y-130428D01*
X286693Y-129300D01*
X287372Y-127300D01*
X291892D01*
Y-101300D01*
X265892D01*
Y-106220D01*
X132380D01*
Y-101299D01*
X106380D01*
Y-127299D01*
X110900D01*
X111579Y-129299D01*
X110108Y-130428D01*
X108999Y-131874D01*
X88090D01*
Y-114808D01*
X87867Y-113111D01*
X87212Y-111530D01*
X86170Y-110172D01*
X58952Y-82955D01*
X58882Y-82884D01*
X59848Y-81782D01*
D01*
X59848Y-81782D01*
X61682Y-82093D01*
X63415Y-82811D01*
X66548Y-83223D01*
X69681Y-82811D01*
X72600Y-81602D01*
X75107Y-79679D01*
X77030Y-77172D01*
X78239Y-74253D01*
X78239Y-74251D01*
X80257D01*
X80257Y-74253D01*
X81466Y-77172D01*
X83390Y-79679D01*
X85896Y-81602D01*
X88815Y-82811D01*
X91948Y-83223D01*
X95081Y-82811D01*
X98000Y-81602D01*
X100506Y-79679D01*
X102430Y-77172D01*
X103639Y-74253D01*
X103639Y-74251D01*
X105657D01*
X105657Y-74253D01*
X106866Y-77172D01*
X108790Y-79679D01*
X111296Y-81602D01*
X114215Y-82811D01*
X117348Y-83223D01*
X120481Y-82811D01*
X123400Y-81602D01*
X125906Y-79679D01*
X127830Y-77172D01*
X129039Y-74253D01*
X129039Y-74251D01*
X131057D01*
X131057Y-74253D01*
X132266Y-77172D01*
X134190Y-79679D01*
X136696Y-81602D01*
X139615Y-82811D01*
X142748Y-83223D01*
X145881Y-82811D01*
X148800Y-81602D01*
X151306Y-79679D01*
X153230Y-77172D01*
X154439Y-74253D01*
X154439Y-74250D01*
X156457D01*
X156457Y-74252D01*
X157666Y-77171D01*
X159590Y-79678D01*
X162096Y-81601D01*
X165015Y-82811D01*
X168148Y-83223D01*
X171281Y-82811D01*
X174200Y-81601D01*
X176707Y-79678D01*
X178630Y-77171D01*
X179839Y-74252D01*
X179839Y-74250D01*
X181857D01*
X181857Y-74253D01*
X183066Y-77172D01*
X184989Y-79679D01*
X187496Y-81602D01*
X190415Y-82811D01*
X193548Y-83223D01*
X196681Y-82811D01*
X199600Y-81602D01*
X202106Y-79679D01*
X204030Y-77172D01*
X205239Y-74253D01*
X205239Y-74251D01*
X207257D01*
X207257Y-74253D01*
X208466Y-77172D01*
X210389Y-79679D01*
X212896Y-81602D01*
X215815Y-82811D01*
X218948Y-83223D01*
X222081Y-82811D01*
X225000Y-81602D01*
X227507Y-79679D01*
X229430Y-77172D01*
X230639Y-74253D01*
X231052Y-71120D01*
X230639Y-67987D01*
X229430Y-65068D01*
X227507Y-62561D01*
X225097Y-60713D01*
Y-51870D01*
X227406Y-50098D01*
X229490Y-47382D01*
X230800Y-44220D01*
X231246Y-40826D01*
X230800Y-37433D01*
X229490Y-34270D01*
X227406Y-31555D01*
X224690Y-29471D01*
X221528Y-28161D01*
X218134Y-27714D01*
X214741Y-28161D01*
X211578Y-29471D01*
X208862Y-31555D01*
X206779Y-34270D01*
X206517Y-34903D01*
X204352D01*
X204090Y-34270D01*
X202006Y-31555D01*
X199290Y-29471D01*
X196128Y-28161D01*
X192734Y-27714D01*
X189340Y-28161D01*
X186178Y-29471D01*
X183463Y-31555D01*
X181379Y-34270D01*
X181117Y-34903D01*
X178952D01*
X178690Y-34270D01*
X176606Y-31555D01*
X173890Y-29471D01*
X170728Y-28161D01*
X167334Y-27714D01*
X163941Y-28161D01*
X160778Y-29471D01*
X158062Y-31555D01*
X155979Y-34270D01*
X155717Y-34903D01*
X153552D01*
X153290Y-34270D01*
X151206Y-31555D01*
X148490Y-29471D01*
X145328Y-28161D01*
X141934Y-27714D01*
X138540Y-28161D01*
X135378Y-29471D01*
X132662Y-31555D01*
X130579Y-34270D01*
X130317Y-34903D01*
X128152D01*
X127890Y-34270D01*
X125806Y-31555D01*
X123090Y-29471D01*
X119928Y-28161D01*
X116534Y-27714D01*
X113140Y-28161D01*
X109978Y-29471D01*
X107262Y-31555D01*
X105179Y-34270D01*
X104917Y-34903D01*
X102752D01*
X102490Y-34270D01*
X100406Y-31555D01*
X97690Y-29471D01*
X94528Y-28161D01*
X91134Y-27714D01*
X87740Y-28161D01*
X84578Y-29471D01*
X81862Y-31555D01*
X79779Y-34270D01*
X79517Y-34903D01*
X77352D01*
X77090Y-34270D01*
X75006Y-31555D01*
X72290Y-29471D01*
X69128Y-28161D01*
X65734Y-27714D01*
X62340Y-28161D01*
X59178Y-29471D01*
X56462Y-31555D01*
X54379Y-34270D01*
X54117Y-34903D01*
X51952D01*
X51690Y-34270D01*
X49606Y-31555D01*
X46890Y-29471D01*
X43728Y-28161D01*
X40334Y-27714D01*
X36941Y-28161D01*
X33778Y-29471D01*
X31063Y-31555D01*
X28979Y-34270D01*
X28717Y-34903D01*
X26552D01*
X26290Y-34270D01*
X24206Y-31555D01*
X21490Y-29471D01*
X18328Y-28161D01*
X14934Y-27714D01*
X11540Y-28161D01*
X8378Y-29471D01*
X5663Y-31555D01*
X3579Y-34270D01*
X3317Y-34903D01*
X1152D01*
X890Y-34270D01*
X-1194Y-31555D01*
X-3910Y-29471D01*
X-7072Y-28161D01*
X-8214Y-28011D01*
X-8931Y-25899D01*
X7900Y-9069D01*
X285063D01*
Y-80772D01*
X285522Y-83076D01*
X286827Y-85029D01*
X299273Y-97475D01*
X301226Y-98780D01*
X303530Y-99239D01*
X351429D01*
X376122Y-123932D01*
Y-136462D01*
X374122Y-138216D01*
X372618Y-138018D01*
X369224Y-138465D01*
X366062Y-139775D01*
X363346Y-141858D01*
X361263Y-144574D01*
X359953Y-147736D01*
X359506Y-151130D01*
X359953Y-154524D01*
X361263Y-157686D01*
X363346Y-160402D01*
X366062Y-162486D01*
X369224Y-163795D01*
X372618Y-164242D01*
X376012Y-163795D01*
X379174Y-162486D01*
X381890Y-160402D01*
X383974Y-157686D01*
X384236Y-157053D01*
X386400D01*
X386662Y-157686D01*
X388746Y-160402D01*
X391462Y-162486D01*
X394624Y-163795D01*
X398018Y-164242D01*
X401412Y-163795D01*
X404574Y-162486D01*
X407290Y-160402D01*
X408418Y-158931D01*
X410418Y-159610D01*
Y-164130D01*
X436418D01*
Y-138130D01*
X430464D01*
Y94177D01*
X430154Y96526D01*
X429248Y98715D01*
X427805Y100595D01*
X405523Y122877D01*
X403643Y124319D01*
X401454Y125226D01*
X399105Y125536D01*
X333802D01*
Y128824D01*
X307802D01*
Y125918D01*
X216662D01*
X214312Y125608D01*
X212123Y124701D01*
X210243Y123259D01*
X208801Y121379D01*
X207894Y119190D01*
X207584Y116840D01*
X207894Y114490D01*
X208801Y112301D01*
X210243Y110421D01*
X212123Y108979D01*
X214312Y108072D01*
X216662Y107762D01*
X307802D01*
Y102824D01*
X333802D01*
Y107380D01*
X395345D01*
X412308Y90416D01*
Y-138130D01*
X410418D01*
Y-142650D01*
X408418Y-143329D01*
X407290Y-141858D01*
X404574Y-139775D01*
X401412Y-138465D01*
X398018Y-138018D01*
X396514Y-138216D01*
X394514Y-136462D01*
Y-118808D01*
X394055Y-116504D01*
X392750Y-114551D01*
X360810Y-82611D01*
X358857Y-81306D01*
X356553Y-80847D01*
X308654D01*
X303455Y-75648D01*
Y-2650D01*
X302996Y-346D01*
X301691Y1608D01*
X295740Y7559D01*
X293786Y8864D01*
X291482Y9323D01*
X2776D01*
X472Y8864D01*
X-1482Y7559D01*
X-30598Y-21557D01*
X-31903Y-23510D01*
X-32362Y-25814D01*
Y-26158D01*
X-34362Y-27912D01*
X-35866Y-27714D01*
X-39260Y-28161D01*
X-42422Y-29471D01*
X-45138Y-31555D01*
X-47221Y-34270D01*
X-47483Y-34903D01*
X-49648D01*
X-49910Y-34270D01*
X-51994Y-31555D01*
X-54710Y-29471D01*
X-57872Y-28161D01*
X-61266Y-27714D01*
X-64660Y-28161D01*
X-67822Y-29471D01*
X-70538Y-31555D01*
X-72621Y-34270D01*
X-72883Y-34903D01*
X-75048D01*
X-75310Y-34270D01*
X-77394Y-31555D01*
X-80110Y-29471D01*
X-83272Y-28161D01*
X-86666Y-27714D01*
X-90059Y-28161D01*
X-93222Y-29471D01*
X-95938Y-31555D01*
X-98021Y-34270D01*
X-98283Y-34903D01*
X-100448D01*
X-100710Y-34270D01*
X-102794Y-31555D01*
X-105510Y-29471D01*
X-108672Y-28161D01*
X-112066Y-27714D01*
X-115459Y-28161D01*
X-118622Y-29471D01*
X-121337Y-31555D01*
X-123421Y-34270D01*
X-123683Y-34903D01*
X-125848D01*
X-126110Y-34270D01*
X-128194Y-31555D01*
X-130910Y-29471D01*
X-134072Y-28161D01*
X-137466Y-27714D01*
X-140859Y-28161D01*
X-144022Y-29471D01*
X-146737Y-31555D01*
X-148821Y-34270D01*
X-149083Y-34903D01*
X-151248D01*
X-151510Y-34270D01*
X-153594Y-31555D01*
X-156310Y-29471D01*
X-159472Y-28161D01*
X-162866Y-27714D01*
X-166259Y-28161D01*
X-169422Y-29471D01*
X-172138Y-31555D01*
X-174221Y-34270D01*
X-174483Y-34903D01*
X-176648D01*
X-176910Y-34270D01*
X-178994Y-31555D01*
X-181710Y-29471D01*
X-184872Y-28161D01*
X-188266Y-27714D01*
X-191660Y-28161D01*
X-194822Y-29471D01*
X-197537Y-31555D01*
X-198666Y-33025D01*
X-200666Y-32346D01*
Y-27826D01*
X-226666D01*
Y-53826D01*
X-219408D01*
Y-61025D01*
X-221411Y-62561D01*
X-223334Y-65068D01*
X-224543Y-67987D01*
X-224956Y-71120D01*
X-224543Y-74253D01*
X-223334Y-77172D01*
X-221411Y-79679D01*
X-218904Y-81602D01*
X-215985Y-82811D01*
X-212852Y-83223D01*
X-209719Y-82811D01*
X-206800Y-81602D01*
X-204293Y-79679D01*
X-202370Y-77172D01*
X-201161Y-74253D01*
X-201161Y-74251D01*
X-199143D01*
X-199143Y-74253D01*
X-197934Y-77172D01*
X-196010Y-79679D01*
X-193504Y-81602D01*
X-190585Y-82811D01*
X-187452Y-83223D01*
X-184319Y-82811D01*
X-181400Y-81602D01*
X-178894Y-79679D01*
X-176970Y-77172D01*
X-175761Y-74253D01*
X-175761Y-74251D01*
X-173743D01*
X-173743Y-74253D01*
X-172534Y-77172D01*
X-170611Y-79679D01*
X-168104Y-81602D01*
X-165185Y-82811D01*
X-162052Y-83223D01*
X-158919Y-82811D01*
X-156000Y-81602D01*
X-153493Y-79679D01*
X-151570Y-77172D01*
X-150361Y-74253D01*
X-150361Y-74251D01*
X-148343D01*
X-148343Y-74253D01*
X-147134Y-77172D01*
X-145211Y-79679D01*
X-142704Y-81602D01*
X-139785Y-82811D01*
X-136652Y-83223D01*
X-133519Y-82811D01*
X-130600Y-81602D01*
X-128094Y-79679D01*
X-126170Y-77172D01*
X-124961Y-74253D01*
X-124961Y-74251D01*
X-122943D01*
X-122943Y-74253D01*
X-121734Y-77172D01*
X-119810Y-79679D01*
X-117304Y-81602D01*
X-114385Y-82811D01*
X-111252Y-83223D01*
X-108119Y-82811D01*
X-105200Y-81602D01*
X-102694Y-79679D01*
X-100770Y-77172D01*
X-99561Y-74253D01*
X-99561Y-74251D01*
X-97543D01*
X-97543Y-74253D01*
X-96334Y-77172D01*
X-94410Y-79679D01*
X-91904Y-81602D01*
X-88985Y-82811D01*
X-85852Y-83223D01*
X-83350Y-82894D01*
X-63824Y-102420D01*
X-62466Y-103462D01*
X-60885Y-104116D01*
X-59188Y-104340D01*
X-45258D01*
Y-106728D01*
X-83520D01*
Y-101300D01*
X-109520D01*
Y-106728D01*
X-201246D01*
X-228902Y-79072D01*
Y-24306D01*
X-167718Y36878D01*
X-10876D01*
X-9179Y37101D01*
X-7598Y37756D01*
X-6240Y38798D01*
X86842Y131881D01*
X87740Y131509D01*
X91134Y131062D01*
X94528Y131509D01*
X97690Y132819D01*
X100406Y134902D01*
X102490Y137618D01*
X102752Y138251D01*
X104917D01*
X105179Y137618D01*
X107262Y134902D01*
X109978Y132819D01*
X113140Y131509D01*
X116534Y131062D01*
X119928Y131509D01*
X123090Y132819D01*
X125806Y134902D01*
X127890Y137618D01*
X128152Y138251D01*
X130317D01*
X130579Y137618D01*
X132662Y134902D01*
X135378Y132819D01*
X138540Y131509D01*
X141934Y131062D01*
X145328Y131509D01*
X148490Y132819D01*
X151206Y134902D01*
X153290Y137618D01*
X153552Y138251D01*
X155717D01*
X155979Y137618D01*
X158062Y134902D01*
X160778Y132819D01*
X163941Y131509D01*
X167334Y131062D01*
X170728Y131509D01*
X173890Y132819D01*
X176606Y134902D01*
X178690Y137618D01*
X178952Y138251D01*
X181117D01*
X181379Y137618D01*
X183463Y134902D01*
X186178Y132819D01*
X189340Y131509D01*
X192734Y131062D01*
X196128Y131509D01*
X199290Y132819D01*
X202006Y134902D01*
X204090Y137618D01*
X204352Y138251D01*
X206517D01*
X206779Y137618D01*
X208862Y134902D01*
X211578Y132819D01*
X214741Y131509D01*
X218134Y131062D01*
X221528Y131509D01*
X224690Y132819D01*
X227406Y134902D01*
X229490Y137618D01*
X229752Y138251D01*
X231917D01*
X232179Y137618D01*
X234263Y134902D01*
X236978Y132819D01*
X240140Y131509D01*
X243534Y131062D01*
X246928Y131509D01*
X250090Y132819D01*
X252806Y134902D01*
X254890Y137618D01*
X255152Y138251D01*
X257317D01*
X257579Y137618D01*
X259662Y134902D01*
X262378Y132819D01*
X265541Y131509D01*
X268934Y131062D01*
X272328Y131509D01*
X275490Y132819D01*
X278206Y134902D01*
X280290Y137618D01*
X281600Y140780D01*
X282046Y144174D01*
X281600Y147568D01*
X280290Y150730D01*
X278206Y153446D01*
X275490Y155529D01*
X272328Y156839D01*
X268934Y157286D01*
X265541Y156839D01*
X262378Y155529D01*
X259662Y153446D01*
X257579Y150730D01*
X257317Y150097D01*
X255152D01*
X254890Y150730D01*
X252806Y153446D01*
X250090Y155529D01*
X246928Y156839D01*
X243534Y157286D01*
X240140Y156839D01*
X236978Y155529D01*
X234263Y153446D01*
X232179Y150730D01*
X231917Y150097D01*
X229752D01*
X229490Y150730D01*
X227406Y153446D01*
X224690Y155529D01*
X221528Y156839D01*
X218134Y157286D01*
X214741Y156839D01*
X211578Y155529D01*
X208862Y153446D01*
X206779Y150730D01*
X206517Y150097D01*
X204352D01*
X204090Y150730D01*
X202006Y153446D01*
X199290Y155529D01*
X196128Y156839D01*
X192734Y157286D01*
X189340Y156839D01*
X186178Y155529D01*
X183463Y153446D01*
X181379Y150730D01*
X181117Y150097D01*
X178952D01*
X178690Y150730D01*
X176606Y153446D01*
X173890Y155529D01*
X170728Y156839D01*
X167334Y157286D01*
X163941Y156839D01*
X160778Y155529D01*
X158062Y153446D01*
X155979Y150730D01*
X155717Y150097D01*
X153552D01*
X153290Y150730D01*
X151206Y153446D01*
X148490Y155529D01*
X145328Y156839D01*
X141934Y157286D01*
X138540Y156839D01*
X135378Y155529D01*
X132662Y153446D01*
X130579Y150730D01*
X130317Y150097D01*
X128152D01*
X127890Y150730D01*
X125806Y153446D01*
X123090Y155529D01*
X119928Y156839D01*
X116534Y157286D01*
X113140Y156839D01*
X109978Y155529D01*
X107262Y153446D01*
X105179Y150730D01*
X104917Y150097D01*
X102752D01*
X102490Y150730D01*
X100406Y153446D01*
X97690Y155529D01*
X96741Y155922D01*
X96518Y156910D01*
X96626Y158099D01*
X96639Y158130D01*
X97000Y158279D01*
X98638Y159374D01*
X98921Y159658D01*
X99256Y159881D01*
X100648Y161274D01*
X100872Y161608D01*
X101156Y161892D01*
X102250Y163529D01*
X102404Y163901D01*
X102627Y164235D01*
X103381Y166054D01*
X103459Y166448D01*
X103613Y166820D01*
X103997Y168752D01*
Y169153D01*
X104075Y169547D01*
Y171517D01*
X103997Y171911D01*
Y172313D01*
X103613Y174245D01*
X103459Y174616D01*
X103381Y175010D01*
X102627Y176830D01*
X102404Y177164D01*
X102250Y177535D01*
X101156Y179173D01*
X100872Y179457D01*
X100648Y179791D01*
X99256Y181183D01*
X98922Y181407D01*
X98638Y181691D01*
X97000Y182785D01*
X96629Y182939D01*
X96295Y183162D01*
X96070Y183255D01*
X96070Y185420D01*
X97746Y186114D01*
X100253Y188037D01*
X102176Y190544D01*
X103385Y193463D01*
X103385Y193465D01*
X105403D01*
X105403Y193463D01*
X106612Y190544D01*
X108535Y188037D01*
X111042Y186114D01*
X113961Y184905D01*
X117094Y184492D01*
X120227Y184905D01*
X123146Y186114D01*
X125653Y188037D01*
X127576Y190544D01*
X128785Y193463D01*
X128785Y193465D01*
X130803D01*
X130803Y193463D01*
X132012Y190544D01*
X133935Y188037D01*
X136442Y186114D01*
X139361Y184905D01*
X142494Y184492D01*
X145627Y184905D01*
X148546Y186114D01*
X151053Y188037D01*
X152976Y190544D01*
X154185Y193463D01*
X154185Y193466D01*
X156203D01*
X156203Y193464D01*
X157412Y190545D01*
X159335Y188038D01*
X161842Y186115D01*
X164761Y184905D01*
X167894Y184493D01*
X171027Y184905D01*
X173946Y186115D01*
X176453Y188038D01*
X178376Y190545D01*
X179585Y193464D01*
X179585Y193466D01*
X181603D01*
X181603Y193463D01*
X182812Y190544D01*
X184736Y188037D01*
X187242Y186114D01*
X190161Y184905D01*
X193294Y184492D01*
X196427Y184905D01*
X199346Y186114D01*
X201852Y188037D01*
X203776Y190544D01*
X204985Y193463D01*
X204985Y193465D01*
X207003D01*
X207003Y193463D01*
X208212Y190544D01*
X210135Y188037D01*
X212642Y186114D01*
X215561Y184905D01*
X218694Y184492D01*
X221827Y184905D01*
X224746Y186114D01*
X227253Y188037D01*
X229176Y190544D01*
X230385Y193463D01*
X230385Y193465D01*
X232403D01*
X232403Y193463D01*
X233612Y190544D01*
X235536Y188037D01*
X238042Y186114D01*
X240961Y184905D01*
X244094Y184492D01*
X247227Y184905D01*
X250146Y186114D01*
X252652Y188037D01*
X254576Y190544D01*
X255494Y192761D01*
X257494Y192363D01*
Y184596D01*
X281494D01*
Y206600D01*
X281494Y208596D01*
X283492Y208600D01*
X296468D01*
X323781Y181287D01*
X325661Y179845D01*
X327850Y178938D01*
X330200Y178628D01*
X350579D01*
X350728Y178434D01*
X353444Y176351D01*
X354077Y176088D01*
Y173924D01*
X353444Y173661D01*
X350728Y171578D01*
X348644Y168862D01*
X347335Y165700D01*
X346888Y162306D01*
X347335Y158912D01*
X348644Y155750D01*
X350728Y153034D01*
X353444Y150951D01*
X356606Y149641D01*
X360000Y149194D01*
X363394Y149641D01*
X366556Y150951D01*
X369272Y153034D01*
X371355Y155750D01*
X372665Y158912D01*
X373112Y162306D01*
X372665Y165700D01*
X371355Y168862D01*
X369272Y171578D01*
X366556Y173661D01*
X365923Y173924D01*
Y176088D01*
X366556Y176351D01*
X369272Y178434D01*
X369420Y178628D01*
X385579D01*
X385728Y178434D01*
X388444Y176351D01*
X389077Y176088D01*
Y173924D01*
X388444Y173661D01*
X385728Y171578D01*
X383644Y168862D01*
X382334Y165700D01*
X381888Y162306D01*
X382334Y158912D01*
X383644Y155750D01*
X385728Y153034D01*
X388444Y150951D01*
X391606Y149641D01*
X395000Y149194D01*
X398393Y149641D01*
X401556Y150951D01*
X404271Y153034D01*
X406355Y155750D01*
X407665Y158912D01*
X408112Y162306D01*
X407665Y165700D01*
X406355Y168862D01*
X404271Y171578D01*
X401556Y173661D01*
X400923Y173924D01*
Y176088D01*
X401556Y176351D01*
X404271Y178434D01*
X406355Y181150D01*
X407665Y184312D01*
X408112Y187706D01*
X407665Y191100D01*
X406355Y194262D01*
X404271Y196978D01*
X401556Y199062D01*
X398393Y200371D01*
X395000Y200818D01*
X391606Y200371D01*
X388444Y199062D01*
X385728Y196978D01*
X385579Y196784D01*
X369420D01*
X369272Y196978D01*
X366556Y199062D01*
X363394Y200371D01*
X360000Y200818D01*
X356606Y200371D01*
X353444Y199062D01*
X350728Y196978D01*
X350579Y196784D01*
X333960D01*
X306647Y224097D01*
X304767Y225539D01*
X302577Y226446D01*
X300228Y226756D01*
D02*
G37*
G36*
X-400050Y199040D02*
X-403444Y198593D01*
X-406606Y197283D01*
X-409322Y195200D01*
X-411405Y192484D01*
X-412715Y189322D01*
X-413162Y185928D01*
X-412715Y182534D01*
X-411405Y179372D01*
X-409322Y176656D01*
X-406606Y174573D01*
X-405973Y174310D01*
Y172146D01*
X-406606Y171884D01*
X-409322Y169800D01*
X-411405Y167084D01*
X-412715Y163922D01*
X-413162Y160528D01*
X-412715Y157134D01*
X-411405Y153972D01*
X-409322Y151256D01*
X-406606Y149173D01*
X-403444Y147863D01*
X-400050Y147416D01*
X-396656Y147863D01*
X-393494Y149173D01*
X-390778Y151256D01*
X-388694Y153972D01*
X-387385Y157134D01*
X-386938Y160528D01*
X-387385Y163922D01*
X-388694Y167084D01*
X-390778Y169800D01*
X-393494Y171884D01*
X-394127Y172146D01*
Y174310D01*
X-393494Y174573D01*
X-390778Y176656D01*
X-388694Y179372D01*
X-387385Y182534D01*
X-386938Y185928D01*
X-387385Y189322D01*
X-388694Y192484D01*
X-390778Y195200D01*
X-393494Y197283D01*
X-396656Y198593D01*
X-400050Y199040D01*
D02*
G37*
G36*
X-443452Y209142D02*
X-445421D01*
X-445815Y209063D01*
X-446217D01*
X-448149Y208679D01*
X-448520Y208526D01*
X-448914Y208447D01*
X-450734Y207693D01*
X-451068Y207470D01*
X-451439Y207316D01*
X-453077Y206222D01*
X-453361Y205938D01*
X-453695Y205715D01*
X-455088Y204322D01*
X-455311Y203988D01*
X-455595Y203704D01*
X-456689Y202066D01*
X-456843Y201695D01*
X-457066Y201361D01*
X-457820Y199541D01*
X-457899Y199147D01*
X-458052Y198776D01*
X-458437Y196844D01*
Y196442D01*
X-458515Y196048D01*
Y194079D01*
X-458437Y193685D01*
Y193283D01*
X-458052Y191351D01*
X-457899Y190980D01*
X-457820Y190586D01*
X-457066Y188766D01*
X-456843Y188432D01*
X-456689Y188061D01*
X-455595Y186423D01*
X-455311Y186139D01*
X-455088Y185805D01*
X-453695Y184412D01*
X-453361Y184189D01*
X-453077Y183905D01*
X-452606Y183590D01*
X-452990Y181441D01*
X-453429Y181336D01*
X-457646Y179589D01*
X-461539Y177204D01*
X-465009Y174240D01*
X-467974Y170769D01*
X-470359Y166876D01*
X-472106Y162659D01*
X-473172Y158221D01*
X-473530Y153670D01*
X-473172Y149119D01*
X-472106Y144681D01*
X-470359Y140464D01*
X-467974Y136572D01*
X-465009Y133101D01*
X-461539Y130136D01*
X-457646Y127751D01*
X-453429Y126004D01*
X-448991Y124938D01*
X-444440Y124580D01*
X-439889Y124938D01*
X-435451Y126004D01*
X-431234Y127751D01*
X-427341Y130136D01*
X-423871Y133101D01*
X-420906Y136572D01*
X-418521Y140464D01*
X-416774Y144681D01*
X-415709Y149119D01*
X-415350Y153670D01*
X-415709Y158221D01*
X-416774Y162659D01*
X-418521Y166876D01*
X-420906Y170769D01*
X-423871Y174240D01*
X-427341Y177204D01*
X-431234Y179589D01*
X-435451Y181336D01*
X-435885Y181440D01*
X-436269Y183589D01*
X-435796Y183905D01*
X-435512Y184189D01*
X-435178Y184412D01*
X-433785Y185805D01*
X-433562Y186139D01*
X-433278Y186423D01*
X-432184Y188061D01*
X-432030Y188432D01*
X-431807Y188766D01*
X-431053Y190586D01*
X-430975Y190980D01*
X-430821Y191351D01*
X-430437Y193283D01*
Y193685D01*
X-430358Y194079D01*
Y196048D01*
X-430437Y196442D01*
Y196844D01*
X-430821Y198776D01*
X-430975Y199147D01*
X-431053Y199541D01*
X-431807Y201361D01*
X-432030Y201695D01*
X-432184Y202066D01*
X-433278Y203704D01*
X-433562Y203988D01*
X-433785Y204322D01*
X-435178Y205715D01*
X-435512Y205938D01*
X-435796Y206222D01*
X-437434Y207316D01*
X-437805Y207470D01*
X-438139Y207693D01*
X-439959Y208447D01*
X-440353Y208526D01*
X-440724Y208679D01*
X-442656Y209063D01*
X-443058D01*
X-443452Y209142D01*
D02*
G37*
G36*
X72519Y100215D02*
X70549D01*
X70155Y100137D01*
X69753D01*
X67821Y99753D01*
X67450Y99599D01*
X67056Y99521D01*
X65237Y98767D01*
X64902Y98544D01*
X64531Y98390D01*
X62894Y97296D01*
X62610Y97012D01*
X62276Y96788D01*
X60883Y95395D01*
X60659Y95062D01*
X60375Y94777D01*
X59281Y93140D01*
X59127Y92769D01*
X58904Y92435D01*
X58150Y90615D01*
X58072Y90221D01*
X57918Y89850D01*
X57534Y87918D01*
Y87516D01*
X57456Y87122D01*
Y85152D01*
X57534Y84758D01*
Y84356D01*
X57918Y82425D01*
X58072Y82053D01*
X58150Y81659D01*
X58904Y79840D01*
X59127Y79506D01*
X59281Y79134D01*
X60375Y77497D01*
X60659Y77213D01*
X60883Y76879D01*
X62276Y75486D01*
X62610Y75263D01*
X62894Y74978D01*
X64531Y73884D01*
X64903Y73731D01*
X65237Y73507D01*
X67056Y72753D01*
X67450Y72675D01*
X67821Y72521D01*
X69753Y72137D01*
X70155D01*
X70549Y72059D01*
X72519D01*
X72913Y72137D01*
X73314D01*
X75247Y72521D01*
X75618Y72675D01*
X76012Y72753D01*
X77832Y73507D01*
X78166Y73731D01*
X78537Y73884D01*
X80174Y74979D01*
X80458Y75263D01*
X80792Y75486D01*
X82185Y76879D01*
X82409Y77213D01*
X82692Y77497D01*
X83787Y79134D01*
X83941Y79506D01*
X84164Y79840D01*
X84918Y81659D01*
X84996Y82053D01*
X85150Y82424D01*
X85534Y84356D01*
Y84758D01*
X85612Y85152D01*
Y87122D01*
X85534Y87516D01*
Y87918D01*
X85150Y89850D01*
X84996Y90221D01*
X84918Y90615D01*
X84164Y92435D01*
X83941Y92769D01*
X83787Y93140D01*
X82692Y94777D01*
X82409Y95062D01*
X82185Y95395D01*
X80792Y96788D01*
X80458Y97012D01*
X80174Y97296D01*
X78537Y98390D01*
X78165Y98544D01*
X77832Y98767D01*
X76012Y99521D01*
X75618Y99599D01*
X75247Y99753D01*
X73315Y100137D01*
X72913D01*
X72519Y100215D01*
D02*
G37*
G36*
X320802Y78136D02*
X317408Y77690D01*
X314246Y76380D01*
X311530Y74296D01*
X309446Y71580D01*
X308137Y68418D01*
X307690Y65024D01*
X308137Y61631D01*
X309446Y58468D01*
X311530Y55753D01*
X314246Y53669D01*
X314879Y53407D01*
Y51242D01*
X314246Y50980D01*
X311530Y48896D01*
X309446Y46180D01*
X308137Y43018D01*
X307690Y39624D01*
X308137Y36230D01*
X309446Y33068D01*
X311530Y30352D01*
X314246Y28269D01*
X314879Y28007D01*
Y25842D01*
X314246Y25580D01*
X311530Y23496D01*
X309446Y20780D01*
X308137Y17618D01*
X307690Y14224D01*
X308137Y10831D01*
X309446Y7668D01*
X311530Y4952D01*
X314246Y2869D01*
X314879Y2607D01*
Y442D01*
X314246Y180D01*
X311530Y-1904D01*
X309446Y-4620D01*
X308137Y-7782D01*
X307690Y-11176D01*
X308137Y-14569D01*
X309446Y-17732D01*
X311530Y-20447D01*
X314246Y-22531D01*
X314879Y-22793D01*
Y-24958D01*
X314246Y-25220D01*
X311530Y-27304D01*
X309446Y-30020D01*
X308137Y-33182D01*
X307690Y-36576D01*
X308137Y-39969D01*
X309446Y-43132D01*
X311530Y-45848D01*
X314246Y-47931D01*
X314879Y-48193D01*
Y-50358D01*
X314246Y-50620D01*
X311530Y-52704D01*
X309446Y-55420D01*
X308137Y-58582D01*
X307690Y-61976D01*
X308137Y-65370D01*
X309446Y-68532D01*
X311530Y-71248D01*
X314246Y-73331D01*
X317408Y-74641D01*
X320802Y-75088D01*
X324196Y-74641D01*
X327358Y-73331D01*
X330074Y-71248D01*
X332157Y-68532D01*
X333467Y-65370D01*
X333914Y-61976D01*
X333467Y-58582D01*
X332157Y-55420D01*
X330074Y-52704D01*
X327358Y-50620D01*
X326725Y-50358D01*
Y-48193D01*
X327358Y-47931D01*
X330074Y-45848D01*
X332157Y-43132D01*
X333467Y-39969D01*
X333914Y-36576D01*
X333467Y-33182D01*
X332157Y-30020D01*
X330074Y-27304D01*
X327358Y-25220D01*
X326725Y-24958D01*
Y-22793D01*
X327358Y-22531D01*
X330074Y-20447D01*
X332157Y-17732D01*
X333467Y-14569D01*
X333914Y-11176D01*
X333467Y-7782D01*
X332157Y-4620D01*
X330074Y-1904D01*
X327358Y180D01*
X326725Y442D01*
Y2607D01*
X327358Y2869D01*
X330074Y4952D01*
X332157Y7668D01*
X333467Y10831D01*
X333914Y14224D01*
X333467Y17618D01*
X332157Y20780D01*
X330074Y23496D01*
X327358Y25580D01*
X326725Y25842D01*
Y28007D01*
X327358Y28269D01*
X330074Y30352D01*
X332157Y33068D01*
X333467Y36230D01*
X333914Y39624D01*
X333467Y43018D01*
X332157Y46180D01*
X330074Y48896D01*
X327358Y50980D01*
X326725Y51242D01*
Y53407D01*
X327358Y53669D01*
X330074Y55753D01*
X332157Y58468D01*
X333467Y61631D01*
X333914Y65024D01*
X333467Y68418D01*
X332157Y71580D01*
X330074Y74296D01*
X327358Y76380D01*
X324196Y77690D01*
X320802Y78136D01*
D02*
G37*
G36*
X268934Y-27714D02*
X265541Y-28161D01*
X262378Y-29471D01*
X259662Y-31555D01*
X257579Y-34270D01*
X256269Y-37433D01*
X255822Y-40826D01*
X256269Y-44220D01*
X257579Y-47382D01*
X259662Y-50098D01*
X262378Y-52182D01*
Y-59120D01*
X257748D01*
Y-83120D01*
X281748D01*
Y-59120D01*
X275490D01*
Y-52182D01*
X278206Y-50098D01*
X280290Y-47382D01*
X281600Y-44220D01*
X282046Y-40826D01*
X281600Y-37433D01*
X280290Y-34270D01*
X278206Y-31555D01*
X275490Y-29471D01*
X272328Y-28161D01*
X268934Y-27714D01*
D02*
G37*
G36*
X-450088Y-7451D02*
X-453090Y-7846D01*
X-455888Y-9005D01*
X-458290Y-10848D01*
X-460133Y-13250D01*
X-461292Y-16048D01*
X-461687Y-19050D01*
X-461604Y-19685D01*
X-461687Y-20320D01*
Y-44450D01*
X-461687Y-44450D01*
X-461687Y-44450D01*
Y-84982D01*
X-461292Y-87984D01*
X-460133Y-90782D01*
X-458290Y-93184D01*
X-367735Y-183739D01*
X-367600Y-184765D01*
X-366189Y-188171D01*
X-363945Y-191095D01*
X-361021Y-193339D01*
X-357615Y-194750D01*
X-353960Y-195231D01*
X-350305Y-194750D01*
X-346900Y-193339D01*
X-343975Y-191095D01*
X-343279Y-190188D01*
X-304366D01*
Y-192458D01*
X-281866D01*
Y-172958D01*
Y-169062D01*
X-277796D01*
Y-172604D01*
X-255096D01*
Y-153004D01*
X-277796D01*
Y-155950D01*
X-281866D01*
Y-151458D01*
X-304366D01*
Y-172032D01*
X-343279D01*
X-343975Y-171125D01*
X-346900Y-168881D01*
X-350305Y-167470D01*
X-351331Y-167335D01*
X-438489Y-80178D01*
Y-44450D01*
Y-20320D01*
X-438572Y-19685D01*
X-438489Y-19050D01*
X-438884Y-16048D01*
X-440043Y-13250D01*
X-441886Y-10848D01*
X-444288Y-9005D01*
X-447086Y-7846D01*
X-450088Y-7451D01*
D02*
G37*
G36*
X445548Y-180858D02*
X443578D01*
X443185Y-180937D01*
X442783D01*
X440851Y-181321D01*
X440480Y-181474D01*
X440086Y-181553D01*
X438266Y-182307D01*
X437932Y-182530D01*
X437561Y-182684D01*
X435923Y-183778D01*
X435639Y-184062D01*
X435305Y-184285D01*
X433912Y-185678D01*
X433689Y-186012D01*
X433405Y-186296D01*
X432311Y-187934D01*
X432157Y-188305D01*
X431934Y-188639D01*
X431180Y-190459D01*
X431101Y-190853D01*
X430948Y-191224D01*
X430564Y-193156D01*
Y-193558D01*
X430485Y-193952D01*
Y-195921D01*
X430564Y-196315D01*
Y-196717D01*
X430948Y-198649D01*
X431101Y-199020D01*
X431180Y-199414D01*
X431934Y-201234D01*
X432157Y-201568D01*
X432311Y-201939D01*
X433405Y-203577D01*
X433689Y-203861D01*
X433912Y-204195D01*
X435305Y-205588D01*
X435639Y-205811D01*
X435923Y-206095D01*
X437561Y-207189D01*
X437932Y-207343D01*
X438266Y-207566D01*
X440086Y-208320D01*
X440480Y-208398D01*
X440851Y-208552D01*
X442783Y-208937D01*
X443185D01*
X443578Y-209015D01*
X445548D01*
X445942Y-208937D01*
X446344D01*
X448276Y-208552D01*
X448647Y-208398D01*
X449041Y-208320D01*
X450861Y-207566D01*
X451195Y-207343D01*
X451566Y-207189D01*
X453204Y-206095D01*
X453488Y-205811D01*
X453822Y-205588D01*
X455215Y-204195D01*
X455438Y-203861D01*
X455722Y-203577D01*
X456816Y-201939D01*
X456970Y-201568D01*
X457193Y-201234D01*
X457947Y-199414D01*
X458025Y-199020D01*
X458179Y-198649D01*
X458563Y-196717D01*
Y-196315D01*
X458642Y-195921D01*
Y-193952D01*
X458563Y-193558D01*
Y-193156D01*
X458179Y-191224D01*
X458025Y-190853D01*
X457947Y-190459D01*
X457193Y-188639D01*
X456970Y-188305D01*
X456816Y-187934D01*
X455722Y-186296D01*
X455438Y-186012D01*
X455215Y-185678D01*
X453822Y-184285D01*
X453488Y-184062D01*
X453204Y-183778D01*
X451566Y-182684D01*
X451195Y-182530D01*
X450861Y-182307D01*
X449041Y-181553D01*
X448647Y-181474D01*
X448276Y-181321D01*
X446344Y-180937D01*
X445942D01*
X445548Y-180858D01*
D02*
G37*
G36*
X-443452Y-181002D02*
X-445421D01*
X-445815Y-181080D01*
X-446217D01*
X-448149Y-181465D01*
X-448520Y-181618D01*
X-448914Y-181697D01*
X-450734Y-182451D01*
X-451068Y-182674D01*
X-451439Y-182828D01*
X-453077Y-183922D01*
X-453361Y-184206D01*
X-453695Y-184429D01*
X-455088Y-185822D01*
X-455311Y-186156D01*
X-455595Y-186440D01*
X-456689Y-188078D01*
X-456843Y-188449D01*
X-457066Y-188783D01*
X-457820Y-190603D01*
X-457899Y-190997D01*
X-458052Y-191368D01*
X-458437Y-193300D01*
Y-193702D01*
X-458515Y-194096D01*
Y-196065D01*
X-458437Y-196459D01*
Y-196861D01*
X-458052Y-198793D01*
X-457899Y-199164D01*
X-457820Y-199558D01*
X-457066Y-201378D01*
X-456843Y-201712D01*
X-456689Y-202083D01*
X-455595Y-203721D01*
X-455311Y-204005D01*
X-455088Y-204339D01*
X-453695Y-205732D01*
X-453361Y-205955D01*
X-453077Y-206239D01*
X-451439Y-207333D01*
X-451068Y-207487D01*
X-450734Y-207710D01*
X-448914Y-208464D01*
X-448520Y-208542D01*
X-448149Y-208696D01*
X-446217Y-209081D01*
X-445815D01*
X-445421Y-209159D01*
X-443452D01*
X-443058Y-209081D01*
X-442656D01*
X-440724Y-208696D01*
X-440353Y-208542D01*
X-439959Y-208464D01*
X-438139Y-207710D01*
X-437805Y-207487D01*
X-437434Y-207333D01*
X-435796Y-206239D01*
X-435512Y-205955D01*
X-435178Y-205732D01*
X-433785Y-204339D01*
X-433562Y-204005D01*
X-433278Y-203721D01*
X-432184Y-202083D01*
X-432030Y-201712D01*
X-431807Y-201378D01*
X-431053Y-199558D01*
X-430975Y-199164D01*
X-430821Y-198793D01*
X-430437Y-196861D01*
Y-196459D01*
X-430358Y-196065D01*
Y-194096D01*
X-430437Y-193702D01*
Y-193300D01*
X-430821Y-191368D01*
X-430975Y-190997D01*
X-431053Y-190603D01*
X-431807Y-188783D01*
X-432030Y-188449D01*
X-432184Y-188078D01*
X-433278Y-186440D01*
X-433562Y-186156D01*
X-433785Y-185822D01*
X-435178Y-184429D01*
X-435512Y-184206D01*
X-435796Y-183922D01*
X-437434Y-182828D01*
X-437805Y-182674D01*
X-438139Y-182451D01*
X-439959Y-181697D01*
X-440353Y-181618D01*
X-440724Y-181465D01*
X-442656Y-181080D01*
X-443058D01*
X-443452Y-181002D01*
D02*
G37*
G36*
X72440Y-182927D02*
X70470D01*
X70076Y-183006D01*
X69675D01*
X67743Y-183390D01*
X67371Y-183544D01*
X66978Y-183622D01*
X65158Y-184376D01*
X64823Y-184599D01*
X64453Y-184753D01*
X62815Y-185847D01*
X62531Y-186131D01*
X62197Y-186355D01*
X60804Y-187747D01*
X60581Y-188081D01*
X60297Y-188365D01*
X59202Y-190003D01*
X59049Y-190374D01*
X58825Y-190708D01*
X58071Y-192528D01*
X57993Y-192922D01*
X57839Y-193293D01*
X57455Y-195225D01*
Y-195627D01*
X57377Y-196021D01*
Y-197991D01*
X57455Y-198385D01*
Y-198786D01*
X57839Y-200718D01*
X57993Y-201089D01*
X58071Y-201483D01*
X58825Y-203303D01*
X59049Y-203637D01*
X59202Y-204009D01*
X60297Y-205646D01*
X60581Y-205930D01*
X60804Y-206264D01*
X62197Y-207657D01*
X62531Y-207880D01*
X62815Y-208164D01*
X64453Y-209259D01*
X64824Y-209412D01*
X65158Y-209636D01*
X66978Y-210389D01*
X67372Y-210468D01*
X67743Y-210622D01*
X69675Y-211006D01*
X70076D01*
X70470Y-211084D01*
X72440D01*
X72834Y-211006D01*
X73236D01*
X75168Y-210622D01*
X75539Y-210468D01*
X75933Y-210389D01*
X77753Y-209636D01*
X78087Y-209412D01*
X78458Y-209259D01*
X80096Y-208164D01*
X80379Y-207880D01*
X80714Y-207657D01*
X82106Y-206264D01*
X82330Y-205930D01*
X82614Y-205646D01*
X83708Y-204009D01*
X83862Y-203637D01*
X84085Y-203303D01*
X84839Y-201483D01*
X84917Y-201089D01*
X85071Y-200718D01*
X85455Y-198786D01*
Y-198385D01*
X85534Y-197991D01*
Y-196021D01*
X85455Y-195627D01*
Y-195225D01*
X85071Y-193293D01*
X84917Y-192922D01*
X84839Y-192528D01*
X84085Y-190708D01*
X83862Y-190374D01*
X83708Y-190003D01*
X82614Y-188365D01*
X82330Y-188081D01*
X82106Y-187747D01*
X80714Y-186355D01*
X80380Y-186131D01*
X80096Y-185847D01*
X78458Y-184753D01*
X78087Y-184599D01*
X77753Y-184376D01*
X75933Y-183622D01*
X75539Y-183544D01*
X75168Y-183390D01*
X73236Y-183006D01*
X72834D01*
X72440Y-182927D01*
D02*
G37*
%LPD*%
G36*
X-168980Y206600D02*
X-170865Y205154D01*
X-172788Y202648D01*
X-173997Y199729D01*
X-174410Y196596D01*
X-173997Y193463D01*
X-172788Y190544D01*
X-170865Y188037D01*
X-168358Y186114D01*
X-165439Y184905D01*
X-162306Y184492D01*
X-159173Y184905D01*
X-156254Y186114D01*
X-153748Y188037D01*
X-151824Y190544D01*
X-150615Y193463D01*
X-150615Y193465D01*
X-148597D01*
X-148597Y193463D01*
X-147388Y190544D01*
X-145464Y188037D01*
X-142958Y186114D01*
X-140039Y184905D01*
X-136906Y184492D01*
X-133773Y184905D01*
X-130854Y186114D01*
X-128348Y188037D01*
X-126424Y190544D01*
X-125215Y193463D01*
X-125215Y193465D01*
X-123197D01*
X-123197Y193463D01*
X-121988Y190544D01*
X-120064Y188037D01*
X-117558Y186114D01*
X-114639Y184905D01*
X-111506Y184492D01*
X-108373Y184905D01*
X-105454Y186114D01*
X-102948Y188037D01*
X-101024Y190544D01*
X-99815Y193463D01*
X-99815Y193465D01*
X-97797D01*
X-97797Y193463D01*
X-96588Y190544D01*
X-94664Y188037D01*
X-92413Y186310D01*
X-92414Y185306D01*
X-92764Y184200D01*
X-93565Y184041D01*
X-93936Y183888D01*
X-94330Y183809D01*
X-96150Y183055D01*
X-96484Y182832D01*
X-96855Y182678D01*
X-98493Y181584D01*
X-98777Y181300D01*
X-99111Y181077D01*
X-100504Y179684D01*
X-100727Y179350D01*
X-101011Y179066D01*
X-102105Y177428D01*
X-102259Y177057D01*
X-102482Y176723D01*
X-103236Y174903D01*
X-103315Y174509D01*
X-103468Y174138D01*
X-103853Y172206D01*
Y171804D01*
X-103931Y171410D01*
Y169441D01*
X-103853Y169047D01*
Y168645D01*
X-103468Y166713D01*
X-103315Y166342D01*
X-103236Y165948D01*
X-102482Y164128D01*
X-102259Y163794D01*
X-102105Y163423D01*
X-101011Y161785D01*
X-100727Y161501D01*
X-100504Y161167D01*
X-99111Y159774D01*
X-98777Y159551D01*
X-98493Y159267D01*
X-96855Y158173D01*
X-96484Y158019D01*
X-96150Y157796D01*
X-94464Y157097D01*
X-94079Y156187D01*
X-93951Y155753D01*
X-93958Y155225D01*
X-94038Y154903D01*
X-95938Y153446D01*
X-98021Y150730D01*
X-98284Y150097D01*
X-100448D01*
X-100710Y150730D01*
X-102794Y153445D01*
X-105510Y155529D01*
X-108672Y156839D01*
X-112066Y157286D01*
X-115459Y156839D01*
X-118622Y155529D01*
X-121337Y153445D01*
X-123421Y150730D01*
X-123683Y150097D01*
X-125848D01*
X-126110Y150730D01*
X-128194Y153446D01*
X-130910Y155529D01*
X-134072Y156839D01*
X-137466Y157286D01*
X-140859Y156839D01*
X-144022Y155529D01*
X-146737Y153446D01*
X-148821Y150730D01*
X-149083Y150097D01*
X-151248D01*
X-151510Y150730D01*
X-153594Y153446D01*
X-156310Y155529D01*
X-159472Y156839D01*
X-162866Y157286D01*
X-166259Y156839D01*
X-169422Y155529D01*
X-172138Y153446D01*
X-174221Y150730D01*
X-175531Y147568D01*
X-175978Y144174D01*
X-175531Y140780D01*
X-174221Y137618D01*
X-172138Y134902D01*
X-169422Y132819D01*
X-166259Y131509D01*
X-162866Y131062D01*
X-159472Y131509D01*
X-156310Y132819D01*
X-153594Y134902D01*
X-151510Y137618D01*
X-151248Y138251D01*
X-149083D01*
X-148821Y137618D01*
X-146737Y134902D01*
X-144022Y132819D01*
X-140859Y131509D01*
X-137466Y131062D01*
X-134072Y131509D01*
X-130910Y132819D01*
X-128194Y134902D01*
X-126110Y137618D01*
X-125848Y138251D01*
X-123684D01*
X-123421Y137617D01*
X-121337Y134902D01*
X-118622Y132818D01*
X-115459Y131508D01*
X-112066Y131061D01*
X-108672Y131508D01*
X-105510Y132818D01*
X-102794Y134902D01*
X-100710Y137617D01*
X-100448Y138251D01*
X-98283D01*
X-98021Y137618D01*
X-95938Y134902D01*
X-93222Y132819D01*
X-90059Y131509D01*
X-86666Y131062D01*
X-83272Y131509D01*
X-80110Y132819D01*
X-77394Y134902D01*
X-75310Y137618D01*
X-75048Y138251D01*
X-72883D01*
X-72621Y137618D01*
X-70538Y134902D01*
X-67822Y132819D01*
X-64660Y131509D01*
X-61266Y131062D01*
X-57872Y131509D01*
X-54710Y132819D01*
X-51994Y134902D01*
X-49910Y137618D01*
X-49648Y138251D01*
X-47483D01*
X-47221Y137618D01*
X-45138Y134902D01*
X-42422Y132819D01*
X-39260Y131509D01*
X-35866Y131062D01*
X-32472Y131509D01*
X-29310Y132819D01*
X-26594Y134902D01*
X-24510Y137618D01*
X-24248Y138251D01*
X-22083D01*
X-21821Y137618D01*
X-19737Y134902D01*
X-17022Y132819D01*
X-13859Y131509D01*
X-10466Y131062D01*
X-7072Y131509D01*
X-3910Y132819D01*
X-1194Y134902D01*
X890Y137618D01*
X1152Y138251D01*
X3317D01*
X3579Y137618D01*
X5663Y134902D01*
X8378Y132819D01*
X11540Y131509D01*
X14934Y131062D01*
X18328Y131509D01*
X21490Y132819D01*
X24206Y134902D01*
X26290Y137618D01*
X26552Y138251D01*
X28717D01*
X28979Y137618D01*
X31063Y134902D01*
X33778Y132819D01*
X36941Y131509D01*
X39378Y131188D01*
X40106Y129088D01*
X-23497Y65484D01*
X-182146D01*
X-183843Y65261D01*
X-185424Y64606D01*
X-186782Y63564D01*
X-251778Y-1432D01*
X-252820Y-2790D01*
X-253475Y-4371D01*
X-253698Y-6068D01*
Y-11717D01*
X-255698Y-12396D01*
X-256886Y-10848D01*
X-259288Y-9005D01*
X-262086Y-7846D01*
X-265088Y-7451D01*
X-265867Y-7553D01*
X-305568Y32148D01*
Y176850D01*
X-262636D01*
X-260287Y177160D01*
X-258097Y178067D01*
X-256217Y179509D01*
X-227126Y208600D01*
X-220459D01*
X-219780Y206600D01*
X-221665Y205154D01*
X-223588Y202648D01*
X-224797Y199729D01*
X-225210Y196596D01*
X-224797Y193463D01*
X-223588Y190544D01*
X-221665Y188037D01*
X-219158Y186114D01*
X-216239Y184905D01*
X-213106Y184492D01*
X-209973Y184905D01*
X-207054Y186114D01*
X-204548Y188037D01*
X-202624Y190544D01*
X-201415Y193463D01*
X-201003Y196596D01*
X-201415Y199729D01*
X-202624Y202648D01*
X-204548Y205154D01*
X-206432Y206600D01*
X-205753Y208600D01*
X-169659D01*
X-168980Y206600D01*
D02*
G37*
%LPC*%
G36*
X-200666Y157174D02*
X-226666D01*
Y131174D01*
X-200666D01*
Y157174D01*
D02*
G37*
G36*
X-106551Y100184D02*
X-108521D01*
X-108915Y100106D01*
X-109317D01*
X-111249Y99722D01*
X-111620Y99568D01*
X-112014Y99490D01*
X-113834Y98736D01*
X-114168Y98513D01*
X-114539Y98359D01*
X-116177Y97264D01*
X-116461Y96980D01*
X-116795Y96757D01*
X-118187Y95365D01*
X-118411Y95030D01*
X-118695Y94746D01*
X-119789Y93109D01*
X-119943Y92738D01*
X-120166Y92403D01*
X-120920Y90584D01*
X-120998Y90190D01*
X-121152Y89818D01*
X-121536Y87886D01*
Y87485D01*
X-121614Y87091D01*
Y85121D01*
X-121536Y84727D01*
Y84326D01*
X-121152Y82394D01*
X-120998Y82022D01*
X-120920Y81628D01*
X-120166Y79809D01*
X-119943Y79474D01*
X-119789Y79103D01*
X-118694Y77466D01*
X-118411Y77182D01*
X-118187Y76848D01*
X-116795Y75455D01*
X-116461Y75231D01*
X-116177Y74947D01*
X-114539Y73853D01*
X-114167Y73699D01*
X-113834Y73476D01*
X-112014Y72722D01*
X-111620Y72644D01*
X-111249Y72490D01*
X-109317Y72106D01*
X-108915D01*
X-108521Y72028D01*
X-106551D01*
X-106157Y72106D01*
X-105756D01*
X-103823Y72490D01*
X-103452Y72644D01*
X-103058Y72722D01*
X-101238Y73476D01*
X-100904Y73699D01*
X-100533Y73853D01*
X-98896Y74948D01*
X-98612Y75231D01*
X-98278Y75455D01*
X-96885Y76848D01*
X-96662Y77182D01*
X-96377Y77466D01*
X-95283Y79103D01*
X-95129Y79475D01*
X-94906Y79809D01*
X-94152Y81628D01*
X-94074Y82022D01*
X-93920Y82393D01*
X-93536Y84325D01*
Y84727D01*
X-93458Y85121D01*
Y87091D01*
X-93536Y87485D01*
Y87887D01*
X-93920Y89818D01*
X-94074Y90190D01*
X-94152Y90584D01*
X-94906Y92403D01*
X-95129Y92738D01*
X-95283Y93109D01*
X-96377Y94746D01*
X-96662Y95030D01*
X-96885Y95364D01*
X-98278Y96757D01*
X-98611Y96980D01*
X-98896Y97264D01*
X-100533Y98359D01*
X-100905Y98513D01*
X-101238Y98736D01*
X-103058Y99490D01*
X-103452Y99568D01*
X-103823Y99722D01*
X-105755Y100106D01*
X-106157D01*
X-106551Y100184D01*
D02*
G37*
%LPD*%
D14*
X-315662Y185928D02*
X-262636D01*
X-230886Y217678D01*
X300228D01*
X-361272Y185928D02*
X-315662D01*
X-314646Y184912D01*
Y28388D02*
Y184912D01*
X-365000Y185928D02*
X-361272D01*
X321436Y116458D02*
X399105D01*
X421386Y94177D01*
X319786Y116840D02*
X320802Y115824D01*
X216662Y116840D02*
X319786D01*
X421386Y-149098D02*
X423418Y-151130D01*
X421386Y-149098D02*
Y94177D01*
X300228Y217678D02*
X330200Y187706D01*
X-265088Y-21170D02*
Y-19050D01*
X-353960Y-181110D02*
X-293063D01*
X-412750Y-72320D02*
Y32766D01*
X-293878Y-73240D02*
X-265088Y-44450D01*
X-293878Y-97184D02*
Y-73240D01*
X-264668Y-44450D02*
Y-21590D01*
X-265088Y-21170D02*
X-264668Y-21590D01*
X-314646Y28388D02*
X-266148Y-20110D01*
X330200Y187706D02*
X360000D01*
X390000D01*
D18*
X-266744Y-162506D02*
X-266446Y-162804D01*
X-292818Y-162506D02*
X-266744D01*
X-293116Y-162208D02*
X-292818Y-162506D01*
X-247904Y-130810D02*
Y-110282D01*
X-250190Y-133096D02*
X-247904Y-130810D01*
X-256598Y-101588D02*
X-247904Y-110282D01*
X-248158Y-179070D02*
Y-135128D01*
X-250190Y-133096D02*
X-248158Y-135128D01*
X-249692Y-180604D02*
X-248158Y-179070D01*
X-266446Y-180604D02*
X-249692D01*
X-450088Y95550D02*
Y95952D01*
Y70150D02*
Y95550D01*
Y70104D02*
Y70150D01*
X-187504Y105866D02*
Y143412D01*
X-197820Y95550D02*
X-187504Y105866D01*
X-265088Y95550D02*
X-197820D01*
X-265432Y-101588D02*
X-256598D01*
X-450088Y70104D02*
X-448564Y68580D01*
X-268732Y-98288D02*
X-265432Y-101588D01*
X-351974Y-133096D02*
X-250190D01*
X-353960Y-131110D02*
X-351974Y-133096D01*
X1016Y-113284D02*
X32004D01*
X-14484Y-97784D02*
X1016Y-113284D01*
X-59188Y-97784D02*
X-14484D01*
X81534Y-138430D02*
X119126D01*
X81534D02*
Y-114808D01*
X33274Y-138430D02*
X81534D01*
X32004Y-139699D02*
X33274Y-138430D01*
X120904Y-139700D02*
X278892D01*
X119380Y-138176D02*
X120904Y-139700D01*
X119126Y-138430D02*
X119380Y-138176D01*
X277368Y-112776D02*
X278892Y-114300D01*
X119380Y-112776D02*
X277368D01*
X54134Y-87408D02*
X81534Y-114808D01*
X-44164Y-87408D02*
X54134D01*
X-96520Y-113284D02*
X-32258D01*
X-85852Y-71120D02*
X-59188Y-97784D01*
X-235458Y-21590D02*
X-170434Y43434D01*
X-235458Y-81788D02*
Y-21590D01*
X-170434Y43434D02*
X-10876D01*
X-235458Y-81788D02*
X-203962Y-113284D01*
X-96520D01*
X89864Y144174D02*
X91134D01*
X-10876Y43434D02*
X89864Y144174D01*
X-61266Y-70306D02*
Y-40826D01*
Y-70306D02*
X-60452Y-71120D01*
X-61266Y-70306D02*
X-44164Y-87408D01*
X-247142Y-92710D02*
X-201168Y-138684D01*
X-96520D01*
X-247142Y-92710D02*
Y-6068D01*
X-182146Y58928D01*
X-20782D01*
X64464Y144174D02*
X65734D01*
X-20782Y58928D02*
X64464Y144174D01*
X-32258Y-138684D02*
X-32258Y-138684D01*
X-96520Y-138684D02*
X-32258D01*
X-96520Y-138684D02*
X-96520Y-138684D01*
X116941Y-70713D02*
X117348Y-71120D01*
X116941Y-70713D02*
Y-41233D01*
X116534Y-40826D02*
X116941Y-41233D01*
X142341Y-70713D02*
X142748Y-71120D01*
X142341Y-70713D02*
Y-41233D01*
X141934Y-40826D02*
X142341Y-41233D01*
X268934Y-70306D02*
Y-40826D01*
Y-70306D02*
X269748Y-71120D01*
X167334Y-40826D02*
X167741Y-41233D01*
Y-70713D02*
Y-41233D01*
Y-70713D02*
X168148Y-71119D01*
X-212852Y-71120D02*
Y-41640D01*
X-213666Y-40826D02*
X-212852Y-41640D01*
X91134Y-40826D02*
X91541Y-41233D01*
Y-70713D02*
Y-41233D01*
Y-70713D02*
X91948Y-71120D01*
X218134Y-40826D02*
X218541Y-41233D01*
Y-70713D02*
Y-41233D01*
Y-70713D02*
X218948Y-71120D01*
X-112066Y-40826D02*
X-111659Y-41233D01*
Y-70713D02*
Y-41233D01*
Y-70713D02*
X-111252Y-71120D01*
X65734Y-40826D02*
X66141Y-41233D01*
Y-70713D02*
Y-41233D01*
Y-70713D02*
X66548Y-71120D01*
X-137466Y-40826D02*
X-137059Y-41233D01*
Y-70713D02*
Y-41233D01*
Y-70713D02*
X-136652Y-71120D01*
X-162866Y-40826D02*
X-162459Y-41233D01*
Y-70713D02*
Y-41233D01*
Y-70713D02*
X-162052Y-71120D01*
X-188266Y-40826D02*
X-187859Y-41233D01*
Y-70713D02*
Y-41233D01*
Y-70713D02*
X-187452Y-71120D01*
D24*
X-266446Y-180604D02*
D03*
Y-162804D02*
D03*
X-268732Y-98288D02*
D03*
Y-116088D02*
D03*
D25*
X-293116Y-162208D02*
D03*
Y-181708D02*
D03*
X-293878Y-116684D02*
D03*
Y-97184D02*
D03*
D26*
X351282Y100458D02*
D03*
Y116458D02*
D03*
D40*
X-19991Y-31601D02*
Y-28445D01*
X-26341Y-25814D02*
X2776Y3302D01*
X5406Y-3048D02*
X288852D01*
X-26341Y-31601D02*
Y-25814D01*
X-19991Y-28445D02*
X5406Y-3048D01*
X2776Y3302D02*
X291482D01*
X-19991Y-31601D02*
X-10766Y-40826D01*
X306160Y-86868D02*
X356553D01*
X388493Y-118808D01*
Y-141605D02*
Y-118808D01*
Y-141605D02*
X398018Y-151130D01*
X353923Y-93218D02*
X382143Y-121439D01*
Y-141605D02*
Y-121439D01*
X372618Y-151130D02*
X382143Y-141605D01*
X303530Y-93218D02*
X353923D01*
X297434Y-78142D02*
X306160Y-86868D01*
X297434Y-78142D02*
Y-2650D01*
X291482Y3302D02*
X297434Y-2650D01*
X-35566Y-40826D02*
X-26341Y-31601D01*
X-35866Y-40826D02*
X-35566D01*
X291084Y-80772D02*
X303530Y-93218D01*
X291084Y-80772D02*
Y-5280D01*
X288852Y-3048D02*
X291084Y-5280D01*
X-10766Y-40826D02*
X-10466D01*
X-10059Y-41233D01*
Y-70713D02*
Y-41233D01*
Y-70713D02*
X-9652Y-71120D01*
X-35866Y-40826D02*
X-35459Y-41233D01*
Y-70713D02*
Y-41233D01*
Y-70713D02*
X-35052Y-71120D01*
X14934Y-40826D02*
X15341Y-41233D01*
Y-70713D02*
Y-41233D01*
Y-70713D02*
X15748Y-71120D01*
X40334Y-40826D02*
X40741Y-41233D01*
Y-70713D02*
Y-41233D01*
Y-70713D02*
X41148Y-71120D01*
D41*
X-450088Y-44450D02*
Y-20320D01*
Y-84982D02*
X-353960Y-181110D01*
X-450088Y-84982D02*
Y-44450D01*
D42*
X-269030Y-116386D02*
X-268732Y-116088D01*
X-293580Y-116386D02*
X-269030D01*
X-293878Y-116684D02*
X-293580Y-116386D01*
D43*
X192734Y-40826D02*
X193141Y-41233D01*
Y-70713D02*
Y-41233D01*
Y-70713D02*
X193548Y-71120D01*
D44*
X395000Y213106D02*
D03*
X360000D02*
D03*
X-400050Y211328D02*
D03*
X-365000D02*
D03*
X320802Y115824D02*
D03*
X423418Y-151130D02*
D03*
D45*
X320802Y90424D02*
D03*
X243534Y-40826D02*
D03*
X347218Y-151130D02*
D03*
X278892Y-190500D02*
D03*
X119380Y-190499D02*
D03*
X-188266Y144174D02*
D03*
X-32258Y-190499D02*
D03*
X32004D02*
D03*
X-96520Y-190500D02*
D03*
X320802Y-36576D02*
D03*
Y-11176D02*
D03*
Y14224D02*
D03*
Y39624D02*
D03*
Y65024D02*
D03*
Y-61976D02*
D03*
X119380Y-165100D02*
D03*
Y-139699D02*
D03*
X-96520Y-165100D02*
D03*
Y-139700D02*
D03*
X32004Y-165100D02*
D03*
Y-139699D02*
D03*
X-32258D02*
D03*
Y-165100D02*
D03*
X-86666Y-40826D02*
D03*
X91134Y144174D02*
D03*
X-61266Y-40826D02*
D03*
X278892Y-139700D02*
D03*
Y-165100D02*
D03*
X65734Y144174D02*
D03*
X116534Y-40826D02*
D03*
X141934D02*
D03*
X398018Y-151130D02*
D03*
X372618D02*
D03*
X218134Y-40826D02*
D03*
X192734D02*
D03*
X91134D02*
D03*
X40334D02*
D03*
X-10466D02*
D03*
X-112066D02*
D03*
X-162866D02*
D03*
X-188266D02*
D03*
X-137466D02*
D03*
X-35866D02*
D03*
X14934D02*
D03*
X65734D02*
D03*
X167334D02*
D03*
X268934D02*
D03*
X-365000Y160528D02*
D03*
Y185928D02*
D03*
X-400050Y160528D02*
D03*
Y185928D02*
D03*
X268934Y144174D02*
D03*
X243534D02*
D03*
X167334D02*
D03*
X141934D02*
D03*
X14934D02*
D03*
X-35866D02*
D03*
X-86666D02*
D03*
X-137466D02*
D03*
X-162866D02*
D03*
X-112066Y144173D02*
D03*
X-61266Y144174D02*
D03*
X-10466D02*
D03*
X40334D02*
D03*
X116534D02*
D03*
X192734D02*
D03*
X218134D02*
D03*
X360000Y162306D02*
D03*
Y187706D02*
D03*
X395000D02*
D03*
Y162306D02*
D03*
D46*
X244348Y-71120D02*
D03*
X-187706Y196596D02*
D03*
X-85852Y-71120D02*
D03*
X91694Y196596D02*
D03*
X-60452Y-71120D02*
D03*
X66294Y196596D02*
D03*
X117348Y-71120D02*
D03*
X142748D02*
D03*
X-212852D02*
D03*
X-187452D02*
D03*
X-111252D02*
D03*
X-9652D02*
D03*
X41148D02*
D03*
X91948D02*
D03*
X193548D02*
D03*
X218948D02*
D03*
X168148Y-71119D02*
D03*
X66548Y-71120D02*
D03*
X15748D02*
D03*
X-35052D02*
D03*
X-136652D02*
D03*
X-162052D02*
D03*
X-213106Y196596D02*
D03*
X-111506D02*
D03*
X-86106D02*
D03*
X-9906D02*
D03*
X40894D02*
D03*
X142494D02*
D03*
X193294D02*
D03*
X244094D02*
D03*
X218694D02*
D03*
X167894Y196597D02*
D03*
X117094Y196596D02*
D03*
X15494D02*
D03*
X-35306D02*
D03*
X-60706D02*
D03*
X-136906D02*
D03*
X-162306D02*
D03*
D47*
X-265088Y70150D02*
D03*
Y95550D02*
D03*
X-450088D02*
D03*
Y70150D02*
D03*
Y-19050D02*
D03*
Y-44450D02*
D03*
X-265088D02*
D03*
Y-19050D02*
D03*
D48*
X-353960Y-131110D02*
D03*
D49*
X119380Y-114299D02*
D03*
X-96520Y-114300D02*
D03*
X32004Y-114299D02*
D03*
X-32258D02*
D03*
X278892Y-114300D02*
D03*
X-213666Y-40826D02*
D03*
Y144174D02*
D03*
D50*
X-353960Y-181110D02*
D03*
D51*
X269748Y-71120D02*
D03*
X269494Y196596D02*
D03*
D52*
X473000Y218000D02*
D03*
X468000Y208000D02*
D03*
X473000Y198000D02*
D03*
X468000Y188000D02*
D03*
X473000Y178000D02*
D03*
Y118000D02*
D03*
X468000Y108000D02*
D03*
X473000Y98000D02*
D03*
X468000Y88000D02*
D03*
X473000Y78000D02*
D03*
X468000Y68000D02*
D03*
X473000Y58000D02*
D03*
X468000Y48000D02*
D03*
X473000Y38000D02*
D03*
X468000Y28000D02*
D03*
X473000Y18000D02*
D03*
X468000Y8000D02*
D03*
X473000Y-2000D02*
D03*
X468000Y-12000D02*
D03*
X473000Y-22000D02*
D03*
X468000Y-32000D02*
D03*
X473000Y-42000D02*
D03*
X468000Y-52000D02*
D03*
X473000Y-62000D02*
D03*
X468000Y-72000D02*
D03*
X473000Y-82000D02*
D03*
X468000Y-92000D02*
D03*
X473000Y-102000D02*
D03*
X468000Y-112000D02*
D03*
X473000Y-122000D02*
D03*
X468000Y-132000D02*
D03*
X473000Y-142000D02*
D03*
X468000Y-152000D02*
D03*
X473000Y-162000D02*
D03*
X468000Y-172000D02*
D03*
X473000Y-182000D02*
D03*
X468000Y-192000D02*
D03*
X473000Y-202000D02*
D03*
X468000Y-212000D02*
D03*
X463000Y218000D02*
D03*
X458000Y208000D02*
D03*
X463000Y198000D02*
D03*
Y118000D02*
D03*
X458000Y108000D02*
D03*
X463000Y98000D02*
D03*
X458000Y88000D02*
D03*
X463000Y78000D02*
D03*
X458000Y68000D02*
D03*
X463000Y58000D02*
D03*
X458000Y48000D02*
D03*
X463000Y38000D02*
D03*
X458000Y28000D02*
D03*
X463000Y18000D02*
D03*
X458000Y8000D02*
D03*
X463000Y-2000D02*
D03*
X458000Y-12000D02*
D03*
X463000Y-22000D02*
D03*
X458000Y-32000D02*
D03*
X463000Y-42000D02*
D03*
X458000Y-52000D02*
D03*
X463000Y-62000D02*
D03*
X458000Y-72000D02*
D03*
X463000Y-82000D02*
D03*
X458000Y-92000D02*
D03*
X463000Y-102000D02*
D03*
X458000Y-112000D02*
D03*
X463000Y-122000D02*
D03*
X458000Y-132000D02*
D03*
X463000Y-142000D02*
D03*
X458000Y-152000D02*
D03*
X463000Y-162000D02*
D03*
X458000Y-172000D02*
D03*
X463000Y-182000D02*
D03*
Y-202000D02*
D03*
X458000Y-212000D02*
D03*
X453000Y218000D02*
D03*
Y118000D02*
D03*
X448000Y108000D02*
D03*
X453000Y98000D02*
D03*
X448000Y88000D02*
D03*
X453000Y78000D02*
D03*
X448000Y68000D02*
D03*
X453000Y58000D02*
D03*
X448000Y48000D02*
D03*
X453000Y38000D02*
D03*
X448000Y28000D02*
D03*
X453000Y18000D02*
D03*
X448000Y8000D02*
D03*
X453000Y-2000D02*
D03*
X448000Y-12000D02*
D03*
X453000Y-22000D02*
D03*
X448000Y-32000D02*
D03*
X453000Y-42000D02*
D03*
X448000Y-52000D02*
D03*
X453000Y-62000D02*
D03*
X448000Y-72000D02*
D03*
X453000Y-82000D02*
D03*
X448000Y-92000D02*
D03*
X453000Y-102000D02*
D03*
X448000Y-112000D02*
D03*
X453000Y-122000D02*
D03*
X448000Y-132000D02*
D03*
X453000Y-142000D02*
D03*
X448000Y-152000D02*
D03*
X453000Y-162000D02*
D03*
X448000Y-172000D02*
D03*
Y-212000D02*
D03*
X443000Y218000D02*
D03*
X438000Y108000D02*
D03*
X443000Y98000D02*
D03*
X438000Y88000D02*
D03*
X443000Y78000D02*
D03*
X438000Y68000D02*
D03*
X443000Y58000D02*
D03*
X438000Y48000D02*
D03*
X443000Y38000D02*
D03*
X438000Y28000D02*
D03*
X443000Y18000D02*
D03*
X438000Y8000D02*
D03*
X443000Y-2000D02*
D03*
X438000Y-12000D02*
D03*
X443000Y-22000D02*
D03*
X438000Y-32000D02*
D03*
X443000Y-42000D02*
D03*
X438000Y-52000D02*
D03*
X443000Y-62000D02*
D03*
X438000Y-72000D02*
D03*
X443000Y-82000D02*
D03*
X438000Y-92000D02*
D03*
X443000Y-102000D02*
D03*
X438000Y-112000D02*
D03*
X443000Y-122000D02*
D03*
X438000Y-132000D02*
D03*
X443000Y-142000D02*
D03*
Y-162000D02*
D03*
X438000Y-172000D02*
D03*
Y-212000D02*
D03*
X433000Y218000D02*
D03*
X428000Y208000D02*
D03*
Y188000D02*
D03*
X433000Y118000D02*
D03*
X428000Y108000D02*
D03*
X433000Y98000D02*
D03*
X428000Y-172000D02*
D03*
X433000Y-182000D02*
D03*
X428000Y-212000D02*
D03*
X423000Y218000D02*
D03*
X418000Y208000D02*
D03*
X423000Y198000D02*
D03*
X418000Y188000D02*
D03*
Y128000D02*
D03*
X423000Y118000D02*
D03*
X418000Y-172000D02*
D03*
X423000Y-182000D02*
D03*
X418000Y-192000D02*
D03*
X423000Y-202000D02*
D03*
X418000Y-212000D02*
D03*
X413000Y178000D02*
D03*
X408000Y148000D02*
D03*
Y128000D02*
D03*
Y88000D02*
D03*
Y68000D02*
D03*
Y48000D02*
D03*
Y28000D02*
D03*
Y8000D02*
D03*
Y-12000D02*
D03*
Y-32000D02*
D03*
Y-52000D02*
D03*
Y-72000D02*
D03*
Y-92000D02*
D03*
Y-112000D02*
D03*
Y-132000D02*
D03*
Y-172000D02*
D03*
X413000Y-182000D02*
D03*
X408000Y-192000D02*
D03*
X413000Y-202000D02*
D03*
X408000Y-212000D02*
D03*
X403000Y138000D02*
D03*
X398000Y88000D02*
D03*
X403000Y78000D02*
D03*
X398000Y68000D02*
D03*
X403000Y58000D02*
D03*
X398000Y48000D02*
D03*
X403000Y38000D02*
D03*
X398000Y28000D02*
D03*
X403000Y18000D02*
D03*
X398000Y8000D02*
D03*
X403000Y-2000D02*
D03*
X398000Y-12000D02*
D03*
X403000Y-22000D02*
D03*
X398000Y-32000D02*
D03*
X403000Y-42000D02*
D03*
X398000Y-52000D02*
D03*
X403000Y-62000D02*
D03*
X398000Y-72000D02*
D03*
X403000Y-82000D02*
D03*
X398000Y-92000D02*
D03*
X403000Y-102000D02*
D03*
X398000Y-112000D02*
D03*
X403000Y-122000D02*
D03*
X398000Y-132000D02*
D03*
Y-172000D02*
D03*
X403000Y-182000D02*
D03*
X398000Y-192000D02*
D03*
X403000Y-202000D02*
D03*
X398000Y-212000D02*
D03*
X393000Y138000D02*
D03*
Y98000D02*
D03*
X388000Y88000D02*
D03*
X393000Y78000D02*
D03*
X388000Y68000D02*
D03*
X393000Y58000D02*
D03*
X388000Y48000D02*
D03*
X393000Y38000D02*
D03*
X388000Y28000D02*
D03*
X393000Y18000D02*
D03*
X388000Y8000D02*
D03*
X393000Y-2000D02*
D03*
X388000Y-12000D02*
D03*
X393000Y-22000D02*
D03*
X388000Y-32000D02*
D03*
X393000Y-42000D02*
D03*
X388000Y-52000D02*
D03*
X393000Y-62000D02*
D03*
X388000Y-72000D02*
D03*
X393000Y-82000D02*
D03*
X388000Y-92000D02*
D03*
X393000Y-102000D02*
D03*
X388000Y-172000D02*
D03*
X393000Y-182000D02*
D03*
X388000Y-192000D02*
D03*
X393000Y-202000D02*
D03*
X388000Y-212000D02*
D03*
X378000Y168000D02*
D03*
X383000Y98000D02*
D03*
X378000Y88000D02*
D03*
X383000Y78000D02*
D03*
X378000Y68000D02*
D03*
X383000Y58000D02*
D03*
X378000Y48000D02*
D03*
X383000Y38000D02*
D03*
X378000Y28000D02*
D03*
X383000Y18000D02*
D03*
X378000Y8000D02*
D03*
X383000Y-2000D02*
D03*
X378000Y-12000D02*
D03*
X383000Y-22000D02*
D03*
X378000Y-32000D02*
D03*
X383000Y-42000D02*
D03*
X378000Y-52000D02*
D03*
X383000Y-62000D02*
D03*
X378000Y-72000D02*
D03*
X383000Y-82000D02*
D03*
X378000Y-92000D02*
D03*
Y-172000D02*
D03*
X383000Y-182000D02*
D03*
X378000Y-192000D02*
D03*
X383000Y-202000D02*
D03*
X378000Y-212000D02*
D03*
X373000Y98000D02*
D03*
X368000Y88000D02*
D03*
X373000Y78000D02*
D03*
X368000Y68000D02*
D03*
X373000Y58000D02*
D03*
X368000Y48000D02*
D03*
X373000Y38000D02*
D03*
X368000Y28000D02*
D03*
X373000Y18000D02*
D03*
X368000Y8000D02*
D03*
X373000Y-2000D02*
D03*
X368000Y-12000D02*
D03*
X373000Y-22000D02*
D03*
X368000Y-32000D02*
D03*
X373000Y-42000D02*
D03*
X368000Y-52000D02*
D03*
X373000Y-62000D02*
D03*
X368000Y-72000D02*
D03*
X373000Y-82000D02*
D03*
X368000Y-132000D02*
D03*
Y-172000D02*
D03*
X373000Y-182000D02*
D03*
X368000Y-192000D02*
D03*
X373000Y-202000D02*
D03*
X368000Y-212000D02*
D03*
X363000Y78000D02*
D03*
X358000Y68000D02*
D03*
X363000Y58000D02*
D03*
X358000Y48000D02*
D03*
X363000Y38000D02*
D03*
X358000Y28000D02*
D03*
X363000Y18000D02*
D03*
X358000Y8000D02*
D03*
X363000Y-2000D02*
D03*
X358000Y-12000D02*
D03*
X363000Y-22000D02*
D03*
X358000Y-32000D02*
D03*
X363000Y-42000D02*
D03*
X358000Y-52000D02*
D03*
X363000Y-62000D02*
D03*
X358000Y-72000D02*
D03*
Y-112000D02*
D03*
X363000Y-122000D02*
D03*
X358000Y-132000D02*
D03*
Y-172000D02*
D03*
X363000Y-182000D02*
D03*
X358000Y-192000D02*
D03*
X363000Y-202000D02*
D03*
X358000Y-212000D02*
D03*
X348000Y148000D02*
D03*
X353000Y78000D02*
D03*
X348000Y68000D02*
D03*
X353000Y58000D02*
D03*
X348000Y48000D02*
D03*
X353000Y38000D02*
D03*
X348000Y28000D02*
D03*
X353000Y18000D02*
D03*
X348000Y8000D02*
D03*
X353000Y-2000D02*
D03*
X348000Y-12000D02*
D03*
X353000Y-22000D02*
D03*
X348000Y-32000D02*
D03*
X353000Y-42000D02*
D03*
X348000Y-52000D02*
D03*
X353000Y-62000D02*
D03*
X348000Y-72000D02*
D03*
Y-112000D02*
D03*
X353000Y-122000D02*
D03*
X348000Y-172000D02*
D03*
X353000Y-182000D02*
D03*
X348000Y-192000D02*
D03*
X353000Y-202000D02*
D03*
X348000Y-212000D02*
D03*
X338000Y208000D02*
D03*
Y148000D02*
D03*
X343000Y78000D02*
D03*
X338000Y68000D02*
D03*
X343000Y58000D02*
D03*
X338000Y48000D02*
D03*
X343000Y38000D02*
D03*
X338000Y28000D02*
D03*
X343000Y18000D02*
D03*
X338000Y8000D02*
D03*
X343000Y-2000D02*
D03*
X338000Y-12000D02*
D03*
X343000Y-22000D02*
D03*
X338000Y-32000D02*
D03*
X343000Y-42000D02*
D03*
X338000Y-52000D02*
D03*
X343000Y-62000D02*
D03*
X338000Y-72000D02*
D03*
Y-112000D02*
D03*
X343000Y-122000D02*
D03*
X338000Y-132000D02*
D03*
Y-172000D02*
D03*
X343000Y-182000D02*
D03*
X338000Y-192000D02*
D03*
X343000Y-202000D02*
D03*
X338000Y-212000D02*
D03*
X333000Y218000D02*
D03*
X328000Y208000D02*
D03*
Y148000D02*
D03*
X333000Y-22000D02*
D03*
X328000Y-112000D02*
D03*
X333000Y-122000D02*
D03*
X328000Y-132000D02*
D03*
Y-172000D02*
D03*
X333000Y-182000D02*
D03*
X328000Y-192000D02*
D03*
X333000Y-202000D02*
D03*
X328000Y-212000D02*
D03*
X323000Y218000D02*
D03*
Y178000D02*
D03*
X318000Y148000D02*
D03*
Y-112000D02*
D03*
X323000Y-122000D02*
D03*
X318000Y-132000D02*
D03*
X323000Y-142000D02*
D03*
X318000Y-152000D02*
D03*
X323000Y-162000D02*
D03*
X318000Y-172000D02*
D03*
X323000Y-182000D02*
D03*
X318000Y-192000D02*
D03*
X323000Y-202000D02*
D03*
X318000Y-212000D02*
D03*
X308000Y188000D02*
D03*
X313000Y178000D02*
D03*
X308000Y28000D02*
D03*
Y-52000D02*
D03*
Y-72000D02*
D03*
Y-112000D02*
D03*
X313000Y-122000D02*
D03*
X308000Y-132000D02*
D03*
X313000Y-142000D02*
D03*
X308000Y-152000D02*
D03*
X313000Y-162000D02*
D03*
X308000Y-172000D02*
D03*
X313000Y-182000D02*
D03*
X308000Y-192000D02*
D03*
X313000Y-202000D02*
D03*
X308000Y-212000D02*
D03*
X298000Y188000D02*
D03*
X303000Y178000D02*
D03*
X298000Y168000D02*
D03*
Y88000D02*
D03*
X303000Y78000D02*
D03*
X298000Y28000D02*
D03*
X303000Y18000D02*
D03*
X298000Y-112000D02*
D03*
X303000Y-122000D02*
D03*
X298000Y-132000D02*
D03*
X303000Y-142000D02*
D03*
X298000Y-152000D02*
D03*
X303000Y-162000D02*
D03*
X298000Y-172000D02*
D03*
X303000Y-182000D02*
D03*
Y-202000D02*
D03*
X298000Y-212000D02*
D03*
X293000Y198000D02*
D03*
X288000Y188000D02*
D03*
X293000Y178000D02*
D03*
X288000Y168000D02*
D03*
X293000Y158000D02*
D03*
Y98000D02*
D03*
X288000Y88000D02*
D03*
X293000Y78000D02*
D03*
X288000Y28000D02*
D03*
X293000Y18000D02*
D03*
X288000Y-92000D02*
D03*
Y-212000D02*
D03*
X283000Y178000D02*
D03*
Y158000D02*
D03*
Y78000D02*
D03*
X278000Y28000D02*
D03*
X283000Y18000D02*
D03*
X278000Y-92000D02*
D03*
Y-212000D02*
D03*
X273000Y78000D02*
D03*
X268000Y28000D02*
D03*
X273000Y18000D02*
D03*
Y-22000D02*
D03*
X268000Y-92000D02*
D03*
Y-212000D02*
D03*
X258000Y28000D02*
D03*
X263000Y18000D02*
D03*
Y-22000D02*
D03*
X258000Y-92000D02*
D03*
Y-192000D02*
D03*
Y-212000D02*
D03*
X248000Y28000D02*
D03*
X253000Y18000D02*
D03*
Y-22000D02*
D03*
X248000Y-92000D02*
D03*
X253000Y-102000D02*
D03*
Y-182000D02*
D03*
X248000Y-192000D02*
D03*
X253000Y-202000D02*
D03*
X248000Y-212000D02*
D03*
X238000Y28000D02*
D03*
X243000Y18000D02*
D03*
X238000Y-92000D02*
D03*
X243000Y-102000D02*
D03*
X238000Y-172000D02*
D03*
X243000Y-182000D02*
D03*
X238000Y-192000D02*
D03*
X243000Y-202000D02*
D03*
X238000Y-212000D02*
D03*
X228000Y28000D02*
D03*
X233000Y18000D02*
D03*
Y-22000D02*
D03*
X228000Y-92000D02*
D03*
X233000Y-102000D02*
D03*
X228000Y-172000D02*
D03*
X233000Y-182000D02*
D03*
X228000Y-192000D02*
D03*
X233000Y-202000D02*
D03*
X228000Y-212000D02*
D03*
X223000Y18000D02*
D03*
Y-22000D02*
D03*
X218000Y-92000D02*
D03*
X223000Y-102000D02*
D03*
X218000Y-152000D02*
D03*
X208000Y68000D02*
D03*
X213000Y-22000D02*
D03*
X208000Y-92000D02*
D03*
Y-152000D02*
D03*
X198000Y68000D02*
D03*
X203000Y58000D02*
D03*
Y-22000D02*
D03*
X198000Y-92000D02*
D03*
Y-152000D02*
D03*
X193000Y58000D02*
D03*
X188000Y48000D02*
D03*
X193000Y-22000D02*
D03*
X188000Y-92000D02*
D03*
Y-152000D02*
D03*
X183000Y58000D02*
D03*
X178000Y48000D02*
D03*
X183000Y38000D02*
D03*
Y-22000D02*
D03*
Y-82000D02*
D03*
X178000Y-92000D02*
D03*
Y-152000D02*
D03*
X173000Y38000D02*
D03*
X168000Y28000D02*
D03*
Y-92000D02*
D03*
Y-152000D02*
D03*
X163000Y78000D02*
D03*
X158000Y68000D02*
D03*
X163000Y38000D02*
D03*
X158000Y28000D02*
D03*
X163000Y18000D02*
D03*
X158000Y-92000D02*
D03*
X163000Y-102000D02*
D03*
X153000Y98000D02*
D03*
Y18000D02*
D03*
X148000Y-92000D02*
D03*
X153000Y-102000D02*
D03*
Y-162000D02*
D03*
X148000Y-172000D02*
D03*
X153000Y-182000D02*
D03*
X148000Y-192000D02*
D03*
X153000Y-202000D02*
D03*
X148000Y-212000D02*
D03*
X143000Y98000D02*
D03*
X138000Y88000D02*
D03*
X143000Y58000D02*
D03*
X138000Y48000D02*
D03*
X143000Y18000D02*
D03*
X138000Y-92000D02*
D03*
X143000Y-102000D02*
D03*
Y-182000D02*
D03*
Y-202000D02*
D03*
X138000Y-212000D02*
D03*
X133000Y98000D02*
D03*
X128000Y88000D02*
D03*
X133000Y78000D02*
D03*
X128000Y-92000D02*
D03*
Y-212000D02*
D03*
X123000Y98000D02*
D03*
X118000Y88000D02*
D03*
X123000Y78000D02*
D03*
X118000Y68000D02*
D03*
X123000Y38000D02*
D03*
Y-22000D02*
D03*
X118000Y-92000D02*
D03*
Y-212000D02*
D03*
X113000Y98000D02*
D03*
X108000Y88000D02*
D03*
X113000Y78000D02*
D03*
X108000Y68000D02*
D03*
X113000Y38000D02*
D03*
Y-22000D02*
D03*
X108000Y-212000D02*
D03*
X103000Y98000D02*
D03*
X98000Y88000D02*
D03*
X103000Y78000D02*
D03*
X98000Y68000D02*
D03*
X103000Y38000D02*
D03*
Y-22000D02*
D03*
Y-82000D02*
D03*
X98000Y-192000D02*
D03*
X103000Y-202000D02*
D03*
X98000Y-212000D02*
D03*
X93000Y98000D02*
D03*
Y78000D02*
D03*
X88000Y68000D02*
D03*
X93000Y38000D02*
D03*
Y-22000D02*
D03*
Y-182000D02*
D03*
X88000Y-192000D02*
D03*
X93000Y-202000D02*
D03*
X88000Y-212000D02*
D03*
X78000Y68000D02*
D03*
X83000Y38000D02*
D03*
Y-22000D02*
D03*
Y-182000D02*
D03*
X68000Y68000D02*
D03*
X73000Y38000D02*
D03*
Y-22000D02*
D03*
X58000Y68000D02*
D03*
X63000Y38000D02*
D03*
Y-22000D02*
D03*
Y-182000D02*
D03*
X58000Y-212000D02*
D03*
X48000Y88000D02*
D03*
X53000Y78000D02*
D03*
X48000Y68000D02*
D03*
X53000Y38000D02*
D03*
Y-22000D02*
D03*
Y-182000D02*
D03*
Y-202000D02*
D03*
X48000Y-212000D02*
D03*
X43000Y78000D02*
D03*
X38000Y68000D02*
D03*
X43000Y38000D02*
D03*
Y-22000D02*
D03*
X38000Y-212000D02*
D03*
X28000Y68000D02*
D03*
X33000Y38000D02*
D03*
Y-22000D02*
D03*
X28000Y-212000D02*
D03*
X23000Y38000D02*
D03*
Y-22000D02*
D03*
X18000Y-212000D02*
D03*
X13000Y38000D02*
D03*
Y-22000D02*
D03*
X8000Y-132000D02*
D03*
X13000Y-142000D02*
D03*
Y-182000D02*
D03*
X8000Y-192000D02*
D03*
X13000Y-202000D02*
D03*
X8000Y-212000D02*
D03*
X3000Y98000D02*
D03*
Y38000D02*
D03*
Y-22000D02*
D03*
X-2000Y-132000D02*
D03*
X3000Y-142000D02*
D03*
Y-182000D02*
D03*
X-2000Y-192000D02*
D03*
X3000Y-202000D02*
D03*
X-2000Y-212000D02*
D03*
X-7000Y98000D02*
D03*
X-12000Y88000D02*
D03*
Y8000D02*
D03*
X-7000Y-122000D02*
D03*
X-12000Y-132000D02*
D03*
X-7000Y-142000D02*
D03*
Y-182000D02*
D03*
X-12000Y-192000D02*
D03*
X-7000Y-202000D02*
D03*
X-12000Y-212000D02*
D03*
X-17000Y98000D02*
D03*
X-22000Y88000D02*
D03*
X-17000Y78000D02*
D03*
X-22000Y8000D02*
D03*
X-17000Y-2000D02*
D03*
X-22000Y-212000D02*
D03*
X-27000Y98000D02*
D03*
X-32000Y88000D02*
D03*
X-27000Y78000D02*
D03*
X-32000Y8000D02*
D03*
X-27000Y-2000D02*
D03*
X-32000Y-12000D02*
D03*
Y-212000D02*
D03*
X-37000Y98000D02*
D03*
X-42000Y88000D02*
D03*
X-37000Y78000D02*
D03*
X-42000Y8000D02*
D03*
X-37000Y-2000D02*
D03*
X-42000Y-12000D02*
D03*
X-37000Y-22000D02*
D03*
X-42000Y-212000D02*
D03*
X-47000Y98000D02*
D03*
X-52000Y88000D02*
D03*
X-47000Y78000D02*
D03*
Y-2000D02*
D03*
X-52000Y-12000D02*
D03*
X-47000Y-22000D02*
D03*
X-52000Y-212000D02*
D03*
X-57000Y98000D02*
D03*
X-62000Y88000D02*
D03*
X-57000Y78000D02*
D03*
Y-2000D02*
D03*
X-62000Y-12000D02*
D03*
X-57000Y-22000D02*
D03*
Y-182000D02*
D03*
X-62000Y-192000D02*
D03*
X-57000Y-202000D02*
D03*
X-62000Y-212000D02*
D03*
X-67000Y98000D02*
D03*
X-72000Y88000D02*
D03*
X-67000Y78000D02*
D03*
Y-22000D02*
D03*
Y-182000D02*
D03*
X-72000Y-192000D02*
D03*
X-67000Y-202000D02*
D03*
X-72000Y-212000D02*
D03*
X-77000Y98000D02*
D03*
X-82000Y88000D02*
D03*
X-77000Y78000D02*
D03*
Y-22000D02*
D03*
X-82000Y-92000D02*
D03*
X-77000Y-102000D02*
D03*
Y-182000D02*
D03*
Y-202000D02*
D03*
X-82000Y-212000D02*
D03*
X-87000Y98000D02*
D03*
Y78000D02*
D03*
X-92000Y28000D02*
D03*
Y-92000D02*
D03*
Y-212000D02*
D03*
X-102000Y28000D02*
D03*
X-97000Y18000D02*
D03*
Y-82000D02*
D03*
X-102000Y-92000D02*
D03*
Y-212000D02*
D03*
X-112000Y28000D02*
D03*
X-107000Y18000D02*
D03*
X-112000Y8000D02*
D03*
Y-92000D02*
D03*
Y-212000D02*
D03*
X-122000Y28000D02*
D03*
X-117000Y18000D02*
D03*
X-122000Y8000D02*
D03*
X-117000Y-2000D02*
D03*
X-122000Y-92000D02*
D03*
X-117000Y-102000D02*
D03*
Y-182000D02*
D03*
X-122000Y-192000D02*
D03*
X-117000Y-202000D02*
D03*
X-122000Y-212000D02*
D03*
X-127000Y98000D02*
D03*
X-132000Y88000D02*
D03*
X-127000Y78000D02*
D03*
X-132000Y28000D02*
D03*
X-127000Y18000D02*
D03*
X-132000Y8000D02*
D03*
X-127000Y-2000D02*
D03*
X-132000Y-12000D02*
D03*
Y-92000D02*
D03*
X-127000Y-102000D02*
D03*
X-132000Y-172000D02*
D03*
X-127000Y-182000D02*
D03*
X-132000Y-192000D02*
D03*
X-127000Y-202000D02*
D03*
X-132000Y-212000D02*
D03*
X-137000Y98000D02*
D03*
X-142000Y88000D02*
D03*
X-137000Y78000D02*
D03*
X-142000Y28000D02*
D03*
X-137000Y18000D02*
D03*
X-142000Y8000D02*
D03*
X-137000Y-2000D02*
D03*
X-142000Y-12000D02*
D03*
X-137000Y-22000D02*
D03*
X-142000Y-92000D02*
D03*
X-137000Y-102000D02*
D03*
X-142000Y-172000D02*
D03*
X-137000Y-182000D02*
D03*
X-142000Y-192000D02*
D03*
X-137000Y-202000D02*
D03*
X-142000Y-212000D02*
D03*
X-147000Y98000D02*
D03*
X-152000Y88000D02*
D03*
X-147000Y78000D02*
D03*
X-152000Y28000D02*
D03*
X-147000Y18000D02*
D03*
X-152000Y8000D02*
D03*
X-147000Y-2000D02*
D03*
X-152000Y-12000D02*
D03*
X-147000Y-22000D02*
D03*
X-152000Y-92000D02*
D03*
X-147000Y-102000D02*
D03*
X-152000Y-152000D02*
D03*
X-147000Y-162000D02*
D03*
X-152000Y-172000D02*
D03*
X-147000Y-182000D02*
D03*
X-152000Y-192000D02*
D03*
X-147000Y-202000D02*
D03*
X-152000Y-212000D02*
D03*
X-157000Y98000D02*
D03*
X-162000Y88000D02*
D03*
X-157000Y78000D02*
D03*
X-162000Y28000D02*
D03*
X-157000Y18000D02*
D03*
X-162000Y8000D02*
D03*
X-157000Y-2000D02*
D03*
X-162000Y-92000D02*
D03*
X-157000Y-102000D02*
D03*
X-162000Y-152000D02*
D03*
X-172000Y168000D02*
D03*
X-167000Y98000D02*
D03*
X-172000Y88000D02*
D03*
X-167000Y78000D02*
D03*
X-172000Y28000D02*
D03*
X-167000Y18000D02*
D03*
X-172000Y-92000D02*
D03*
X-167000Y-102000D02*
D03*
X-172000Y-152000D02*
D03*
X-177000Y178000D02*
D03*
X-182000Y168000D02*
D03*
X-177000Y98000D02*
D03*
X-182000Y88000D02*
D03*
X-177000Y78000D02*
D03*
Y18000D02*
D03*
X-182000Y-92000D02*
D03*
X-177000Y-102000D02*
D03*
X-182000Y-152000D02*
D03*
X-192000Y168000D02*
D03*
X-187000Y98000D02*
D03*
X-192000Y88000D02*
D03*
X-187000Y78000D02*
D03*
X-192000Y68000D02*
D03*
Y-92000D02*
D03*
X-187000Y-102000D02*
D03*
X-192000Y-152000D02*
D03*
X-197000Y178000D02*
D03*
Y98000D02*
D03*
X-202000Y88000D02*
D03*
X-197000Y78000D02*
D03*
X-202000Y68000D02*
D03*
X-197000Y58000D02*
D03*
X-202000Y-92000D02*
D03*
X-197000Y-102000D02*
D03*
X-202000Y-152000D02*
D03*
X-207000Y98000D02*
D03*
X-212000Y88000D02*
D03*
X-207000Y78000D02*
D03*
X-212000Y68000D02*
D03*
X-207000Y58000D02*
D03*
X-212000Y48000D02*
D03*
X-207000Y-22000D02*
D03*
X-212000Y-152000D02*
D03*
X-222000Y108000D02*
D03*
X-217000Y98000D02*
D03*
X-222000Y88000D02*
D03*
X-217000Y78000D02*
D03*
X-222000Y68000D02*
D03*
X-217000Y58000D02*
D03*
X-222000Y48000D02*
D03*
X-217000Y38000D02*
D03*
Y-22000D02*
D03*
Y-142000D02*
D03*
X-222000Y-152000D02*
D03*
X-232000Y188000D02*
D03*
X-227000Y178000D02*
D03*
X-232000Y168000D02*
D03*
Y148000D02*
D03*
Y128000D02*
D03*
X-227000Y118000D02*
D03*
X-232000Y108000D02*
D03*
X-227000Y98000D02*
D03*
X-232000Y88000D02*
D03*
X-227000Y78000D02*
D03*
X-232000Y68000D02*
D03*
X-227000Y58000D02*
D03*
X-232000Y48000D02*
D03*
X-227000Y38000D02*
D03*
X-232000Y28000D02*
D03*
X-227000Y-142000D02*
D03*
X-232000Y-152000D02*
D03*
X-227000Y-162000D02*
D03*
X-232000Y-172000D02*
D03*
X-227000Y-182000D02*
D03*
X-232000Y-192000D02*
D03*
X-227000Y-202000D02*
D03*
X-232000Y-212000D02*
D03*
X-242000Y188000D02*
D03*
X-237000Y178000D02*
D03*
X-242000Y168000D02*
D03*
X-237000Y158000D02*
D03*
X-242000Y148000D02*
D03*
X-237000Y138000D02*
D03*
X-242000Y128000D02*
D03*
X-237000Y118000D02*
D03*
X-242000Y108000D02*
D03*
X-237000Y98000D02*
D03*
X-242000Y88000D02*
D03*
X-237000Y78000D02*
D03*
X-242000Y68000D02*
D03*
X-237000Y58000D02*
D03*
X-242000Y48000D02*
D03*
X-237000Y38000D02*
D03*
X-242000Y28000D02*
D03*
X-237000Y-142000D02*
D03*
X-242000Y-152000D02*
D03*
X-237000Y-162000D02*
D03*
X-242000Y-172000D02*
D03*
X-237000Y-182000D02*
D03*
X-242000Y-192000D02*
D03*
X-237000Y-202000D02*
D03*
X-242000Y-212000D02*
D03*
X-247000Y178000D02*
D03*
X-252000Y168000D02*
D03*
X-247000Y158000D02*
D03*
X-252000Y148000D02*
D03*
X-247000Y138000D02*
D03*
X-252000Y128000D02*
D03*
X-247000Y118000D02*
D03*
Y78000D02*
D03*
Y58000D02*
D03*
X-252000Y48000D02*
D03*
X-247000Y38000D02*
D03*
X-252000Y28000D02*
D03*
X-247000Y-142000D02*
D03*
X-252000Y-152000D02*
D03*
X-247000Y-162000D02*
D03*
Y-182000D02*
D03*
Y-202000D02*
D03*
X-252000Y-212000D02*
D03*
X-257000Y218000D02*
D03*
X-262000Y208000D02*
D03*
Y168000D02*
D03*
X-257000Y158000D02*
D03*
X-262000Y148000D02*
D03*
X-257000Y138000D02*
D03*
X-262000Y128000D02*
D03*
X-257000Y118000D02*
D03*
X-262000Y48000D02*
D03*
X-257000Y38000D02*
D03*
X-262000Y28000D02*
D03*
X-257000Y-62000D02*
D03*
X-262000Y-72000D02*
D03*
X-257000Y-82000D02*
D03*
Y-142000D02*
D03*
Y-202000D02*
D03*
X-262000Y-212000D02*
D03*
X-267000Y218000D02*
D03*
X-272000Y208000D02*
D03*
Y168000D02*
D03*
X-267000Y158000D02*
D03*
X-272000Y148000D02*
D03*
X-267000Y138000D02*
D03*
X-272000Y128000D02*
D03*
X-267000Y118000D02*
D03*
X-272000Y48000D02*
D03*
X-267000Y38000D02*
D03*
X-272000Y28000D02*
D03*
Y-72000D02*
D03*
X-267000Y-142000D02*
D03*
Y-202000D02*
D03*
X-272000Y-212000D02*
D03*
X-277000Y218000D02*
D03*
X-282000Y208000D02*
D03*
Y168000D02*
D03*
X-277000Y158000D02*
D03*
X-282000Y148000D02*
D03*
X-277000Y138000D02*
D03*
X-282000Y128000D02*
D03*
X-277000Y118000D02*
D03*
X-282000Y108000D02*
D03*
Y88000D02*
D03*
Y48000D02*
D03*
X-277000Y38000D02*
D03*
X-282000Y28000D02*
D03*
Y-32000D02*
D03*
X-277000Y-142000D02*
D03*
Y-202000D02*
D03*
X-282000Y-212000D02*
D03*
X-287000Y218000D02*
D03*
X-292000Y208000D02*
D03*
Y168000D02*
D03*
X-287000Y158000D02*
D03*
X-292000Y148000D02*
D03*
X-287000Y138000D02*
D03*
X-292000Y128000D02*
D03*
X-287000Y118000D02*
D03*
X-292000Y108000D02*
D03*
X-287000Y98000D02*
D03*
X-292000Y88000D02*
D03*
X-287000Y78000D02*
D03*
X-292000Y68000D02*
D03*
X-287000Y58000D02*
D03*
X-292000Y48000D02*
D03*
X-287000Y38000D02*
D03*
X-292000Y28000D02*
D03*
X-287000Y-22000D02*
D03*
X-292000Y-32000D02*
D03*
X-287000Y-42000D02*
D03*
X-292000Y-52000D02*
D03*
X-287000Y-142000D02*
D03*
Y-202000D02*
D03*
X-292000Y-212000D02*
D03*
X-297000Y218000D02*
D03*
X-302000Y208000D02*
D03*
Y168000D02*
D03*
X-297000Y158000D02*
D03*
X-302000Y148000D02*
D03*
X-297000Y138000D02*
D03*
X-302000Y128000D02*
D03*
X-297000Y118000D02*
D03*
X-302000Y108000D02*
D03*
X-297000Y98000D02*
D03*
X-302000Y88000D02*
D03*
X-297000Y78000D02*
D03*
X-302000Y68000D02*
D03*
X-297000Y58000D02*
D03*
X-302000Y48000D02*
D03*
X-297000Y38000D02*
D03*
Y-22000D02*
D03*
X-302000Y-32000D02*
D03*
X-297000Y-42000D02*
D03*
X-302000Y-52000D02*
D03*
X-297000Y-202000D02*
D03*
X-302000Y-212000D02*
D03*
X-307000Y218000D02*
D03*
X-312000Y208000D02*
D03*
X-307000Y-22000D02*
D03*
X-312000Y-32000D02*
D03*
X-307000Y-42000D02*
D03*
X-312000Y-52000D02*
D03*
X-307000Y-62000D02*
D03*
X-312000Y-72000D02*
D03*
X-307000Y-82000D02*
D03*
X-312000Y-92000D02*
D03*
Y-112000D02*
D03*
X-307000Y-202000D02*
D03*
X-312000Y-212000D02*
D03*
X-317000Y218000D02*
D03*
X-322000Y208000D02*
D03*
X-317000Y-22000D02*
D03*
X-322000Y-32000D02*
D03*
X-317000Y-42000D02*
D03*
X-322000Y-52000D02*
D03*
X-317000Y-62000D02*
D03*
X-322000Y-72000D02*
D03*
X-317000Y-82000D02*
D03*
X-322000Y-92000D02*
D03*
X-317000Y-102000D02*
D03*
X-322000Y-112000D02*
D03*
X-317000Y-122000D02*
D03*
Y-202000D02*
D03*
X-322000Y-212000D02*
D03*
X-327000Y218000D02*
D03*
X-332000Y208000D02*
D03*
Y168000D02*
D03*
X-327000Y158000D02*
D03*
X-332000Y148000D02*
D03*
X-327000Y138000D02*
D03*
X-332000Y128000D02*
D03*
X-327000Y118000D02*
D03*
X-332000Y108000D02*
D03*
X-327000Y98000D02*
D03*
X-332000Y88000D02*
D03*
X-327000Y78000D02*
D03*
X-332000Y68000D02*
D03*
X-327000Y58000D02*
D03*
X-332000Y-12000D02*
D03*
X-327000Y-22000D02*
D03*
X-332000Y-32000D02*
D03*
X-327000Y-42000D02*
D03*
X-332000Y-52000D02*
D03*
X-327000Y-62000D02*
D03*
X-332000Y-72000D02*
D03*
X-327000Y-82000D02*
D03*
X-332000Y-92000D02*
D03*
X-327000Y-102000D02*
D03*
X-332000Y-112000D02*
D03*
X-327000Y-122000D02*
D03*
X-332000Y-132000D02*
D03*
X-327000Y-202000D02*
D03*
X-332000Y-212000D02*
D03*
X-337000Y218000D02*
D03*
X-342000Y208000D02*
D03*
Y168000D02*
D03*
X-337000Y158000D02*
D03*
X-342000Y148000D02*
D03*
X-337000Y138000D02*
D03*
X-342000Y128000D02*
D03*
X-337000Y118000D02*
D03*
X-342000Y108000D02*
D03*
X-337000Y98000D02*
D03*
X-342000Y88000D02*
D03*
X-337000Y78000D02*
D03*
X-342000Y68000D02*
D03*
X-337000Y-2000D02*
D03*
X-342000Y-12000D02*
D03*
X-337000Y-22000D02*
D03*
X-342000Y-32000D02*
D03*
X-337000Y-42000D02*
D03*
X-342000Y-52000D02*
D03*
X-337000Y-62000D02*
D03*
X-342000Y-72000D02*
D03*
X-337000Y-82000D02*
D03*
X-342000Y-92000D02*
D03*
X-337000Y-102000D02*
D03*
X-342000Y-112000D02*
D03*
X-337000Y-202000D02*
D03*
X-342000Y-212000D02*
D03*
X-347000Y158000D02*
D03*
X-352000Y148000D02*
D03*
X-347000Y138000D02*
D03*
X-352000Y128000D02*
D03*
X-347000Y118000D02*
D03*
X-352000Y108000D02*
D03*
X-347000Y98000D02*
D03*
X-352000Y88000D02*
D03*
X-347000Y78000D02*
D03*
X-352000Y8000D02*
D03*
X-347000Y-2000D02*
D03*
X-352000Y-12000D02*
D03*
X-347000Y-22000D02*
D03*
X-352000Y-32000D02*
D03*
X-347000Y-42000D02*
D03*
X-352000Y-52000D02*
D03*
X-347000Y-62000D02*
D03*
X-352000Y-72000D02*
D03*
X-347000Y-82000D02*
D03*
X-352000Y-92000D02*
D03*
X-347000Y-102000D02*
D03*
Y-202000D02*
D03*
X-352000Y-212000D02*
D03*
X-357000Y18000D02*
D03*
X-362000Y8000D02*
D03*
X-357000Y-2000D02*
D03*
X-362000Y-12000D02*
D03*
X-357000Y-22000D02*
D03*
X-362000Y-32000D02*
D03*
X-357000Y-42000D02*
D03*
X-362000Y-52000D02*
D03*
X-357000Y-62000D02*
D03*
X-362000Y-72000D02*
D03*
X-357000Y-82000D02*
D03*
X-362000Y-92000D02*
D03*
X-357000Y-102000D02*
D03*
X-362000Y-152000D02*
D03*
X-357000Y-202000D02*
D03*
X-362000Y-212000D02*
D03*
X-372000Y28000D02*
D03*
X-367000Y18000D02*
D03*
X-372000Y8000D02*
D03*
X-367000Y-2000D02*
D03*
X-372000Y-12000D02*
D03*
X-367000Y-22000D02*
D03*
X-372000Y-32000D02*
D03*
X-367000Y-42000D02*
D03*
X-372000Y-52000D02*
D03*
X-367000Y-62000D02*
D03*
X-372000Y-72000D02*
D03*
X-367000Y-82000D02*
D03*
X-372000Y-92000D02*
D03*
X-367000Y-102000D02*
D03*
X-372000Y-112000D02*
D03*
Y-192000D02*
D03*
X-367000Y-202000D02*
D03*
X-372000Y-212000D02*
D03*
X-377000Y38000D02*
D03*
X-382000Y28000D02*
D03*
X-377000Y18000D02*
D03*
X-382000Y8000D02*
D03*
X-377000Y-2000D02*
D03*
X-382000Y-12000D02*
D03*
X-377000Y-22000D02*
D03*
X-382000Y-32000D02*
D03*
X-377000Y-42000D02*
D03*
X-382000Y-52000D02*
D03*
X-377000Y-62000D02*
D03*
X-382000Y-72000D02*
D03*
X-377000Y-82000D02*
D03*
X-382000Y-92000D02*
D03*
X-377000Y-102000D02*
D03*
X-382000Y-112000D02*
D03*
X-377000Y-122000D02*
D03*
X-382000Y-132000D02*
D03*
X-377000Y-182000D02*
D03*
X-382000Y-192000D02*
D03*
X-377000Y-202000D02*
D03*
X-382000Y-212000D02*
D03*
X-392000Y48000D02*
D03*
X-387000Y38000D02*
D03*
X-392000Y28000D02*
D03*
X-387000Y18000D02*
D03*
X-392000Y8000D02*
D03*
X-387000Y-2000D02*
D03*
X-392000Y-12000D02*
D03*
X-387000Y-22000D02*
D03*
X-392000Y-32000D02*
D03*
X-387000Y-42000D02*
D03*
X-392000Y-52000D02*
D03*
X-387000Y-62000D02*
D03*
X-392000Y-72000D02*
D03*
X-387000Y-82000D02*
D03*
X-392000Y-92000D02*
D03*
X-387000Y-102000D02*
D03*
X-392000Y-112000D02*
D03*
X-387000Y-122000D02*
D03*
X-392000Y-172000D02*
D03*
X-387000Y-182000D02*
D03*
X-392000Y-192000D02*
D03*
X-387000Y-202000D02*
D03*
X-392000Y-212000D02*
D03*
X-397000Y58000D02*
D03*
X-402000Y48000D02*
D03*
X-397000Y38000D02*
D03*
X-402000Y28000D02*
D03*
X-397000Y18000D02*
D03*
X-402000Y8000D02*
D03*
X-397000Y-2000D02*
D03*
X-402000Y-12000D02*
D03*
X-397000Y-22000D02*
D03*
X-402000Y-32000D02*
D03*
X-397000Y-42000D02*
D03*
X-402000Y-52000D02*
D03*
X-397000Y-62000D02*
D03*
X-402000Y-72000D02*
D03*
X-397000Y-82000D02*
D03*
X-402000Y-92000D02*
D03*
X-397000Y-102000D02*
D03*
X-402000Y-112000D02*
D03*
X-397000Y-162000D02*
D03*
X-402000Y-172000D02*
D03*
X-397000Y-182000D02*
D03*
X-402000Y-192000D02*
D03*
X-397000Y-202000D02*
D03*
X-402000Y-212000D02*
D03*
X-412000Y148000D02*
D03*
X-407000Y58000D02*
D03*
Y38000D02*
D03*
Y18000D02*
D03*
Y-2000D02*
D03*
X-412000Y-12000D02*
D03*
X-407000Y-22000D02*
D03*
X-412000Y-32000D02*
D03*
X-407000Y-42000D02*
D03*
X-412000Y-52000D02*
D03*
X-407000Y-62000D02*
D03*
X-412000Y-72000D02*
D03*
X-407000Y-82000D02*
D03*
X-412000Y-92000D02*
D03*
X-407000Y-102000D02*
D03*
X-412000Y-152000D02*
D03*
X-407000Y-162000D02*
D03*
X-412000Y-172000D02*
D03*
X-407000Y-182000D02*
D03*
X-412000Y-192000D02*
D03*
X-407000Y-202000D02*
D03*
X-412000Y-212000D02*
D03*
X-422000Y208000D02*
D03*
Y188000D02*
D03*
X-417000Y178000D02*
D03*
X-422000Y-12000D02*
D03*
X-417000Y-22000D02*
D03*
X-422000Y-32000D02*
D03*
X-417000Y-42000D02*
D03*
X-422000Y-52000D02*
D03*
X-417000Y-62000D02*
D03*
X-422000Y-72000D02*
D03*
X-417000Y-82000D02*
D03*
X-422000Y-92000D02*
D03*
X-417000Y-142000D02*
D03*
X-422000Y-152000D02*
D03*
X-417000Y-162000D02*
D03*
X-422000Y-172000D02*
D03*
X-417000Y-182000D02*
D03*
X-422000Y-192000D02*
D03*
X-417000Y-202000D02*
D03*
X-422000Y-212000D02*
D03*
X-427000Y218000D02*
D03*
X-432000Y208000D02*
D03*
X-427000Y198000D02*
D03*
Y-22000D02*
D03*
X-432000Y-32000D02*
D03*
X-427000Y-42000D02*
D03*
X-432000Y-52000D02*
D03*
X-427000Y-62000D02*
D03*
X-432000Y-72000D02*
D03*
X-427000Y-82000D02*
D03*
X-432000Y-132000D02*
D03*
X-427000Y-142000D02*
D03*
X-432000Y-152000D02*
D03*
X-427000Y-162000D02*
D03*
X-432000Y-172000D02*
D03*
X-427000Y-182000D02*
D03*
Y-202000D02*
D03*
X-432000Y-212000D02*
D03*
X-437000Y218000D02*
D03*
X-442000Y48000D02*
D03*
Y28000D02*
D03*
X-437000Y-122000D02*
D03*
X-442000Y-132000D02*
D03*
X-437000Y-142000D02*
D03*
X-442000Y-152000D02*
D03*
X-437000Y-162000D02*
D03*
X-442000Y-172000D02*
D03*
X-447000Y218000D02*
D03*
Y118000D02*
D03*
X-452000Y48000D02*
D03*
X-447000Y38000D02*
D03*
X-452000Y28000D02*
D03*
X-447000Y18000D02*
D03*
X-452000Y8000D02*
D03*
Y-112000D02*
D03*
X-447000Y-122000D02*
D03*
X-452000Y-132000D02*
D03*
X-447000Y-142000D02*
D03*
X-452000Y-152000D02*
D03*
X-447000Y-162000D02*
D03*
X-452000Y-172000D02*
D03*
Y-212000D02*
D03*
X-457000Y218000D02*
D03*
X-462000Y208000D02*
D03*
Y188000D02*
D03*
X-457000Y118000D02*
D03*
X-462000Y48000D02*
D03*
X-457000Y38000D02*
D03*
X-462000Y28000D02*
D03*
X-457000Y18000D02*
D03*
X-462000Y8000D02*
D03*
X-457000Y-2000D02*
D03*
Y-102000D02*
D03*
X-462000Y-112000D02*
D03*
X-457000Y-122000D02*
D03*
X-462000Y-132000D02*
D03*
X-457000Y-142000D02*
D03*
X-462000Y-152000D02*
D03*
X-457000Y-162000D02*
D03*
X-462000Y-172000D02*
D03*
X-457000Y-182000D02*
D03*
X-462000Y-192000D02*
D03*
Y-212000D02*
D03*
X216662Y116840D02*
D03*
D53*
X444560Y153670D02*
D03*
X-444440D02*
D03*
M02*
