%TF.GenerationSoftware,Altium Limited,Altium Designer,25.7.1 (20)*%
G04 Layer_Color=16711935*
%FSLAX45Y45*%
%MOMM*%
%TF.SameCoordinates,8F53B02F-4BC1-41D4-BF1F-B677A2EFEC97*%
%TF.FilePolarity,Negative*%
%TF.FileFunction,Soldermask,Bot*%
%TF.Part,Single*%
G01*
G75*
%TA.AperFunction,ComponentPad*%
G04:AMPARAMS|DCode=47|XSize=2.2032mm|YSize=2.2032mm|CornerRadius=0mm|HoleSize=0mm|Usage=FLASHONLY|Rotation=0.000|XOffset=0mm|YOffset=0mm|HoleType=Round|Shape=Octagon|*
%AMOCTAGOND47*
4,1,8,1.10160,-0.55080,1.10160,0.55080,0.55080,1.10160,-0.55080,1.10160,-1.10160,0.55080,-1.10160,-0.55080,-0.55080,-1.10160,0.55080,-1.10160,1.10160,-0.55080,0.0*
%
%ADD47OCTAGOND47*%

%ADD48C,2.00320*%
%ADD49C,1.70320*%
%ADD50R,2.00320X2.00320*%
%ADD51C,1.80320*%
%ADD52R,2.00320X2.00320*%
%ADD53C,2.20320*%
%ADD54R,1.80320X1.80320*%
%TA.AperFunction,ViaPad*%
%ADD55C,5.20320*%
%ADD56C,0.80320*%
D47*
X-3539602Y-1311097D02*
D03*
D48*
X-965200Y-1905000D02*
D03*
X320040Y-1904995D02*
D03*
X-322580D02*
D03*
X-1882658Y1441740D02*
D03*
X1193800Y-1904995D02*
D03*
X2788920Y-1905000D02*
D03*
X3472180Y-1511300D02*
D03*
X2435342Y-408264D02*
D03*
X3208018Y904242D02*
D03*
Y-365758D02*
D03*
Y-111758D02*
D03*
Y142242D02*
D03*
Y396242D02*
D03*
Y650242D02*
D03*
Y-619758D02*
D03*
X1193800Y-1650995D02*
D03*
Y-1396995D02*
D03*
X-965200Y-1651000D02*
D03*
Y-1397000D02*
D03*
X320040Y-1650995D02*
D03*
Y-1396995D02*
D03*
X-322580D02*
D03*
Y-1650995D02*
D03*
X-866658Y-408264D02*
D03*
X911342Y1441740D02*
D03*
X-612658Y-408264D02*
D03*
X2788920Y-1397000D02*
D03*
Y-1651000D02*
D03*
X657342Y1441740D02*
D03*
X1165342Y-408264D02*
D03*
X1419342D02*
D03*
X3980180Y-1511300D02*
D03*
X3726180D02*
D03*
X2181342Y-408264D02*
D03*
X1927342D02*
D03*
X911342D02*
D03*
X403342D02*
D03*
X-104658D02*
D03*
X-1120658D02*
D03*
X-1628658D02*
D03*
X-1882658D02*
D03*
X-1374658D02*
D03*
X-358658D02*
D03*
X149342D02*
D03*
X657342D02*
D03*
X1673342D02*
D03*
X2689342D02*
D03*
X-3649998Y1605281D02*
D03*
Y1859281D02*
D03*
X-4000500Y1605281D02*
D03*
Y1859281D02*
D03*
X2689342Y1441740D02*
D03*
X2435342D02*
D03*
X1673342D02*
D03*
X1419342D02*
D03*
X149342D02*
D03*
X-358658D02*
D03*
X-866658D02*
D03*
X-1374658D02*
D03*
X-1628658D02*
D03*
X-1120658Y1441735D02*
D03*
X-612658Y1441740D02*
D03*
X-104658D02*
D03*
X403342D02*
D03*
X1165342D02*
D03*
X1927342D02*
D03*
X2181342D02*
D03*
X3599998Y1623061D02*
D03*
Y1877061D02*
D03*
X3949997D02*
D03*
Y1623061D02*
D03*
D49*
X-4500880Y701500D02*
D03*
Y955500D02*
D03*
X-2650880D02*
D03*
Y701500D02*
D03*
X-4500880Y-190500D02*
D03*
Y-444500D02*
D03*
X-2650880D02*
D03*
Y-190500D02*
D03*
D50*
X-3649998Y2113281D02*
D03*
X-4000500D02*
D03*
X3599998Y2131061D02*
D03*
X3949997D02*
D03*
X3208018Y1158242D02*
D03*
X4234180Y-1511300D02*
D03*
D51*
X-1877060Y1965960D02*
D03*
X2443480Y-711200D02*
D03*
X-858520D02*
D03*
X916940Y1965960D02*
D03*
X-604520Y-711200D02*
D03*
X662940Y1965960D02*
D03*
X1173480Y-711200D02*
D03*
X1427480D02*
D03*
X-2128520D02*
D03*
X-1874520D02*
D03*
X-1112520D02*
D03*
X-96520D02*
D03*
X411480D02*
D03*
X919480D02*
D03*
X1935480D02*
D03*
X2189480D02*
D03*
X1681480Y-711195D02*
D03*
X665480Y-711200D02*
D03*
X157480D02*
D03*
X-350520D02*
D03*
X-1366520D02*
D03*
X-1620520D02*
D03*
X-2131060Y1965960D02*
D03*
X-1115060D02*
D03*
X-861060D02*
D03*
X-99060D02*
D03*
X408940D02*
D03*
X1424940D02*
D03*
X1932940D02*
D03*
X2440940D02*
D03*
X2186940D02*
D03*
X1678940Y1965965D02*
D03*
X1170940Y1965960D02*
D03*
X154940D02*
D03*
X-353060D02*
D03*
X-607060D02*
D03*
X-1369060D02*
D03*
X-1623060D02*
D03*
D52*
X1193800Y-1142995D02*
D03*
X-965200Y-1143000D02*
D03*
X320040Y-1142995D02*
D03*
X-322580D02*
D03*
X2788920Y-1143000D02*
D03*
X-2136658Y-408264D02*
D03*
Y1441740D02*
D03*
D53*
X-3539602Y-1811101D02*
D03*
D54*
X2697480Y-711200D02*
D03*
X2694940Y1965960D02*
D03*
D55*
X4445600Y1536700D02*
D03*
X-4444400D02*
D03*
D56*
X2166620Y1168400D02*
D03*
%TF.MD5,549689582af29a69d2355b17a5b74025*%
M02*
