%TF.GenerationSoftware,Altium Limited,Altium Designer,25.7.1 (20)*%
G04 Layer_Color=0*
%FSLAX45Y45*%
%MOMM*%
%TF.SameCoordinates,8F53B02F-4BC1-41D4-BF1F-B677A2EFEC97*%
%TF.FilePolarity,Positive*%
%TF.FileFunction,Profile,NP*%
%TF.Part,Single*%
G01*
G75*
%TA.AperFunction,Profile*%
%ADD57C,0.02540*%
G36*
X899971Y1605321D02*
X890122D01*
X870802Y1609164D01*
X852603Y1616702D01*
X836225Y1627646D01*
X822296Y1641575D01*
X811352Y1657954D01*
X803814Y1676152D01*
X799971Y1695472D01*
Y1705321D01*
Y1715171D01*
X803814Y1734490D01*
X811352Y1752689D01*
X822296Y1769068D01*
X836225Y1782996D01*
X852603Y1793940D01*
X870802Y1801478D01*
X890122Y1805322D01*
X899971D01*
X909820D01*
X929140Y1801478D01*
X947339Y1793940D01*
X963717Y1782996D01*
X977646Y1769068D01*
X988590Y1752689D01*
X996128Y1734490D01*
X999971Y1715171D01*
Y1705321D01*
Y1695472D01*
X996128Y1676152D01*
X988590Y1657954D01*
X977646Y1641575D01*
X963717Y1627646D01*
X947339Y1616702D01*
X929140Y1609164D01*
X909820Y1605321D01*
X899971D01*
D01*
D02*
G37*
G36*
X-898525Y1604255D02*
X-908375D01*
X-927694Y1608098D01*
X-945893Y1615636D01*
X-962272Y1626580D01*
X-976200Y1640509D01*
X-987144Y1656887D01*
X-994683Y1675086D01*
X-998525Y1694406D01*
Y1704255D01*
Y1714104D01*
X-994683Y1733424D01*
X-987144Y1751623D01*
X-976200Y1768001D01*
X-962272Y1781930D01*
X-945893Y1792874D01*
X-927694Y1800412D01*
X-908375Y1804255D01*
X-898525D01*
X-888676D01*
X-869356Y1800412D01*
X-851158Y1792874D01*
X-834779Y1781930D01*
X-820850Y1768001D01*
X-809906Y1751623D01*
X-802368Y1733424D01*
X-798525Y1714104D01*
Y1704255D01*
Y1694406D01*
X-802368Y1675086D01*
X-809906Y1656887D01*
X-820850Y1640509D01*
X-834779Y1626580D01*
X-851158Y1615636D01*
X-869356Y1608098D01*
X-888676Y1604255D01*
X-898525D01*
D01*
D02*
G37*
G36*
X714551Y-2070059D02*
X704702D01*
X685382Y-2066216D01*
X667183Y-2058678D01*
X650805Y-2047734D01*
X636876Y-2033805D01*
X625932Y-2017426D01*
X618394Y-1999228D01*
X614551Y-1979908D01*
Y-1970059D01*
Y-1960209D01*
X618394Y-1940890D01*
X625932Y-1922691D01*
X636876Y-1906312D01*
X650805Y-1892384D01*
X667183Y-1881440D01*
X685382Y-1873902D01*
X704702Y-1870058D01*
X714551D01*
X724400D01*
X743720Y-1873902D01*
X761919Y-1881440D01*
X778297Y-1892384D01*
X792226Y-1906312D01*
X803170Y-1922691D01*
X810708Y-1940890D01*
X814551Y-1960209D01*
Y-1970059D01*
Y-1979908D01*
X810708Y-1999228D01*
X803170Y-2017426D01*
X792226Y-2033805D01*
X778297Y-2047734D01*
X761919Y-2058678D01*
X743720Y-2066216D01*
X724400Y-2070059D01*
X714551D01*
D01*
D02*
G37*
G36*
X715340Y761371D02*
X705491D01*
X686171Y765214D01*
X667972Y772752D01*
X651594Y783696D01*
X637665Y797625D01*
X626721Y814003D01*
X619183Y832202D01*
X615340Y851522D01*
Y861371D01*
Y871220D01*
X619183Y890540D01*
X626721Y908739D01*
X637665Y925117D01*
X651594Y939046D01*
X667972Y949990D01*
X686171Y957528D01*
X705491Y961371D01*
X715340D01*
X725189D01*
X744509Y957528D01*
X762708Y949990D01*
X779086Y939046D01*
X793015Y925117D01*
X803959Y908739D01*
X811497Y890540D01*
X815340Y871220D01*
Y861371D01*
Y851522D01*
X811497Y832202D01*
X803959Y814003D01*
X793015Y797625D01*
X779086Y783696D01*
X762708Y772752D01*
X744509Y765214D01*
X725189Y761371D01*
X715340D01*
D01*
D02*
G37*
G36*
X-1075360Y761060D02*
X-1085209D01*
X-1104529Y764903D01*
X-1122728Y772441D01*
X-1139106Y783385D01*
X-1153035Y797314D01*
X-1163979Y813692D01*
X-1171517Y831891D01*
X-1175360Y851211D01*
Y861060D01*
Y870909D01*
X-1171517Y890229D01*
X-1163979Y908428D01*
X-1153035Y924806D01*
X-1139106Y938735D01*
X-1122728Y949679D01*
X-1104529Y957217D01*
X-1085209Y961060D01*
X-1075360D01*
X-1065511D01*
X-1046191Y957217D01*
X-1027992Y949679D01*
X-1011614Y938735D01*
X-997685Y924806D01*
X-986741Y908428D01*
X-979203Y890229D01*
X-975360Y870909D01*
Y861060D01*
Y851211D01*
X-979203Y831891D01*
X-986741Y813692D01*
X-997685Y797314D01*
X-1011614Y783385D01*
X-1027992Y772441D01*
X-1046191Y764903D01*
X-1065511Y761060D01*
X-1075360D01*
D01*
D02*
G37*
G36*
X4445635Y1850635D02*
X4435785D01*
X4416466Y1854478D01*
X4398267Y1862016D01*
X4381888Y1872960D01*
X4367960Y1886889D01*
X4357016Y1903267D01*
X4349477Y1921466D01*
X4345635Y1940786D01*
Y1950635D01*
Y1960484D01*
X4349477Y1979804D01*
X4357016Y1998003D01*
X4367960Y2014381D01*
X4381888Y2028310D01*
X4398267Y2039254D01*
X4416466Y2046792D01*
X4435785Y2050635D01*
X4445635D01*
X4455484D01*
X4474804Y2046792D01*
X4493002Y2039254D01*
X4509381Y2028310D01*
X4523310Y2014381D01*
X4534254Y1998003D01*
X4541792Y1979804D01*
X4545635Y1960484D01*
Y1950635D01*
Y1940786D01*
X4541792Y1921466D01*
X4534254Y1903267D01*
X4523310Y1886889D01*
X4509381Y1872960D01*
X4493002Y1862016D01*
X4474804Y1854478D01*
X4455484Y1850635D01*
X4445635D01*
D01*
D02*
G37*
G36*
X-4444365Y-2050805D02*
X-4454215D01*
X-4473534Y-2046962D01*
X-4491733Y-2039424D01*
X-4508112Y-2028480D01*
X-4522040Y-2014551D01*
X-4532984Y-1998173D01*
X-4540523Y-1979974D01*
X-4544365Y-1960654D01*
Y-1950805D01*
Y-1940956D01*
X-4540523Y-1921636D01*
X-4532984Y-1903437D01*
X-4522040Y-1887059D01*
X-4508112Y-1873130D01*
X-4491733Y-1862186D01*
X-4473534Y-1854648D01*
X-4454215Y-1850805D01*
X-4444365D01*
X-4434516D01*
X-4415196Y-1854648D01*
X-4396998Y-1862186D01*
X-4380619Y-1873130D01*
X-4366690Y-1887059D01*
X-4355746Y-1903437D01*
X-4348208Y-1921636D01*
X-4344365Y-1940956D01*
Y-1950805D01*
Y-1960654D01*
X-4348208Y-1979974D01*
X-4355746Y-1998173D01*
X-4366690Y-2014551D01*
X-4380619Y-2028480D01*
X-4396998Y-2039424D01*
X-4415196Y-2046962D01*
X-4434516Y-2050805D01*
X-4444365D01*
D01*
D02*
G37*
G36*
X4345635Y-1949365D02*
Y-1959214D01*
X4349477Y-1978534D01*
X4357016Y-1996733D01*
X4367960Y-2013111D01*
X4381888Y-2027040D01*
X4398267Y-2037984D01*
X4416466Y-2045522D01*
X4435785Y-2049365D01*
X4445635D01*
X4455484D01*
X4474804Y-2045522D01*
X4493002Y-2037984D01*
X4509381Y-2027040D01*
X4523310Y-2013111D01*
X4534254Y-1996733D01*
X4541792Y-1978534D01*
X4545635Y-1959214D01*
Y-1949365D01*
Y-1939516D01*
X4541792Y-1920196D01*
X4534254Y-1901997D01*
X4523310Y-1885619D01*
X4509381Y-1871690D01*
X4493002Y-1860746D01*
X4474804Y-1853208D01*
X4455484Y-1849365D01*
X4445635D01*
X4435785D01*
X4416466Y-1853208D01*
X4398267Y-1860746D01*
X4381888Y-1871690D01*
X4367960Y-1885619D01*
X4357016Y-1901997D01*
X4349477Y-1920196D01*
X4345635Y-1939516D01*
Y-1949365D01*
D01*
D02*
G37*
G36*
X-4444365Y1850635D02*
X-4454215D01*
X-4473534Y1854478D01*
X-4491733Y1862016D01*
X-4508112Y1872960D01*
X-4522040Y1886889D01*
X-4532984Y1903267D01*
X-4540523Y1921466D01*
X-4544365Y1940786D01*
Y1950635D01*
Y1960484D01*
X-4540523Y1979804D01*
X-4532984Y1998003D01*
X-4522040Y2014381D01*
X-4508112Y2028310D01*
X-4491733Y2039254D01*
X-4473534Y2046792D01*
X-4454215Y2050635D01*
X-4444365D01*
X-4434516D01*
X-4415196Y2046792D01*
X-4396998Y2039254D01*
X-4380619Y2028310D01*
X-4366690Y2014381D01*
X-4355746Y1998003D01*
X-4348208Y1979804D01*
X-4344365Y1960484D01*
Y1950635D01*
Y1940786D01*
X-4348208Y1921466D01*
X-4355746Y1903267D01*
X-4366690Y1886889D01*
X-4380619Y1872960D01*
X-4396998Y1862016D01*
X-4415196Y1854478D01*
X-4434516Y1850635D01*
X-4444365D01*
D01*
D02*
G37*
D57*
X-4599365Y-2299365D02*
X-2274350Y-2299365D01*
D02*
G03*
X-2224350Y-2249365I0J50000D01*
G01*
X-2224350Y-1583365D01*
X-1588965D01*
Y-2249365D01*
D02*
G03*
X-1538965Y-2299365I50000J0D01*
G01*
X1540234D01*
D02*
G03*
X1590234Y-2249365I-0J50000D01*
G01*
Y-1583365D01*
X2225619D01*
Y-2249365D01*
D02*
G03*
X2275619Y-2299365I50000J0D01*
G01*
X4600635D01*
D02*
G03*
X4800635Y-2099365I0J200000D01*
G01*
Y2100635D01*
D02*
G03*
X4600635Y2300635I-200000J0D01*
G01*
X-4599365Y2300635D01*
D02*
G03*
X-4799365Y2100635I-0J-200000D01*
G01*
Y-2099365D01*
D02*
G03*
X-4599365Y-2299365I200000J0D01*
G01*
%TF.MD5,fa957941d8b248c690324598cba9655b*%
M02*
