%TF.GenerationSoftware,Altium Limited,Altium Designer,25.7.1 (20)*%
G04 Layer_Color=128*
%FSLAX45Y45*%
%MOMM*%
%TF.SameCoordinates,8F53B02F-4BC1-41D4-BF1F-B677A2EFEC97*%
%TF.FilePolarity,Positive*%
%TF.FileFunction,Drillmap*%
%TF.Part,Single*%
G01*
G75*
%TA.AperFunction,NonConductor*%
%ADD35C,0.12700*%
D35*
X-3589601Y-1311097D02*
X-3489602D01*
X-3539602Y-1361097D02*
Y-1261097D01*
X-1015200Y-1905000D02*
X-915200D01*
X-965200Y-1955000D02*
Y-1855000D01*
X270040Y-1904995D02*
X370040D01*
X320040Y-1954995D02*
Y-1854995D01*
X-372580Y-1904995D02*
X-272580D01*
X-322580Y-1954995D02*
Y-1854995D01*
X-4541520Y701500D02*
X-4460240D01*
X-4500880Y660860D02*
Y742140D01*
X-4541520Y955500D02*
X-4460240D01*
X-4500880Y914860D02*
Y996140D01*
X-3699998Y2113281D02*
X-3599998D01*
X-3649998Y2063281D02*
Y2163280D01*
X-4050500Y2113281D02*
X-3950500D01*
X-4000500Y2063281D02*
Y2163280D01*
X-2691520Y955500D02*
X-2610240D01*
X-2650880Y914860D02*
Y996140D01*
X-2691520Y701500D02*
X-2610240D01*
X-2650880Y660860D02*
Y742140D01*
X-1932658Y1441740D02*
X-1832658D01*
X-1882658Y1391740D02*
Y1491740D01*
X-1922060Y1965960D02*
X-1832060D01*
X-1877060Y1920960D02*
Y2010960D01*
X1143800Y-1904995D02*
X1243800D01*
X1193800Y-1954995D02*
Y-1854995D01*
X2738920Y-1905000D02*
X2838920D01*
X2788920Y-1955000D02*
Y-1855000D01*
X3422180Y-1511300D02*
X3522180D01*
X3472180Y-1561300D02*
Y-1461300D01*
X2398480Y-711200D02*
X2488480D01*
X2443480Y-756200D02*
Y-666200D01*
X2385342Y-408264D02*
X2485342D01*
X2435342Y-458264D02*
Y-358264D01*
X3158018Y904242D02*
X3258018D01*
X3208018Y854242D02*
Y954242D01*
X3549998Y2131061D02*
X3649998D01*
X3599998Y2081061D02*
Y2181060D01*
X3899998Y2131061D02*
X3999997D01*
X3949997Y2081061D02*
Y2181060D01*
X3158018Y-365758D02*
X3258018D01*
X3208018Y-415758D02*
Y-315758D01*
X3158018Y-111758D02*
X3258018D01*
X3208018Y-161758D02*
Y-61758D01*
X3158018Y142242D02*
X3258018D01*
X3208018Y92242D02*
Y192242D01*
X3158018Y396242D02*
X3258018D01*
X3208018Y346242D02*
Y446242D01*
X3158018Y650242D02*
X3258018D01*
X3208018Y600242D02*
Y700242D01*
X3158018Y1158242D02*
X3258018D01*
X3208018Y1108242D02*
Y1208242D01*
X3158018Y-619758D02*
X3258018D01*
X3208018Y-669758D02*
Y-569758D01*
X1143800Y-1142995D02*
X1243800D01*
X1193800Y-1192995D02*
Y-1092995D01*
X1143800Y-1650995D02*
X1243800D01*
X1193800Y-1700995D02*
Y-1600995D01*
X1143800Y-1396995D02*
X1243800D01*
X1193800Y-1446995D02*
Y-1346995D01*
X-1015200Y-1143000D02*
X-915200D01*
X-965200Y-1193000D02*
Y-1093000D01*
X-1015200Y-1651000D02*
X-915200D01*
X-965200Y-1701000D02*
Y-1601000D01*
X-1015200Y-1397000D02*
X-915200D01*
X-965200Y-1447000D02*
Y-1347000D01*
X270040Y-1142995D02*
X370040D01*
X320040Y-1192995D02*
Y-1092995D01*
X270040Y-1650995D02*
X370040D01*
X320040Y-1700995D02*
Y-1600995D01*
X270040Y-1396995D02*
X370040D01*
X320040Y-1446995D02*
Y-1346995D01*
X-372580Y-1396995D02*
X-272580D01*
X-322580Y-1446995D02*
Y-1346995D01*
X-372580Y-1650995D02*
X-272580D01*
X-322580Y-1700995D02*
Y-1600995D01*
X-372580Y-1142995D02*
X-272580D01*
X-322580Y-1192995D02*
Y-1092995D01*
X-916658Y-408264D02*
X-816658D01*
X-866658Y-458264D02*
Y-358264D01*
X-903520Y-711200D02*
X-813520D01*
X-858520Y-756200D02*
Y-666200D01*
X2738920Y-1143000D02*
X2838920D01*
X2788920Y-1193000D02*
Y-1093000D01*
X871940Y1965960D02*
X961940D01*
X916940Y1920960D02*
Y2010960D01*
X861342Y1441740D02*
X961342D01*
X911342Y1391740D02*
Y1491740D01*
X-662658Y-408264D02*
X-562658D01*
X-612658Y-458264D02*
Y-358264D01*
X-649520Y-711200D02*
X-559520D01*
X-604520Y-756200D02*
Y-666200D01*
X2738920Y-1397000D02*
X2838920D01*
X2788920Y-1447000D02*
Y-1347000D01*
X-3589601Y-1811101D02*
X-3489602D01*
X-3539602Y-1861101D02*
Y-1761101D01*
X-4541520Y-190500D02*
X-4460240D01*
X-4500880Y-231140D02*
Y-149860D01*
X-4541520Y-444500D02*
X-4460240D01*
X-4500880Y-485140D02*
Y-403860D01*
X2738920Y-1651000D02*
X2838920D01*
X2788920Y-1701000D02*
Y-1601000D01*
X617940Y1965960D02*
X707940D01*
X662940Y1920960D02*
Y2010960D01*
X607342Y1441740D02*
X707342D01*
X657342Y1391740D02*
Y1491740D01*
X1115342Y-408264D02*
X1215342D01*
X1165342Y-458264D02*
Y-358264D01*
X1128480Y-711200D02*
X1218480D01*
X1173480Y-756200D02*
Y-666200D01*
X1369342Y-408264D02*
X1469342D01*
X1419342Y-458264D02*
Y-358264D01*
X1382480Y-711200D02*
X1472480D01*
X1427480Y-756200D02*
Y-666200D01*
X3930180Y-1511300D02*
X4030180D01*
X3980180Y-1561300D02*
Y-1461300D01*
X3676180Y-1511300D02*
X3776180D01*
X3726180Y-1561300D02*
Y-1461300D01*
X4184180Y-1511300D02*
X4284180D01*
X4234180Y-1561300D02*
Y-1461300D01*
X-2691520Y-444500D02*
X-2610240D01*
X-2650880Y-485140D02*
Y-403860D01*
X-2691520Y-190500D02*
X-2610240D01*
X-2650880Y-231140D02*
Y-149860D01*
X-2173520Y-711200D02*
X-2083520D01*
X-2128520Y-756200D02*
Y-666200D01*
X-1919520Y-711200D02*
X-1829520D01*
X-1874520Y-756200D02*
Y-666200D01*
X-1157520Y-711200D02*
X-1067520D01*
X-1112520Y-756200D02*
Y-666200D01*
X-141520Y-711200D02*
X-51520D01*
X-96520Y-756200D02*
Y-666200D01*
X366480Y-711200D02*
X456480D01*
X411480Y-756200D02*
Y-666200D01*
X874480Y-711200D02*
X964480D01*
X919480Y-756200D02*
Y-666200D01*
X1890480Y-711200D02*
X1980480D01*
X1935480Y-756200D02*
Y-666200D01*
X2652480Y-711200D02*
X2742480D01*
X2697480Y-756200D02*
Y-666200D01*
X2144480Y-711200D02*
X2234480D01*
X2189480Y-756200D02*
Y-666200D01*
X1636480Y-711195D02*
X1726480D01*
X1681480Y-756195D02*
Y-666195D01*
X620480Y-711200D02*
X710480D01*
X665480Y-756200D02*
Y-666200D01*
X112480Y-711200D02*
X202480D01*
X157480Y-756200D02*
Y-666200D01*
X-395520Y-711200D02*
X-305520D01*
X-350520Y-756200D02*
Y-666200D01*
X-1411520Y-711200D02*
X-1321520D01*
X-1366520Y-756200D02*
Y-666200D01*
X-1665520Y-711200D02*
X-1575520D01*
X-1620520Y-756200D02*
Y-666200D01*
X2131342Y-408264D02*
X2231342D01*
X2181342Y-458264D02*
Y-358264D01*
X1877342Y-408264D02*
X1977342D01*
X1927342Y-458264D02*
Y-358264D01*
X861342Y-408264D02*
X961342D01*
X911342Y-458264D02*
Y-358264D01*
X353342Y-408264D02*
X453342D01*
X403342Y-458264D02*
Y-358264D01*
X-154658Y-408264D02*
X-54658D01*
X-104658Y-458264D02*
Y-358264D01*
X-1170658Y-408264D02*
X-1070658D01*
X-1120658Y-458264D02*
Y-358264D01*
X-1678658Y-408264D02*
X-1578658D01*
X-1628658Y-458264D02*
Y-358264D01*
X-1932658Y-408264D02*
X-1832658D01*
X-1882658Y-458264D02*
Y-358264D01*
X-2186658Y-408264D02*
X-2086658D01*
X-2136658Y-458264D02*
Y-358264D01*
X-1424658Y-408264D02*
X-1324658D01*
X-1374658Y-458264D02*
Y-358264D01*
X-408658Y-408264D02*
X-308658D01*
X-358658Y-458264D02*
Y-358264D01*
X99342Y-408264D02*
X199342D01*
X149342Y-458264D02*
Y-358264D01*
X607342Y-408264D02*
X707342D01*
X657342Y-458264D02*
Y-358264D01*
X1623342Y-408264D02*
X1723342D01*
X1673342Y-458264D02*
Y-358264D01*
X2639342Y-408264D02*
X2739342D01*
X2689342Y-458264D02*
Y-358264D01*
X-3699998Y1605281D02*
X-3599998D01*
X-3649998Y1555281D02*
Y1655280D01*
X-3699998Y1859281D02*
X-3599998D01*
X-3649998Y1809281D02*
Y1909280D01*
X-4050500Y1605281D02*
X-3950500D01*
X-4000500Y1555281D02*
Y1655280D01*
X-4050500Y1859281D02*
X-3950500D01*
X-4000500Y1809281D02*
Y1909280D01*
X2639342Y1441740D02*
X2739342D01*
X2689342Y1391740D02*
Y1491740D01*
X2385342Y1441740D02*
X2485342D01*
X2435342Y1391740D02*
Y1491740D01*
X1623342Y1441740D02*
X1723342D01*
X1673342Y1391740D02*
Y1491740D01*
X1369342Y1441740D02*
X1469342D01*
X1419342Y1391740D02*
Y1491740D01*
X99342Y1441740D02*
X199342D01*
X149342Y1391740D02*
Y1491740D01*
X-408658Y1441740D02*
X-308658D01*
X-358658Y1391740D02*
Y1491740D01*
X-916658Y1441740D02*
X-816658D01*
X-866658Y1391740D02*
Y1491740D01*
X-1424658Y1441740D02*
X-1324658D01*
X-1374658Y1391740D02*
Y1491740D01*
X-2186658Y1441740D02*
X-2086658D01*
X-2136658Y1391740D02*
Y1491740D01*
X-1678658Y1441740D02*
X-1578658D01*
X-1628658Y1391740D02*
Y1491740D01*
X-1170658Y1441735D02*
X-1070658D01*
X-1120658Y1391735D02*
Y1491735D01*
X-662658Y1441740D02*
X-562658D01*
X-612658Y1391740D02*
Y1491740D01*
X-154658Y1441740D02*
X-54658D01*
X-104658Y1391740D02*
Y1491740D01*
X353342Y1441740D02*
X453342D01*
X403342Y1391740D02*
Y1491740D01*
X1115342Y1441740D02*
X1215342D01*
X1165342Y1391740D02*
Y1491740D01*
X1877342Y1441740D02*
X1977342D01*
X1927342Y1391740D02*
Y1491740D01*
X2131342Y1441740D02*
X2231342D01*
X2181342Y1391740D02*
Y1491740D01*
X3549998Y1623061D02*
X3649998D01*
X3599998Y1573061D02*
Y1673060D01*
X3549998Y1877061D02*
X3649998D01*
X3599998Y1827061D02*
Y1927060D01*
X3899998Y1877061D02*
X3999997D01*
X3949997Y1827061D02*
Y1927060D01*
X3899998Y1623061D02*
X3999997D01*
X3949997Y1573061D02*
Y1673060D01*
X-2176060Y1965960D02*
X-2086060D01*
X-2131060Y1920960D02*
Y2010960D01*
X-1160060Y1965960D02*
X-1070060D01*
X-1115060Y1920960D02*
Y2010960D01*
X-906060Y1965960D02*
X-816060D01*
X-861060Y1920960D02*
Y2010960D01*
X-144060Y1965960D02*
X-54060D01*
X-99060Y1920960D02*
Y2010960D01*
X363940Y1965960D02*
X453940D01*
X408940Y1920960D02*
Y2010960D01*
X1379940Y1965960D02*
X1469940D01*
X1424940Y1920960D02*
Y2010960D01*
X1887940Y1965960D02*
X1977940D01*
X1932940Y1920960D02*
Y2010960D01*
X2649940Y1965960D02*
X2739940D01*
X2694940Y1920960D02*
Y2010960D01*
X2395940Y1965960D02*
X2485940D01*
X2440940Y1920960D02*
Y2010960D01*
X2141940Y1965960D02*
X2231940D01*
X2186940Y1920960D02*
Y2010960D01*
X1633940Y1965965D02*
X1723940D01*
X1678940Y1920965D02*
Y2010965D01*
X1125940Y1965960D02*
X1215940D01*
X1170940Y1920960D02*
Y2010960D01*
X109940Y1965960D02*
X199940D01*
X154940Y1920960D02*
Y2010960D01*
X-398060Y1965960D02*
X-308060D01*
X-353060Y1920960D02*
Y2010960D01*
X-652060Y1965960D02*
X-562060D01*
X-607060Y1920960D02*
Y2010960D01*
X-1414060Y1965960D02*
X-1324060D01*
X-1369060Y1920960D02*
Y2010960D01*
X-1668060Y1965960D02*
X-1578060D01*
X-1623060Y1920960D02*
Y2010960D01*
X4295600Y1536700D02*
X4595600D01*
X4445600Y1386700D02*
Y1686700D01*
X2151620Y1168400D02*
X2181620D01*
X2166620Y1153400D02*
Y1183400D01*
X-4594400Y1536700D02*
X-4294400D01*
X-4444400Y1386700D02*
Y1686700D01*
%TF.MD5,9728eb2a6f93561151e31d79747c4dbb*%
M02*
