%TF.GenerationSoftware,Altium Limited,Altium Designer,25.7.1 (20)*%
G04 Layer_Physical_Order=2*
G04 Layer_Color=16711680*
%FSLAX45Y45*%
%MOMM*%
%TF.SameCoordinates,8F53B02F-4BC1-41D4-BF1F-B677A2EFEC97*%
%TF.FilePolarity,Positive*%
%TF.FileFunction,Copper,L2,Bot,Signal*%
%TF.Part,Single*%
G01*
G75*
%TA.AperFunction,Conductor*%
%ADD13C,0.50000*%
%ADD14C,1.00000*%
%ADD16C,1.50000*%
%ADD17C,0.80000*%
%TA.AperFunction,ComponentPad*%
G04:AMPARAMS|DCode=19|XSize=2mm|YSize=2mm|CornerRadius=0mm|HoleSize=0mm|Usage=FLASHONLY|Rotation=0.000|XOffset=0mm|YOffset=0mm|HoleType=Round|Shape=Octagon|*
%AMOCTAGOND19*
4,1,8,1.00000,-0.50000,1.00000,0.50000,0.50000,1.00000,-0.50000,1.00000,-1.00000,0.50000,-1.00000,-0.50000,-0.50000,-1.00000,0.50000,-1.00000,1.00000,-0.50000,0.0*
%
%ADD19OCTAGOND19*%

%ADD20C,1.80000*%
%ADD21C,1.50000*%
%ADD22R,1.80000X1.80000*%
%ADD23C,1.60000*%
%ADD24R,1.80000X1.80000*%
%ADD25C,2.00000*%
%ADD26R,1.60000X1.60000*%
%TA.AperFunction,ViaPad*%
%ADD27C,5.00000*%
%ADD28C,0.60000*%
%TA.AperFunction,Conductor*%
%ADD29C,1.70000*%
G36*
X4600634Y2300635D02*
X4600635Y2300635D01*
X4620333Y2300635D01*
X4658972Y2292949D01*
X4695370Y2277873D01*
X4728127Y2255985D01*
X4755985Y2228128D01*
X4777872Y2195371D01*
X4792949Y2158973D01*
X4800635Y2120334D01*
X4800634Y2100635D01*
X4800635Y-2099365D01*
X4800634Y-2099365D01*
Y-2119063D01*
X4792949Y-2157703D01*
X4777872Y-2194101D01*
X4755984Y-2226858D01*
X4728127Y-2254715D01*
X4695370Y-2276603D01*
X4658972Y-2291679D01*
X4620333Y-2299365D01*
X4600634Y-2299365D01*
X2275619D01*
X2265673Y-2299365D01*
X2247296Y-2291753D01*
X2233231Y-2277688D01*
X2225619Y-2259311D01*
Y-2249365D01*
Y-1583365D01*
X1590234D01*
Y-2249365D01*
X1590234Y-2249365D01*
X1590234Y-2259310D01*
X1582622Y-2277688D01*
X1568556Y-2291753D01*
X1550179Y-2299365D01*
X-1538965D01*
X-1548910Y-2299365D01*
X-1567287Y-2291753D01*
X-1581353Y-2277688D01*
X-1588965Y-2259310D01*
Y-2249365D01*
Y-1583365D01*
X-2224350D01*
X-2224350Y-2249365D01*
Y-2259310D01*
X-2231962Y-2277688D01*
X-2246027Y-2291753D01*
X-2264404Y-2299365D01*
X-2274350D01*
X-4599365Y-2299365D01*
Y-2299365D01*
X-4619064Y-2299365D01*
X-4657703Y-2291679D01*
X-4694101Y-2276603D01*
X-4726858Y-2254715D01*
X-4754715Y-2226857D01*
X-4776603Y-2194101D01*
X-4791679Y-2157703D01*
X-4799365Y-2119063D01*
Y-2099365D01*
X-4799365Y2081796D01*
X-4799365Y2100635D01*
X-4799365Y2100636D01*
X-4799365Y2100636D01*
X-4799366Y2120333D01*
X-4791680Y2158973D01*
X-4776603Y2195371D01*
X-4754716Y2228128D01*
X-4726858Y2255985D01*
X-4694101Y2277873D01*
X-4657703Y2292949D01*
X-4619064Y2300635D01*
X-4599365Y2300635D01*
X4600634Y2300635D01*
X4600634Y2300635D01*
D02*
G37*
%LPC*%
G36*
X1694738Y2085965D02*
X1663142D01*
X1632622Y2077787D01*
X1605258Y2061989D01*
X1582916Y2039647D01*
X1567118Y2012283D01*
X1562292Y1994273D01*
X1541586D01*
X1536762Y2012278D01*
X1520964Y2039642D01*
X1498622Y2061984D01*
X1471258Y2077782D01*
X1440738Y2085960D01*
X1409142D01*
X1378622Y2077782D01*
X1351258Y2061984D01*
X1328916Y2039642D01*
X1313118Y2012278D01*
X1308293Y1994270D01*
X1287587D01*
X1282762Y2012278D01*
X1266964Y2039642D01*
X1244622Y2061984D01*
X1217258Y2077782D01*
X1186738Y2085960D01*
X1155142D01*
X1124622Y2077782D01*
X1097258Y2061984D01*
X1074916Y2039642D01*
X1059118Y2012278D01*
X1054293Y1994270D01*
X1033587D01*
X1028762Y2012278D01*
X1012964Y2039642D01*
X990622Y2061984D01*
X963258Y2077782D01*
X932738Y2085960D01*
X901142D01*
X870622Y2077782D01*
X843258Y2061984D01*
X820916Y2039642D01*
X805118Y2012278D01*
X800293Y1994270D01*
X779587D01*
X774762Y2012278D01*
X758964Y2039642D01*
X736622Y2061984D01*
X709258Y2077782D01*
X678738Y2085960D01*
X647142D01*
X616622Y2077782D01*
X589258Y2061984D01*
X566916Y2039642D01*
X551118Y2012278D01*
X546293Y1994270D01*
X525587D01*
X520762Y2012278D01*
X504964Y2039642D01*
X482622Y2061984D01*
X455258Y2077782D01*
X424738Y2085960D01*
X393142D01*
X362622Y2077782D01*
X335258Y2061984D01*
X312916Y2039642D01*
X297118Y2012278D01*
X292293Y1994270D01*
X271587D01*
X266762Y2012278D01*
X250964Y2039642D01*
X228622Y2061984D01*
X201258Y2077782D01*
X170738Y2085960D01*
X139142D01*
X108622Y2077782D01*
X81258Y2061984D01*
X58916Y2039642D01*
X43118Y2012278D01*
X38293Y1994270D01*
X17587D01*
X12762Y2012278D01*
X-3036Y2039642D01*
X-25378Y2061984D01*
X-52742Y2077782D01*
X-83262Y2085960D01*
X-114858D01*
X-145378Y2077782D01*
X-172742Y2061984D01*
X-195084Y2039642D01*
X-210882Y2012278D01*
X-215707Y1994270D01*
X-236413D01*
X-241238Y2012278D01*
X-257036Y2039642D01*
X-279378Y2061984D01*
X-306742Y2077782D01*
X-337262Y2085960D01*
X-368858D01*
X-399378Y2077782D01*
X-426742Y2061984D01*
X-449084Y2039642D01*
X-464882Y2012278D01*
X-469707Y1994270D01*
X-490413D01*
X-495238Y2012278D01*
X-511036Y2039642D01*
X-533378Y2061984D01*
X-560742Y2077782D01*
X-591262Y2085960D01*
X-622858D01*
X-653378Y2077782D01*
X-680742Y2061984D01*
X-703084Y2039642D01*
X-718882Y2012278D01*
X-723707Y1994270D01*
X-744413D01*
X-749238Y2012278D01*
X-765036Y2039642D01*
X-787378Y2061984D01*
X-814742Y2077782D01*
X-845262Y2085960D01*
X-876858D01*
X-907378Y2077782D01*
X-934742Y2061984D01*
X-957084Y2039642D01*
X-972882Y2012278D01*
X-977707Y1994270D01*
X-998413D01*
X-1003238Y2012278D01*
X-1019036Y2039642D01*
X-1041378Y2061984D01*
X-1068742Y2077782D01*
X-1099262Y2085960D01*
X-1130858D01*
X-1161378Y2077782D01*
X-1188742Y2061984D01*
X-1211084Y2039642D01*
X-1226882Y2012278D01*
X-1231707Y1994270D01*
X-1252413D01*
X-1257238Y2012278D01*
X-1273036Y2039642D01*
X-1295378Y2061984D01*
X-1322742Y2077782D01*
X-1353262Y2085960D01*
X-1384858D01*
X-1415378Y2077782D01*
X-1442742Y2061984D01*
X-1465084Y2039642D01*
X-1480882Y2012278D01*
X-1485707Y1994270D01*
X-1506413D01*
X-1511238Y2012278D01*
X-1527036Y2039642D01*
X-1549378Y2061984D01*
X-1576742Y2077782D01*
X-1607262Y2085960D01*
X-1638858D01*
X-1669378Y2077782D01*
X-1696742Y2061984D01*
X-1719084Y2039642D01*
X-1734882Y2012278D01*
X-1743060Y1981758D01*
Y1950162D01*
X-1734882Y1919642D01*
X-1719084Y1892278D01*
X-1696742Y1869936D01*
X-1687610Y1864664D01*
Y1557815D01*
X-1708479Y1545766D01*
X-1732684Y1521562D01*
X-1749798Y1491918D01*
X-1758658Y1458855D01*
Y1424625D01*
X-1749798Y1391562D01*
X-1732684Y1361919D01*
X-1708479Y1337714D01*
X-1678836Y1320600D01*
X-1645773Y1311740D01*
X-1611543D01*
X-1578480Y1320600D01*
X-1548836Y1337714D01*
X-1524632Y1361919D01*
X-1513151Y1381805D01*
X-1490165D01*
X-1478684Y1361919D01*
X-1454479Y1337714D01*
X-1424836Y1320600D01*
X-1391773Y1311740D01*
X-1357543D01*
X-1324480Y1320600D01*
X-1294836Y1337714D01*
X-1270632Y1361919D01*
X-1259151Y1381804D01*
X-1236165Y1381801D01*
X-1224684Y1361913D01*
X-1200479Y1337709D01*
X-1170836Y1320595D01*
X-1137773Y1311735D01*
X-1103543D01*
X-1070480Y1320595D01*
X-1040836Y1337709D01*
X-1016632Y1361913D01*
X-1005150Y1381801D01*
X-982164Y1381804D01*
X-970684Y1361919D01*
X-946479Y1337714D01*
X-916836Y1320600D01*
X-883773Y1311740D01*
X-849543D01*
X-816480Y1320600D01*
X-786836Y1337714D01*
X-762632Y1361919D01*
X-751151Y1381805D01*
X-728165D01*
X-716684Y1361919D01*
X-692479Y1337714D01*
X-662836Y1320600D01*
X-629773Y1311740D01*
X-595543D01*
X-562480Y1320600D01*
X-532836Y1337714D01*
X-508632Y1361919D01*
X-497151Y1381805D01*
X-474165D01*
X-462684Y1361919D01*
X-438479Y1337714D01*
X-408836Y1320600D01*
X-375773Y1311740D01*
X-341543D01*
X-308480Y1320600D01*
X-278836Y1337714D01*
X-254632Y1361919D01*
X-243151Y1381805D01*
X-220165D01*
X-208684Y1361919D01*
X-184479Y1337714D01*
X-154836Y1320600D01*
X-121773Y1311740D01*
X-87543D01*
X-54480Y1320600D01*
X-24836Y1337714D01*
X-632Y1361919D01*
X10849Y1381805D01*
X33835D01*
X45316Y1361919D01*
X69521Y1337714D01*
X99164Y1320600D01*
X132227Y1311740D01*
X166457D01*
X199520Y1320600D01*
X229164Y1337714D01*
X253368Y1361919D01*
X264849Y1381805D01*
X287835D01*
X299316Y1361919D01*
X323521Y1337714D01*
X353164Y1320600D01*
X386227Y1311740D01*
X420457D01*
X453520Y1320600D01*
X483164Y1337714D01*
X507368Y1361919D01*
X518849Y1381805D01*
X541835D01*
X553316Y1361919D01*
X577521Y1337714D01*
X607164Y1320600D01*
X640227Y1311740D01*
X674457D01*
X707520Y1320600D01*
X737164Y1337714D01*
X761368Y1361919D01*
X772849Y1381805D01*
X795835D01*
X807316Y1361919D01*
X831521Y1337714D01*
X861164Y1320600D01*
X894227Y1311740D01*
X928457D01*
X961520Y1320600D01*
X991164Y1337714D01*
X1015368Y1361919D01*
X1026849Y1381805D01*
X1049835D01*
X1061316Y1361919D01*
X1085521Y1337714D01*
X1115164Y1320600D01*
X1148227Y1311740D01*
X1182457D01*
X1215520Y1320600D01*
X1245164Y1337714D01*
X1269368Y1361919D01*
X1280849Y1381805D01*
X1303835D01*
X1315316Y1361919D01*
X1339521Y1337714D01*
X1369164Y1320600D01*
X1402227Y1311740D01*
X1436457D01*
X1469520Y1320600D01*
X1499164Y1337714D01*
X1523368Y1361919D01*
X1534849Y1381805D01*
X1557835D01*
X1569316Y1361919D01*
X1593521Y1337714D01*
X1623164Y1320600D01*
X1656227Y1311740D01*
X1690457D01*
X1723520Y1320600D01*
X1753164Y1337714D01*
X1777368Y1361919D01*
X1788849Y1381805D01*
X1811835D01*
X1823316Y1361919D01*
X1847521Y1337714D01*
X1877164Y1320600D01*
X1910227Y1311740D01*
X1944457D01*
X1977520Y1320600D01*
X2007164Y1337714D01*
X2031368Y1361919D01*
X2042849Y1381805D01*
X2065835D01*
X2077316Y1361919D01*
X2101521Y1337714D01*
X2131164Y1320600D01*
X2164227Y1311740D01*
X2198457D01*
X2231520Y1320600D01*
X2261164Y1337714D01*
X2285368Y1361919D01*
X2296849Y1381805D01*
X2319835D01*
X2331316Y1361919D01*
X2355521Y1337714D01*
X2385164Y1320600D01*
X2418227Y1311740D01*
X2452457D01*
X2485520Y1320600D01*
X2515164Y1337714D01*
X2539368Y1361919D01*
X2550849Y1381805D01*
X2573835D01*
X2585316Y1361919D01*
X2609521Y1337714D01*
X2639164Y1320600D01*
X2672227Y1311740D01*
X2706457D01*
X2721241Y1315702D01*
X2731593Y1297770D01*
X2454424Y1020601D01*
X1648460D01*
X1631492Y1018367D01*
X1615680Y1011817D01*
X1602101Y1001398D01*
X1184424Y583721D01*
X-448234D01*
X-465203Y581487D01*
X-481014Y574937D01*
X-494592Y564519D01*
X-1341637Y-282526D01*
X-1357543Y-278264D01*
X-1391773D01*
X-1424836Y-287123D01*
X-1454479Y-304238D01*
X-1478684Y-328442D01*
X-1490165Y-348328D01*
X-1513151D01*
X-1524632Y-328442D01*
X-1548836Y-304238D01*
X-1563097Y-296005D01*
Y-113782D01*
X-1565331Y-96814D01*
X-1571881Y-81002D01*
X-1582300Y-67424D01*
X-1805302Y155578D01*
X-1818880Y165997D01*
X-1834692Y172547D01*
X-1851660Y174781D01*
X-2959884D01*
X-3584437Y799334D01*
Y1493021D01*
X-3570176Y1501255D01*
X-3545972Y1525459D01*
X-3528857Y1555103D01*
X-3519998Y1588166D01*
Y1622395D01*
X-3528857Y1655458D01*
X-3545972Y1685102D01*
X-3570176Y1709306D01*
X-3590062Y1720788D01*
Y1743774D01*
X-3570176Y1755255D01*
X-3545972Y1779459D01*
X-3528857Y1809103D01*
X-3519998Y1842166D01*
Y1876395D01*
X-3528857Y1909458D01*
X-3545972Y1939102D01*
X-3570176Y1963306D01*
X-3599820Y1980421D01*
X-3632883Y1989280D01*
X-3667113D01*
X-3700176Y1980421D01*
X-3729819Y1963306D01*
X-3753155Y1939971D01*
X-3897343D01*
X-3920678Y1963306D01*
X-3950322Y1980421D01*
X-3983385Y1989280D01*
X-4017615D01*
X-4050678Y1980421D01*
X-4080321Y1963306D01*
X-4104525Y1939102D01*
X-4121640Y1909458D01*
X-4130499Y1876395D01*
Y1842166D01*
X-4121640Y1809103D01*
X-4104525Y1779459D01*
X-4080321Y1755255D01*
X-4060435Y1743774D01*
Y1720788D01*
X-4080321Y1709306D01*
X-4104525Y1685102D01*
X-4121640Y1655458D01*
X-4130499Y1622395D01*
Y1588166D01*
X-4121640Y1555103D01*
X-4104525Y1525459D01*
X-4080321Y1501255D01*
X-4068600Y1494488D01*
Y777240D01*
X-4066367Y760271D01*
X-4059817Y744460D01*
X-4049398Y730881D01*
X-3221658Y-96859D01*
X-3208080Y-107277D01*
X-3192268Y-113827D01*
X-3175300Y-116061D01*
X-2763787D01*
X-2752240Y-136061D01*
X-2758043Y-146112D01*
X-2765880Y-175360D01*
Y-205640D01*
X-2758043Y-234888D01*
X-2742903Y-261111D01*
X-2721491Y-282523D01*
X-2695268Y-297663D01*
X-2666020Y-305500D01*
X-2635740D01*
X-2606492Y-297663D01*
X-2580268Y-282523D01*
X-2558857Y-261111D01*
X-2543717Y-234888D01*
X-2535880Y-205640D01*
Y-175360D01*
X-2543717Y-146112D01*
X-2549520Y-136061D01*
X-2537973Y-116061D01*
X-1948219D01*
Y-296005D01*
X-1962479Y-304238D01*
X-1986658Y-328417D01*
X-1986778Y-328417D01*
X-2006658Y-323039D01*
Y-278264D01*
X-2266658D01*
Y-538264D01*
X-2006658D01*
Y-493488D01*
X-1986778Y-488111D01*
X-1986658Y-488111D01*
X-1962479Y-512290D01*
X-1932836Y-529404D01*
X-1899773Y-538264D01*
X-1865543D01*
X-1832480Y-529404D01*
X-1802836Y-512290D01*
X-1778632Y-488085D01*
X-1767151Y-468199D01*
X-1744165D01*
X-1732684Y-488085D01*
X-1708479Y-512290D01*
X-1678836Y-529404D01*
X-1645773Y-538264D01*
X-1611543D01*
X-1578480Y-529404D01*
X-1548836Y-512290D01*
X-1524632Y-488085D01*
X-1513151Y-468199D01*
X-1490165D01*
X-1478684Y-488085D01*
X-1454479Y-512290D01*
X-1424836Y-529404D01*
X-1391773Y-538264D01*
X-1357543D01*
X-1324480Y-529404D01*
X-1294836Y-512290D01*
X-1270632Y-488085D01*
X-1259151Y-468199D01*
X-1236165D01*
X-1224684Y-488085D01*
X-1200479Y-512290D01*
X-1170836Y-529404D01*
X-1137773Y-538264D01*
X-1103543D01*
X-1070480Y-529404D01*
X-1040836Y-512290D01*
X-1016632Y-488085D01*
X-1005151Y-468199D01*
X-982165D01*
X-970684Y-488085D01*
X-946479Y-512290D01*
X-932219Y-520523D01*
Y-615193D01*
X-954544Y-637518D01*
X-970342Y-664882D01*
X-975167Y-682890D01*
X-995873D01*
X-1000698Y-664882D01*
X-1016496Y-637518D01*
X-1038838Y-615176D01*
X-1066202Y-599378D01*
X-1096722Y-591200D01*
X-1128318D01*
X-1158838Y-599378D01*
X-1186202Y-615176D01*
X-1208544Y-637518D01*
X-1224342Y-664882D01*
X-1229167Y-682890D01*
X-1249873D01*
X-1254698Y-664882D01*
X-1270496Y-637518D01*
X-1292838Y-615176D01*
X-1320202Y-599378D01*
X-1350722Y-591200D01*
X-1382318D01*
X-1412838Y-599378D01*
X-1440202Y-615176D01*
X-1462544Y-637518D01*
X-1478342Y-664882D01*
X-1483167Y-682890D01*
X-1503873D01*
X-1508698Y-664882D01*
X-1524496Y-637518D01*
X-1546838Y-615176D01*
X-1574202Y-599378D01*
X-1604722Y-591200D01*
X-1636318D01*
X-1666838Y-599378D01*
X-1694202Y-615176D01*
X-1716544Y-637518D01*
X-1732342Y-664882D01*
X-1737167Y-682890D01*
X-1757873D01*
X-1762698Y-664882D01*
X-1778496Y-637518D01*
X-1800838Y-615176D01*
X-1828202Y-599378D01*
X-1858722Y-591200D01*
X-1890318D01*
X-1920838Y-599378D01*
X-1948202Y-615176D01*
X-1970544Y-637518D01*
X-1986342Y-664882D01*
X-1991167Y-682890D01*
X-2011873D01*
X-2016698Y-664882D01*
X-2032496Y-637518D01*
X-2054838Y-615176D01*
X-2082202Y-599378D01*
X-2112722Y-591200D01*
X-2144318D01*
X-2174838Y-599378D01*
X-2202202Y-615176D01*
X-2224544Y-637518D01*
X-2240342Y-664882D01*
X-2248520Y-695402D01*
Y-726998D01*
X-2240342Y-757518D01*
X-2224544Y-784882D01*
X-2202202Y-807224D01*
X-2174838Y-823022D01*
X-2144318Y-831200D01*
X-2112722D01*
X-2082202Y-823022D01*
X-2054838Y-807224D01*
X-2032496Y-784882D01*
X-2016698Y-757518D01*
X-2011873Y-739510D01*
X-1991167D01*
X-1986342Y-757518D01*
X-1970544Y-784882D01*
X-1948202Y-807224D01*
X-1920838Y-823022D01*
X-1890318Y-831200D01*
X-1858722D01*
X-1828202Y-823022D01*
X-1800838Y-807224D01*
X-1778496Y-784882D01*
X-1762698Y-757518D01*
X-1757873Y-739510D01*
X-1737167D01*
X-1732342Y-757518D01*
X-1716544Y-784882D01*
X-1694202Y-807224D01*
X-1666838Y-823022D01*
X-1636318Y-831200D01*
X-1604722D01*
X-1574202Y-823022D01*
X-1546838Y-807224D01*
X-1524496Y-784882D01*
X-1508698Y-757518D01*
X-1503873Y-739510D01*
X-1483167D01*
X-1478342Y-757518D01*
X-1462544Y-784882D01*
X-1440202Y-807224D01*
X-1412838Y-823022D01*
X-1382318Y-831200D01*
X-1350722D01*
X-1320202Y-823022D01*
X-1292838Y-807224D01*
X-1270496Y-784882D01*
X-1254698Y-757518D01*
X-1249873Y-739510D01*
X-1229167D01*
X-1224342Y-757518D01*
X-1208544Y-784882D01*
X-1186202Y-807224D01*
X-1158838Y-823022D01*
X-1128318Y-831200D01*
X-1096722D01*
X-1066202Y-823022D01*
X-1038838Y-807224D01*
X-1016496Y-784882D01*
X-1000698Y-757518D01*
X-995873Y-739510D01*
X-975167D01*
X-970342Y-757518D01*
X-954544Y-784882D01*
X-932202Y-807224D01*
X-904838Y-823022D01*
X-874318Y-831200D01*
X-842722D01*
X-812202Y-823022D01*
X-784838Y-807224D01*
X-762496Y-784882D01*
X-746698Y-757518D01*
X-741873Y-739510D01*
X-721167D01*
X-716342Y-757518D01*
X-700544Y-784882D01*
X-678202Y-807224D01*
X-650838Y-823022D01*
X-620318Y-831200D01*
X-588722D01*
X-579664Y-828773D01*
X-434978Y-973459D01*
X-421400Y-983877D01*
X-405588Y-990427D01*
X-388620Y-992661D01*
X-29696D01*
X-14761Y-1007596D01*
Y-1338580D01*
X-12527Y-1355548D01*
X-5977Y-1371360D01*
X4442Y-1384938D01*
X62857Y-1443353D01*
X76435Y-1453772D01*
X92246Y-1460322D01*
X109215Y-1462556D01*
X207781D01*
X216014Y-1476816D01*
X233957Y-1494759D01*
X225672Y-1514759D01*
X-228212D01*
X-236497Y-1494759D01*
X-218554Y-1476816D01*
X-201440Y-1447173D01*
X-192580Y-1414110D01*
Y-1379880D01*
X-201440Y-1346817D01*
X-218554Y-1317173D01*
X-242733Y-1292995D01*
X-242733Y-1292875D01*
X-237355Y-1272995D01*
X-192580D01*
Y-1012995D01*
X-452580D01*
Y-1272995D01*
X-407805D01*
X-402427Y-1292875D01*
X-402427Y-1292995D01*
X-426606Y-1317173D01*
X-443720Y-1346817D01*
X-452580Y-1379880D01*
Y-1414110D01*
X-443720Y-1447173D01*
X-426606Y-1476816D01*
X-408662Y-1494760D01*
X-416946Y-1514760D01*
X-870829D01*
X-879113Y-1494760D01*
X-861174Y-1476822D01*
X-844060Y-1447178D01*
X-835200Y-1414115D01*
Y-1379885D01*
X-844060Y-1346822D01*
X-861174Y-1317178D01*
X-885353Y-1293000D01*
X-885353Y-1292880D01*
X-879975Y-1273000D01*
X-835200D01*
Y-1013000D01*
X-1095200D01*
Y-1273000D01*
X-1050425D01*
X-1045047Y-1292880D01*
X-1045047Y-1293000D01*
X-1069226Y-1317178D01*
X-1086340Y-1346822D01*
X-1095200Y-1379885D01*
Y-1414115D01*
X-1086340Y-1447178D01*
X-1069226Y-1476822D01*
X-1045022Y-1501026D01*
X-1041587Y-1503008D01*
X-1046947Y-1523008D01*
X-1107930D01*
X-1516129Y-1114809D01*
X-1542241Y-1094773D01*
X-1572648Y-1082177D01*
X-1605280Y-1077882D01*
X-2932461D01*
X-2965092Y-1082177D01*
X-2995500Y-1094773D01*
X-3021612Y-1114809D01*
X-3585176Y-1678374D01*
X-3593639Y-1680642D01*
X-3625563Y-1699073D01*
X-3651629Y-1725139D01*
X-3670061Y-1757063D01*
X-3679601Y-1792670D01*
Y-1829532D01*
X-3670061Y-1865139D01*
X-3651629Y-1897063D01*
X-3625563Y-1923128D01*
X-3593639Y-1941560D01*
X-3558033Y-1951101D01*
X-3521170D01*
X-3485564Y-1941560D01*
X-3453640Y-1923128D01*
X-3427574Y-1897063D01*
X-3409142Y-1865139D01*
X-3406875Y-1856676D01*
X-2880237Y-1330038D01*
X-1657503D01*
X-1249304Y-1738238D01*
X-1223192Y-1758274D01*
X-1192785Y-1770869D01*
X-1160153Y-1775165D01*
X-1004089D01*
X-982315Y-1781000D01*
X-948085D01*
X-915022Y-1772140D01*
X-905975Y-1766917D01*
X-381796D01*
X-372758Y-1772135D01*
X-339695Y-1780995D01*
X-305465D01*
X-272402Y-1772135D01*
X-263362Y-1766916D01*
X260822D01*
X269862Y-1772135D01*
X302925Y-1780995D01*
X337155D01*
X370218Y-1772135D01*
X383656Y-1764377D01*
X1130184D01*
X1143622Y-1772135D01*
X1176685Y-1780995D01*
X1210915D01*
X1243978Y-1772135D01*
X1245367Y-1771333D01*
X1275745D01*
X1308377Y-1767037D01*
X1338784Y-1754442D01*
X1364896Y-1734406D01*
X1820063Y-1279238D01*
X2005177D01*
X2460349Y-1734411D01*
X2486461Y-1754447D01*
X2516869Y-1767042D01*
X2549500Y-1771338D01*
X2737353D01*
X2738742Y-1772140D01*
X2771805Y-1781000D01*
X2806035D01*
X2839098Y-1772140D01*
X2868742Y-1755026D01*
X2892946Y-1730822D01*
X2910060Y-1701178D01*
X2918920Y-1668115D01*
Y-1633885D01*
X2910060Y-1600822D01*
X2892946Y-1571178D01*
X2868742Y-1546974D01*
X2848855Y-1535493D01*
Y-1512507D01*
X2868742Y-1501026D01*
X2892946Y-1476822D01*
X2910060Y-1447178D01*
X2918920Y-1414115D01*
Y-1379885D01*
X2910060Y-1346822D01*
X2892946Y-1317178D01*
X2868767Y-1293000D01*
X2868767Y-1292880D01*
X2874145Y-1273000D01*
X2918920D01*
Y-1013000D01*
X2658920D01*
Y-1273000D01*
X2703695D01*
X2709073Y-1292880D01*
X2709073Y-1293000D01*
X2684894Y-1317178D01*
X2667780Y-1346822D01*
X2658920Y-1379885D01*
Y-1414115D01*
X2667780Y-1447178D01*
X2684894Y-1476822D01*
X2707254Y-1499181D01*
X2706216Y-1507145D01*
X2700545Y-1519181D01*
X2601724D01*
X2146551Y-1064009D01*
X2120440Y-1043973D01*
X2090032Y-1031377D01*
X2057401Y-1027082D01*
X1767840D01*
X1735208Y-1031377D01*
X1704801Y-1043973D01*
X1678689Y-1064009D01*
X1343800Y-1398898D01*
X1323800Y-1390614D01*
Y-1379880D01*
X1314940Y-1346817D01*
X1297826Y-1317173D01*
X1273647Y-1292995D01*
X1273647Y-1292875D01*
X1279025Y-1272995D01*
X1323800D01*
Y-1012995D01*
X1063800D01*
Y-1272995D01*
X1108575D01*
X1113953Y-1292875D01*
X1113953Y-1292995D01*
X1089774Y-1317173D01*
X1072660Y-1346817D01*
X1063800Y-1379880D01*
Y-1414110D01*
X1072660Y-1447173D01*
X1089774Y-1476816D01*
X1105178Y-1492220D01*
X1096894Y-1512220D01*
X416946D01*
X408662Y-1492220D01*
X424066Y-1476816D01*
X441180Y-1447173D01*
X450040Y-1414110D01*
Y-1379880D01*
X441180Y-1346817D01*
X424066Y-1317173D01*
X399887Y-1292995D01*
X399887Y-1292875D01*
X405265Y-1272995D01*
X450040D01*
Y-1012995D01*
X190040D01*
Y-1272995D01*
X234815D01*
X240193Y-1292875D01*
X240193Y-1292995D01*
X216014Y-1317173D01*
X207781Y-1331434D01*
X136371D01*
X116361Y-1311424D01*
Y-980440D01*
X114127Y-963472D01*
X107577Y-947660D01*
X97159Y-934082D01*
X43818Y-880742D01*
X30240Y-870323D01*
X14428Y-863773D01*
X-2540Y-861539D01*
X-358247D01*
X-368336Y-849205D01*
X-359047Y-831200D01*
X-334722D01*
X-304202Y-823022D01*
X-276838Y-807224D01*
X-254496Y-784882D01*
X-238698Y-757518D01*
X-233873Y-739510D01*
X-213167D01*
X-208342Y-757518D01*
X-192544Y-784882D01*
X-170202Y-807224D01*
X-142838Y-823022D01*
X-112318Y-831200D01*
X-80722D01*
X-50202Y-823022D01*
X-22838Y-807224D01*
X-496Y-784882D01*
X15302Y-757518D01*
X20127Y-739510D01*
X40833D01*
X45658Y-757518D01*
X61456Y-784882D01*
X83798Y-807224D01*
X111162Y-823022D01*
X141682Y-831200D01*
X173278D01*
X203798Y-823022D01*
X231162Y-807224D01*
X253504Y-784882D01*
X269302Y-757518D01*
X274127Y-739510D01*
X294833D01*
X299658Y-757518D01*
X315456Y-784882D01*
X337798Y-807224D01*
X365162Y-823022D01*
X395682Y-831200D01*
X427278D01*
X457798Y-823022D01*
X485162Y-807224D01*
X507504Y-784882D01*
X523302Y-757518D01*
X528127Y-739510D01*
X548833D01*
X553658Y-757518D01*
X569456Y-784882D01*
X591798Y-807224D01*
X619162Y-823022D01*
X649682Y-831200D01*
X681278D01*
X711798Y-823022D01*
X739162Y-807224D01*
X761504Y-784882D01*
X777302Y-757518D01*
X782127Y-739510D01*
X802833D01*
X807658Y-757518D01*
X823456Y-784882D01*
X845798Y-807224D01*
X873162Y-823022D01*
X903682Y-831200D01*
X935278D01*
X965798Y-823022D01*
X993162Y-807224D01*
X1015504Y-784882D01*
X1031302Y-757518D01*
X1036127Y-739510D01*
X1056833D01*
X1061658Y-757518D01*
X1077456Y-784882D01*
X1099798Y-807224D01*
X1127162Y-823022D01*
X1157682Y-831200D01*
X1189278D01*
X1219798Y-823022D01*
X1247162Y-807224D01*
X1269504Y-784882D01*
X1285302Y-757518D01*
X1290127Y-739510D01*
X1310833D01*
X1315658Y-757518D01*
X1331456Y-784882D01*
X1353798Y-807224D01*
X1381162Y-823022D01*
X1411682Y-831200D01*
X1443278D01*
X1473798Y-823022D01*
X1501162Y-807224D01*
X1523504Y-784882D01*
X1539302Y-757518D01*
X1544128Y-739508D01*
X1564834D01*
X1569658Y-757513D01*
X1585456Y-784877D01*
X1607798Y-807219D01*
X1635162Y-823017D01*
X1665682Y-831195D01*
X1697278D01*
X1727798Y-823017D01*
X1755162Y-807219D01*
X1777504Y-784877D01*
X1793302Y-757513D01*
X1798126Y-739508D01*
X1818832D01*
X1823658Y-757518D01*
X1839456Y-784882D01*
X1861798Y-807224D01*
X1889162Y-823022D01*
X1919682Y-831200D01*
X1951278D01*
X1981798Y-823022D01*
X2009162Y-807224D01*
X2031504Y-784882D01*
X2047302Y-757518D01*
X2052127Y-739510D01*
X2072833D01*
X2077658Y-757518D01*
X2093456Y-784882D01*
X2115798Y-807224D01*
X2143162Y-823022D01*
X2173682Y-831200D01*
X2205278D01*
X2235798Y-823022D01*
X2263162Y-807224D01*
X2285504Y-784882D01*
X2301302Y-757518D01*
X2309480Y-726998D01*
Y-695402D01*
X2301302Y-664882D01*
X2285504Y-637518D01*
X2263162Y-615176D01*
X2235798Y-599378D01*
X2205278Y-591200D01*
X2173682D01*
X2143162Y-599378D01*
X2115798Y-615176D01*
X2093456Y-637518D01*
X2077658Y-664882D01*
X2072833Y-682890D01*
X2052127D01*
X2047302Y-664882D01*
X2031504Y-637518D01*
X2009162Y-615176D01*
X1981798Y-599378D01*
X1951278Y-591200D01*
X1919682D01*
X1889162Y-599378D01*
X1861798Y-615176D01*
X1839456Y-637518D01*
X1823658Y-664882D01*
X1818834Y-682887D01*
X1798128D01*
X1793302Y-664877D01*
X1777504Y-637513D01*
X1755162Y-615171D01*
X1727798Y-599373D01*
X1697278Y-591195D01*
X1665682D01*
X1635162Y-599373D01*
X1607798Y-615171D01*
X1585456Y-637513D01*
X1569658Y-664877D01*
X1564832Y-682887D01*
X1544126D01*
X1539302Y-664882D01*
X1523504Y-637518D01*
X1501162Y-615176D01*
X1473798Y-599378D01*
X1443278Y-591200D01*
X1411682D01*
X1381162Y-599378D01*
X1353798Y-615176D01*
X1331456Y-637518D01*
X1315658Y-664882D01*
X1310833Y-682890D01*
X1290127D01*
X1285302Y-664882D01*
X1269504Y-637518D01*
X1247162Y-615176D01*
X1219798Y-599378D01*
X1189278Y-591200D01*
X1157682D01*
X1127162Y-599378D01*
X1099798Y-615176D01*
X1077456Y-637518D01*
X1061658Y-664882D01*
X1056833Y-682890D01*
X1036127D01*
X1031302Y-664882D01*
X1015504Y-637518D01*
X993162Y-615176D01*
X965798Y-599378D01*
X935278Y-591200D01*
X903682D01*
X873162Y-599378D01*
X845798Y-615176D01*
X823456Y-637518D01*
X807658Y-664882D01*
X802833Y-682890D01*
X782127D01*
X777302Y-664882D01*
X761504Y-637518D01*
X739162Y-615176D01*
X711798Y-599378D01*
X681278Y-591200D01*
X649682D01*
X619162Y-599378D01*
X591798Y-615176D01*
X569456Y-637518D01*
X553658Y-664882D01*
X548833Y-682890D01*
X528127D01*
X523302Y-664882D01*
X507504Y-637518D01*
X485162Y-615176D01*
X457798Y-599378D01*
X427278Y-591200D01*
X395682D01*
X365162Y-599378D01*
X337798Y-615176D01*
X315456Y-637518D01*
X299658Y-664882D01*
X294833Y-682890D01*
X274127D01*
X269302Y-664882D01*
X253504Y-637518D01*
X231162Y-615176D01*
X203798Y-599378D01*
X173278Y-591200D01*
X141682D01*
X111162Y-599378D01*
X83798Y-615176D01*
X61456Y-637518D01*
X45658Y-664882D01*
X40833Y-682890D01*
X20127D01*
X15302Y-664882D01*
X-496Y-637518D01*
X-22838Y-615176D01*
X-50202Y-599378D01*
X-80722Y-591200D01*
X-112318D01*
X-142838Y-599378D01*
X-170202Y-615176D01*
X-192544Y-637518D01*
X-208342Y-664882D01*
X-213167Y-682890D01*
X-233873D01*
X-238698Y-664882D01*
X-254496Y-637518D01*
X-276838Y-615176D01*
X-304202Y-599378D01*
X-334722Y-591200D01*
X-366318D01*
X-396838Y-599378D01*
X-424202Y-615176D01*
X-446544Y-637518D01*
X-462342Y-664882D01*
X-467167Y-682890D01*
X-487873D01*
X-492698Y-664882D01*
X-508496Y-637518D01*
X-530838Y-615176D01*
X-558202Y-599378D01*
X-588722Y-591200D01*
X-620318D01*
X-650838Y-599378D01*
X-678202Y-615176D01*
X-700544Y-637518D01*
X-716342Y-664882D01*
X-721167Y-682890D01*
X-741873D01*
X-746698Y-664882D01*
X-762496Y-637518D01*
X-784838Y-615176D01*
X-801097Y-605789D01*
Y-520523D01*
X-786836Y-512290D01*
X-762632Y-488085D01*
X-751151Y-468199D01*
X-728165D01*
X-716684Y-488085D01*
X-692479Y-512290D01*
X-662836Y-529404D01*
X-629773Y-538264D01*
X-595543D01*
X-562480Y-529404D01*
X-532836Y-512290D01*
X-508632Y-488085D01*
X-497151Y-468199D01*
X-474165D01*
X-462684Y-488085D01*
X-438479Y-512290D01*
X-408836Y-529404D01*
X-375773Y-538264D01*
X-341543D01*
X-308480Y-529404D01*
X-278836Y-512290D01*
X-254632Y-488085D01*
X-243151Y-468199D01*
X-220165D01*
X-208684Y-488085D01*
X-184479Y-512290D01*
X-154836Y-529404D01*
X-121773Y-538264D01*
X-87543D01*
X-54480Y-529404D01*
X-24836Y-512290D01*
X-632Y-488085D01*
X10849Y-468199D01*
X33835D01*
X45316Y-488085D01*
X69521Y-512290D01*
X99164Y-529404D01*
X132227Y-538264D01*
X166457D01*
X199520Y-529404D01*
X229164Y-512290D01*
X253368Y-488085D01*
X264849Y-468199D01*
X287835D01*
X299316Y-488085D01*
X323521Y-512290D01*
X353164Y-529404D01*
X386227Y-538264D01*
X420457D01*
X453520Y-529404D01*
X483164Y-512290D01*
X507368Y-488085D01*
X518849Y-468199D01*
X541835D01*
X553316Y-488085D01*
X577521Y-512290D01*
X607164Y-529404D01*
X640227Y-538264D01*
X674457D01*
X707520Y-529404D01*
X737164Y-512290D01*
X761368Y-488085D01*
X772849Y-468199D01*
X795835D01*
X807316Y-488085D01*
X831521Y-512290D01*
X861164Y-529404D01*
X894227Y-538264D01*
X928457D01*
X961520Y-529404D01*
X991164Y-512290D01*
X1015368Y-488085D01*
X1026849Y-468199D01*
X1049835D01*
X1061316Y-488085D01*
X1085521Y-512290D01*
X1115164Y-529404D01*
X1148227Y-538264D01*
X1182457D01*
X1215520Y-529404D01*
X1245164Y-512290D01*
X1269368Y-488085D01*
X1280849Y-468199D01*
X1303835D01*
X1315316Y-488085D01*
X1339521Y-512290D01*
X1369164Y-529404D01*
X1402227Y-538264D01*
X1436457D01*
X1469520Y-529404D01*
X1499164Y-512290D01*
X1523368Y-488085D01*
X1534849Y-468199D01*
X1557835D01*
X1569316Y-488085D01*
X1593521Y-512290D01*
X1623164Y-529404D01*
X1656227Y-538264D01*
X1690457D01*
X1723520Y-529404D01*
X1753164Y-512290D01*
X1777368Y-488085D01*
X1788849Y-468199D01*
X1811835D01*
X1823316Y-488085D01*
X1847521Y-512290D01*
X1877164Y-529404D01*
X1910227Y-538264D01*
X1944457D01*
X1977520Y-529404D01*
X2007164Y-512290D01*
X2031368Y-488085D01*
X2042849Y-468199D01*
X2065835D01*
X2077316Y-488085D01*
X2101521Y-512290D01*
X2131164Y-529404D01*
X2164227Y-538264D01*
X2198457D01*
X2231520Y-529404D01*
X2261164Y-512290D01*
X2285368Y-488085D01*
X2302483Y-458442D01*
X2311342Y-425379D01*
Y-391149D01*
X2302483Y-358086D01*
X2285368Y-328442D01*
X2261164Y-304238D01*
X2231520Y-287123D01*
X2198457Y-278264D01*
X2164227D01*
X2131164Y-287123D01*
X2101521Y-304238D01*
X2077316Y-328442D01*
X2065835Y-348328D01*
X2042849D01*
X2031368Y-328442D01*
X2007164Y-304238D01*
X1977520Y-287123D01*
X1944457Y-278264D01*
X1910227D01*
X1877164Y-287123D01*
X1847521Y-304238D01*
X1823316Y-328442D01*
X1811835Y-348328D01*
X1788849D01*
X1777368Y-328442D01*
X1753164Y-304238D01*
X1723520Y-287123D01*
X1690457Y-278264D01*
X1670343D01*
X1662059Y-258264D01*
X2230683Y310360D01*
X3110053D01*
X3128197Y292216D01*
X3148083Y280735D01*
Y257749D01*
X3128197Y246268D01*
X3103993Y222064D01*
X3086878Y192420D01*
X3078018Y159357D01*
Y125127D01*
X3086878Y92064D01*
X3103993Y62420D01*
X3128197Y38216D01*
X3148083Y26735D01*
Y3749D01*
X3128197Y-7732D01*
X3103993Y-31936D01*
X3086878Y-61580D01*
X3078018Y-94643D01*
Y-128873D01*
X3086878Y-161936D01*
X3103993Y-191580D01*
X3128197Y-215784D01*
X3148083Y-227265D01*
Y-250251D01*
X3128197Y-261732D01*
X3103993Y-285936D01*
X3086878Y-315580D01*
X3078018Y-348643D01*
Y-382873D01*
X3086878Y-415936D01*
X3103993Y-445579D01*
X3128197Y-469784D01*
X3148083Y-481265D01*
Y-504251D01*
X3128197Y-515732D01*
X3103993Y-539936D01*
X3086878Y-569580D01*
X3078018Y-602643D01*
Y-636873D01*
X3086878Y-669936D01*
X3103993Y-699579D01*
X3128197Y-723784D01*
X3157840Y-740898D01*
X3190903Y-749758D01*
X3225133D01*
X3258196Y-740898D01*
X3287840Y-723784D01*
X3312044Y-699579D01*
X3329159Y-669936D01*
X3338018Y-636873D01*
Y-602643D01*
X3329159Y-569580D01*
X3312044Y-539936D01*
X3287840Y-515732D01*
X3267954Y-504251D01*
Y-481265D01*
X3287840Y-469784D01*
X3312044Y-445579D01*
X3329159Y-415936D01*
X3338018Y-382873D01*
Y-348643D01*
X3329159Y-315580D01*
X3312044Y-285936D01*
X3287840Y-261732D01*
X3267954Y-250251D01*
Y-227265D01*
X3287840Y-215784D01*
X3312044Y-191580D01*
X3329159Y-161936D01*
X3338018Y-128873D01*
Y-94643D01*
X3329159Y-61580D01*
X3312044Y-31936D01*
X3287840Y-7732D01*
X3267954Y3749D01*
Y26735D01*
X3287840Y38216D01*
X3312044Y62420D01*
X3329159Y92064D01*
X3338018Y125127D01*
Y159357D01*
X3329159Y192420D01*
X3312044Y222064D01*
X3287840Y246268D01*
X3267954Y257749D01*
Y280735D01*
X3287840Y292216D01*
X3312044Y316420D01*
X3329159Y346064D01*
X3338018Y379127D01*
Y413357D01*
X3329159Y446420D01*
X3312044Y476064D01*
X3287840Y500268D01*
X3267954Y511749D01*
Y534735D01*
X3287840Y546216D01*
X3312044Y570420D01*
X3329159Y600064D01*
X3338018Y633127D01*
Y667357D01*
X3329159Y700420D01*
X3312044Y730064D01*
X3287840Y754268D01*
X3258196Y771383D01*
X3225133Y780242D01*
X3190903D01*
X3157840Y771383D01*
X3128197Y754268D01*
X3103993Y730064D01*
X3086878Y700420D01*
X3085554Y695481D01*
X2247901D01*
X2230932Y693247D01*
X2215120Y686698D01*
X2201542Y676279D01*
X1333315Y-191949D01*
X1322359Y-196487D01*
X1308781Y-206906D01*
X1223789Y-291897D01*
X1215520Y-287123D01*
X1182457Y-278264D01*
X1148227D01*
X1115164Y-287123D01*
X1085521Y-304238D01*
X1061316Y-328442D01*
X1049835Y-348328D01*
X1026849D01*
X1015368Y-328442D01*
X991164Y-304238D01*
X961520Y-287123D01*
X928457Y-278264D01*
X894227D01*
X861164Y-287123D01*
X831521Y-304238D01*
X807316Y-328442D01*
X795835Y-348328D01*
X772849D01*
X761368Y-328442D01*
X737164Y-304238D01*
X707520Y-287123D01*
X674457Y-278264D01*
X640227D01*
X607164Y-287123D01*
X577521Y-304238D01*
X553316Y-328442D01*
X541835Y-348328D01*
X518849D01*
X507368Y-328442D01*
X483164Y-304238D01*
X453520Y-287123D01*
X420457Y-278264D01*
X386227D01*
X353164Y-287123D01*
X323521Y-304238D01*
X299316Y-328442D01*
X287835Y-348328D01*
X264849D01*
X253368Y-328442D01*
X229164Y-304238D01*
X199520Y-287123D01*
X166457Y-278264D01*
X132227D01*
X99164Y-287123D01*
X69521Y-304238D01*
X45316Y-328442D01*
X33835Y-348328D01*
X10849D01*
X-632Y-328442D01*
X-24836Y-304238D01*
X-54480Y-287123D01*
X-87543Y-278264D01*
X-121773D01*
X-154836Y-287123D01*
X-184479Y-304238D01*
X-208684Y-328442D01*
X-220165Y-348328D01*
X-243151D01*
X-254632Y-328442D01*
X-278836Y-304238D01*
X-308480Y-287123D01*
X-341543Y-278264D01*
X-375773D01*
X-408836Y-287123D01*
X-438479Y-304238D01*
X-462684Y-328442D01*
X-474165Y-348328D01*
X-497151D01*
X-508632Y-328442D01*
X-532836Y-304238D01*
X-562480Y-287123D01*
X-595543Y-278264D01*
X-629773D01*
X-662836Y-287123D01*
X-692479Y-304238D01*
X-716684Y-328442D01*
X-728165Y-348328D01*
X-751151D01*
X-762632Y-328442D01*
X-786836Y-304238D01*
X-816480Y-287123D01*
X-849543Y-278264D01*
X-869657D01*
X-877941Y-258264D01*
X-421078Y198599D01*
X1341120D01*
X1358088Y200833D01*
X1373900Y207383D01*
X1387478Y217802D01*
X1904216Y734539D01*
X2577956D01*
X2594924Y736773D01*
X2610736Y743323D01*
X2624314Y753742D01*
X3059541Y1188968D01*
X3078018Y1181314D01*
Y1028242D01*
X3338018D01*
Y1247680D01*
X3640177D01*
X3657146Y1249914D01*
X3672958Y1256463D01*
X3686536Y1266882D01*
X3916977Y1497323D01*
X3932883Y1493061D01*
X3967112D01*
X4000175Y1501920D01*
X4029819Y1519035D01*
X4054023Y1543239D01*
X4071138Y1572883D01*
X4079997Y1605946D01*
Y1640175D01*
X4071138Y1673238D01*
X4054023Y1702882D01*
X4029819Y1727086D01*
X4009933Y1738568D01*
Y1761554D01*
X4029819Y1773035D01*
X4054023Y1797239D01*
X4071138Y1826883D01*
X4079997Y1859946D01*
Y1894175D01*
X4071138Y1927238D01*
X4054023Y1956882D01*
X4029819Y1981086D01*
X4000175Y1998201D01*
X3967112Y2007060D01*
X3932883D01*
X3899819Y1998201D01*
X3870176Y1981086D01*
X3845972Y1956882D01*
X3828857Y1927238D01*
X3819998Y1894175D01*
Y1859946D01*
X3828857Y1826883D01*
X3845972Y1797239D01*
X3870176Y1773035D01*
X3890062Y1761554D01*
Y1738568D01*
X3870176Y1727086D01*
X3845972Y1702882D01*
X3828857Y1673238D01*
X3819998Y1640175D01*
Y1605946D01*
X3824260Y1590040D01*
X3613021Y1378801D01*
X3091093D01*
X3074124Y1376567D01*
X3058313Y1370018D01*
X3044735Y1359599D01*
X3006660Y1321524D01*
X3006649Y1321510D01*
X2550800Y865661D01*
X1877060D01*
X1860092Y863427D01*
X1844280Y856877D01*
X1830702Y846459D01*
X1313964Y329721D01*
X-448234D01*
X-465203Y327487D01*
X-481014Y320937D01*
X-494593Y310518D01*
X-1087637Y-282526D01*
X-1103543Y-278264D01*
X-1123657D01*
X-1131941Y-258264D01*
X-421078Y452599D01*
X1211580D01*
X1228548Y454833D01*
X1244360Y461383D01*
X1257938Y471802D01*
X1675616Y889479D01*
X2481580D01*
X2498548Y891713D01*
X2514360Y898263D01*
X2527938Y908682D01*
X3176757Y1557500D01*
X3487739D01*
X3495972Y1543239D01*
X3520177Y1519035D01*
X3549820Y1501920D01*
X3582883Y1493061D01*
X3617113D01*
X3650176Y1501920D01*
X3679820Y1519035D01*
X3704024Y1543239D01*
X3721139Y1572883D01*
X3729998Y1605946D01*
Y1640175D01*
X3721139Y1673238D01*
X3704024Y1702882D01*
X3679820Y1727086D01*
X3659933Y1738568D01*
Y1761554D01*
X3679820Y1773035D01*
X3704024Y1797239D01*
X3721139Y1826883D01*
X3729998Y1859946D01*
Y1894175D01*
X3721139Y1927238D01*
X3704024Y1956882D01*
X3679820Y1981086D01*
X3650176Y1998201D01*
X3617113Y2007060D01*
X3582883D01*
X3549820Y1998201D01*
X3520177Y1981086D01*
X3495972Y1956882D01*
X3478858Y1927238D01*
X3469998Y1894175D01*
Y1859946D01*
X3478858Y1826883D01*
X3495972Y1797239D01*
X3520177Y1773035D01*
X3540063Y1761554D01*
Y1738568D01*
X3520177Y1727086D01*
X3495972Y1702882D01*
X3487739Y1688621D01*
X3149601D01*
X3132632Y1686387D01*
X3116820Y1679838D01*
X3103242Y1669419D01*
X2833312Y1399489D01*
X2815380Y1409842D01*
X2819342Y1424625D01*
Y1458855D01*
X2810483Y1491918D01*
X2793368Y1521562D01*
X2769164Y1545766D01*
X2754903Y1553999D01*
Y1845960D01*
X2814940D01*
Y2085960D01*
X2574940D01*
Y2006782D01*
X2554940Y2004149D01*
X2552762Y2012278D01*
X2536964Y2039642D01*
X2514622Y2061984D01*
X2487258Y2077782D01*
X2456738Y2085960D01*
X2425142D01*
X2394622Y2077782D01*
X2367258Y2061984D01*
X2344916Y2039642D01*
X2329118Y2012278D01*
X2324293Y1994270D01*
X2303587D01*
X2298762Y2012278D01*
X2282964Y2039642D01*
X2260622Y2061984D01*
X2233258Y2077782D01*
X2202738Y2085960D01*
X2171142D01*
X2140622Y2077782D01*
X2113258Y2061984D01*
X2090916Y2039642D01*
X2075118Y2012278D01*
X2070293Y1994270D01*
X2049587D01*
X2044762Y2012278D01*
X2028964Y2039642D01*
X2006622Y2061984D01*
X1979258Y2077782D01*
X1948738Y2085960D01*
X1917142D01*
X1886622Y2077782D01*
X1859258Y2061984D01*
X1836916Y2039642D01*
X1821118Y2012278D01*
X1816294Y1994273D01*
X1795588D01*
X1790762Y2012283D01*
X1774964Y2039647D01*
X1752622Y2061989D01*
X1725258Y2077787D01*
X1694738Y2085965D01*
D02*
G37*
G36*
X4455484Y2091418D02*
X4435785D01*
X4431846Y2090635D01*
X4427829D01*
X4408509Y2086792D01*
X4404798Y2085255D01*
X4400858Y2084471D01*
X4382660Y2076933D01*
X4379319Y2074701D01*
X4375608Y2073164D01*
X4359230Y2062220D01*
X4356390Y2059380D01*
X4353050Y2057148D01*
X4339121Y2043219D01*
X4336889Y2039880D01*
X4334049Y2037039D01*
X4323106Y2020661D01*
X4321568Y2016950D01*
X4319337Y2013610D01*
X4311798Y1995411D01*
X4311014Y1991471D01*
X4309478Y1987760D01*
X4305635Y1968440D01*
Y1964424D01*
X4304851Y1960484D01*
Y1940786D01*
X4305635Y1936846D01*
Y1932830D01*
X4309478Y1913510D01*
X4311014Y1909799D01*
X4311798Y1905859D01*
X4319337Y1887660D01*
X4321569Y1884319D01*
X4323106Y1880609D01*
X4334049Y1864230D01*
X4336889Y1861390D01*
X4339121Y1858050D01*
X4353050Y1844121D01*
X4356390Y1841890D01*
X4359230Y1839049D01*
X4375608Y1828106D01*
X4379319Y1826569D01*
X4382660Y1824337D01*
X4400858Y1816799D01*
X4404799Y1816015D01*
X4408510Y1814478D01*
X4427829Y1810635D01*
X4431846D01*
X4435785Y1809851D01*
X4455484D01*
X4459423Y1810635D01*
X4463440D01*
X4482760Y1814478D01*
X4486471Y1816015D01*
X4490411Y1816799D01*
X4508610Y1824337D01*
X4511950Y1826569D01*
X4515661Y1828106D01*
X4532039Y1839050D01*
X4534879Y1841890D01*
X4538219Y1844121D01*
X4552148Y1858050D01*
X4554380Y1861390D01*
X4557220Y1864230D01*
X4568164Y1880609D01*
X4569701Y1884320D01*
X4571933Y1887660D01*
X4579471Y1905859D01*
X4580254Y1909798D01*
X4581792Y1913509D01*
X4585635Y1932829D01*
Y1936846D01*
X4586418Y1940786D01*
Y1960484D01*
X4585635Y1964424D01*
Y1968441D01*
X4581792Y1987760D01*
X4580254Y1991472D01*
X4579471Y1995411D01*
X4571933Y2013610D01*
X4569701Y2016950D01*
X4568164Y2020661D01*
X4557220Y2037039D01*
X4554380Y2039879D01*
X4552148Y2043219D01*
X4538219Y2057148D01*
X4534879Y2059380D01*
X4532039Y2062220D01*
X4515661Y2073164D01*
X4511950Y2074701D01*
X4508609Y2076933D01*
X4490411Y2084471D01*
X4486471Y2085255D01*
X4482760Y2086792D01*
X4463440Y2090635D01*
X4459423D01*
X4455484Y2091418D01*
D02*
G37*
G36*
X-2115262Y2085960D02*
X-2146858D01*
X-2177378Y2077782D01*
X-2204742Y2061984D01*
X-2227084Y2039642D01*
X-2242882Y2012278D01*
X-2251060Y1981758D01*
Y1950162D01*
X-2242882Y1919642D01*
X-2227084Y1892278D01*
X-2225688Y1890883D01*
Y1571740D01*
X-2266658D01*
Y1311740D01*
X-2227434D01*
Y1221899D01*
X-2224341Y1198404D01*
X-2215272Y1176510D01*
X-2200847Y1157710D01*
X-2142268Y1099131D01*
X-2123467Y1084705D01*
X-2101574Y1075637D01*
X-2078079Y1072544D01*
X2161540D01*
X2185035Y1075637D01*
X2206928Y1084705D01*
X2225729Y1099131D01*
X2230809Y1104211D01*
X2245235Y1123012D01*
X2254303Y1144905D01*
X2257396Y1168400D01*
X2254303Y1191894D01*
X2245235Y1213788D01*
X2230809Y1232589D01*
X2212008Y1247015D01*
X2190114Y1256083D01*
X2166620Y1259176D01*
X2143125Y1256083D01*
X2138329Y1254096D01*
X-2040478D01*
X-2045882Y1259500D01*
Y1311740D01*
X-2006658D01*
Y1571740D01*
X-2044136D01*
Y1883179D01*
X-2035036Y1892278D01*
X-2019238Y1919642D01*
X-2011060Y1950162D01*
Y1981758D01*
X-2019238Y2012278D01*
X-2035036Y2039642D01*
X-2057378Y2061984D01*
X-2084742Y2077782D01*
X-2115262Y2085960D01*
D02*
G37*
G36*
X725189Y1002154D02*
X705491D01*
X701551Y1001371D01*
X697534D01*
X678214Y997528D01*
X674503Y995991D01*
X670564Y995207D01*
X652365Y987669D01*
X649024Y985437D01*
X645314Y983900D01*
X628935Y972956D01*
X626095Y970116D01*
X622755Y967884D01*
X608826Y953955D01*
X606595Y950616D01*
X603754Y947775D01*
X592811Y931397D01*
X591274Y927686D01*
X589042Y924346D01*
X581504Y906147D01*
X580720Y902207D01*
X579183Y898496D01*
X575340Y879176D01*
Y875160D01*
X574556Y871220D01*
Y851522D01*
X575340Y847582D01*
Y843565D01*
X579183Y824246D01*
X580720Y820535D01*
X581504Y816595D01*
X589042Y798396D01*
X591274Y795055D01*
X592811Y791345D01*
X603755Y774966D01*
X606595Y772126D01*
X608826Y768786D01*
X622755Y754857D01*
X626095Y752626D01*
X628935Y749785D01*
X645314Y738842D01*
X649025Y737305D01*
X652365Y735073D01*
X670564Y727534D01*
X674504Y726751D01*
X678215Y725214D01*
X697535Y721371D01*
X701551D01*
X705491Y720587D01*
X725189D01*
X729129Y721371D01*
X733145D01*
X752465Y725214D01*
X756176Y726751D01*
X760116Y727534D01*
X778315Y735073D01*
X781656Y737305D01*
X785366Y738842D01*
X801744Y749786D01*
X804584Y752626D01*
X807924Y754857D01*
X821853Y768786D01*
X824085Y772126D01*
X826925Y774966D01*
X837869Y791345D01*
X839406Y795056D01*
X841638Y798396D01*
X849176Y816595D01*
X849960Y820534D01*
X851497Y824245D01*
X855340Y843565D01*
Y847582D01*
X856124Y851522D01*
Y871220D01*
X855340Y875160D01*
Y879177D01*
X851497Y898496D01*
X849960Y902207D01*
X849176Y906147D01*
X841638Y924346D01*
X839406Y927686D01*
X837869Y931397D01*
X826925Y947775D01*
X824085Y950615D01*
X821853Y953955D01*
X807924Y967884D01*
X804585Y970116D01*
X801744Y972956D01*
X785366Y983900D01*
X781655Y985437D01*
X778315Y987669D01*
X760116Y995207D01*
X756177Y995991D01*
X752465Y997528D01*
X733146Y1001371D01*
X729129D01*
X725189Y1002154D01*
D02*
G37*
G36*
X-1065511Y1001844D02*
X-1085209D01*
X-1089149Y1001060D01*
X-1093166D01*
X-1112486Y997217D01*
X-1116197Y995680D01*
X-1120136Y994896D01*
X-1138335Y987358D01*
X-1141676Y985126D01*
X-1145386Y983589D01*
X-1161765Y972645D01*
X-1164605Y969805D01*
X-1167945Y967573D01*
X-1181874Y953645D01*
X-1184105Y950305D01*
X-1186946Y947464D01*
X-1197889Y931086D01*
X-1199426Y927375D01*
X-1201658Y924035D01*
X-1209196Y905836D01*
X-1209980Y901896D01*
X-1211517Y898185D01*
X-1215360Y878865D01*
Y874849D01*
X-1216144Y870909D01*
Y851211D01*
X-1215360Y847271D01*
Y843255D01*
X-1211517Y823935D01*
X-1209980Y820224D01*
X-1209196Y816284D01*
X-1201658Y798085D01*
X-1199426Y794744D01*
X-1197889Y791034D01*
X-1186945Y774655D01*
X-1184105Y771815D01*
X-1181874Y768475D01*
X-1167945Y754546D01*
X-1164605Y752315D01*
X-1161765Y749474D01*
X-1145386Y738531D01*
X-1141675Y736994D01*
X-1138335Y734762D01*
X-1120136Y727224D01*
X-1116196Y726440D01*
X-1112485Y724903D01*
X-1093165Y721060D01*
X-1089149D01*
X-1085209Y720276D01*
X-1065511D01*
X-1061571Y721060D01*
X-1057555D01*
X-1038235Y724903D01*
X-1034524Y726440D01*
X-1030584Y727224D01*
X-1012385Y734762D01*
X-1009044Y736994D01*
X-1005334Y738531D01*
X-988956Y749475D01*
X-986116Y752315D01*
X-982776Y754546D01*
X-968847Y768475D01*
X-966615Y771815D01*
X-963775Y774655D01*
X-952831Y791034D01*
X-951294Y794745D01*
X-949062Y798085D01*
X-941524Y816284D01*
X-940740Y820223D01*
X-939203Y823934D01*
X-935360Y843254D01*
Y847271D01*
X-934576Y851211D01*
Y870909D01*
X-935360Y874849D01*
Y878866D01*
X-939203Y898185D01*
X-940740Y901897D01*
X-941524Y905836D01*
X-949062Y924035D01*
X-951294Y927376D01*
X-952831Y931086D01*
X-963775Y947464D01*
X-966615Y950304D01*
X-968847Y953644D01*
X-982776Y967573D01*
X-986115Y969805D01*
X-988956Y972645D01*
X-1005334Y983589D01*
X-1009045Y985126D01*
X-1012385Y987358D01*
X-1030584Y994896D01*
X-1034523Y995680D01*
X-1038235Y997217D01*
X-1057554Y1001060D01*
X-1061571D01*
X-1065511Y1001844D01*
D02*
G37*
G36*
X-4434516Y2091418D02*
X-4454215D01*
X-4458154Y2090635D01*
X-4462171D01*
X-4481491Y2086792D01*
X-4485202Y2085255D01*
X-4489142Y2084471D01*
X-4507340Y2076933D01*
X-4510681Y2074701D01*
X-4514392Y2073164D01*
X-4530770Y2062220D01*
X-4533610Y2059380D01*
X-4536950Y2057148D01*
X-4550879Y2043219D01*
X-4553111Y2039880D01*
X-4555951Y2037039D01*
X-4566894Y2020661D01*
X-4568432Y2016950D01*
X-4570663Y2013610D01*
X-4578202Y1995411D01*
X-4578986Y1991471D01*
X-4580522Y1987760D01*
X-4584365Y1968440D01*
Y1964424D01*
X-4585149Y1960484D01*
Y1940786D01*
X-4584365Y1936846D01*
Y1932830D01*
X-4580522Y1913510D01*
X-4578986Y1909799D01*
X-4578202Y1905859D01*
X-4570663Y1887660D01*
X-4568431Y1884319D01*
X-4566894Y1880609D01*
X-4555951Y1864230D01*
X-4553111Y1861390D01*
X-4550879Y1858050D01*
X-4536950Y1844121D01*
X-4533610Y1841890D01*
X-4530770Y1839049D01*
X-4526279Y1836049D01*
X-4529325Y1814030D01*
X-4555721Y1805453D01*
X-4596393Y1784730D01*
X-4633322Y1757899D01*
X-4665600Y1725622D01*
X-4692430Y1688693D01*
X-4713153Y1648021D01*
X-4727259Y1604608D01*
X-4734400Y1559523D01*
Y1513877D01*
X-4727259Y1468792D01*
X-4713153Y1425379D01*
X-4692430Y1384707D01*
X-4665600Y1347778D01*
X-4633322Y1315501D01*
X-4596393Y1288670D01*
X-4555721Y1267947D01*
X-4512308Y1253841D01*
X-4467223Y1246700D01*
X-4421577D01*
X-4395531Y1250825D01*
X-4370492Y1225786D01*
Y103926D01*
X-4582899Y-108481D01*
X-4587528Y-114514D01*
X-4592903Y-119889D01*
X-4596704Y-126472D01*
X-4601332Y-132504D01*
X-4604241Y-139528D01*
X-4608043Y-146112D01*
X-4610010Y-153455D01*
X-4612920Y-160479D01*
X-4613912Y-168017D01*
X-4615880Y-175360D01*
Y-182962D01*
X-4616872Y-190500D01*
X-4615880Y-198038D01*
Y-205640D01*
X-4613912Y-212983D01*
X-4612920Y-220521D01*
X-4610010Y-227545D01*
X-4608043Y-234888D01*
X-4604241Y-241472D01*
X-4601332Y-248496D01*
X-4596704Y-254528D01*
X-4592903Y-261111D01*
X-4587528Y-266486D01*
X-4582899Y-272519D01*
X-4576866Y-277148D01*
X-4571491Y-282523D01*
X-4564908Y-286324D01*
X-4558876Y-290952D01*
X-4551852Y-293861D01*
X-4545268Y-297663D01*
X-4537925Y-299630D01*
X-4530901Y-302540D01*
X-4523363Y-303532D01*
X-4516020Y-305500D01*
X-4508418D01*
X-4500880Y-306492D01*
X-4493342Y-305500D01*
X-4485740D01*
X-4478397Y-303532D01*
X-4470859Y-302540D01*
X-4463835Y-299630D01*
X-4456492Y-297663D01*
X-4449908Y-293861D01*
X-4442884Y-290952D01*
X-4436852Y-286324D01*
X-4430269Y-282523D01*
X-4424894Y-277148D01*
X-4418861Y-272519D01*
X-4172481Y-26139D01*
X-4154048Y-2116D01*
X-4142460Y25859D01*
X-4138508Y55880D01*
Y1273832D01*
X-4142460Y1303853D01*
X-4154048Y1331828D01*
X-4172481Y1355851D01*
X-4198460Y1381830D01*
X-4196370Y1384707D01*
X-4175647Y1425379D01*
X-4161541Y1468792D01*
X-4154400Y1513877D01*
Y1559523D01*
X-4161541Y1604608D01*
X-4175647Y1648021D01*
X-4196370Y1688693D01*
X-4223201Y1725622D01*
X-4255478Y1757899D01*
X-4292407Y1784730D01*
X-4333079Y1805453D01*
X-4359429Y1814015D01*
X-4362474Y1836034D01*
X-4357961Y1839050D01*
X-4355121Y1841890D01*
X-4351781Y1844121D01*
X-4337852Y1858050D01*
X-4335620Y1861390D01*
X-4332780Y1864230D01*
X-4321836Y1880609D01*
X-4320299Y1884320D01*
X-4318067Y1887660D01*
X-4310529Y1905859D01*
X-4309746Y1909798D01*
X-4308208Y1913509D01*
X-4304365Y1932829D01*
Y1936846D01*
X-4303582Y1940786D01*
Y1960484D01*
X-4304365Y1964424D01*
Y1968441D01*
X-4308208Y1987760D01*
X-4309746Y1991472D01*
X-4310529Y1995411D01*
X-4318067Y2013610D01*
X-4320299Y2016950D01*
X-4321836Y2020661D01*
X-4332780Y2037039D01*
X-4335620Y2039879D01*
X-4337852Y2043219D01*
X-4351781Y2057148D01*
X-4355121Y2059380D01*
X-4357961Y2062220D01*
X-4374339Y2073164D01*
X-4378050Y2074701D01*
X-4381391Y2076933D01*
X-4399589Y2084471D01*
X-4403529Y2085255D01*
X-4407240Y2086792D01*
X-4426560Y2090635D01*
X-4430577D01*
X-4434516Y2091418D01*
D02*
G37*
G36*
X2706457Y-278264D02*
X2672227D01*
X2639164Y-287123D01*
X2609521Y-304238D01*
X2585316Y-328442D01*
X2568202Y-358086D01*
X2559342Y-391149D01*
Y-425379D01*
X2568202Y-458442D01*
X2585316Y-488085D01*
X2609521Y-512290D01*
X2639164Y-529404D01*
X2672227Y-538264D01*
X2706457D01*
X2739520Y-529404D01*
X2769164Y-512290D01*
X2793368Y-488085D01*
X2810483Y-458442D01*
X2819342Y-425379D01*
Y-391149D01*
X2810483Y-358086D01*
X2793368Y-328442D01*
X2769164Y-304238D01*
X2739520Y-287123D01*
X2706457Y-278264D01*
D02*
G37*
G36*
X-2635740Y-329500D02*
X-2666020D01*
X-2695268Y-337337D01*
X-2721491Y-352477D01*
X-2742903Y-373889D01*
X-2758043Y-400112D01*
X-2765880Y-429360D01*
Y-459640D01*
X-2758043Y-488888D01*
X-2742903Y-515111D01*
X-2721491Y-536523D01*
X-2695268Y-551663D01*
X-2666020Y-559500D01*
X-2635740D01*
X-2606492Y-551663D01*
X-2580268Y-536523D01*
X-2558857Y-515111D01*
X-2543717Y-488888D01*
X-2535880Y-459640D01*
Y-429360D01*
X-2543717Y-400112D01*
X-2558857Y-373889D01*
X-2580268Y-352477D01*
X-2606492Y-337337D01*
X-2635740Y-329500D01*
D02*
G37*
G36*
X-4485740D02*
X-4516020D01*
X-4545268Y-337337D01*
X-4571491Y-352477D01*
X-4592903Y-373889D01*
X-4608043Y-400112D01*
X-4615880Y-429360D01*
Y-459640D01*
X-4608043Y-488888D01*
X-4592903Y-515111D01*
X-4571491Y-536523D01*
X-4545268Y-551663D01*
X-4516020Y-559500D01*
X-4485740D01*
X-4456492Y-551663D01*
X-4430269Y-536523D01*
X-4408857Y-515111D01*
X-4393717Y-488888D01*
X-4385880Y-459640D01*
Y-429360D01*
X-4393717Y-400112D01*
X-4408857Y-373889D01*
X-4430269Y-352477D01*
X-4456492Y-337337D01*
X-4485740Y-329500D01*
D02*
G37*
G36*
X2817480Y-591200D02*
X2577480D01*
Y-831200D01*
X2817480D01*
Y-591200D01*
D02*
G37*
G36*
X4364180Y-1381300D02*
X4104180D01*
Y-1426075D01*
X4084300Y-1431453D01*
X4084180Y-1431453D01*
X4060002Y-1407274D01*
X4030358Y-1390160D01*
X3997295Y-1381300D01*
X3963065D01*
X3930002Y-1390160D01*
X3900358Y-1407274D01*
X3876154Y-1431478D01*
X3864673Y-1451365D01*
X3841687D01*
X3830206Y-1431478D01*
X3806002Y-1407274D01*
X3776358Y-1390160D01*
X3743295Y-1381300D01*
X3709065D01*
X3676002Y-1390160D01*
X3646358Y-1407274D01*
X3622154Y-1431478D01*
X3605040Y-1461122D01*
X3596180Y-1494185D01*
Y-1528415D01*
X3605040Y-1561478D01*
X3622154Y-1591122D01*
X3646358Y-1615326D01*
X3676002Y-1632440D01*
X3709065Y-1641300D01*
X3743295D01*
X3776358Y-1632440D01*
X3806002Y-1615326D01*
X3830206Y-1591122D01*
X3841687Y-1571235D01*
X3864673D01*
X3876154Y-1591122D01*
X3900358Y-1615326D01*
X3930002Y-1632440D01*
X3963065Y-1641300D01*
X3997295D01*
X4030358Y-1632440D01*
X4060002Y-1615326D01*
X4084180Y-1591147D01*
X4084300Y-1591147D01*
X4104180Y-1596525D01*
Y-1641300D01*
X4364180D01*
Y-1381300D01*
D02*
G37*
G36*
X4455484Y-1808581D02*
X4435785D01*
X4431846Y-1809365D01*
X4427829D01*
X4408509Y-1813208D01*
X4404798Y-1814745D01*
X4400858Y-1815529D01*
X4382660Y-1823067D01*
X4379319Y-1825299D01*
X4375608Y-1826836D01*
X4359230Y-1837780D01*
X4356390Y-1840620D01*
X4353050Y-1842852D01*
X4339121Y-1856780D01*
X4336889Y-1860120D01*
X4334049Y-1862960D01*
X4323106Y-1879339D01*
X4321568Y-1883050D01*
X4319337Y-1886390D01*
X4311798Y-1904589D01*
X4311014Y-1908529D01*
X4309478Y-1912240D01*
X4305635Y-1931560D01*
Y-1935576D01*
X4304851Y-1939516D01*
Y-1959214D01*
X4305635Y-1963154D01*
Y-1967170D01*
X4309478Y-1986490D01*
X4311014Y-1990201D01*
X4311798Y-1994141D01*
X4319337Y-2012340D01*
X4321569Y-2015681D01*
X4323106Y-2019391D01*
X4334049Y-2035770D01*
X4336889Y-2038610D01*
X4339121Y-2041949D01*
X4353050Y-2055879D01*
X4356390Y-2058110D01*
X4359230Y-2060950D01*
X4375608Y-2071894D01*
X4379319Y-2073431D01*
X4382660Y-2075663D01*
X4400858Y-2083201D01*
X4404799Y-2083985D01*
X4408510Y-2085522D01*
X4427829Y-2089365D01*
X4431846D01*
X4435785Y-2090148D01*
X4455484D01*
X4459423Y-2089365D01*
X4463440D01*
X4482760Y-2085522D01*
X4486471Y-2083985D01*
X4490411Y-2083201D01*
X4508610Y-2075663D01*
X4511950Y-2073431D01*
X4515661Y-2071894D01*
X4532039Y-2060950D01*
X4534879Y-2058110D01*
X4538219Y-2055879D01*
X4552148Y-2041950D01*
X4554380Y-2038610D01*
X4557220Y-2035770D01*
X4568164Y-2019391D01*
X4569701Y-2015680D01*
X4571933Y-2012340D01*
X4579471Y-1994141D01*
X4580254Y-1990202D01*
X4581792Y-1986491D01*
X4585635Y-1967171D01*
Y-1963154D01*
X4586418Y-1959214D01*
Y-1939516D01*
X4585635Y-1935576D01*
Y-1931559D01*
X4581792Y-1912240D01*
X4580254Y-1908528D01*
X4579471Y-1904589D01*
X4571933Y-1886390D01*
X4569701Y-1883049D01*
X4568164Y-1879339D01*
X4557220Y-1862960D01*
X4554380Y-1860120D01*
X4552148Y-1856781D01*
X4538219Y-1842852D01*
X4534879Y-1840620D01*
X4532039Y-1837780D01*
X4515661Y-1826836D01*
X4511950Y-1825299D01*
X4508609Y-1823067D01*
X4490411Y-1815529D01*
X4486471Y-1814745D01*
X4482760Y-1813208D01*
X4463440Y-1809365D01*
X4459423D01*
X4455484Y-1808581D01*
D02*
G37*
G36*
X-4434516Y-1810022D02*
X-4454215D01*
X-4458154Y-1810805D01*
X-4462171D01*
X-4481491Y-1814648D01*
X-4485202Y-1816185D01*
X-4489142Y-1816969D01*
X-4507340Y-1824507D01*
X-4510681Y-1826739D01*
X-4514392Y-1828276D01*
X-4530770Y-1839220D01*
X-4533610Y-1842060D01*
X-4536950Y-1844292D01*
X-4550879Y-1858221D01*
X-4553111Y-1861560D01*
X-4555951Y-1864401D01*
X-4566894Y-1880779D01*
X-4568432Y-1884490D01*
X-4570663Y-1887830D01*
X-4578202Y-1906029D01*
X-4578986Y-1909969D01*
X-4580522Y-1913680D01*
X-4584365Y-1933000D01*
Y-1937016D01*
X-4585149Y-1940956D01*
Y-1960654D01*
X-4584365Y-1964594D01*
Y-1968610D01*
X-4580522Y-1987930D01*
X-4578986Y-1991641D01*
X-4578202Y-1995581D01*
X-4570663Y-2013780D01*
X-4568431Y-2017121D01*
X-4566894Y-2020831D01*
X-4555951Y-2037210D01*
X-4553111Y-2040050D01*
X-4550879Y-2043390D01*
X-4536950Y-2057319D01*
X-4533610Y-2059550D01*
X-4530770Y-2062391D01*
X-4514392Y-2073334D01*
X-4510681Y-2074871D01*
X-4507340Y-2077103D01*
X-4489142Y-2084642D01*
X-4485201Y-2085425D01*
X-4481490Y-2086962D01*
X-4462171Y-2090805D01*
X-4458154D01*
X-4454215Y-2091589D01*
X-4434516D01*
X-4430577Y-2090805D01*
X-4426560D01*
X-4407240Y-2086962D01*
X-4403529Y-2085425D01*
X-4399589Y-2084642D01*
X-4381390Y-2077103D01*
X-4378050Y-2074871D01*
X-4374339Y-2073334D01*
X-4357961Y-2062390D01*
X-4355121Y-2059550D01*
X-4351781Y-2057319D01*
X-4337852Y-2043390D01*
X-4335620Y-2040050D01*
X-4332780Y-2037210D01*
X-4321836Y-2020831D01*
X-4320299Y-2017120D01*
X-4318067Y-2013780D01*
X-4310529Y-1995581D01*
X-4309746Y-1991642D01*
X-4308208Y-1987931D01*
X-4304365Y-1968611D01*
Y-1964594D01*
X-4303582Y-1960654D01*
Y-1940956D01*
X-4304365Y-1937016D01*
Y-1932999D01*
X-4308208Y-1913680D01*
X-4309746Y-1909968D01*
X-4310529Y-1906029D01*
X-4318067Y-1887830D01*
X-4320299Y-1884489D01*
X-4321836Y-1880779D01*
X-4332780Y-1864401D01*
X-4335620Y-1861561D01*
X-4337852Y-1858221D01*
X-4351781Y-1844292D01*
X-4355121Y-1842060D01*
X-4357961Y-1839220D01*
X-4374339Y-1828276D01*
X-4378050Y-1826739D01*
X-4381391Y-1824507D01*
X-4399589Y-1816969D01*
X-4403529Y-1816185D01*
X-4407240Y-1814648D01*
X-4426560Y-1810805D01*
X-4430577D01*
X-4434516Y-1810022D01*
D02*
G37*
G36*
X724400Y-1829275D02*
X704702D01*
X700762Y-1830059D01*
X696745D01*
X677425Y-1833902D01*
X673714Y-1835439D01*
X669775Y-1836222D01*
X651576Y-1843761D01*
X648235Y-1845993D01*
X644525Y-1847530D01*
X628146Y-1858474D01*
X625306Y-1861314D01*
X621966Y-1863545D01*
X608037Y-1877474D01*
X605806Y-1880814D01*
X602966Y-1883654D01*
X592022Y-1900033D01*
X590485Y-1903743D01*
X588253Y-1907084D01*
X580715Y-1925282D01*
X579931Y-1929223D01*
X578394Y-1932934D01*
X574551Y-1952253D01*
Y-1956270D01*
X573767Y-1960209D01*
Y-1979908D01*
X574551Y-1983847D01*
Y-1987864D01*
X578394Y-2007184D01*
X579931Y-2010895D01*
X580715Y-2014835D01*
X588253Y-2033034D01*
X590485Y-2036374D01*
X592022Y-2040085D01*
X602966Y-2056463D01*
X605806Y-2059303D01*
X608037Y-2062643D01*
X621966Y-2076572D01*
X625306Y-2078804D01*
X628146Y-2081644D01*
X644525Y-2092588D01*
X648236Y-2094125D01*
X651576Y-2096357D01*
X669775Y-2103895D01*
X673715Y-2104679D01*
X677426Y-2106216D01*
X696746Y-2110059D01*
X700762D01*
X704702Y-2110842D01*
X724400D01*
X728340Y-2110059D01*
X732356D01*
X751676Y-2106216D01*
X755387Y-2104679D01*
X759327Y-2103895D01*
X777526Y-2096357D01*
X780867Y-2094125D01*
X784577Y-2092588D01*
X800955Y-2081644D01*
X803795Y-2078804D01*
X807135Y-2076572D01*
X821064Y-2062643D01*
X823296Y-2059303D01*
X826136Y-2056463D01*
X837080Y-2040085D01*
X838617Y-2036374D01*
X840849Y-2033034D01*
X848387Y-2014835D01*
X849171Y-2010895D01*
X850708Y-2007184D01*
X854551Y-1987864D01*
Y-1983847D01*
X855335Y-1979908D01*
Y-1960209D01*
X854551Y-1956270D01*
Y-1952253D01*
X850708Y-1932933D01*
X849171Y-1929222D01*
X848387Y-1925282D01*
X840849Y-1907084D01*
X838617Y-1903743D01*
X837080Y-1900033D01*
X826136Y-1883654D01*
X823296Y-1880814D01*
X821064Y-1877474D01*
X807136Y-1863545D01*
X803796Y-1861314D01*
X800955Y-1858473D01*
X784577Y-1847530D01*
X780866Y-1845992D01*
X777526Y-1843761D01*
X759327Y-1836222D01*
X755388Y-1835439D01*
X751676Y-1833902D01*
X732357Y-1830059D01*
X728340D01*
X724400Y-1829275D01*
D02*
G37*
%LPD*%
D13*
X109215Y-1396995D02*
X320040D01*
X50800Y-1338580D02*
X109215Y-1396995D01*
X50800Y-1338580D02*
Y-980440D01*
X-2540Y-927100D02*
X50800Y-980440D01*
X-388620Y-927100D02*
X-2540D01*
X-604520Y-711200D02*
X-388620Y-927100D01*
X320040Y-1132837D02*
X325117Y-1127760D01*
X-2650880Y701500D02*
Y955500D01*
X-4000500Y2113281D02*
X-3649998D01*
X-3319780D02*
X-2633980Y1427480D01*
X-3649998Y2113281D02*
X-3319780D01*
X-1882658Y1441740D02*
X-1875038Y1434120D01*
X-1876049Y1448349D02*
Y1964949D01*
X-1882658Y1441740D02*
X-1876049Y1448349D01*
X-1877060Y1965960D02*
X-1876049Y1964949D01*
X2443540Y-866200D02*
X2476500Y-899160D01*
X2443540Y-866200D02*
Y-711260D01*
X2476500Y-899160D02*
X3393440D01*
X3510280Y-782320D01*
X2443480Y-711200D02*
X2443540Y-711260D01*
X3208020Y904241D02*
X3413760D01*
X3510280Y807721D01*
Y-782320D02*
Y807721D01*
X3599998Y2131061D02*
X3899998D01*
X-2633980Y955500D02*
Y1427480D01*
X1165342Y1441740D02*
X1170940Y1447338D01*
Y1965960D01*
X1071880Y1602278D02*
Y1811020D01*
X916940Y1965960D02*
X1071880Y1811020D01*
X911342Y1441740D02*
X1071880Y1602278D01*
X-861060Y1965960D02*
X-723900Y1828800D01*
X-866658Y1441740D02*
X-723900Y1584498D01*
Y1828800D01*
X1877060Y800100D02*
X2577956D01*
X3053018Y1275162D01*
X1341120Y264160D02*
X1877060Y800100D01*
X2481580Y955040D02*
X3149601Y1623061D01*
X1648460Y955040D02*
X2481580D01*
X1211580Y518160D02*
X1648460Y955040D01*
X3091093Y1313240D02*
X3640177D01*
X3053018Y1275166D02*
X3091093Y1313240D01*
X3053018Y1275162D02*
Y1275166D01*
X-448234Y264160D02*
X1341120D01*
X-3649998Y772178D02*
Y1605281D01*
X-2987040Y109220D02*
X-1851660D01*
X-3649998Y772178D02*
X-2987040Y109220D01*
X-1882658Y-408264D02*
Y-79790D01*
X-3175300Y-50500D02*
X-1911947D01*
X-1882658Y-79790D01*
X-4003040Y777240D02*
X-3175300Y-50500D01*
X-4003040Y777240D02*
Y1602741D01*
X-1851660Y109220D02*
X-1628658Y-113782D01*
Y-408264D02*
Y-113782D01*
X-448234Y518160D02*
X1211580D01*
X-1374658Y-408264D02*
X-448234Y518160D01*
X3899998Y1623061D02*
X3907534Y1615524D01*
X2247901Y629921D02*
X3187700D01*
X3208020Y650241D01*
X1364716Y-253264D02*
X2247901Y629921D01*
X3149601Y1623061D02*
X3599998D01*
X1200139Y-408264D02*
X1355139Y-253264D01*
X1364716D01*
X-1120658Y-408264D02*
X-448234Y264160D01*
X1165342Y-408264D02*
X1200139D01*
X1419342D02*
X2203526Y375921D01*
X3187700D01*
X-866658Y-703062D02*
Y-408264D01*
Y-703062D02*
X-858520Y-711200D01*
X657342Y1441740D02*
X663951Y1448349D01*
X662940Y1965960D02*
X663951Y1964949D01*
Y1448349D02*
Y1964949D01*
X3187700Y375921D02*
X3208020Y396241D01*
X-98049Y1448349D02*
Y1964949D01*
X-99060Y1965960D02*
X-98049Y1964949D01*
X-104658Y1441740D02*
X-98049Y1448349D01*
X409951Y1448349D02*
Y1964949D01*
X408940Y1965960D02*
X409951Y1964949D01*
X403342Y1441740D02*
X409951Y1448349D01*
X2441951D02*
Y1964949D01*
X2440940Y1965960D02*
X2441951Y1964949D01*
X2435342Y1441740D02*
X2441951Y1448349D01*
X1933951D02*
Y1964949D01*
X1932940Y1965960D02*
X1933951Y1964949D01*
X1927342Y1441740D02*
X1933951Y1448349D01*
X-1368049Y1448349D02*
Y1964949D01*
X-1369060Y1965960D02*
X-1368049Y1964949D01*
X-1374658Y1441740D02*
X-1368049Y1448349D01*
X-606049D02*
Y1964949D01*
X-607060Y1965960D02*
X-606049Y1964949D01*
X-612658Y1441740D02*
X-606049Y1448349D01*
X1679951Y1448349D02*
Y1964954D01*
X1678940Y1965965D02*
X1679951Y1964954D01*
X1673342Y1441740D02*
X1679951Y1448349D01*
X2689342Y1441740D02*
Y1960362D01*
X2694940Y1965960D01*
X1425951Y1448349D02*
Y1964949D01*
X1424940Y1965960D02*
X1425951Y1964949D01*
X1419342Y1441740D02*
X1425951Y1448349D01*
X-1622049Y1448349D02*
Y1964949D01*
X-1623060Y1965960D02*
X-1622049Y1964949D01*
X-1628658Y1441740D02*
X-1622049Y1448349D01*
X-352049D02*
Y1964949D01*
X-353060Y1965960D02*
X-352049Y1964949D01*
X-358658Y1441740D02*
X-352049Y1448349D01*
X2187951Y1448349D02*
Y1964949D01*
X2186940Y1965960D02*
X2187951Y1964949D01*
X2181342Y1441740D02*
X2187951Y1448349D01*
X3907534Y1580597D02*
Y1615524D01*
X3640177Y1313240D02*
X3907534Y1580597D01*
X-4003040Y1602741D02*
X-4000500Y1605281D01*
D14*
X-2078079Y1163320D02*
X2161540D01*
X-2136658Y1221899D02*
Y1441740D01*
Y1221899D02*
X-2078079Y1163320D01*
X2161540D02*
X2166620Y1168400D01*
X-2134912Y1441740D02*
Y1962108D01*
D16*
X-4254500Y55880D02*
Y1273832D01*
X-4444400Y1463732D02*
X-4254500Y1273832D01*
X-4500880Y-190500D02*
X-4254500Y55880D01*
X-4444400Y1463732D02*
Y1480800D01*
D17*
X-1114049Y1448344D02*
Y1964949D01*
X-1115060Y1965960D02*
X-1114049Y1964949D01*
X-1120658Y1441735D02*
X-1114049Y1448344D01*
X155951Y1448349D02*
Y1964949D01*
X154940Y1965960D02*
X155951Y1964949D01*
X149342Y1441740D02*
X155951Y1448349D01*
X-4000500Y1859281D02*
X-3612723D01*
D19*
X-3539602Y-1311097D02*
D03*
D20*
X-965200Y-1905000D02*
D03*
X320040Y-1904995D02*
D03*
X-322580D02*
D03*
X-1882658Y1441740D02*
D03*
X1193800Y-1904995D02*
D03*
X2788920Y-1905000D02*
D03*
X3472180Y-1511300D02*
D03*
X2435342Y-408264D02*
D03*
X3208018Y904242D02*
D03*
Y-365758D02*
D03*
Y-111758D02*
D03*
Y142242D02*
D03*
Y396242D02*
D03*
Y650242D02*
D03*
Y-619758D02*
D03*
X1193800Y-1650995D02*
D03*
Y-1396995D02*
D03*
X-965200Y-1651000D02*
D03*
Y-1397000D02*
D03*
X320040Y-1650995D02*
D03*
Y-1396995D02*
D03*
X-322580D02*
D03*
Y-1650995D02*
D03*
X-866658Y-408264D02*
D03*
X911342Y1441740D02*
D03*
X-612658Y-408264D02*
D03*
X2788920Y-1397000D02*
D03*
Y-1651000D02*
D03*
X657342Y1441740D02*
D03*
X1165342Y-408264D02*
D03*
X1419342D02*
D03*
X3980180Y-1511300D02*
D03*
X3726180D02*
D03*
X2181342Y-408264D02*
D03*
X1927342D02*
D03*
X911342D02*
D03*
X403342D02*
D03*
X-104658D02*
D03*
X-1120658D02*
D03*
X-1628658D02*
D03*
X-1882658D02*
D03*
X-1374658D02*
D03*
X-358658D02*
D03*
X149342D02*
D03*
X657342D02*
D03*
X1673342D02*
D03*
X2689342D02*
D03*
X-3649998Y1605281D02*
D03*
Y1859281D02*
D03*
X-4000500Y1605281D02*
D03*
Y1859281D02*
D03*
X2689342Y1441740D02*
D03*
X2435342D02*
D03*
X1673342D02*
D03*
X1419342D02*
D03*
X149342D02*
D03*
X-358658D02*
D03*
X-866658D02*
D03*
X-1374658D02*
D03*
X-1628658D02*
D03*
X-1120658Y1441735D02*
D03*
X-612658Y1441740D02*
D03*
X-104658D02*
D03*
X403342D02*
D03*
X1165342D02*
D03*
X1927342D02*
D03*
X2181342D02*
D03*
X3599998Y1623061D02*
D03*
Y1877061D02*
D03*
X3949997D02*
D03*
Y1623061D02*
D03*
D21*
X-4500880Y701500D02*
D03*
Y955500D02*
D03*
X-2650880D02*
D03*
Y701500D02*
D03*
X-4500880Y-190500D02*
D03*
Y-444500D02*
D03*
X-2650880D02*
D03*
Y-190500D02*
D03*
D22*
X-3649998Y2113281D02*
D03*
X-4000500D02*
D03*
X3599998Y2131061D02*
D03*
X3949997D02*
D03*
X3208018Y1158242D02*
D03*
X4234180Y-1511300D02*
D03*
D23*
X-1877060Y1965960D02*
D03*
X2443480Y-711200D02*
D03*
X-858520D02*
D03*
X916940Y1965960D02*
D03*
X-604520Y-711200D02*
D03*
X662940Y1965960D02*
D03*
X1173480Y-711200D02*
D03*
X1427480D02*
D03*
X-2128520D02*
D03*
X-1874520D02*
D03*
X-1112520D02*
D03*
X-96520D02*
D03*
X411480D02*
D03*
X919480D02*
D03*
X1935480D02*
D03*
X2189480D02*
D03*
X1681480Y-711195D02*
D03*
X665480Y-711200D02*
D03*
X157480D02*
D03*
X-350520D02*
D03*
X-1366520D02*
D03*
X-1620520D02*
D03*
X-2131060Y1965960D02*
D03*
X-1115060D02*
D03*
X-861060D02*
D03*
X-99060D02*
D03*
X408940D02*
D03*
X1424940D02*
D03*
X1932940D02*
D03*
X2440940D02*
D03*
X2186940D02*
D03*
X1678940Y1965965D02*
D03*
X1170940Y1965960D02*
D03*
X154940D02*
D03*
X-353060D02*
D03*
X-607060D02*
D03*
X-1369060D02*
D03*
X-1623060D02*
D03*
D24*
X1193800Y-1142995D02*
D03*
X-965200Y-1143000D02*
D03*
X320040Y-1142995D02*
D03*
X-322580D02*
D03*
X2788920Y-1143000D02*
D03*
X-2136658Y-408264D02*
D03*
Y1441740D02*
D03*
D25*
X-3539602Y-1811101D02*
D03*
D26*
X2697480Y-711200D02*
D03*
X2694940Y1965960D02*
D03*
D27*
X4445600Y1536700D02*
D03*
X-4444400D02*
D03*
D28*
X2166620Y1168400D02*
D03*
D29*
X1275745Y-1645255D02*
X1767840Y-1153160D01*
X2057401D02*
X2549500Y-1645260D01*
X1767840Y-1153160D02*
X2057401D01*
X-1160153Y-1649087D02*
X-967906D01*
X-1605280Y-1203960D02*
X-1160153Y-1649087D01*
X-2932461Y-1203960D02*
X-1605280D01*
X-965200Y-1640840D02*
X-965199Y-1640839D01*
X-967906Y-1649087D02*
X-965200Y-1646381D01*
X1199540Y-1645255D02*
X1275745D01*
X2549500Y-1645260D02*
X2783180D01*
X1193800Y-1650995D02*
X1199540Y-1645255D01*
X2783180Y-1645260D02*
X2788920Y-1651000D01*
X320040Y-1640837D02*
X322579Y-1638299D01*
X1191261D01*
X-322581Y-1640839D02*
X-322580Y-1640837D01*
X320040D01*
X-965199Y-1640839D02*
X-322581D01*
X-3539602Y-1811101D02*
X-2932461Y-1203960D01*
%TF.MD5,38977d9184b6aebc802e1b8a36c2fa2c*%
M02*
