%TF.GenerationSoftware,Altium Limited,Altium Designer,25.7.1 (20)*%
G04 Layer_Physical_Order=1*
G04 Layer_Color=255*
%FSLAX45Y45*%
%MOMM*%
%TF.SameCoordinates,8F53B02F-4BC1-41D4-BF1F-B677A2EFEC97*%
%TF.FilePolarity,Positive*%
%TF.FileFunction,Copper,L1,Top,Signal*%
%TF.Part,Single*%
G01*
G75*
%TA.AperFunction,SMDPad,CuDef*%
%ADD10R,1.47000X1.16000*%
%ADD11R,0.80000X0.80000*%
%ADD12R,1.45000X1.35000*%
%TA.AperFunction,Conductor*%
%ADD13C,0.50000*%
%ADD14C,1.00000*%
%ADD15C,0.38100*%
%ADD16C,1.50000*%
%ADD17C,0.80000*%
%ADD18C,0.70000*%
%TA.AperFunction,ComponentPad*%
G04:AMPARAMS|DCode=19|XSize=2mm|YSize=2mm|CornerRadius=0mm|HoleSize=0mm|Usage=FLASHONLY|Rotation=0.000|XOffset=0mm|YOffset=0mm|HoleType=Round|Shape=Octagon|*
%AMOCTAGOND19*
4,1,8,1.00000,-0.50000,1.00000,0.50000,0.50000,1.00000,-0.50000,1.00000,-1.00000,0.50000,-1.00000,-0.50000,-0.50000,-1.00000,0.50000,-1.00000,1.00000,-0.50000,0.0*
%
%ADD19OCTAGOND19*%

%ADD20C,1.80000*%
%ADD21C,1.50000*%
%ADD22R,1.80000X1.80000*%
%ADD23C,1.60000*%
%ADD24R,1.80000X1.80000*%
%ADD25C,2.00000*%
%ADD26R,1.60000X1.60000*%
%TA.AperFunction,ViaPad*%
%ADD27C,5.00000*%
%ADD28C,0.60000*%
G36*
X4600634Y2300635D02*
X4600635Y2300635D01*
X4620333Y2300635D01*
X4658972Y2292949D01*
X4695370Y2277873D01*
X4728127Y2255985D01*
X4755985Y2228128D01*
X4777872Y2195371D01*
X4792949Y2158973D01*
X4800635Y2120334D01*
X4800634Y2100635D01*
X4800635Y-2099365D01*
X4800634Y-2099365D01*
Y-2119063D01*
X4792949Y-2157703D01*
X4777872Y-2194101D01*
X4755984Y-2226858D01*
X4728127Y-2254715D01*
X4695370Y-2276603D01*
X4658972Y-2291679D01*
X4620333Y-2299365D01*
X4600634Y-2299365D01*
X2275619D01*
X2265673Y-2299365D01*
X2247296Y-2291753D01*
X2233231Y-2277688D01*
X2225619Y-2259311D01*
Y-2249365D01*
Y-1583365D01*
X1590234D01*
Y-2249365D01*
X1590234Y-2249365D01*
X1590234Y-2259310D01*
X1582622Y-2277688D01*
X1568556Y-2291753D01*
X1550179Y-2299365D01*
X-1538965D01*
X-1548910Y-2299365D01*
X-1567287Y-2291753D01*
X-1581353Y-2277688D01*
X-1588965Y-2259310D01*
Y-2249365D01*
Y-1583365D01*
X-2224350D01*
X-2224350Y-2249365D01*
Y-2259310D01*
X-2231962Y-2277688D01*
X-2246027Y-2291753D01*
X-2264404Y-2299365D01*
X-2274350D01*
X-4599365Y-2299365D01*
Y-2299365D01*
X-4619064Y-2299365D01*
X-4657703Y-2291679D01*
X-4694101Y-2276603D01*
X-4726858Y-2254715D01*
X-4754715Y-2226857D01*
X-4776603Y-2194101D01*
X-4791679Y-2157703D01*
X-4799365Y-2119063D01*
Y-2099365D01*
X-4799365Y2081796D01*
X-4799365Y2100635D01*
X-4799365Y2100636D01*
X-4799365Y2100636D01*
X-4799366Y2120333D01*
X-4791680Y2158973D01*
X-4776603Y2195371D01*
X-4754716Y2228128D01*
X-4726858Y2255985D01*
X-4694101Y2277873D01*
X-4657703Y2292949D01*
X-4619064Y2300635D01*
X-4599365Y2300635D01*
X4600634Y2300635D01*
X4600634Y2300635D01*
D02*
G37*
%LPC*%
G36*
X4455484Y2091418D02*
X4435785D01*
X4431846Y2090635D01*
X4427829D01*
X4408509Y2086792D01*
X4404798Y2085255D01*
X4400858Y2084471D01*
X4382660Y2076933D01*
X4379319Y2074701D01*
X4375608Y2073164D01*
X4359230Y2062220D01*
X4356390Y2059380D01*
X4353050Y2057148D01*
X4339121Y2043219D01*
X4336889Y2039880D01*
X4334049Y2037039D01*
X4323106Y2020661D01*
X4321568Y2016950D01*
X4319337Y2013610D01*
X4311798Y1995411D01*
X4311014Y1991471D01*
X4309478Y1987760D01*
X4305635Y1968440D01*
Y1964424D01*
X4304851Y1960484D01*
Y1940786D01*
X4305635Y1936846D01*
Y1932830D01*
X4309478Y1913510D01*
X4311014Y1909799D01*
X4311798Y1905859D01*
X4319337Y1887660D01*
X4321569Y1884319D01*
X4323106Y1880609D01*
X4334049Y1864230D01*
X4336889Y1861390D01*
X4339121Y1858050D01*
X4353050Y1844121D01*
X4356390Y1841890D01*
X4359230Y1839049D01*
X4375608Y1828106D01*
X4379319Y1826569D01*
X4382660Y1824337D01*
X4400858Y1816799D01*
X4404799Y1816015D01*
X4408510Y1814478D01*
X4427829Y1810635D01*
X4431846D01*
X4435785Y1809851D01*
X4455484D01*
X4459423Y1810635D01*
X4463440D01*
X4482760Y1814478D01*
X4486471Y1816015D01*
X4490411Y1816799D01*
X4508610Y1824337D01*
X4511950Y1826569D01*
X4515661Y1828106D01*
X4532039Y1839050D01*
X4534879Y1841890D01*
X4538219Y1844121D01*
X4552148Y1858050D01*
X4554380Y1861390D01*
X4557220Y1864230D01*
X4568164Y1880609D01*
X4569701Y1884320D01*
X4571933Y1887660D01*
X4579471Y1905859D01*
X4580254Y1909798D01*
X4581792Y1913509D01*
X4585635Y1932829D01*
Y1936846D01*
X4586418Y1940786D01*
Y1960484D01*
X4585635Y1964424D01*
Y1968441D01*
X4581792Y1987760D01*
X4580254Y1991472D01*
X4579471Y1995411D01*
X4571933Y2013610D01*
X4569701Y2016950D01*
X4568164Y2020661D01*
X4557220Y2037039D01*
X4554380Y2039879D01*
X4552148Y2043219D01*
X4538219Y2057148D01*
X4534879Y2059380D01*
X4532039Y2062220D01*
X4515661Y2073164D01*
X4511950Y2074701D01*
X4508609Y2076933D01*
X4490411Y2084471D01*
X4486471Y2085255D01*
X4482760Y2086792D01*
X4463440Y2090635D01*
X4459423D01*
X4455484Y2091418D01*
D02*
G37*
G36*
X3002280Y2267556D02*
X-2308860D01*
X-2332355Y2264463D01*
X-2354248Y2255395D01*
X-2373049Y2240969D01*
X-2663960Y1950057D01*
X-3555792D01*
X-3557281Y1951997D01*
X-3584437Y1972835D01*
X-3616061Y1985934D01*
X-3649998Y1990402D01*
X-3683934Y1985934D01*
X-3715558Y1972835D01*
X-3742715Y1951997D01*
X-3763552Y1924841D01*
X-3776651Y1893217D01*
X-3781119Y1859281D01*
X-3776651Y1825344D01*
X-3763552Y1793720D01*
X-3742715Y1766564D01*
X-3715558Y1745726D01*
X-3709230Y1743104D01*
Y1721457D01*
X-3715558Y1718835D01*
X-3742715Y1697997D01*
X-3763552Y1670841D01*
X-3776651Y1639217D01*
X-3781119Y1605281D01*
X-3776651Y1571344D01*
X-3763552Y1539720D01*
X-3742715Y1512564D01*
X-3715558Y1491726D01*
X-3683934Y1478627D01*
X-3649998Y1474159D01*
X-3616061Y1478627D01*
X-3584437Y1491726D01*
X-3557281Y1512564D01*
X-3536443Y1539720D01*
X-3523344Y1571344D01*
X-3518876Y1605281D01*
X-3523344Y1639217D01*
X-3536443Y1670841D01*
X-3557281Y1697997D01*
X-3584437Y1718835D01*
X-3590766Y1721457D01*
Y1743104D01*
X-3584437Y1745726D01*
X-3557281Y1766564D01*
X-3555792Y1768504D01*
X-3237237D01*
Y283881D01*
X-3234144Y260387D01*
X-3225075Y238493D01*
X-3210649Y219692D01*
X-2757605Y-233351D01*
X-2751332Y-248496D01*
X-2737456Y-266580D01*
Y-368420D01*
X-2751332Y-386504D01*
X-2762920Y-414479D01*
X-2764994Y-430237D01*
X-3002968Y-668211D01*
X-3017394Y-687012D01*
X-3026463Y-708905D01*
X-3029556Y-732400D01*
Y-864339D01*
X-3051280D01*
Y-1079339D01*
Y-1274340D01*
X-2826280D01*
Y-1244550D01*
X-2800820D01*
Y-1258880D01*
X-2573820D01*
Y-1062880D01*
X-2800820D01*
Y-1083170D01*
X-2826280D01*
Y-864339D01*
X-2848003D01*
Y-770001D01*
X-2636617Y-558615D01*
X-2620859Y-556540D01*
X-2592884Y-544952D01*
X-2568861Y-526519D01*
X-2556981Y-511036D01*
X-2536981Y-517825D01*
Y-927100D01*
X-2534747Y-944068D01*
X-2528197Y-959880D01*
X-2517778Y-973458D01*
X-2058038Y-1433198D01*
X-2044460Y-1443617D01*
X-2028648Y-1450167D01*
X-2011680Y-1452401D01*
X-1082963D01*
X-1078755Y-1462561D01*
X-1057917Y-1489717D01*
X-1030761Y-1510555D01*
X-1024432Y-1513176D01*
Y-1534824D01*
X-1030761Y-1537445D01*
X-1057917Y-1558283D01*
X-1078755Y-1585439D01*
X-1091854Y-1617063D01*
X-1096321Y-1651000D01*
X-1091854Y-1684937D01*
X-1078755Y-1716561D01*
X-1057917Y-1743717D01*
X-1030761Y-1764555D01*
X-999137Y-1777654D01*
X-965200Y-1782121D01*
X-931263Y-1777654D01*
X-899639Y-1764555D01*
X-872483Y-1743717D01*
X-851645Y-1716561D01*
X-838546Y-1684937D01*
X-834079Y-1651000D01*
X-838546Y-1617063D01*
X-851645Y-1585439D01*
X-872483Y-1558283D01*
X-899639Y-1537445D01*
X-905968Y-1534824D01*
Y-1513176D01*
X-899639Y-1510555D01*
X-872483Y-1489717D01*
X-851645Y-1462561D01*
X-847436Y-1452399D01*
X-440341D01*
X-436135Y-1462556D01*
X-415297Y-1489712D01*
X-388141Y-1510549D01*
X-381812Y-1513171D01*
Y-1534819D01*
X-388141Y-1537440D01*
X-415297Y-1558278D01*
X-436135Y-1585434D01*
X-449234Y-1617058D01*
X-453701Y-1650995D01*
X-449234Y-1684932D01*
X-436135Y-1716556D01*
X-415297Y-1743712D01*
X-388141Y-1764549D01*
X-356517Y-1777648D01*
X-322580Y-1782116D01*
X-288643Y-1777648D01*
X-257019Y-1764549D01*
X-229863Y-1743712D01*
X-209025Y-1716556D01*
X-195926Y-1684932D01*
X-191459Y-1650995D01*
X-195926Y-1617058D01*
X-209025Y-1585434D01*
X-229863Y-1558278D01*
X-257019Y-1537440D01*
X-263348Y-1534819D01*
Y-1513171D01*
X-257019Y-1510549D01*
X-229863Y-1489712D01*
X-209025Y-1462556D01*
X-195926Y-1430932D01*
X-191459Y-1396995D01*
X-195926Y-1363058D01*
X-209025Y-1331434D01*
X-229863Y-1304278D01*
X-244568Y-1292995D01*
X-237779Y-1272995D01*
X-192580D01*
Y-1043398D01*
X-171998D01*
X-36201Y-1179196D01*
X-22623Y-1189615D01*
X-6811Y-1196164D01*
X10158Y-1198398D01*
X190040D01*
Y-1272995D01*
X235239D01*
X242028Y-1292995D01*
X227323Y-1304278D01*
X206485Y-1331434D01*
X193386Y-1363058D01*
X188919Y-1396995D01*
X193386Y-1430932D01*
X206485Y-1462556D01*
X227323Y-1489712D01*
X254479Y-1510549D01*
X260808Y-1513171D01*
Y-1534819D01*
X254479Y-1537440D01*
X227323Y-1558278D01*
X206485Y-1585434D01*
X193386Y-1617058D01*
X188919Y-1650995D01*
X193386Y-1684932D01*
X206485Y-1716556D01*
X227323Y-1743712D01*
X254479Y-1764549D01*
X286103Y-1777648D01*
X320040Y-1782116D01*
X353977Y-1777648D01*
X385601Y-1764549D01*
X412757Y-1743712D01*
X433595Y-1716556D01*
X446694Y-1684932D01*
X451161Y-1650995D01*
X446694Y-1617058D01*
X433595Y-1585434D01*
X412757Y-1558278D01*
X385601Y-1537440D01*
X379272Y-1534819D01*
Y-1513171D01*
X385601Y-1510549D01*
X412757Y-1489712D01*
X433595Y-1462556D01*
X438853Y-1449859D01*
X1074987D01*
X1080245Y-1462556D01*
X1101083Y-1489712D01*
X1128239Y-1510549D01*
X1134568Y-1513171D01*
Y-1534819D01*
X1128239Y-1537440D01*
X1101083Y-1558278D01*
X1080245Y-1585434D01*
X1067146Y-1617058D01*
X1062679Y-1650995D01*
X1067146Y-1684932D01*
X1080245Y-1716556D01*
X1101083Y-1743712D01*
X1128239Y-1764549D01*
X1159863Y-1777648D01*
X1193800Y-1782116D01*
X1227737Y-1777648D01*
X1259361Y-1764549D01*
X1286517Y-1743712D01*
X1307355Y-1716556D01*
X1320454Y-1684932D01*
X1324921Y-1650995D01*
X1320454Y-1617058D01*
X1307355Y-1585434D01*
X1286517Y-1558278D01*
X1259361Y-1537440D01*
X1253032Y-1534819D01*
Y-1513171D01*
X1259361Y-1510549D01*
X1286517Y-1489712D01*
X1307351Y-1462561D01*
X2675365D01*
X2696203Y-1489717D01*
X2723359Y-1510555D01*
X2729688Y-1513176D01*
Y-1534824D01*
X2723359Y-1537445D01*
X2696203Y-1558283D01*
X2675365Y-1585439D01*
X2662266Y-1617063D01*
X2657799Y-1651000D01*
X2662266Y-1684937D01*
X2675365Y-1716561D01*
X2696203Y-1743717D01*
X2723359Y-1764555D01*
X2754983Y-1777654D01*
X2788920Y-1782121D01*
X2822857Y-1777654D01*
X2854481Y-1764555D01*
X2881637Y-1743717D01*
X2902475Y-1716561D01*
X2915574Y-1684937D01*
X2920041Y-1651000D01*
X2915574Y-1617063D01*
X2902475Y-1585439D01*
X2881637Y-1558283D01*
X2854481Y-1537445D01*
X2848152Y-1534824D01*
Y-1513176D01*
X2854481Y-1510555D01*
X2881637Y-1489717D01*
X2902475Y-1462561D01*
X2915574Y-1430937D01*
X2920041Y-1397000D01*
X2915574Y-1363063D01*
X2902475Y-1331439D01*
X2881637Y-1304283D01*
X2866932Y-1293000D01*
X2873721Y-1273000D01*
X2918920D01*
Y-1013000D01*
X2658920D01*
Y-1062199D01*
X1323800D01*
Y-1012995D01*
X1063800D01*
Y-1062199D01*
X450040D01*
Y-1012995D01*
X190040D01*
Y-1067277D01*
X37314D01*
X-98484Y-931479D01*
X-112062Y-921060D01*
X-127874Y-914511D01*
X-144842Y-912277D01*
X-564726D01*
X-627639Y-849364D01*
X-618297Y-830422D01*
X-604520Y-832235D01*
X-573194Y-828111D01*
X-544002Y-816020D01*
X-518935Y-796785D01*
X-499700Y-771718D01*
X-487609Y-742526D01*
X-487606Y-742507D01*
X-467434D01*
X-467431Y-742526D01*
X-455340Y-771718D01*
X-436105Y-796785D01*
X-411038Y-816020D01*
X-381846Y-828111D01*
X-350520Y-832235D01*
X-319194Y-828111D01*
X-290002Y-816020D01*
X-264935Y-796785D01*
X-245700Y-771718D01*
X-233609Y-742526D01*
X-233606Y-742507D01*
X-213434D01*
X-213431Y-742526D01*
X-201340Y-771718D01*
X-182105Y-796785D01*
X-157038Y-816020D01*
X-127846Y-828111D01*
X-96520Y-832235D01*
X-65194Y-828111D01*
X-36002Y-816020D01*
X-10935Y-796785D01*
X8300Y-771718D01*
X20391Y-742526D01*
X20394Y-742507D01*
X40566D01*
X40569Y-742526D01*
X52660Y-771718D01*
X71895Y-796785D01*
X96962Y-816020D01*
X126154Y-828111D01*
X157480Y-832235D01*
X188806Y-828111D01*
X217998Y-816020D01*
X243065Y-796785D01*
X262300Y-771718D01*
X274391Y-742526D01*
X274394Y-742507D01*
X294566D01*
X294569Y-742526D01*
X306660Y-771718D01*
X325895Y-796785D01*
X350962Y-816020D01*
X380154Y-828111D01*
X411480Y-832235D01*
X442806Y-828111D01*
X471998Y-816020D01*
X497065Y-796785D01*
X516300Y-771718D01*
X528391Y-742526D01*
X528394Y-742507D01*
X548566D01*
X548569Y-742526D01*
X560660Y-771718D01*
X579895Y-796785D01*
X604962Y-816020D01*
X634154Y-828111D01*
X665480Y-832235D01*
X696806Y-828111D01*
X725998Y-816020D01*
X751065Y-796785D01*
X770300Y-771718D01*
X782391Y-742526D01*
X782394Y-742507D01*
X802566D01*
X802569Y-742526D01*
X814660Y-771718D01*
X833895Y-796785D01*
X858962Y-816020D01*
X888154Y-828111D01*
X919480Y-832235D01*
X950806Y-828111D01*
X979998Y-816020D01*
X1005065Y-796785D01*
X1024300Y-771718D01*
X1036391Y-742526D01*
X1036394Y-742507D01*
X1056566D01*
X1056569Y-742526D01*
X1068660Y-771718D01*
X1087895Y-796785D01*
X1112962Y-816020D01*
X1142154Y-828111D01*
X1173480Y-832235D01*
X1204806Y-828111D01*
X1233998Y-816020D01*
X1259065Y-796785D01*
X1278300Y-771718D01*
X1290391Y-742526D01*
X1290394Y-742507D01*
X1310566D01*
X1310569Y-742526D01*
X1322660Y-771718D01*
X1341895Y-796785D01*
X1366962Y-816020D01*
X1396154Y-828111D01*
X1427480Y-832235D01*
X1458806Y-828111D01*
X1487998Y-816020D01*
X1513065Y-796785D01*
X1532300Y-771718D01*
X1544391Y-742526D01*
X1544394Y-742504D01*
X1564567D01*
X1564569Y-742521D01*
X1576660Y-771712D01*
X1595895Y-796780D01*
X1620962Y-816015D01*
X1650154Y-828106D01*
X1681480Y-832230D01*
X1712806Y-828106D01*
X1741998Y-816015D01*
X1767065Y-796780D01*
X1786300Y-771712D01*
X1798391Y-742521D01*
X1798393Y-742504D01*
X1818566D01*
X1818569Y-742526D01*
X1830660Y-771718D01*
X1849895Y-796785D01*
X1874962Y-816020D01*
X1904154Y-828111D01*
X1935480Y-832235D01*
X1966806Y-828111D01*
X1995998Y-816020D01*
X2021065Y-796785D01*
X2040300Y-771718D01*
X2052391Y-742526D01*
X2052394Y-742507D01*
X2072566D01*
X2072569Y-742526D01*
X2084660Y-771718D01*
X2103895Y-796785D01*
X2128962Y-816020D01*
X2158154Y-828111D01*
X2189480Y-832235D01*
X2220806Y-828111D01*
X2249998Y-816020D01*
X2275065Y-796785D01*
X2294300Y-771718D01*
X2306391Y-742526D01*
X2310515Y-711200D01*
X2306391Y-679874D01*
X2294300Y-650682D01*
X2275065Y-625615D01*
X2250972Y-607128D01*
Y-518696D01*
X2274059Y-500981D01*
X2294897Y-473825D01*
X2307996Y-442201D01*
X2312463Y-408264D01*
X2307996Y-374327D01*
X2294897Y-342703D01*
X2274059Y-315547D01*
X2246903Y-294709D01*
X2215279Y-281610D01*
X2181342Y-277142D01*
X2147405Y-281610D01*
X2115781Y-294709D01*
X2088625Y-315547D01*
X2067788Y-342703D01*
X2065166Y-349032D01*
X2043518D01*
X2040897Y-342703D01*
X2020059Y-315547D01*
X1992903Y-294709D01*
X1961279Y-281610D01*
X1927342Y-277142D01*
X1893405Y-281610D01*
X1861781Y-294709D01*
X1834625Y-315547D01*
X1813788Y-342703D01*
X1811166Y-349032D01*
X1789518D01*
X1786897Y-342703D01*
X1766059Y-315547D01*
X1738903Y-294709D01*
X1707279Y-281610D01*
X1673342Y-277142D01*
X1639405Y-281610D01*
X1607781Y-294709D01*
X1580625Y-315547D01*
X1559788Y-342703D01*
X1557166Y-349032D01*
X1535518D01*
X1532897Y-342703D01*
X1512059Y-315547D01*
X1484903Y-294709D01*
X1453279Y-281610D01*
X1419342Y-277142D01*
X1385405Y-281610D01*
X1353781Y-294709D01*
X1326625Y-315547D01*
X1305788Y-342703D01*
X1303166Y-349032D01*
X1281518D01*
X1278897Y-342703D01*
X1258059Y-315547D01*
X1230903Y-294709D01*
X1199279Y-281610D01*
X1165342Y-277142D01*
X1131405Y-281610D01*
X1099781Y-294709D01*
X1072625Y-315547D01*
X1051788Y-342703D01*
X1049166Y-349032D01*
X1027518D01*
X1024897Y-342703D01*
X1004059Y-315547D01*
X976903Y-294709D01*
X945279Y-281610D01*
X911342Y-277142D01*
X877405Y-281610D01*
X845781Y-294709D01*
X818625Y-315547D01*
X797788Y-342703D01*
X795166Y-349032D01*
X773518D01*
X770897Y-342703D01*
X750059Y-315547D01*
X722903Y-294709D01*
X691279Y-281610D01*
X657342Y-277142D01*
X623405Y-281610D01*
X591781Y-294709D01*
X564625Y-315547D01*
X543788Y-342703D01*
X541166Y-349032D01*
X519518D01*
X516897Y-342703D01*
X496059Y-315547D01*
X468903Y-294709D01*
X437279Y-281610D01*
X403342Y-277142D01*
X369405Y-281610D01*
X337781Y-294709D01*
X310625Y-315547D01*
X289788Y-342703D01*
X287166Y-349032D01*
X265518D01*
X262897Y-342703D01*
X242059Y-315547D01*
X214903Y-294709D01*
X183279Y-281610D01*
X149342Y-277142D01*
X115405Y-281610D01*
X83781Y-294709D01*
X56625Y-315547D01*
X35788Y-342703D01*
X33166Y-349032D01*
X11518D01*
X8897Y-342703D01*
X-11941Y-315547D01*
X-39097Y-294709D01*
X-70721Y-281610D01*
X-82138Y-280107D01*
X-89306Y-258991D01*
X78998Y-90687D01*
X2850633D01*
Y-807720D01*
X2855216Y-830760D01*
X2868267Y-850293D01*
X2992727Y-974753D01*
X3012260Y-987804D01*
X3035300Y-992387D01*
X3514287D01*
X3761223Y-1239323D01*
Y-1364619D01*
X3741223Y-1382159D01*
X3726180Y-1380179D01*
X3692243Y-1384646D01*
X3660619Y-1397745D01*
X3633463Y-1418583D01*
X3612625Y-1445739D01*
X3599526Y-1477363D01*
X3595059Y-1511300D01*
X3599526Y-1545237D01*
X3612625Y-1576861D01*
X3633463Y-1604017D01*
X3660619Y-1624855D01*
X3692243Y-1637954D01*
X3726180Y-1642421D01*
X3760117Y-1637954D01*
X3791741Y-1624855D01*
X3818897Y-1604017D01*
X3839735Y-1576861D01*
X3842356Y-1570532D01*
X3864004D01*
X3866625Y-1576861D01*
X3887463Y-1604017D01*
X3914619Y-1624855D01*
X3946243Y-1637954D01*
X3980180Y-1642421D01*
X4014117Y-1637954D01*
X4045741Y-1624855D01*
X4072897Y-1604017D01*
X4084180Y-1589312D01*
X4104180Y-1596101D01*
Y-1641300D01*
X4364180D01*
Y-1381300D01*
X4304636D01*
Y941766D01*
X4301543Y965260D01*
X4292475Y987154D01*
X4278049Y1005954D01*
X4055234Y1228769D01*
X4036434Y1243195D01*
X4014540Y1252263D01*
X3991046Y1255356D01*
X3338018D01*
Y1288242D01*
X3078018D01*
Y1259176D01*
X2166620D01*
X2143125Y1256083D01*
X2121232Y1247015D01*
X2102431Y1232589D01*
X2088005Y1213788D01*
X2078937Y1191895D01*
X2075844Y1168400D01*
X2078937Y1144905D01*
X2088005Y1123012D01*
X2102431Y1104211D01*
X2121232Y1089785D01*
X2143125Y1080717D01*
X2166620Y1077624D01*
X3078018D01*
Y1028242D01*
X3338018D01*
Y1073804D01*
X3953445D01*
X4123084Y904165D01*
Y-1381300D01*
X4104180D01*
Y-1426499D01*
X4084180Y-1433288D01*
X4072897Y-1418583D01*
X4045741Y-1397745D01*
X4014117Y-1384646D01*
X3980180Y-1380179D01*
X3965137Y-1382159D01*
X3945137Y-1364619D01*
Y-1188082D01*
X3940554Y-1165042D01*
X3927503Y-1145510D01*
X3608100Y-826107D01*
X3588568Y-813056D01*
X3565528Y-808473D01*
X3086541D01*
X3034547Y-756479D01*
Y-26496D01*
X3029964Y-3456D01*
X3016913Y16077D01*
X2957397Y75593D01*
X2937864Y88644D01*
X2914824Y93227D01*
X27757D01*
X4717Y88644D01*
X-14816Y75593D01*
X-305981Y-215572D01*
X-319032Y-235105D01*
X-323615Y-258145D01*
Y-261583D01*
X-343615Y-279123D01*
X-358658Y-277142D01*
X-392595Y-281610D01*
X-424219Y-294709D01*
X-451375Y-315547D01*
X-472212Y-342703D01*
X-474834Y-349032D01*
X-496482D01*
X-499103Y-342703D01*
X-519941Y-315547D01*
X-547097Y-294709D01*
X-578721Y-281610D01*
X-612658Y-277142D01*
X-646595Y-281610D01*
X-678219Y-294709D01*
X-705375Y-315547D01*
X-726212Y-342703D01*
X-728834Y-349032D01*
X-750482D01*
X-753103Y-342703D01*
X-773941Y-315547D01*
X-801097Y-294709D01*
X-832721Y-281610D01*
X-866658Y-277142D01*
X-900595Y-281610D01*
X-932219Y-294709D01*
X-959375Y-315547D01*
X-980212Y-342703D01*
X-982834Y-349032D01*
X-1004482D01*
X-1007103Y-342703D01*
X-1027941Y-315547D01*
X-1055097Y-294709D01*
X-1086721Y-281610D01*
X-1120658Y-277142D01*
X-1154595Y-281610D01*
X-1186219Y-294709D01*
X-1213375Y-315547D01*
X-1234212Y-342703D01*
X-1236834Y-349032D01*
X-1258482D01*
X-1261103Y-342703D01*
X-1281941Y-315547D01*
X-1309097Y-294709D01*
X-1340721Y-281610D01*
X-1374658Y-277142D01*
X-1408595Y-281610D01*
X-1440219Y-294709D01*
X-1467375Y-315547D01*
X-1488212Y-342703D01*
X-1490834Y-349032D01*
X-1512482D01*
X-1515103Y-342703D01*
X-1535941Y-315547D01*
X-1563097Y-294709D01*
X-1594721Y-281610D01*
X-1628658Y-277142D01*
X-1662595Y-281610D01*
X-1694219Y-294709D01*
X-1721375Y-315547D01*
X-1742212Y-342703D01*
X-1744834Y-349032D01*
X-1766482D01*
X-1769103Y-342703D01*
X-1789941Y-315547D01*
X-1817097Y-294709D01*
X-1848721Y-281610D01*
X-1882658Y-277142D01*
X-1916595Y-281610D01*
X-1948219Y-294709D01*
X-1975375Y-315547D01*
X-1986658Y-330252D01*
X-2006658Y-323463D01*
Y-278264D01*
X-2266658D01*
Y-538264D01*
X-2194081D01*
Y-610250D01*
X-2214105Y-625615D01*
X-2233340Y-650682D01*
X-2245431Y-679874D01*
X-2249555Y-711200D01*
X-2245431Y-742526D01*
X-2233340Y-771718D01*
X-2214105Y-796785D01*
X-2189038Y-816020D01*
X-2159846Y-828111D01*
X-2128520Y-832235D01*
X-2097194Y-828111D01*
X-2068002Y-816020D01*
X-2042935Y-796785D01*
X-2023700Y-771718D01*
X-2011609Y-742526D01*
X-2011606Y-742507D01*
X-1991434D01*
X-1991431Y-742526D01*
X-1979340Y-771718D01*
X-1960105Y-796785D01*
X-1935038Y-816020D01*
X-1905846Y-828111D01*
X-1874520Y-832235D01*
X-1843194Y-828111D01*
X-1814002Y-816020D01*
X-1788935Y-796785D01*
X-1769700Y-771718D01*
X-1757609Y-742526D01*
X-1757606Y-742507D01*
X-1737434D01*
X-1737431Y-742526D01*
X-1725340Y-771718D01*
X-1706105Y-796785D01*
X-1681038Y-816020D01*
X-1651846Y-828111D01*
X-1620520Y-832235D01*
X-1589194Y-828111D01*
X-1560002Y-816020D01*
X-1534935Y-796785D01*
X-1515700Y-771718D01*
X-1503609Y-742526D01*
X-1503606Y-742507D01*
X-1483434D01*
X-1483431Y-742526D01*
X-1471340Y-771718D01*
X-1452105Y-796785D01*
X-1427038Y-816020D01*
X-1397846Y-828111D01*
X-1366520Y-832235D01*
X-1335194Y-828111D01*
X-1306002Y-816020D01*
X-1280935Y-796785D01*
X-1261700Y-771718D01*
X-1249609Y-742526D01*
X-1249606Y-742507D01*
X-1229434D01*
X-1229431Y-742526D01*
X-1217340Y-771718D01*
X-1198105Y-796785D01*
X-1173038Y-816020D01*
X-1143846Y-828111D01*
X-1112520Y-832235D01*
X-1081194Y-828111D01*
X-1052002Y-816020D01*
X-1026935Y-796785D01*
X-1007700Y-771718D01*
X-995609Y-742526D01*
X-995606Y-742507D01*
X-975434D01*
X-975431Y-742526D01*
X-963340Y-771718D01*
X-944105Y-796785D01*
X-919038Y-816020D01*
X-889846Y-828111D01*
X-858520Y-832235D01*
X-833496Y-828941D01*
X-638241Y-1024196D01*
X-624663Y-1034615D01*
X-608851Y-1041164D01*
X-591882Y-1043398D01*
X-452580D01*
Y-1067277D01*
X-835200D01*
Y-1013000D01*
X-1095200D01*
Y-1067279D01*
X-2012464D01*
X-2289019Y-790724D01*
Y-243056D01*
X-1677184Y368779D01*
X-108758D01*
X-91790Y371013D01*
X-75978Y377563D01*
X-62400Y387982D01*
X868425Y1318806D01*
X877405Y1315087D01*
X911342Y1310619D01*
X945279Y1315087D01*
X976903Y1328186D01*
X1004059Y1349023D01*
X1024897Y1376179D01*
X1027518Y1382508D01*
X1049166D01*
X1051788Y1376179D01*
X1072625Y1349023D01*
X1099781Y1328186D01*
X1131405Y1315087D01*
X1165342Y1310619D01*
X1199279Y1315087D01*
X1230903Y1328186D01*
X1258059Y1349023D01*
X1278897Y1376179D01*
X1281518Y1382508D01*
X1303166D01*
X1305788Y1376179D01*
X1326625Y1349023D01*
X1353781Y1328186D01*
X1385405Y1315087D01*
X1419342Y1310619D01*
X1453279Y1315087D01*
X1484903Y1328186D01*
X1512059Y1349023D01*
X1532897Y1376179D01*
X1535518Y1382508D01*
X1557166D01*
X1559788Y1376179D01*
X1580625Y1349023D01*
X1607781Y1328186D01*
X1639405Y1315087D01*
X1673342Y1310619D01*
X1707279Y1315087D01*
X1738903Y1328186D01*
X1766059Y1349023D01*
X1786897Y1376179D01*
X1789518Y1382508D01*
X1811166D01*
X1813788Y1376179D01*
X1834625Y1349023D01*
X1861781Y1328186D01*
X1893405Y1315087D01*
X1927342Y1310619D01*
X1961279Y1315087D01*
X1992903Y1328186D01*
X2020059Y1349023D01*
X2040897Y1376179D01*
X2043518Y1382508D01*
X2065166D01*
X2067788Y1376179D01*
X2088625Y1349023D01*
X2115781Y1328186D01*
X2147405Y1315087D01*
X2181342Y1310619D01*
X2215279Y1315087D01*
X2246903Y1328186D01*
X2274059Y1349023D01*
X2294897Y1376179D01*
X2297518Y1382508D01*
X2319166D01*
X2321788Y1376179D01*
X2342625Y1349023D01*
X2369781Y1328186D01*
X2401405Y1315087D01*
X2435342Y1310619D01*
X2469279Y1315087D01*
X2500903Y1328186D01*
X2528059Y1349023D01*
X2548897Y1376179D01*
X2551518Y1382508D01*
X2573166D01*
X2575788Y1376179D01*
X2596625Y1349023D01*
X2623781Y1328186D01*
X2655405Y1315087D01*
X2689342Y1310619D01*
X2723279Y1315087D01*
X2754903Y1328186D01*
X2782059Y1349023D01*
X2802897Y1376179D01*
X2815996Y1407803D01*
X2820463Y1441740D01*
X2815996Y1475677D01*
X2802897Y1507301D01*
X2782059Y1534457D01*
X2754903Y1555295D01*
X2723279Y1568394D01*
X2689342Y1572861D01*
X2655405Y1568394D01*
X2623781Y1555295D01*
X2596625Y1534457D01*
X2575788Y1507301D01*
X2573166Y1500972D01*
X2551518D01*
X2548897Y1507301D01*
X2528059Y1534457D01*
X2500903Y1555295D01*
X2469279Y1568394D01*
X2435342Y1572861D01*
X2401405Y1568394D01*
X2369781Y1555295D01*
X2342625Y1534457D01*
X2321788Y1507301D01*
X2319166Y1500972D01*
X2297518D01*
X2294897Y1507301D01*
X2274059Y1534457D01*
X2246903Y1555295D01*
X2215279Y1568394D01*
X2181342Y1572861D01*
X2147405Y1568394D01*
X2115781Y1555295D01*
X2088625Y1534457D01*
X2067788Y1507301D01*
X2065166Y1500972D01*
X2043518D01*
X2040897Y1507301D01*
X2020059Y1534457D01*
X1992903Y1555295D01*
X1961279Y1568394D01*
X1927342Y1572861D01*
X1893405Y1568394D01*
X1861781Y1555295D01*
X1834625Y1534457D01*
X1813788Y1507301D01*
X1811166Y1500972D01*
X1789518D01*
X1786897Y1507301D01*
X1766059Y1534457D01*
X1738903Y1555295D01*
X1707279Y1568394D01*
X1673342Y1572861D01*
X1639405Y1568394D01*
X1607781Y1555295D01*
X1580625Y1534457D01*
X1559788Y1507301D01*
X1557166Y1500972D01*
X1535518D01*
X1532897Y1507301D01*
X1512059Y1534457D01*
X1484903Y1555295D01*
X1453279Y1568394D01*
X1419342Y1572861D01*
X1385405Y1568394D01*
X1353781Y1555295D01*
X1326625Y1534457D01*
X1305788Y1507301D01*
X1303166Y1500972D01*
X1281518D01*
X1278897Y1507301D01*
X1258059Y1534457D01*
X1230903Y1555295D01*
X1199279Y1568394D01*
X1165342Y1572861D01*
X1131405Y1568394D01*
X1099781Y1555295D01*
X1072625Y1534457D01*
X1051788Y1507301D01*
X1049166Y1500972D01*
X1027518D01*
X1024897Y1507301D01*
X1004059Y1534457D01*
X976903Y1555295D01*
X967413Y1559225D01*
X965184Y1569104D01*
X966262Y1580989D01*
X966388Y1581298D01*
X969997Y1582792D01*
X986375Y1593736D01*
X989215Y1596576D01*
X992555Y1598808D01*
X1006484Y1612737D01*
X1008716Y1616077D01*
X1011556Y1618917D01*
X1022500Y1635295D01*
X1024037Y1639006D01*
X1026269Y1642346D01*
X1033807Y1660545D01*
X1034591Y1664485D01*
X1036128Y1668196D01*
X1039971Y1687516D01*
Y1691533D01*
X1040755Y1695472D01*
Y1715171D01*
X1039971Y1719110D01*
Y1723127D01*
X1036128Y1742447D01*
X1034591Y1746158D01*
X1033807Y1750098D01*
X1026269Y1768296D01*
X1024037Y1771637D01*
X1022500Y1775347D01*
X1011556Y1791726D01*
X1008716Y1794566D01*
X1006484Y1797906D01*
X992556Y1811835D01*
X989216Y1814066D01*
X986375Y1816907D01*
X969997Y1827850D01*
X966286Y1829388D01*
X962946Y1831619D01*
X960698Y1832550D01*
X960698Y1854198D01*
X977458Y1861140D01*
X1002525Y1880375D01*
X1021760Y1905442D01*
X1033851Y1934634D01*
X1033854Y1934653D01*
X1054026D01*
X1054029Y1934634D01*
X1066120Y1905442D01*
X1085355Y1880375D01*
X1110422Y1861140D01*
X1139614Y1849049D01*
X1170940Y1844925D01*
X1202266Y1849049D01*
X1231458Y1861140D01*
X1256525Y1880375D01*
X1275760Y1905442D01*
X1287851Y1934634D01*
X1287854Y1934653D01*
X1308026D01*
X1308029Y1934634D01*
X1320120Y1905442D01*
X1339355Y1880375D01*
X1364422Y1861140D01*
X1393614Y1849049D01*
X1424940Y1844925D01*
X1456266Y1849049D01*
X1485458Y1861140D01*
X1510525Y1880375D01*
X1529760Y1905442D01*
X1541851Y1934634D01*
X1541854Y1934656D01*
X1562027D01*
X1562029Y1934639D01*
X1574120Y1905448D01*
X1593355Y1880380D01*
X1618422Y1861145D01*
X1647614Y1849054D01*
X1678940Y1844930D01*
X1710266Y1849054D01*
X1739458Y1861145D01*
X1764525Y1880380D01*
X1783760Y1905448D01*
X1795851Y1934639D01*
X1795853Y1934656D01*
X1816026D01*
X1816029Y1934634D01*
X1828120Y1905442D01*
X1847355Y1880375D01*
X1872422Y1861140D01*
X1901614Y1849049D01*
X1932940Y1844925D01*
X1964266Y1849049D01*
X1993458Y1861140D01*
X2018525Y1880375D01*
X2037760Y1905442D01*
X2049851Y1934634D01*
X2049854Y1934653D01*
X2070026D01*
X2070029Y1934634D01*
X2082120Y1905442D01*
X2101355Y1880375D01*
X2126422Y1861140D01*
X2155614Y1849049D01*
X2186940Y1844925D01*
X2218266Y1849049D01*
X2247458Y1861140D01*
X2272525Y1880375D01*
X2291760Y1905442D01*
X2303851Y1934634D01*
X2303854Y1934653D01*
X2324026D01*
X2324029Y1934634D01*
X2336120Y1905442D01*
X2355355Y1880375D01*
X2380422Y1861140D01*
X2409614Y1849049D01*
X2440940Y1844925D01*
X2472266Y1849049D01*
X2501458Y1861140D01*
X2526525Y1880375D01*
X2545760Y1905442D01*
X2554940Y1927606D01*
X2574940Y1923628D01*
Y1845960D01*
X2814940D01*
Y2066003D01*
X2814940Y2085960D01*
X2834921Y2086004D01*
X2964679D01*
X3237811Y1812872D01*
X3256611Y1798446D01*
X3278505Y1789377D01*
X3301999Y1786284D01*
X3505792D01*
X3507281Y1784344D01*
X3534437Y1763506D01*
X3540766Y1760884D01*
Y1739237D01*
X3534437Y1736615D01*
X3507281Y1715777D01*
X3486444Y1688621D01*
X3473345Y1656997D01*
X3468877Y1623061D01*
X3473345Y1589124D01*
X3486444Y1557500D01*
X3507281Y1530344D01*
X3534437Y1509506D01*
X3566061Y1496407D01*
X3599998Y1491939D01*
X3633935Y1496407D01*
X3665559Y1509506D01*
X3692715Y1530344D01*
X3713553Y1557500D01*
X3726652Y1589124D01*
X3731120Y1623061D01*
X3726652Y1656997D01*
X3713553Y1688621D01*
X3692715Y1715777D01*
X3665559Y1736615D01*
X3659230Y1739237D01*
Y1760884D01*
X3665559Y1763506D01*
X3692715Y1784344D01*
X3694204Y1786284D01*
X3855792D01*
X3857281Y1784344D01*
X3884437Y1763506D01*
X3890766Y1760884D01*
Y1739237D01*
X3884437Y1736615D01*
X3857281Y1715777D01*
X3836443Y1688621D01*
X3823344Y1656997D01*
X3818876Y1623061D01*
X3823344Y1589124D01*
X3836443Y1557500D01*
X3857281Y1530344D01*
X3884437Y1509506D01*
X3916061Y1496407D01*
X3949997Y1491939D01*
X3983934Y1496407D01*
X4015558Y1509506D01*
X4042714Y1530344D01*
X4063552Y1557500D01*
X4076651Y1589124D01*
X4081119Y1623061D01*
X4076651Y1656997D01*
X4063552Y1688621D01*
X4042714Y1715777D01*
X4015558Y1736615D01*
X4009229Y1739237D01*
Y1760884D01*
X4015558Y1763506D01*
X4042714Y1784344D01*
X4063552Y1811500D01*
X4076651Y1843124D01*
X4081119Y1877061D01*
X4076651Y1910997D01*
X4063552Y1942621D01*
X4042714Y1969777D01*
X4015558Y1990615D01*
X3983934Y2003714D01*
X3949997Y2008182D01*
X3916061Y2003714D01*
X3884437Y1990615D01*
X3857281Y1969777D01*
X3855792Y1967837D01*
X3694204D01*
X3692715Y1969777D01*
X3665559Y1990615D01*
X3633935Y2003714D01*
X3599998Y2008182D01*
X3566061Y2003714D01*
X3534437Y1990615D01*
X3507281Y1969777D01*
X3505792Y1967837D01*
X3339600D01*
X3066469Y2240969D01*
X3047668Y2255395D01*
X3025775Y2264463D01*
X3002280Y2267556D01*
D02*
G37*
G36*
X-4000500Y1990402D02*
X-4034436Y1985934D01*
X-4066060Y1972835D01*
X-4093217Y1951997D01*
X-4114054Y1924841D01*
X-4127153Y1893217D01*
X-4131621Y1859281D01*
X-4127153Y1825344D01*
X-4114054Y1793720D01*
X-4093217Y1766564D01*
X-4066060Y1745726D01*
X-4059732Y1743104D01*
Y1721457D01*
X-4066060Y1718835D01*
X-4093217Y1697997D01*
X-4114054Y1670841D01*
X-4127153Y1639217D01*
X-4131621Y1605281D01*
X-4127153Y1571344D01*
X-4114054Y1539720D01*
X-4093217Y1512564D01*
X-4066060Y1491726D01*
X-4034436Y1478627D01*
X-4000500Y1474159D01*
X-3966563Y1478627D01*
X-3934939Y1491726D01*
X-3907783Y1512564D01*
X-3886945Y1539720D01*
X-3873846Y1571344D01*
X-3869378Y1605281D01*
X-3873846Y1639217D01*
X-3886945Y1670841D01*
X-3907783Y1697997D01*
X-3934939Y1718835D01*
X-3941268Y1721457D01*
Y1743104D01*
X-3934939Y1745726D01*
X-3907783Y1766564D01*
X-3886945Y1793720D01*
X-3873846Y1825344D01*
X-3869378Y1859281D01*
X-3873846Y1893217D01*
X-3886945Y1924841D01*
X-3907783Y1951997D01*
X-3934939Y1972835D01*
X-3966563Y1985934D01*
X-4000500Y1990402D01*
D02*
G37*
G36*
X-4434516Y2091418D02*
X-4454215D01*
X-4458154Y2090635D01*
X-4462171D01*
X-4481491Y2086792D01*
X-4485202Y2085255D01*
X-4489142Y2084471D01*
X-4507340Y2076933D01*
X-4510681Y2074701D01*
X-4514392Y2073164D01*
X-4530770Y2062220D01*
X-4533610Y2059380D01*
X-4536950Y2057148D01*
X-4550879Y2043219D01*
X-4553111Y2039880D01*
X-4555951Y2037039D01*
X-4566894Y2020661D01*
X-4568432Y2016950D01*
X-4570663Y2013610D01*
X-4578202Y1995411D01*
X-4578986Y1991471D01*
X-4580522Y1987760D01*
X-4584365Y1968440D01*
Y1964424D01*
X-4585149Y1960484D01*
Y1940786D01*
X-4584365Y1936846D01*
Y1932830D01*
X-4580522Y1913510D01*
X-4578986Y1909799D01*
X-4578202Y1905859D01*
X-4570663Y1887660D01*
X-4568431Y1884319D01*
X-4566894Y1880609D01*
X-4555951Y1864230D01*
X-4553111Y1861390D01*
X-4550879Y1858050D01*
X-4536950Y1844121D01*
X-4533610Y1841890D01*
X-4530770Y1839049D01*
X-4526062Y1835903D01*
X-4529899Y1814414D01*
X-4534292Y1813359D01*
X-4576464Y1795891D01*
X-4615385Y1772040D01*
X-4650095Y1742395D01*
X-4679740Y1707685D01*
X-4703591Y1668764D01*
X-4721059Y1626592D01*
X-4731715Y1582206D01*
X-4735297Y1536700D01*
X-4731715Y1491194D01*
X-4721059Y1446808D01*
X-4703591Y1404636D01*
X-4679740Y1365715D01*
X-4650095Y1331005D01*
X-4615385Y1301360D01*
X-4576464Y1277509D01*
X-4534292Y1260041D01*
X-4489906Y1249385D01*
X-4444400Y1245803D01*
X-4398894Y1249385D01*
X-4354508Y1260041D01*
X-4312336Y1277509D01*
X-4273415Y1301360D01*
X-4238705Y1331005D01*
X-4209060Y1365715D01*
X-4185209Y1404636D01*
X-4167741Y1446808D01*
X-4157085Y1491194D01*
X-4153504Y1536700D01*
X-4157085Y1582206D01*
X-4167741Y1626592D01*
X-4185209Y1668764D01*
X-4209060Y1707685D01*
X-4238705Y1742395D01*
X-4273415Y1772040D01*
X-4312336Y1795891D01*
X-4354508Y1813359D01*
X-4358850Y1814402D01*
X-4362688Y1835891D01*
X-4357961Y1839050D01*
X-4355121Y1841890D01*
X-4351781Y1844121D01*
X-4337852Y1858050D01*
X-4335620Y1861390D01*
X-4332780Y1864230D01*
X-4321836Y1880609D01*
X-4320299Y1884320D01*
X-4318067Y1887660D01*
X-4310529Y1905859D01*
X-4309746Y1909798D01*
X-4308208Y1913509D01*
X-4304365Y1932829D01*
Y1936846D01*
X-4303582Y1940786D01*
Y1960484D01*
X-4304365Y1964424D01*
Y1968441D01*
X-4308208Y1987760D01*
X-4309746Y1991472D01*
X-4310529Y1995411D01*
X-4318067Y2013610D01*
X-4320299Y2016950D01*
X-4321836Y2020661D01*
X-4332780Y2037039D01*
X-4335620Y2039879D01*
X-4337852Y2043219D01*
X-4351781Y2057148D01*
X-4355121Y2059380D01*
X-4357961Y2062220D01*
X-4374339Y2073164D01*
X-4378050Y2074701D01*
X-4381391Y2076933D01*
X-4399589Y2084471D01*
X-4403529Y2085255D01*
X-4407240Y2086792D01*
X-4426560Y2090635D01*
X-4430577D01*
X-4434516Y2091418D01*
D02*
G37*
G36*
X725189Y1002154D02*
X705491D01*
X701551Y1001371D01*
X697534D01*
X678214Y997528D01*
X674503Y995991D01*
X670564Y995207D01*
X652365Y987669D01*
X649024Y985437D01*
X645314Y983900D01*
X628935Y972956D01*
X626095Y970116D01*
X622755Y967884D01*
X608826Y953955D01*
X606595Y950616D01*
X603754Y947775D01*
X592811Y931397D01*
X591274Y927686D01*
X589042Y924346D01*
X581504Y906147D01*
X580720Y902207D01*
X579183Y898496D01*
X575340Y879176D01*
Y875160D01*
X574556Y871220D01*
Y851522D01*
X575340Y847582D01*
Y843565D01*
X579183Y824246D01*
X580720Y820535D01*
X581504Y816595D01*
X589042Y798396D01*
X591274Y795055D01*
X592811Y791345D01*
X603755Y774966D01*
X606595Y772126D01*
X608826Y768786D01*
X622755Y754857D01*
X626095Y752626D01*
X628935Y749785D01*
X645314Y738842D01*
X649025Y737305D01*
X652365Y735073D01*
X670564Y727534D01*
X674504Y726751D01*
X678215Y725214D01*
X697535Y721371D01*
X701551D01*
X705491Y720587D01*
X725189D01*
X729129Y721371D01*
X733145D01*
X752465Y725214D01*
X756176Y726751D01*
X760116Y727534D01*
X778315Y735073D01*
X781656Y737305D01*
X785366Y738842D01*
X801744Y749786D01*
X804584Y752626D01*
X807924Y754857D01*
X821853Y768786D01*
X824085Y772126D01*
X826925Y774966D01*
X837869Y791345D01*
X839406Y795056D01*
X841638Y798396D01*
X849176Y816595D01*
X849960Y820534D01*
X851497Y824245D01*
X855340Y843565D01*
Y847582D01*
X856124Y851522D01*
Y871220D01*
X855340Y875160D01*
Y879177D01*
X851497Y898496D01*
X849960Y902207D01*
X849176Y906147D01*
X841638Y924346D01*
X839406Y927686D01*
X837869Y931397D01*
X826925Y947775D01*
X824085Y950615D01*
X821853Y953955D01*
X807924Y967884D01*
X804585Y970116D01*
X801744Y972956D01*
X785366Y983900D01*
X781655Y985437D01*
X778315Y987669D01*
X760116Y995207D01*
X756177Y995991D01*
X752465Y997528D01*
X733146Y1001371D01*
X729129D01*
X725189Y1002154D01*
D02*
G37*
G36*
X3208018Y781363D02*
X3174082Y776896D01*
X3142458Y763797D01*
X3115301Y742959D01*
X3094464Y715803D01*
X3081365Y684179D01*
X3076897Y650242D01*
X3081365Y616305D01*
X3094464Y584681D01*
X3115301Y557525D01*
X3142458Y536688D01*
X3148786Y534066D01*
Y512418D01*
X3142458Y509797D01*
X3115301Y488959D01*
X3094464Y461803D01*
X3081365Y430179D01*
X3076897Y396242D01*
X3081365Y362305D01*
X3094464Y330681D01*
X3115301Y303525D01*
X3142458Y282688D01*
X3148786Y280066D01*
Y258418D01*
X3142458Y255797D01*
X3115301Y234959D01*
X3094464Y207803D01*
X3081365Y176179D01*
X3076897Y142242D01*
X3081365Y108305D01*
X3094464Y76681D01*
X3115301Y49525D01*
X3142458Y28688D01*
X3148786Y26066D01*
Y4418D01*
X3142458Y1797D01*
X3115301Y-19041D01*
X3094464Y-46197D01*
X3081365Y-77821D01*
X3076897Y-111758D01*
X3081365Y-145695D01*
X3094464Y-177319D01*
X3115301Y-204475D01*
X3142458Y-225312D01*
X3148786Y-227934D01*
Y-249582D01*
X3142458Y-252203D01*
X3115301Y-273041D01*
X3094464Y-300197D01*
X3081365Y-331821D01*
X3076897Y-365758D01*
X3081365Y-399695D01*
X3094464Y-431319D01*
X3115301Y-458475D01*
X3142458Y-479312D01*
X3148786Y-481934D01*
Y-503582D01*
X3142458Y-506203D01*
X3115301Y-527041D01*
X3094464Y-554197D01*
X3081365Y-585821D01*
X3076897Y-619758D01*
X3081365Y-653695D01*
X3094464Y-685319D01*
X3115301Y-712475D01*
X3142458Y-733312D01*
X3174082Y-746412D01*
X3208018Y-750879D01*
X3241955Y-746412D01*
X3273579Y-733312D01*
X3300735Y-712475D01*
X3321573Y-685319D01*
X3334672Y-653695D01*
X3339140Y-619758D01*
X3334672Y-585821D01*
X3321573Y-554197D01*
X3300735Y-527041D01*
X3273579Y-506203D01*
X3267250Y-503582D01*
Y-481934D01*
X3273579Y-479312D01*
X3300735Y-458475D01*
X3321573Y-431319D01*
X3334672Y-399695D01*
X3339140Y-365758D01*
X3334672Y-331821D01*
X3321573Y-300197D01*
X3300735Y-273041D01*
X3273579Y-252203D01*
X3267250Y-249582D01*
Y-227934D01*
X3273579Y-225312D01*
X3300735Y-204475D01*
X3321573Y-177319D01*
X3334672Y-145695D01*
X3339140Y-111758D01*
X3334672Y-77821D01*
X3321573Y-46197D01*
X3300735Y-19041D01*
X3273579Y1797D01*
X3267250Y4418D01*
Y26066D01*
X3273579Y28688D01*
X3300735Y49525D01*
X3321573Y76681D01*
X3334672Y108305D01*
X3339140Y142242D01*
X3334672Y176179D01*
X3321573Y207803D01*
X3300735Y234959D01*
X3273579Y255797D01*
X3267250Y258418D01*
Y280066D01*
X3273579Y282688D01*
X3300735Y303525D01*
X3321573Y330681D01*
X3334672Y362305D01*
X3339140Y396242D01*
X3334672Y430179D01*
X3321573Y461803D01*
X3300735Y488959D01*
X3273579Y509797D01*
X3267250Y512418D01*
Y534066D01*
X3273579Y536688D01*
X3300735Y557525D01*
X3321573Y584681D01*
X3334672Y616305D01*
X3339140Y650242D01*
X3334672Y684179D01*
X3321573Y715803D01*
X3300735Y742959D01*
X3273579Y763797D01*
X3241955Y776896D01*
X3208018Y781363D01*
D02*
G37*
G36*
X2689342Y-277142D02*
X2655405Y-281610D01*
X2623781Y-294709D01*
X2596625Y-315547D01*
X2575788Y-342703D01*
X2562689Y-374327D01*
X2558221Y-408264D01*
X2562689Y-442201D01*
X2575788Y-473825D01*
X2596625Y-500981D01*
X2623781Y-521818D01*
Y-591200D01*
X2577480D01*
Y-831200D01*
X2817480D01*
Y-591200D01*
X2754903D01*
Y-521818D01*
X2782059Y-500981D01*
X2802897Y-473825D01*
X2815996Y-442201D01*
X2820463Y-408264D01*
X2815996Y-374327D01*
X2802897Y-342703D01*
X2782059Y-315547D01*
X2754903Y-294709D01*
X2723279Y-281610D01*
X2689342Y-277142D01*
D02*
G37*
G36*
X-4500880Y-74508D02*
X-4530901Y-78460D01*
X-4558876Y-90048D01*
X-4582899Y-108481D01*
X-4601332Y-132504D01*
X-4612920Y-160479D01*
X-4616872Y-190500D01*
X-4616036Y-196851D01*
X-4616872Y-203199D01*
Y-444498D01*
X-4616872Y-444500D01*
X-4616872Y-444502D01*
Y-849823D01*
X-4612920Y-879844D01*
X-4601332Y-907819D01*
X-4582899Y-931841D01*
X-3677348Y-1837392D01*
X-3675998Y-1847648D01*
X-3661891Y-1881705D01*
X-3639451Y-1910950D01*
X-3610205Y-1933391D01*
X-3576149Y-1947497D01*
X-3539602Y-1952309D01*
X-3503054Y-1947497D01*
X-3468998Y-1933391D01*
X-3439752Y-1910950D01*
X-3432790Y-1901877D01*
X-3043660D01*
Y-1924581D01*
X-2818660D01*
Y-1729580D01*
Y-1690621D01*
X-2777960D01*
Y-1726040D01*
X-2550960D01*
Y-1530040D01*
X-2777960D01*
Y-1559499D01*
X-2818660D01*
Y-1514580D01*
X-3043660D01*
Y-1720324D01*
X-3432790D01*
X-3439752Y-1711252D01*
X-3468998Y-1688811D01*
X-3503054Y-1674704D01*
X-3513310Y-1673354D01*
X-4384888Y-801777D01*
Y-444500D01*
Y-203199D01*
X-4385724Y-196849D01*
X-4384888Y-190500D01*
X-4388840Y-160479D01*
X-4400428Y-132504D01*
X-4418861Y-108481D01*
X-4442884Y-90048D01*
X-4470859Y-78460D01*
X-4500880Y-74508D01*
D02*
G37*
G36*
X4455484Y-1808581D02*
X4435785D01*
X4431846Y-1809365D01*
X4427829D01*
X4408509Y-1813208D01*
X4404798Y-1814745D01*
X4400858Y-1815529D01*
X4382660Y-1823067D01*
X4379319Y-1825299D01*
X4375608Y-1826836D01*
X4359230Y-1837780D01*
X4356390Y-1840620D01*
X4353050Y-1842852D01*
X4339121Y-1856780D01*
X4336889Y-1860120D01*
X4334049Y-1862960D01*
X4323106Y-1879339D01*
X4321568Y-1883050D01*
X4319337Y-1886390D01*
X4311798Y-1904589D01*
X4311014Y-1908529D01*
X4309478Y-1912240D01*
X4305635Y-1931560D01*
Y-1935576D01*
X4304851Y-1939516D01*
Y-1959214D01*
X4305635Y-1963154D01*
Y-1967170D01*
X4309478Y-1986490D01*
X4311014Y-1990201D01*
X4311798Y-1994141D01*
X4319337Y-2012340D01*
X4321569Y-2015681D01*
X4323106Y-2019391D01*
X4334049Y-2035770D01*
X4336889Y-2038610D01*
X4339121Y-2041949D01*
X4353050Y-2055879D01*
X4356390Y-2058110D01*
X4359230Y-2060950D01*
X4375608Y-2071894D01*
X4379319Y-2073431D01*
X4382660Y-2075663D01*
X4400858Y-2083201D01*
X4404799Y-2083985D01*
X4408510Y-2085522D01*
X4427829Y-2089365D01*
X4431846D01*
X4435785Y-2090148D01*
X4455484D01*
X4459423Y-2089365D01*
X4463440D01*
X4482760Y-2085522D01*
X4486471Y-2083985D01*
X4490411Y-2083201D01*
X4508610Y-2075663D01*
X4511950Y-2073431D01*
X4515661Y-2071894D01*
X4532039Y-2060950D01*
X4534879Y-2058110D01*
X4538219Y-2055879D01*
X4552148Y-2041950D01*
X4554380Y-2038610D01*
X4557220Y-2035770D01*
X4568164Y-2019391D01*
X4569701Y-2015680D01*
X4571933Y-2012340D01*
X4579471Y-1994141D01*
X4580254Y-1990202D01*
X4581792Y-1986491D01*
X4585635Y-1967171D01*
Y-1963154D01*
X4586418Y-1959214D01*
Y-1939516D01*
X4585635Y-1935576D01*
Y-1931559D01*
X4581792Y-1912240D01*
X4580254Y-1908528D01*
X4579471Y-1904589D01*
X4571933Y-1886390D01*
X4569701Y-1883049D01*
X4568164Y-1879339D01*
X4557220Y-1862960D01*
X4554380Y-1860120D01*
X4552148Y-1856781D01*
X4538219Y-1842852D01*
X4534879Y-1840620D01*
X4532039Y-1837780D01*
X4515661Y-1826836D01*
X4511950Y-1825299D01*
X4508609Y-1823067D01*
X4490411Y-1815529D01*
X4486471Y-1814745D01*
X4482760Y-1813208D01*
X4463440Y-1809365D01*
X4459423D01*
X4455484Y-1808581D01*
D02*
G37*
G36*
X-4434516Y-1810022D02*
X-4454215D01*
X-4458154Y-1810805D01*
X-4462171D01*
X-4481491Y-1814648D01*
X-4485202Y-1816185D01*
X-4489142Y-1816969D01*
X-4507340Y-1824507D01*
X-4510681Y-1826739D01*
X-4514392Y-1828276D01*
X-4530770Y-1839220D01*
X-4533610Y-1842060D01*
X-4536950Y-1844292D01*
X-4550879Y-1858221D01*
X-4553111Y-1861560D01*
X-4555951Y-1864401D01*
X-4566894Y-1880779D01*
X-4568432Y-1884490D01*
X-4570663Y-1887830D01*
X-4578202Y-1906029D01*
X-4578986Y-1909969D01*
X-4580522Y-1913680D01*
X-4584365Y-1933000D01*
Y-1937016D01*
X-4585149Y-1940956D01*
Y-1960654D01*
X-4584365Y-1964594D01*
Y-1968610D01*
X-4580522Y-1987930D01*
X-4578986Y-1991641D01*
X-4578202Y-1995581D01*
X-4570663Y-2013780D01*
X-4568431Y-2017121D01*
X-4566894Y-2020831D01*
X-4555951Y-2037210D01*
X-4553111Y-2040050D01*
X-4550879Y-2043390D01*
X-4536950Y-2057319D01*
X-4533610Y-2059550D01*
X-4530770Y-2062391D01*
X-4514392Y-2073334D01*
X-4510681Y-2074871D01*
X-4507340Y-2077103D01*
X-4489142Y-2084642D01*
X-4485201Y-2085425D01*
X-4481490Y-2086962D01*
X-4462171Y-2090805D01*
X-4458154D01*
X-4454215Y-2091589D01*
X-4434516D01*
X-4430577Y-2090805D01*
X-4426560D01*
X-4407240Y-2086962D01*
X-4403529Y-2085425D01*
X-4399589Y-2084642D01*
X-4381390Y-2077103D01*
X-4378050Y-2074871D01*
X-4374339Y-2073334D01*
X-4357961Y-2062390D01*
X-4355121Y-2059550D01*
X-4351781Y-2057319D01*
X-4337852Y-2043390D01*
X-4335620Y-2040050D01*
X-4332780Y-2037210D01*
X-4321836Y-2020831D01*
X-4320299Y-2017120D01*
X-4318067Y-2013780D01*
X-4310529Y-1995581D01*
X-4309746Y-1991642D01*
X-4308208Y-1987931D01*
X-4304365Y-1968611D01*
Y-1964594D01*
X-4303582Y-1960654D01*
Y-1940956D01*
X-4304365Y-1937016D01*
Y-1932999D01*
X-4308208Y-1913680D01*
X-4309746Y-1909968D01*
X-4310529Y-1906029D01*
X-4318067Y-1887830D01*
X-4320299Y-1884489D01*
X-4321836Y-1880779D01*
X-4332780Y-1864401D01*
X-4335620Y-1861561D01*
X-4337852Y-1858221D01*
X-4351781Y-1844292D01*
X-4355121Y-1842060D01*
X-4357961Y-1839220D01*
X-4374339Y-1828276D01*
X-4378050Y-1826739D01*
X-4381391Y-1824507D01*
X-4399589Y-1816969D01*
X-4403529Y-1816185D01*
X-4407240Y-1814648D01*
X-4426560Y-1810805D01*
X-4430577D01*
X-4434516Y-1810022D01*
D02*
G37*
G36*
X724400Y-1829275D02*
X704702D01*
X700762Y-1830059D01*
X696745D01*
X677425Y-1833902D01*
X673714Y-1835439D01*
X669775Y-1836222D01*
X651576Y-1843761D01*
X648235Y-1845993D01*
X644525Y-1847530D01*
X628146Y-1858474D01*
X625306Y-1861314D01*
X621966Y-1863545D01*
X608037Y-1877474D01*
X605806Y-1880814D01*
X602966Y-1883654D01*
X592022Y-1900033D01*
X590485Y-1903743D01*
X588253Y-1907084D01*
X580715Y-1925282D01*
X579931Y-1929223D01*
X578394Y-1932934D01*
X574551Y-1952253D01*
Y-1956270D01*
X573767Y-1960209D01*
Y-1979908D01*
X574551Y-1983847D01*
Y-1987864D01*
X578394Y-2007184D01*
X579931Y-2010895D01*
X580715Y-2014835D01*
X588253Y-2033034D01*
X590485Y-2036374D01*
X592022Y-2040085D01*
X602966Y-2056463D01*
X605806Y-2059303D01*
X608037Y-2062643D01*
X621966Y-2076572D01*
X625306Y-2078804D01*
X628146Y-2081644D01*
X644525Y-2092588D01*
X648236Y-2094125D01*
X651576Y-2096357D01*
X669775Y-2103895D01*
X673715Y-2104679D01*
X677426Y-2106216D01*
X696746Y-2110059D01*
X700762D01*
X704702Y-2110842D01*
X724400D01*
X728340Y-2110059D01*
X732356D01*
X751676Y-2106216D01*
X755387Y-2104679D01*
X759327Y-2103895D01*
X777526Y-2096357D01*
X780867Y-2094125D01*
X784577Y-2092588D01*
X800955Y-2081644D01*
X803795Y-2078804D01*
X807135Y-2076572D01*
X821064Y-2062643D01*
X823296Y-2059303D01*
X826136Y-2056463D01*
X837080Y-2040085D01*
X838617Y-2036374D01*
X840849Y-2033034D01*
X848387Y-2014835D01*
X849171Y-2010895D01*
X850708Y-2007184D01*
X854551Y-1987864D01*
Y-1983847D01*
X855335Y-1979908D01*
Y-1960209D01*
X854551Y-1956270D01*
Y-1952253D01*
X850708Y-1932933D01*
X849171Y-1929222D01*
X848387Y-1925282D01*
X840849Y-1907084D01*
X838617Y-1903743D01*
X837080Y-1900033D01*
X826136Y-1883654D01*
X823296Y-1880814D01*
X821064Y-1877474D01*
X807136Y-1863545D01*
X803796Y-1861314D01*
X800955Y-1858473D01*
X784577Y-1847530D01*
X780866Y-1845992D01*
X777526Y-1843761D01*
X759327Y-1836222D01*
X755388Y-1835439D01*
X751676Y-1833902D01*
X732357Y-1830059D01*
X728340D01*
X724400Y-1829275D01*
D02*
G37*
%LPD*%
G36*
X-1689802Y2066004D02*
X-1708645Y2051545D01*
X-1727880Y2026478D01*
X-1739971Y1997286D01*
X-1744095Y1965960D01*
X-1739971Y1934634D01*
X-1727880Y1905442D01*
X-1708645Y1880375D01*
X-1683578Y1861140D01*
X-1654386Y1849049D01*
X-1623060Y1844925D01*
X-1591734Y1849049D01*
X-1562542Y1861140D01*
X-1537475Y1880375D01*
X-1518240Y1905442D01*
X-1506149Y1934634D01*
X-1506146Y1934653D01*
X-1485974D01*
X-1485971Y1934634D01*
X-1473880Y1905442D01*
X-1454645Y1880375D01*
X-1429578Y1861140D01*
X-1400386Y1849049D01*
X-1369060Y1844925D01*
X-1337734Y1849049D01*
X-1308542Y1861140D01*
X-1283475Y1880375D01*
X-1264240Y1905442D01*
X-1252149Y1934634D01*
X-1252146Y1934653D01*
X-1231974D01*
X-1231971Y1934634D01*
X-1219880Y1905442D01*
X-1200645Y1880375D01*
X-1175578Y1861140D01*
X-1146386Y1849049D01*
X-1115060Y1844925D01*
X-1083734Y1849049D01*
X-1054542Y1861140D01*
X-1029475Y1880375D01*
X-1010240Y1905442D01*
X-998149Y1934634D01*
X-998146Y1934653D01*
X-977974D01*
X-977971Y1934634D01*
X-965880Y1905442D01*
X-946645Y1880375D01*
X-924127Y1863096D01*
X-924138Y1853064D01*
X-927643Y1842005D01*
X-935651Y1840412D01*
X-939362Y1838875D01*
X-943302Y1838091D01*
X-961500Y1830553D01*
X-964841Y1828321D01*
X-968552Y1826784D01*
X-984930Y1815840D01*
X-987770Y1813000D01*
X-991110Y1810768D01*
X-1005039Y1796839D01*
X-1007271Y1793500D01*
X-1010111Y1790659D01*
X-1021054Y1774281D01*
X-1022592Y1770570D01*
X-1024823Y1767230D01*
X-1032362Y1749031D01*
X-1033146Y1745091D01*
X-1034682Y1741380D01*
X-1038525Y1722060D01*
Y1718044D01*
X-1039309Y1714104D01*
Y1694406D01*
X-1038525Y1690466D01*
Y1686450D01*
X-1034682Y1667130D01*
X-1033146Y1663419D01*
X-1032362Y1659479D01*
X-1024823Y1641280D01*
X-1022591Y1637939D01*
X-1021054Y1634229D01*
X-1010111Y1617850D01*
X-1007271Y1615010D01*
X-1005039Y1611670D01*
X-991110Y1597741D01*
X-987770Y1595510D01*
X-984930Y1592669D01*
X-968552Y1581726D01*
X-964841Y1580189D01*
X-961500Y1577957D01*
X-944640Y1570973D01*
X-940789Y1561868D01*
X-939514Y1557532D01*
X-939581Y1552249D01*
X-940378Y1549034D01*
X-959375Y1534457D01*
X-980212Y1507301D01*
X-982835Y1500969D01*
X-1004483D01*
X-1007103Y1507296D01*
X-1027941Y1534452D01*
X-1055097Y1555289D01*
X-1086721Y1568389D01*
X-1120658Y1572856D01*
X-1154595Y1568389D01*
X-1186219Y1555289D01*
X-1213375Y1534452D01*
X-1234212Y1507296D01*
X-1236833Y1500969D01*
X-1258481D01*
X-1261103Y1507301D01*
X-1281941Y1534457D01*
X-1309097Y1555295D01*
X-1340721Y1568394D01*
X-1374658Y1572861D01*
X-1408595Y1568394D01*
X-1440219Y1555295D01*
X-1467375Y1534457D01*
X-1488212Y1507301D01*
X-1490834Y1500972D01*
X-1512482D01*
X-1515103Y1507301D01*
X-1535941Y1534457D01*
X-1563097Y1555295D01*
X-1594721Y1568394D01*
X-1628658Y1572861D01*
X-1662595Y1568394D01*
X-1694219Y1555295D01*
X-1721375Y1534457D01*
X-1742212Y1507301D01*
X-1755311Y1475677D01*
X-1759779Y1441740D01*
X-1755311Y1407803D01*
X-1742212Y1376179D01*
X-1721375Y1349023D01*
X-1694219Y1328186D01*
X-1662595Y1315087D01*
X-1628658Y1310619D01*
X-1594721Y1315087D01*
X-1563097Y1328186D01*
X-1535941Y1349023D01*
X-1515103Y1376179D01*
X-1512482Y1382508D01*
X-1490834D01*
X-1488212Y1376179D01*
X-1467375Y1349023D01*
X-1440219Y1328186D01*
X-1408595Y1315087D01*
X-1374658Y1310619D01*
X-1340721Y1315087D01*
X-1309097Y1328186D01*
X-1281941Y1349023D01*
X-1261103Y1376179D01*
X-1258483Y1382506D01*
X-1236835D01*
X-1234212Y1376174D01*
X-1213375Y1349018D01*
X-1186219Y1328180D01*
X-1154595Y1315081D01*
X-1120658Y1310614D01*
X-1086721Y1315081D01*
X-1055097Y1328180D01*
X-1027941Y1349018D01*
X-1007103Y1376174D01*
X-1004481Y1382506D01*
X-982833D01*
X-980212Y1376179D01*
X-959375Y1349023D01*
X-932219Y1328186D01*
X-900595Y1315087D01*
X-866658Y1310619D01*
X-832721Y1315087D01*
X-801097Y1328186D01*
X-773941Y1349023D01*
X-753103Y1376179D01*
X-750482Y1382508D01*
X-728834D01*
X-726212Y1376179D01*
X-705375Y1349023D01*
X-678219Y1328186D01*
X-646595Y1315087D01*
X-612658Y1310619D01*
X-578721Y1315087D01*
X-547097Y1328186D01*
X-519941Y1349023D01*
X-499103Y1376179D01*
X-496482Y1382508D01*
X-474834D01*
X-472212Y1376179D01*
X-451375Y1349023D01*
X-424219Y1328186D01*
X-392595Y1315087D01*
X-358658Y1310619D01*
X-324721Y1315087D01*
X-293097Y1328186D01*
X-265941Y1349023D01*
X-245103Y1376179D01*
X-242482Y1382508D01*
X-220834D01*
X-218212Y1376179D01*
X-197375Y1349023D01*
X-170219Y1328186D01*
X-138595Y1315087D01*
X-104658Y1310619D01*
X-70721Y1315087D01*
X-39097Y1328186D01*
X-11941Y1349023D01*
X8897Y1376179D01*
X11518Y1382508D01*
X33166D01*
X35788Y1376179D01*
X56625Y1349023D01*
X83781Y1328186D01*
X115405Y1315087D01*
X149342Y1310619D01*
X183279Y1315087D01*
X214903Y1328186D01*
X242059Y1349023D01*
X262897Y1376179D01*
X265518Y1382508D01*
X287166D01*
X289788Y1376179D01*
X310625Y1349023D01*
X337781Y1328186D01*
X369405Y1315087D01*
X393778Y1311878D01*
X401064Y1290879D01*
X-234974Y654841D01*
X-1821459D01*
X-1838427Y652607D01*
X-1854239Y646057D01*
X-1867817Y635639D01*
X-2517778Y-14323D01*
X-2528197Y-27901D01*
X-2534747Y-43713D01*
X-2536981Y-60681D01*
Y-117175D01*
X-2556981Y-123964D01*
X-2568861Y-108481D01*
X-2592884Y-90048D01*
X-2620859Y-78460D01*
X-2650880Y-74508D01*
X-2658669Y-75533D01*
X-3055684Y321482D01*
Y1768504D01*
X-2626359D01*
X-2602865Y1771597D01*
X-2580971Y1780666D01*
X-2562171Y1795092D01*
X-2271259Y2086004D01*
X-2204591D01*
X-2197802Y2066004D01*
X-2216645Y2051545D01*
X-2235880Y2026478D01*
X-2247971Y1997286D01*
X-2252095Y1965960D01*
X-2247971Y1934634D01*
X-2235880Y1905442D01*
X-2216645Y1880375D01*
X-2191578Y1861140D01*
X-2162386Y1849049D01*
X-2131060Y1844925D01*
X-2099734Y1849049D01*
X-2070542Y1861140D01*
X-2045475Y1880375D01*
X-2026240Y1905442D01*
X-2014149Y1934634D01*
X-2010025Y1965960D01*
X-2014149Y1997286D01*
X-2026240Y2026478D01*
X-2045475Y2051545D01*
X-2064318Y2066004D01*
X-2057529Y2086004D01*
X-1696591D01*
X-1689802Y2066004D01*
D02*
G37*
%LPC*%
G36*
X-2006658Y1571740D02*
X-2266658D01*
Y1311740D01*
X-2006658D01*
Y1571740D01*
D02*
G37*
G36*
X-1065511Y1001844D02*
X-1085209D01*
X-1089149Y1001060D01*
X-1093166D01*
X-1112486Y997217D01*
X-1116197Y995680D01*
X-1120136Y994896D01*
X-1138335Y987358D01*
X-1141676Y985126D01*
X-1145386Y983589D01*
X-1161765Y972645D01*
X-1164605Y969805D01*
X-1167945Y967573D01*
X-1181874Y953645D01*
X-1184105Y950305D01*
X-1186946Y947464D01*
X-1197889Y931086D01*
X-1199426Y927375D01*
X-1201658Y924035D01*
X-1209196Y905836D01*
X-1209980Y901896D01*
X-1211517Y898185D01*
X-1215360Y878865D01*
Y874849D01*
X-1216144Y870909D01*
Y851211D01*
X-1215360Y847271D01*
Y843255D01*
X-1211517Y823935D01*
X-1209980Y820224D01*
X-1209196Y816284D01*
X-1201658Y798085D01*
X-1199426Y794744D01*
X-1197889Y791034D01*
X-1186945Y774655D01*
X-1184105Y771815D01*
X-1181874Y768475D01*
X-1167945Y754546D01*
X-1164605Y752315D01*
X-1161765Y749474D01*
X-1145386Y738531D01*
X-1141675Y736994D01*
X-1138335Y734762D01*
X-1120136Y727224D01*
X-1116196Y726440D01*
X-1112485Y724903D01*
X-1093165Y721060D01*
X-1089149D01*
X-1085209Y720276D01*
X-1065511D01*
X-1061571Y721060D01*
X-1057555D01*
X-1038235Y724903D01*
X-1034524Y726440D01*
X-1030584Y727224D01*
X-1012385Y734762D01*
X-1009044Y736994D01*
X-1005334Y738531D01*
X-988956Y749475D01*
X-986116Y752315D01*
X-982776Y754546D01*
X-968847Y768475D01*
X-966615Y771815D01*
X-963775Y774655D01*
X-952831Y791034D01*
X-951294Y794745D01*
X-949062Y798085D01*
X-941524Y816284D01*
X-940740Y820223D01*
X-939203Y823934D01*
X-935360Y843254D01*
Y847271D01*
X-934576Y851211D01*
Y870909D01*
X-935360Y874849D01*
Y878866D01*
X-939203Y898185D01*
X-940740Y901897D01*
X-941524Y905836D01*
X-949062Y924035D01*
X-951294Y927376D01*
X-952831Y931086D01*
X-963775Y947464D01*
X-966615Y950304D01*
X-968847Y953644D01*
X-982776Y967573D01*
X-986115Y969805D01*
X-988956Y972645D01*
X-1005334Y983589D01*
X-1009045Y985126D01*
X-1012385Y987358D01*
X-1030584Y994896D01*
X-1034523Y995680D01*
X-1038235Y997217D01*
X-1057554Y1001060D01*
X-1061571D01*
X-1065511Y1001844D01*
D02*
G37*
%LPD*%
D10*
X-2687320Y-982880D02*
D03*
X-2664460Y-1806040D02*
D03*
Y-1628040D02*
D03*
X-2687320Y-1160880D02*
D03*
D11*
X3512820Y1004580D02*
D03*
Y1164580D02*
D03*
D12*
X-2931160Y-1622080D02*
D03*
Y-1817081D02*
D03*
X-2938780Y-1166840D02*
D03*
Y-971839D02*
D03*
D13*
X325117Y-1127760D02*
X1193800D01*
X-3539602Y-1311097D02*
X-3519738Y-1330960D01*
X-2501900D01*
X-2687320Y-982880D02*
X-2654320Y-1015880D01*
X-4500880Y701040D02*
X-4485640Y685800D01*
X-2654320Y-1015880D02*
X-2565979D01*
X-2650880Y955500D02*
X-1978200D01*
X-1875038Y1058662D01*
Y1434120D01*
X-4500880Y701040D02*
Y701500D01*
Y955500D01*
Y959518D01*
X-2664460Y-1806040D02*
X-2496920D01*
X-2481580Y-1790700D01*
X-2501900Y-1330960D02*
X-2481580Y-1351280D01*
Y-1790700D02*
Y-1351280D01*
X-2565979Y-1015880D02*
X-2479040Y-1102819D01*
X-2501900Y-1330960D02*
X-2479040Y-1308100D01*
Y-1102819D01*
X-2667440Y-1625060D02*
X-2664460Y-1628040D01*
X-2928180Y-1625060D02*
X-2667440D01*
X-2931160Y-1622080D02*
X-2928180Y-1625060D01*
X10158Y-1132837D02*
X320040D01*
X-144842Y-977838D02*
X10158Y-1132837D01*
X-591882Y-977838D02*
X-144842D01*
X332736Y-1384299D02*
X1191261D01*
X320040Y-1396995D02*
X332736Y-1384299D01*
X1209040Y-1397000D02*
X2788920D01*
X1193800Y-1381760D02*
X1209040Y-1397000D01*
X1191261Y-1384299D02*
X1193800Y-1381760D01*
X2773680Y-1127760D02*
X2788920Y-1143000D01*
X1193800Y-1127760D02*
X2773680D01*
X-965197Y-1132837D02*
X-322580D01*
X-858520Y-711200D02*
X-591882Y-977838D01*
X-2354580Y-215900D02*
X-1704340Y434340D01*
X-2354580Y-817880D02*
Y-215900D01*
X-1704340Y434340D02*
X-108758D01*
X-2354580Y-817880D02*
X-2039620Y-1132840D01*
X-965200D01*
X898642Y1441740D02*
X911342D01*
X-108758Y434340D02*
X898642Y1441740D01*
X-612658Y-703062D02*
Y-408264D01*
Y-703062D02*
X-604520Y-711200D01*
X-2471420Y-927100D02*
X-2011680Y-1386840D01*
X-965200D01*
X-2471420Y-927100D02*
Y-60681D01*
X-1821459Y589280D01*
X-207818D01*
X644642Y1441740D02*
X657342D01*
X-207818Y589280D02*
X644642Y1441740D01*
X-322581Y-1386839D02*
X-322580Y-1386837D01*
X-965199Y-1386839D02*
X-322581D01*
X-965200Y-1386840D02*
X-965199Y-1386839D01*
X1169411Y-707131D02*
X1173480Y-711200D01*
X1169411Y-707131D02*
Y-412333D01*
X1165342Y-408264D02*
X1169411Y-412333D01*
X1423411Y-707131D02*
X1427480Y-711200D01*
X1423411Y-707131D02*
Y-412333D01*
X1419342Y-408264D02*
X1423411Y-412333D01*
X2689342Y-703062D02*
Y-408264D01*
Y-703062D02*
X2697480Y-711200D01*
X1673342Y-408264D02*
X1677411Y-412333D01*
Y-707126D02*
Y-412333D01*
Y-707126D02*
X1681480Y-711195D01*
X-2128520Y-711200D02*
Y-416402D01*
X-2136658Y-408264D02*
X-2128520Y-416402D01*
X911342Y-408264D02*
X915411Y-412333D01*
Y-707131D02*
Y-412333D01*
Y-707131D02*
X919480Y-711200D01*
X2181342Y-408264D02*
X2185411Y-412333D01*
Y-707131D02*
Y-412333D01*
Y-707131D02*
X2189480Y-711200D01*
X-1120658Y-408264D02*
X-1116589Y-412333D01*
Y-707131D02*
Y-412333D01*
Y-707131D02*
X-1112520Y-711200D01*
X657342Y-408264D02*
X661411Y-412333D01*
Y-707131D02*
Y-412333D01*
Y-707131D02*
X665480Y-711200D01*
X-1374658Y-408264D02*
X-1370589Y-412333D01*
Y-707131D02*
Y-412333D01*
Y-707131D02*
X-1366520Y-711200D01*
X-1628658Y-408264D02*
X-1624589Y-412333D01*
Y-707131D02*
Y-412333D01*
Y-707131D02*
X-1620520Y-711200D01*
X-1882658Y-408264D02*
X-1878589Y-412333D01*
Y-707131D02*
Y-412333D01*
Y-707131D02*
X-1874520Y-711200D01*
D14*
X-4127500Y-723198D02*
Y327660D01*
X-3156621Y1859281D02*
X-2626359D01*
X-2308860Y2176780D01*
X3002280D01*
X-3612723Y1859281D02*
X-3156621D01*
X-3146460Y1849120D01*
Y283881D02*
Y1849120D01*
X-3649998Y1859281D02*
X-3612723D01*
X3214356Y1164580D02*
X3991046D01*
X4213860Y941766D01*
X3197860Y1168400D02*
X3208018Y1158242D01*
X2166620Y1168400D02*
X3197860D01*
X4213860Y-1490980D02*
X4234180Y-1511300D01*
X4213860Y-1490980D02*
Y941766D01*
X3002280Y2176780D02*
X3301999Y1877061D01*
X-2650880Y-211699D02*
Y-190500D01*
X-3539602Y-1811101D02*
X-2930632D01*
X-2938780Y-732400D02*
X-2650880Y-444500D01*
X-2938780Y-971839D02*
Y-732400D01*
X-2646680Y-444500D02*
Y-215899D01*
X-2650880Y-211699D02*
X-2646680Y-215899D01*
X-3146460Y283881D02*
X-2661480Y-201100D01*
X3301999Y1877061D02*
X3599998D01*
X3899998D01*
D15*
X-199908Y-316011D02*
Y-284447D01*
X-263408Y-258145D02*
X27757Y33020D01*
X54060Y-30480D02*
X2888522D01*
X-263408Y-316011D02*
Y-258145D01*
X-199908Y-284447D02*
X54060Y-30480D01*
X27757Y33020D02*
X2914824D01*
X-199908Y-316011D02*
X-107655Y-408264D01*
X3061602Y-868680D02*
X3565528D01*
X3884930Y-1188082D01*
Y-1416050D02*
Y-1188082D01*
Y-1416050D02*
X3980180Y-1511300D01*
X3539225Y-932180D02*
X3821430Y-1214385D01*
Y-1416050D02*
Y-1214385D01*
X3726180Y-1511300D02*
X3821430Y-1416050D01*
X3035300Y-932180D02*
X3539225D01*
X2974340Y-781418D02*
X3061602Y-868680D01*
X2974340Y-781418D02*
Y-26496D01*
X2914824Y33020D02*
X2974340Y-26496D01*
X-355661Y-408264D02*
X-263408Y-316011D01*
X-358658Y-408264D02*
X-355661D01*
X2910840Y-807720D02*
X3035300Y-932180D01*
X2910840Y-807720D02*
Y-52798D01*
X2888522Y-30480D02*
X2910840Y-52798D01*
X-107655Y-408264D02*
X-104658D01*
X-100589Y-412333D01*
Y-707131D02*
Y-412333D01*
Y-707131D02*
X-96520Y-711200D01*
X-358658Y-408264D02*
X-354589Y-412333D01*
Y-707131D02*
Y-412333D01*
Y-707131D02*
X-350520Y-711200D01*
X149342Y-408264D02*
X153411Y-412333D01*
Y-707131D02*
Y-412333D01*
Y-707131D02*
X157480Y-711200D01*
X403342Y-408264D02*
X407411Y-412333D01*
Y-707131D02*
Y-412333D01*
Y-707131D02*
X411480Y-711200D01*
D16*
X-4500880Y-444500D02*
Y-203199D01*
Y-849823D02*
X-3539602Y-1811101D01*
X-4500880Y-849823D02*
Y-444500D01*
D17*
X-2690300Y-1163860D02*
X-2687320Y-1160880D01*
X-2935800Y-1163860D02*
X-2690300D01*
X-2938780Y-1166840D02*
X-2935800Y-1163860D01*
D18*
X1927342Y-408264D02*
X1931411Y-412333D01*
Y-707131D02*
Y-412333D01*
Y-707131D02*
X1935480Y-711200D01*
D19*
X-3539602Y-1311097D02*
D03*
D20*
X-965200Y-1905000D02*
D03*
X320040Y-1904995D02*
D03*
X-322580D02*
D03*
X-1882658Y1441740D02*
D03*
X1193800Y-1904995D02*
D03*
X2788920Y-1905000D02*
D03*
X3472180Y-1511300D02*
D03*
X2435342Y-408264D02*
D03*
X3208018Y904242D02*
D03*
Y-365758D02*
D03*
Y-111758D02*
D03*
Y142242D02*
D03*
Y396242D02*
D03*
Y650242D02*
D03*
Y-619758D02*
D03*
X1193800Y-1650995D02*
D03*
Y-1396995D02*
D03*
X-965200Y-1651000D02*
D03*
Y-1397000D02*
D03*
X320040Y-1650995D02*
D03*
Y-1396995D02*
D03*
X-322580D02*
D03*
Y-1650995D02*
D03*
X-866658Y-408264D02*
D03*
X911342Y1441740D02*
D03*
X-612658Y-408264D02*
D03*
X2788920Y-1397000D02*
D03*
Y-1651000D02*
D03*
X657342Y1441740D02*
D03*
X1165342Y-408264D02*
D03*
X1419342D02*
D03*
X3980180Y-1511300D02*
D03*
X3726180D02*
D03*
X2181342Y-408264D02*
D03*
X1927342D02*
D03*
X911342D02*
D03*
X403342D02*
D03*
X-104658D02*
D03*
X-1120658D02*
D03*
X-1628658D02*
D03*
X-1882658D02*
D03*
X-1374658D02*
D03*
X-358658D02*
D03*
X149342D02*
D03*
X657342D02*
D03*
X1673342D02*
D03*
X2689342D02*
D03*
X-3649998Y1605281D02*
D03*
Y1859281D02*
D03*
X-4000500Y1605281D02*
D03*
Y1859281D02*
D03*
X2689342Y1441740D02*
D03*
X2435342D02*
D03*
X1673342D02*
D03*
X1419342D02*
D03*
X149342D02*
D03*
X-358658D02*
D03*
X-866658D02*
D03*
X-1374658D02*
D03*
X-1628658D02*
D03*
X-1120658Y1441735D02*
D03*
X-612658Y1441740D02*
D03*
X-104658D02*
D03*
X403342D02*
D03*
X1165342D02*
D03*
X1927342D02*
D03*
X2181342D02*
D03*
X3599998Y1623061D02*
D03*
Y1877061D02*
D03*
X3949997D02*
D03*
Y1623061D02*
D03*
D21*
X-4500880Y701500D02*
D03*
Y955500D02*
D03*
X-2650880D02*
D03*
Y701500D02*
D03*
X-4500880Y-190500D02*
D03*
Y-444500D02*
D03*
X-2650880D02*
D03*
Y-190500D02*
D03*
D22*
X-3649998Y2113281D02*
D03*
X-4000500D02*
D03*
X3599998Y2131061D02*
D03*
X3949997D02*
D03*
X3208018Y1158242D02*
D03*
X4234180Y-1511300D02*
D03*
D23*
X-1877060Y1965960D02*
D03*
X2443480Y-711200D02*
D03*
X-858520D02*
D03*
X916940Y1965960D02*
D03*
X-604520Y-711200D02*
D03*
X662940Y1965960D02*
D03*
X1173480Y-711200D02*
D03*
X1427480D02*
D03*
X-2128520D02*
D03*
X-1874520D02*
D03*
X-1112520D02*
D03*
X-96520D02*
D03*
X411480D02*
D03*
X919480D02*
D03*
X1935480D02*
D03*
X2189480D02*
D03*
X1681480Y-711195D02*
D03*
X665480Y-711200D02*
D03*
X157480D02*
D03*
X-350520D02*
D03*
X-1366520D02*
D03*
X-1620520D02*
D03*
X-2131060Y1965960D02*
D03*
X-1115060D02*
D03*
X-861060D02*
D03*
X-99060D02*
D03*
X408940D02*
D03*
X1424940D02*
D03*
X1932940D02*
D03*
X2440940D02*
D03*
X2186940D02*
D03*
X1678940Y1965965D02*
D03*
X1170940Y1965960D02*
D03*
X154940D02*
D03*
X-353060D02*
D03*
X-607060D02*
D03*
X-1369060D02*
D03*
X-1623060D02*
D03*
D24*
X1193800Y-1142995D02*
D03*
X-965200Y-1143000D02*
D03*
X320040Y-1142995D02*
D03*
X-322580D02*
D03*
X2788920Y-1143000D02*
D03*
X-2136658Y-408264D02*
D03*
Y1441740D02*
D03*
D25*
X-3539602Y-1811101D02*
D03*
D26*
X2697480Y-711200D02*
D03*
X2694940Y1965960D02*
D03*
D27*
X4445600Y1536700D02*
D03*
X-4444400D02*
D03*
D28*
X2166620Y1168400D02*
D03*
%TF.MD5,7c56b1e0d5dfaf3f2aaa7248791ccccf*%
M02*
